<svg xmlns="http://www.w3.org/2000/svg" width="1545" height="952" viewBox="0 0 1545 952">
  <g fill="none" fill-rule="evenodd">
    <g stroke="#FFC45D" transform="translate(4)">
      <path d="M0.5,0.489208633 L0.5,951.510791 M88.5,0.489208633 L88.5,951.510791 M176.5,0.489208633 L176.5,951.510791 M264.5,0.489208633 L264.5,951.510791 M352.5,0.489208633 L352.5,951.510791 M440.5,0.489208633 L440.5,951.510791 M528.5,0.489208633 L528.5,951.510791 M616.5,0.489208633 L616.5,951.510791 M704.5,0.489208633 L704.5,951.510791 M792.5,0.489208633 L792.5,951.510791 M880.5,0.489208633 L880.5,951.510791 M968.5,0.489208633 L968.5,951.510791 M1056.5,0.489208633 L1056.5,951.510791 M1144.5,0.489208633 L1144.5,951.510791 M1232.5,0.489208633 L1232.5,951.510791 M1320.5,0.489208633 L1320.5,951.510791 M1408.5,0.489208633 L1408.5,951.510791 M1496.5,0.489208633 L1496.5,951.510791" opacity=".2"/>
      <path d="M44.5,0.489208633 L44.5,951.510791 M132.5,0.489208633 L132.5,951.510791 M220.5,0.489208633 L220.5,951.510791 M308.5,0.489208633 L308.5,951.510791 M396.5,0.489208633 L396.5,951.510791 M484.5,0.489208633 L484.5,951.510791 M572.5,0.489208633 L572.5,951.510791 M660.5,0.489208633 L660.5,951.510791 M748.5,0.489208633 L748.5,951.510791 M836.5,0.489208633 L836.5,951.510791 M924.5,0.489208633 L924.5,951.510791 M1012.5,0.489208633 L1012.5,951.510791 M1100.5,0.489208633 L1100.5,951.510791 M1188.5,0.489208633 L1188.5,951.510791 M1276.5,0.489208633 L1276.5,951.510791 M1364.5,0.489208633 L1364.5,951.510791 M1452.5,0.489208633 L1452.5,951.510791 M1540.5,0.489208633 L1540.5,951.510791" opacity=".1"/>
    </g>
    <g transform="translate(0 198)">
      <path stroke="#FFC45D" stroke-dasharray="3 3" d="M4.5,414.5 L92.5,494.5 L180.5,534.5 L268.5,484.5 L356.5,514.5 L444.5,424.5 L532.5,444.5 L620.5,484.5 L708.5,414.5 L796.5,364.5 L884.5,444.5 L972.5,324.5 L1060.5,294.5 L1148.5,314.5 L1236.5,214.5 L1324.5,184.5 L1412.5,124.5 L1500.5,4.5"/>
      <circle cx="4.5" cy="414.5" r="4.5" fill="#FFC45D"/>
      <circle cx="92.5" cy="494.5" r="4.5" fill="#FFC45D"/>
      <circle cx="180.5" cy="534.5" r="4.5" fill="#FFC45D"/>
      <circle cx="268.5" cy="484.5" r="4.5" fill="#FFC45D"/>
      <circle cx="356.5" cy="514.5" r="4.5" fill="#FFC45D"/>
      <circle cx="444.5" cy="424.5" r="4.5" fill="#FFC45D"/>
      <circle cx="532.5" cy="444.5" r="4.5" fill="#FFC45D"/>
      <circle cx="620.5" cy="484.5" r="4.5" fill="#FFC45D"/>
      <circle cx="708.5" cy="414.5" r="4.5" fill="#FFC45D"/>
      <circle cx="796.5" cy="364.5" r="4.5" fill="#FFC45D"/>
      <circle cx="884.5" cy="444.5" r="4.5" fill="#FFC45D"/>
      <circle cx="972.5" cy="324.5" r="4.5" fill="#FFC45D"/>
      <circle cx="1060.5" cy="294.5" r="4.5" fill="#FFC45D"/>
      <circle cx="1148.5" cy="314.5" r="4.5" fill="#FFC45D"/>
      <circle cx="1236.5" cy="214.5" r="4.5" fill="#FFC45D"/>
      <circle cx="1324.5" cy="184.5" r="4.5" fill="#FFC45D"/>
      <circle cx="1412.5" cy="124.5" r="4.5" fill="#FFC45D"/>
      <circle cx="1500.5" cy="4.5" r="4.5" fill="#FFC45D"/>
    </g>
    <g transform="translate(0 268)">
      <path stroke="#EC3939" stroke-dasharray="3 3" d="M4.5,414.5 L92.5,454.5 L180.5,534.5 L268.5,434.5 L356.5,424.5 L444.5,364.5 L532.5,424.5 L620.5,444.5 L708.5,494.5 L796.5,364.5 L884.5,384.5 L972.5,294.5 L1060.5,264.5 L1148.5,364.5 L1236.5,184.5 L1324.5,94.5 L1412.5,74.5 L1500.5,4.5"/>
      <circle cx="4.5" cy="414.5" r="4.5" fill="#EC3939"/>
      <circle cx="92.5" cy="454.5" r="4.5" fill="#EC3939"/>
      <circle cx="180.5" cy="534.5" r="4.5" fill="#EC3939"/>
      <circle cx="268.5" cy="434.5" r="4.5" fill="#EC3939"/>
      <circle cx="356.5" cy="424.5" r="4.5" fill="#EC3939"/>
      <circle cx="444.5" cy="364.5" r="4.5" fill="#EC3939"/>
      <circle cx="532.5" cy="424.5" r="4.5" fill="#EC3939"/>
      <circle cx="620.5" cy="444.5" r="4.5" fill="#EC3939"/>
      <circle cx="708.5" cy="494.5" r="4.5" fill="#EC3939"/>
      <circle cx="796.5" cy="364.5" r="4.5" fill="#EC3939"/>
      <circle cx="884.5" cy="384.5" r="4.5" fill="#EC3939"/>
      <circle cx="972.5" cy="294.5" r="4.5" fill="#EC3939"/>
      <circle cx="1060.5" cy="264.5" r="4.5" fill="#EC3939"/>
      <circle cx="1148.5" cy="364.5" r="4.5" fill="#EC3939"/>
      <circle cx="1236.5" cy="184.5" r="4.5" fill="#EC3939"/>
      <circle cx="1324.5" cy="94.5" r="4.5" fill="#EC3939"/>
      <circle cx="1412.5" cy="74.5" r="4.5" fill="#EC3939"/>
      <circle cx="1500.5" cy="4.5" r="4.5" fill="#EC3939"/>
    </g>
  </g>
</svg>
