<?xml version="1.0" encoding="UTF-8"?>
<svg xmlns:xlink="http://www.w3.org/1999/xlink" width="42px" height="52px" viewBox="0 0 42 52" version="1.1" xmlns="http://www.w3.org/2000/svg">
    <!-- Generator: Sketch 64 (93537) - https://sketch.com -->
    <title>ico_commission</title>
    <desc>Created with Sketch.</desc>
    <g id="Page-1" stroke="none" stroke-width="1" fill="none" fill-rule="evenodd">
        <g id="main" transform="translate(-889.000000, -2863.000000)">
            <g id="section" transform="translate(370.000000, 2691.000000)">
                <g id="wrap-benefit" transform="translate(0.000000, 149.000000)">
                    <g id="li" transform="translate(440.000000, 8.000000)">
                        <g id="ico_commission" transform="translate(74.000000, 15.000000)">
                            <rect id="bound" x="0" y="0" width="52" height="52"></rect>
                            <g id="ico" transform="translate(6.000000, 1.000000)">
                                <path d="M40,38.2301029 C40,52.22846 31.046002,49.8464225 20.0007897,49.8464225 C8.95557749,49.8464225 0,52.22846 0,38.2301029 C0,28.6721272 4.17607006,20.3496256 10.3419017,16.0322393 C10.5263158,15.9788065 30,15.9788065 29.8024322,16.1334425 C35.8891987,20.4788299 40,28.7462769 40,38.2301029 Z" id="Stroke-3" stroke="#111111" stroke-width="2" stroke-linecap="round" stroke-linejoin="round"></path>
                                <path d="M29.3773978,1.44111019 L29.3773978,1.44111019 C27.4664304,3.36140434 24.3701001,3.36140434 22.4591326,1.44111019 C20.5481651,-0.480370063 17.4518349,-0.480370063 15.5408674,1.44111019 L15.5393036,1.44111019 C13.6298999,3.36140434 10.5320058,3.36140434 8.62260217,1.44111019 C7.36843203,0.181473135 5.60602585,-0.246708575 4,0.147076266 L10.2176814,10 L27.7807548,10 L34,0.147076266 C32.3955379,-0.246708575 30.631568,0.181473135 29.3773978,1.44111019 Z" id="Stroke-7" stroke="#111111" stroke-width="2" stroke-linecap="round" stroke-linejoin="round"></path>
                                <path d="M28.573617,16 L10.4249566,16 C9.08552468,16 8,14.6556895 8,12.9991179 C8,11.3425463 9.08552468,10 10.4249566,10 L28.573617,10 C29.9130489,10 31,11.3425463 31,12.9991179 C31,14.6556895 29.9130489,16 28.573617,16 Z" id="Stroke-21" stroke="#111111" stroke-width="2" fill="#F7667D" stroke-linecap="round" stroke-linejoin="round"></path>
                                <path d="M12.3903809,38 L12.3903809,27.3212891 L12.1633301,27.3212891 L7.74682617,28.9033203 L7.74682617,30.6245117 L10.2736816,29.8408203 L10.2736816,38 L12.3903809,38 Z M16.7463379,38.0805664 C17.0979004,38.0805664 17.3859863,37.9768066 17.6105957,37.7692871 C17.8352051,37.5617676 17.9475098,37.2919922 17.9475098,36.9599609 C17.9475098,36.6230469 17.8339844,36.3496094 17.6069336,36.1396484 C17.3798828,35.9296875 17.0930176,35.824707 16.7463379,35.824707 C16.404541,35.824707 16.1201172,35.9296875 15.8930664,36.1396484 C15.6660156,36.3496094 15.5524902,36.6230469 15.5524902,36.9599609 C15.5524902,37.2919922 15.6647949,37.5617676 15.8894043,37.7692871 C16.1140137,37.9768066 16.3996582,38.0805664 16.7463379,38.0805664 Z M22.9772949,38.1464844 C23.6706543,38.1464844 24.2919922,37.9902344 24.8413086,37.6777344 C25.390625,37.3652344 25.8154297,36.9282227 26.1157227,36.3666992 C26.4160156,35.8051758 26.5661621,35.1777344 26.5661621,34.484375 C26.5661621,33.4003906 26.2927246,32.5263672 25.7458496,31.8623047 C25.1989746,31.1982422 24.4616699,30.8662109 23.5339355,30.8662109 C22.6696777,30.8662109 21.9543457,31.1542969 21.3879395,31.7304688 C21.505127,30.8710938 21.8554688,30.199707 22.4389648,29.7163086 C23.0224609,29.2329102 23.7927246,28.9838867 24.7497559,28.9692383 L24.7497559,28.9692383 L24.954834,28.9692383 L24.954834,27.2260742 L24.6032715,27.2260742 C23.5241699,27.230957 22.5756836,27.4763184 21.7578125,27.9621582 C20.9399414,28.447998 20.3125,29.1340332 19.8754883,30.0202637 C19.4384766,30.9064941 19.2199707,31.9282227 19.2199707,33.0854492 L19.2199707,33.0854492 L19.2199707,33.847168 C19.2199707,35.1508789 19.5654297,36.1933594 20.2563477,36.9746094 C20.9472656,37.7558594 21.854248,38.1464844 22.9772949,38.1464844 Z M22.9333496,36.4399414 C22.4304199,36.4399414 22.0397949,36.2409668 21.7614746,35.8430176 C21.4831543,35.4450684 21.3439941,34.8920898 21.3439941,34.184082 L21.3439941,34.184082 L21.3439941,33.5395508 C21.4758301,33.246582 21.6809082,33.0109863 21.9592285,32.8327637 C22.2375488,32.654541 22.5476074,32.5654297 22.8894043,32.5654297 C23.3679199,32.5654297 23.7487793,32.7436523 24.0319824,33.1000977 C24.3151855,33.456543 24.4567871,33.925293 24.4567871,34.5063477 C24.4567871,35.0776367 24.3164062,35.5427246 24.0356445,35.9016113 C23.7548828,36.260498 23.3874512,36.4399414 22.9333496,36.4399414 Z M28.6052246,34.09375 C29.064209,34.09375 29.4353027,33.9602865 29.7185059,33.6933594 C30.001709,33.4264323 30.1433105,33.0732422 30.1433105,32.6337891 L30.1433105,32.6337891 L30.1433105,32.2822266 C30.1433105,31.8232422 30.001709,31.4594727 29.7185059,31.190918 C29.4353027,30.9223633 29.0609538,30.7880859 28.595459,30.7880859 C28.1364746,30.7880859 27.7653809,30.9239909 27.4821777,31.1958008 C27.1989746,31.4676107 27.057373,31.8216146 27.057373,32.2578125 L27.057373,32.2578125 L27.057373,32.6044922 C27.057373,33.0602214 27.1997884,33.4223633 27.4846191,33.690918 C27.7694499,33.9594727 28.142985,34.09375 28.6052246,34.09375 Z M28.8835449,37.4677734 L32.3552246,31.9111328 L31.666748,31.5400391 L28.1950684,37.0966797 L28.8835449,37.4677734 Z M28.6052246,33.2832031 C28.4229329,33.2832031 28.2756348,33.2237956 28.1633301,33.1049805 C28.0510254,32.9861654 27.994873,32.8291016 27.994873,32.6337891 L27.994873,32.6337891 L27.994873,32.2773438 C27.994873,32.0657552 28.0502116,31.9005534 28.1608887,31.7817383 C28.2715658,31.6629232 28.4164225,31.6035156 28.595459,31.6035156 C28.7842611,31.6035156 28.932373,31.663737 29.0397949,31.7841797 C29.1472168,31.9046224 29.2009277,32.0625 29.2009277,32.2578125 L29.2009277,32.2578125 L29.2009277,32.6191406 C29.2009277,32.8209635 29.1472168,32.9820964 29.0397949,33.1025391 C28.932373,33.2229818 28.7875163,33.2832031 28.6052246,33.2832031 Z M32.0085449,38.0976562 C32.4740397,38.0976562 32.8467611,37.9633789 33.126709,37.6948242 C33.4066569,37.4262695 33.5466309,37.0738932 33.5466309,36.6376953 L33.5466309,36.6376953 L33.5466309,36.2861328 C33.5466309,35.820638 33.4042155,35.4552409 33.1193848,35.1899414 C32.834554,34.9246419 32.4610189,34.7919922 31.9987793,34.7919922 C31.5430501,34.7919922 31.1719564,34.9262695 30.885498,35.1948242 C30.5990397,35.4633789 30.4558105,35.8173828 30.4558105,36.2568359 L30.4558105,36.2568359 L30.4558105,36.6181641 C30.4558105,37.0641276 30.5974121,37.4222005 30.8806152,37.6923828 C31.1638184,37.9625651 31.5397949,38.0976562 32.0085449,38.0976562 Z M32.0085449,37.2871094 C31.8327637,37.2871094 31.6862793,37.2236328 31.5690918,37.0966797 C31.4519043,36.9697266 31.3933105,36.8167318 31.3933105,36.6376953 L31.3933105,36.6376953 L31.3933105,36.2714844 C31.3933105,36.0664062 31.4486491,35.9044596 31.5593262,35.7856445 C31.6700033,35.6668294 31.8164876,35.6074219 31.9987793,35.6074219 C32.181071,35.6074219 32.3275553,35.6668294 32.4382324,35.7856445 C32.5489095,35.9044596 32.604248,36.0615234 32.604248,36.2568359 L32.604248,36.2568359 L32.604248,36.6279297 C32.604248,37.0673828 32.4056803,37.2871094 32.0085449,37.2871094 Z" id="1.6%" fill="#F7667D" fill-rule="nonzero"></path>
                            </g>
                        </g>
                    </g>
                </g>
            </g>
        </g>
    </g>
</svg>
