<?xml version="1.0" encoding="UTF-8"?>
<svg width="61px" height="45px" viewBox="0 0 61 45" version="1.1" xmlns="http://www.w3.org/2000/svg" xmlns:xlink="http://www.w3.org/1999/xlink">
    <!-- Generator: Sketch 61.2 (89653) - https://sketch.com -->
    <title>ico_pay_billing</title>
    <desc>Created with Sketch.</desc>
    <g id="✡️Symbols" stroke="none" stroke-width="1" fill="none" fill-rule="evenodd">
        <g id="img/ico_pay_billing" transform="translate(-1.000000, -1.000000)">
            <g id="ico_pay_billing">
                <rect id="bound" x="0" y="0" width="62" height="47"></rect>
                <g id="icon" transform="translate(2.000000, 2.000000)">
                    <path d="M42,24.8 L42,41.8724615 C42,43 42,43 40.9544155,43 L1.04558455,43 C0,43 0,43 0,41.8724615 L0,15" id="Stroke-1" stroke="#36384D" stroke-width="2" stroke-linecap="round" stroke-linejoin="round"></path>
                    <path d="M36,18 C13.3333333,18 2,18 2,18 L2,7 C2,6.81570292 2,6 3.25417561,6 L42,6" id="Stroke-1" fill="#FFD786"></path>
                    <path d="M33,15 C11,15 0,15 0,15 L0,4 C0,3.81570292 0,3 1.25417561,3 L40,3" id="Stroke-1" stroke="#36384D" stroke-width="2" stroke-linecap="round" stroke-linejoin="round"></path>
                    <path d="M60,16 C60,22.6277895 54.6277895,28 48,28 C41.3722105,28 36,22.6277895 36,16 C36,9.37221053 41.3722105,4 48,4 C54.6277895,4 60,9.37221053 60,16 Z" id="Stroke-27" fill="#F9C6C9"></path>
                    <path d="M57,14 C57,20.6277895 51.6277895,26 45,26 C38.3722105,26 33,20.6277895 33,14 C33,7.37221053 38.3722105,2 45,2 C51.6277895,2 57,7.37221053 57,14 Z" id="Stroke-27" stroke="#36384D" stroke-width="2" stroke-linecap="round" stroke-linejoin="round"></path>
                    <polyline id="Stroke-29" stroke="#36384D" stroke-width="2" stroke-linecap="round" stroke-linejoin="round" points="45 20 45 13.8820809 49 11"></polyline>
                    <line x1="42" y1="29" x2="0" y2="29" id="Stroke-5" stroke="#36384D" stroke-width="2" stroke-linecap="round" stroke-linejoin="round"></line>
                    <line x1="20.5" y1="6" x2="20.5" y2="0" id="Stroke-15" stroke="#36384D" stroke-width="2" stroke-linecap="round" stroke-linejoin="round"></line>
                    <line x1="9.5" y1="6" x2="9.5" y2="0" id="Stroke-17" stroke="#36384D" stroke-width="2" stroke-linecap="round" stroke-linejoin="round"></line>
                    <line x1="31.5" y1="6" x2="31.5" y2="0" id="Stroke-23" stroke="#36384D" stroke-width="2" stroke-linecap="round" stroke-linejoin="round"></line>
                    <line x1="14" y1="43" x2="14" y2="16" id="Stroke-7" stroke="#36384D" stroke-width="2" stroke-linecap="round" stroke-linejoin="round"></line>
                    <line x1="28" y1="43" x2="28" y2="16" id="Stroke-9" stroke="#36384D" stroke-width="2" stroke-linecap="round" stroke-linejoin="round"></line>
                </g>
            </g>
        </g>
    </g>
</svg>