<?xml version="1.0" encoding="UTF-8"?>
<svg width="56px" height="47px" viewBox="0 0 56 47" version="1.1" xmlns="http://www.w3.org/2000/svg" xmlns:xlink="http://www.w3.org/1999/xlink">
    <!-- Generator: Sketch 61.2 (89653) - https://sketch.com -->
    <title>ico_pay_msg</title>
    <desc>Created with Sketch.</desc>
    <g id="✡️Symbols" stroke="none" stroke-width="1" fill="none" fill-rule="evenodd">
        <g id="img/ico_pay_msg">
            <g id="ico_pay_msg">
                <rect id="bound" x="0" y="0" width="56" height="47"></rect>
                <g id="Group-21" transform="translate(1.000000, 1.000000)">
                    <g id="Group" transform="translate(27.000000, 25.000000)" stroke="#36384D" stroke-linecap="round" stroke-linejoin="round" stroke-width="2">
                        <polygon id="Stroke-7" points="0 20 27 20 27 0 0 0"></polygon>
                        <polygon id="Stroke-9" points="27 0 13.4995008 12 0 0"></polygon>
                        <line x1="0.031" y1="20" x2="10.5" y2="10.1727" id="Stroke-10"></line>
                        <line x1="16" y1="20" x2="26.469" y2="10.1727" id="Stroke-10" transform="translate(21.234500, 15.086350) scale(-1, 1) translate(-21.234500, -15.086350) "></line>
                    </g>
                    <g id="Group">
                        <polygon id="Stroke-7" fill="#FFD786" points="4 23 31 23 31 3 4 3"></polygon>
                        <polygon id="Stroke-7" stroke="#36384D" stroke-width="2" stroke-linecap="round" stroke-linejoin="round" points="0 20 27 20 27 0 0 0"></polygon>
                        <polygon id="Stroke-9" stroke="#36384D" stroke-width="2" stroke-linecap="round" stroke-linejoin="round" points="27 0 13.4995008 12 0 0"></polygon>
                        <line x1="0.031" y1="20" x2="10.5" y2="10.1727" id="Stroke-10" stroke="#36384D" stroke-width="2" stroke-linecap="round" stroke-linejoin="round"></line>
                        <line x1="16" y1="20" x2="26.469" y2="10.1727" id="Stroke-10" stroke="#36384D" stroke-width="2" stroke-linecap="round" stroke-linejoin="round" transform="translate(21.234500, 15.086350) scale(-1, 1) translate(-21.234500, -15.086350) "></line>
                    </g>
                    <g id="Group-4" transform="translate(3.000000, 29.000000)" stroke="#36384D" stroke-linecap="round" stroke-linejoin="round" stroke-width="2">
                        <line x1="17.5" y1="11.5001" x2="4" y2="11.5001" id="Stroke-17"></line>
                        <line x1="17.5" y1="0.5" x2="7.5" y2="0.5" id="Stroke-18"></line>
                        <line x1="17.5" y1="6.0001" x2="8.5" y2="6.0001" id="Stroke-19"></line>
                        <line x1="4" y1="6.0001" x2="0" y2="6.0001" id="Stroke-20"></line>
                    </g>
                    <g id="Group-4" transform="translate(42.000000, 10.000000) scale(-1, 1) translate(-42.000000, -10.000000) translate(33.000000, 4.000000)" stroke="#36384D" stroke-linecap="round" stroke-linejoin="round" stroke-width="2">
                        <line x1="17.5" y1="11.5001" x2="4" y2="11.5001" id="Stroke-17"></line>
                        <line x1="17.5" y1="0.5" x2="7.5" y2="0.5" id="Stroke-18"></line>
                        <line x1="17.5" y1="6.0001" x2="8.5" y2="6.0001" id="Stroke-19"></line>
                        <line x1="4" y1="6.0001" x2="0" y2="6.0001" id="Stroke-20"></line>
                    </g>
                </g>
            </g>
        </g>
    </g>
</svg>