<svg width="2000" height="493" viewBox="0 0 2000 493" fill="none" xmlns="http://www.w3.org/2000/svg">
<circle cx="1610.5" cy="110.5" r="46.5" fill="#1369FA"/>
<path d="M1425.31 352.897C1417.41 332.86 1427.24 310.21 1447.28 302.308C1467.32 294.406 1489.97 304.243 1497.87 324.281L1425.31 352.897Z" fill="#FF6161"/>
<g opacity="0.08">
<mask id="mask0" mask-type="alpha" maskUnits="userSpaceOnUse" x="1774" y="153" width="340" height="340">
<circle cx="1943.94" cy="322.565" r="138.956" transform="rotate(-14.6403 1943.94 322.565)" fill="#C4C4C4"/>
</mask>
<g mask="url(#mask0)">
<path d="M1995.89 447.464C1994.77 443.151 1997.39 439.087 2001.42 438.035C2005.73 436.909 2009.8 439.533 2010.85 443.558C2011.97 447.872 2009.35 451.936 2005.32 452.988C2001.3 454.039 1996.95 451.49 1995.89 447.464Z" fill="#1369FA"/>
<path d="M1970.88 454C1969.75 449.686 1972.38 445.622 1976.4 444.57C1980.43 443.519 1984.78 446.068 1985.83 450.094C1986.96 454.407 1984.33 458.471 1980.31 459.523C1976.28 460.574 1971.93 458.025 1970.88 454Z" fill="#1369FA"/>
<path d="M1945.86 460.535C1944.74 456.222 1947.36 452.157 1951.39 451.106C1955.7 449.979 1959.76 452.603 1960.81 456.629C1961.94 460.942 1959.32 465.006 1955.29 466.058C1950.98 467.185 1946.91 464.56 1945.86 460.535Z" fill="#1369FA"/>
<path d="M1920.56 467.145C1919.43 462.831 1922.06 458.767 1926.08 457.715C1930.11 456.664 1934.46 459.213 1935.51 463.239C1936.64 467.552 1934.01 471.616 1929.99 472.668C1925.96 473.719 1921.61 471.17 1920.56 467.145Z" fill="#1369FA"/>
<path d="M1895.54 473.68C1894.42 469.367 1897.04 465.302 1901.07 464.251C1905.38 463.124 1909.44 465.748 1910.5 469.774C1911.62 474.087 1909 478.151 1904.97 479.203C1900.95 480.254 1896.59 477.705 1895.54 473.68Z" fill="#1369FA"/>
<path d="M1870.53 480.214C1869.4 475.901 1872.02 471.837 1876.05 470.785C1880.36 469.659 1884.43 472.283 1885.48 476.308C1886.61 480.622 1883.98 484.686 1879.96 485.738C1875.93 486.789 1871.58 484.24 1870.53 480.214Z" fill="#1369FA"/>
<path d="M1845.51 486.75C1844.38 482.436 1847.01 478.372 1851.03 477.32C1855.35 476.194 1859.41 478.818 1860.46 482.844C1861.59 487.157 1858.96 491.221 1854.94 492.273C1850.63 493.399 1846.56 490.775 1845.51 486.75Z" fill="#1369FA"/>
<path d="M1820.21 493.359C1819.08 489.046 1821.71 484.982 1825.73 483.93C1830.04 482.804 1834.11 485.428 1835.16 489.453C1836.29 493.767 1833.66 497.831 1829.64 498.883C1825.61 499.934 1821.26 497.385 1820.21 493.359Z" fill="#1369FA"/>
<path d="M1795.19 499.895C1794.06 495.582 1796.69 491.518 1800.71 490.466C1804.74 489.414 1809.09 491.963 1810.14 495.989C1811.27 500.302 1808.65 504.367 1804.62 505.418C1800.59 506.47 1796.24 503.921 1795.19 499.895Z" fill="#1369FA"/>
<path d="M1988.31 418.423C1987.18 414.11 1989.81 410.046 1993.83 408.994C1998.14 407.867 2002.21 410.492 2003.26 414.517C2004.39 418.83 2001.76 422.895 1997.74 423.946C1993.79 425.285 1989.43 422.736 1988.31 418.423Z" fill="#1369FA"/>
<path d="M1963.29 424.958C1962.17 420.645 1964.79 416.58 1968.82 415.529C1972.84 414.477 1977.19 417.026 1978.25 421.052C1979.37 425.365 1976.75 429.429 1972.72 430.481C1968.7 431.533 1964.42 429.271 1963.29 424.958Z" fill="#1369FA"/>
<path d="M1938.28 431.493C1937.15 427.18 1939.77 423.115 1943.8 422.064C1948.11 420.937 1952.18 423.561 1953.23 427.587C1954.35 431.9 1951.73 435.964 1947.71 437.016C1943.47 438.43 1939.4 435.806 1938.28 431.493Z" fill="#1369FA"/>
<path d="M1912.97 438.103C1911.85 433.79 1914.47 429.725 1918.5 428.674C1922.52 427.622 1926.87 430.171 1927.92 434.197C1929.05 438.51 1926.43 442.574 1922.4 443.626C1918.38 444.678 1914.1 442.416 1912.97 438.103Z" fill="#1369FA"/>
<path d="M1887.96 444.638C1886.83 440.325 1889.45 436.26 1893.48 435.209C1897.79 434.082 1901.86 436.706 1902.91 440.732C1904.04 445.045 1901.41 449.109 1897.39 450.161C1893.44 451.5 1889.08 448.951 1887.96 444.638Z" fill="#1369FA"/>
<path d="M1862.94 451.173C1861.81 446.86 1864.44 442.795 1868.46 441.744C1872.78 440.617 1876.84 443.241 1877.89 447.267C1879.02 451.58 1876.39 455.644 1872.37 456.696C1868.42 458.035 1864.07 455.486 1862.94 451.173Z" fill="#1369FA"/>
<path d="M1837.92 457.708C1836.8 453.395 1839.42 449.331 1843.45 448.279C1847.76 447.152 1851.82 449.777 1852.88 453.802C1854 458.115 1851.38 462.18 1847.35 463.231C1843.11 464.646 1839.05 462.021 1837.92 457.708Z" fill="#1369FA"/>
<path d="M1812.62 464.318C1811.49 460.005 1814.12 455.94 1818.14 454.889C1822.46 453.762 1826.52 456.386 1827.57 460.412C1828.7 464.725 1826.08 468.789 1822.05 469.841C1818.1 471.18 1813.75 468.631 1812.62 464.318Z" fill="#1369FA"/>
<path d="M1787.6 470.853C1786.48 466.54 1789.1 462.476 1793.13 461.424C1797.15 460.373 1801.5 462.922 1802.56 466.947C1803.68 471.26 1801.06 475.325 1797.03 476.376C1793.01 477.428 1788.73 475.166 1787.6 470.853Z" fill="#1369FA"/>
<path d="M1762.59 477.388C1761.46 473.075 1764.09 469.01 1768.11 467.959C1772.42 466.832 1776.49 469.456 1777.54 473.482C1778.67 477.795 1776.04 481.859 1772.02 482.911C1768.07 484.25 1763.71 481.701 1762.59 477.388Z" fill="#1369FA"/>
<path d="M1980.8 389.668C1979.67 385.355 1982.29 381.291 1986.32 380.239C1990.63 379.112 1994.7 381.737 1995.75 385.762C1996.88 390.075 1994.25 394.14 1990.23 395.191C1986.2 396.243 1981.85 393.694 1980.8 389.668Z" fill="#1369FA"/>
<path d="M1955.78 396.203C1954.65 391.89 1957.28 387.826 1961.3 386.774C1965.33 385.722 1969.68 388.272 1970.73 392.297C1971.86 396.61 1969.24 400.675 1965.21 401.726C1961.18 402.778 1956.83 400.229 1955.78 396.203Z" fill="#1369FA"/>
<path d="M1930.76 402.738C1929.64 398.425 1932.26 394.361 1936.29 393.309C1940.6 392.182 1944.66 394.807 1945.72 398.832C1946.84 403.145 1944.22 407.21 1940.19 408.261C1935.88 409.388 1931.82 406.764 1930.76 402.738Z" fill="#1369FA"/>
<path d="M1905.46 409.348C1904.33 405.035 1906.96 400.971 1910.98 399.919C1915.01 398.868 1919.36 401.417 1920.41 405.442C1921.54 409.756 1918.92 413.82 1914.89 414.872C1910.87 415.923 1906.51 413.374 1905.46 409.348Z" fill="#1369FA"/>
<path d="M1880.44 415.884C1879.32 411.57 1881.94 407.506 1885.97 406.454C1890.28 405.328 1894.35 407.952 1895.4 411.978C1896.52 416.291 1893.9 420.355 1889.87 421.407C1885.85 422.458 1881.5 419.909 1880.44 415.884Z" fill="#1369FA"/>
<path d="M1855.43 422.418C1854.3 418.105 1856.93 414.041 1860.95 412.989C1865.27 411.863 1869.33 414.487 1870.38 418.513C1871.51 422.826 1868.88 426.89 1864.86 427.942C1860.83 428.993 1856.48 426.444 1855.43 422.418Z" fill="#1369FA"/>
<path d="M1830.41 428.954C1829.29 424.641 1831.91 420.576 1835.94 419.525C1840.25 418.398 1844.31 421.022 1845.36 425.048C1846.49 429.361 1843.87 433.425 1839.84 434.477C1835.53 435.603 1831.46 432.979 1830.41 428.954Z" fill="#1369FA"/>
<path d="M1805.11 435.563C1803.98 431.25 1806.61 427.186 1810.63 426.134C1814.95 425.007 1819.01 427.632 1820.06 431.657C1821.19 435.97 1818.56 440.035 1814.54 441.086C1810.51 442.138 1806.16 439.589 1805.11 435.563Z" fill="#1369FA"/>
<path d="M1780.09 442.098C1778.97 437.785 1781.59 433.721 1785.62 432.669C1789.64 431.618 1793.99 434.167 1795.04 438.192C1796.17 442.506 1793.55 446.57 1789.52 447.622C1785.5 448.673 1781.14 446.124 1780.09 442.098Z" fill="#1369FA"/>
<path d="M1998.23 354.092C1997.1 349.779 1999.72 345.715 2003.75 344.663C2007.78 343.611 2012.13 346.16 2013.18 350.186C2014.31 354.499 2011.68 358.563 2007.66 359.615C2003.63 360.667 1999.35 358.405 1998.23 354.092Z" fill="#1369FA"/>
<path d="M1973.21 360.627C1972.08 356.314 1974.71 352.25 1978.73 351.198C1983.05 350.071 1987.11 352.696 1988.16 356.721C1989.29 361.034 1986.67 365.099 1982.64 366.15C1978.69 367.489 1974.34 364.94 1973.21 360.627Z" fill="#1369FA"/>
<path d="M1948.19 367.162C1947.07 362.849 1949.69 358.784 1953.72 357.733C1957.74 356.681 1962.1 359.23 1963.15 363.256C1964.27 367.569 1961.65 371.633 1957.62 372.685C1953.6 373.737 1949.32 371.475 1948.19 367.162Z" fill="#1369FA"/>
<path d="M1923.18 373.697C1922.05 369.384 1924.68 365.32 1928.7 364.268C1933.01 363.141 1937.08 365.765 1938.13 369.791C1939.26 374.104 1936.63 378.168 1932.61 379.22C1928.37 380.634 1924.31 378.01 1923.18 373.697Z" fill="#1369FA"/>
<path d="M1897.88 380.307C1896.75 375.994 1899.37 371.93 1903.4 370.878C1907.42 369.826 1911.78 372.376 1912.83 376.401C1913.95 380.714 1911.33 384.779 1907.3 385.83C1903.28 386.882 1899 384.62 1897.88 380.307Z" fill="#1369FA"/>
<path d="M1872.86 386.842C1871.73 382.529 1874.36 378.465 1878.38 377.413C1882.7 376.286 1886.76 378.91 1887.81 382.936C1888.94 387.249 1886.31 391.313 1882.29 392.365C1878.34 393.704 1873.99 391.155 1872.86 386.842Z" fill="#1369FA"/>
<path d="M1847.84 393.378C1846.71 389.065 1849.34 385 1853.36 383.949C1857.68 382.822 1861.74 385.446 1862.79 389.472C1863.92 393.785 1861.3 397.849 1857.27 398.901C1853.32 400.24 1848.97 397.691 1847.84 393.378Z" fill="#1369FA"/>
<path d="M1822.83 399.912C1821.7 395.599 1824.32 391.535 1828.35 390.483C1832.66 389.357 1836.73 391.981 1837.78 396.006C1838.9 400.319 1836.28 404.384 1832.26 405.435C1828.02 406.85 1823.95 404.225 1822.83 399.912Z" fill="#1369FA"/>
<path d="M1797.52 406.522C1796.4 402.209 1799.02 398.145 1803.05 397.093C1807.36 395.966 1811.42 398.591 1812.48 402.616C1813.6 406.929 1810.98 410.994 1806.95 412.045C1803 413.384 1798.65 410.835 1797.52 406.522Z" fill="#1369FA"/>
<path d="M1772.51 413.057C1771.38 408.744 1774 404.68 1778.03 403.628C1782.06 402.577 1786.41 405.126 1787.46 409.151C1788.59 413.464 1785.96 417.529 1781.94 418.58C1777.91 419.632 1773.63 417.37 1772.51 413.057Z" fill="#1369FA"/>
<path d="M1990.72 325.339C1989.59 321.025 1992.21 316.961 1996.24 315.91C2000.26 314.858 2004.62 317.407 2005.67 321.433C2006.79 325.746 2004.17 329.81 2000.14 330.862C1996.12 331.913 1991.77 329.364 1990.72 325.339Z" fill="#1369FA"/>
<path d="M1965.7 331.874C1964.57 327.561 1967.2 323.496 1971.22 322.445C1975.54 321.318 1979.6 323.942 1980.65 327.968C1981.78 332.281 1979.15 336.345 1975.13 337.397C1971.1 338.448 1966.75 335.899 1965.7 331.874Z" fill="#1369FA"/>
<path d="M1940.68 338.408C1939.56 334.095 1942.18 330.031 1946.21 328.979C1950.23 327.928 1954.58 330.477 1955.64 334.502C1956.76 338.816 1954.14 342.88 1950.11 343.932C1946.09 344.983 1941.74 342.434 1940.68 338.408Z" fill="#1369FA"/>
<path d="M1915.67 344.944C1914.54 340.63 1917.16 336.566 1921.19 335.515C1925.5 334.388 1929.57 337.012 1930.62 341.038C1931.75 345.351 1929.12 349.415 1925.1 350.467C1920.78 351.593 1916.72 348.969 1915.67 344.944Z" fill="#1369FA"/>
<path d="M1890.36 351.554C1889.24 347.241 1891.86 343.177 1895.89 342.125C1899.91 341.073 1904.26 343.622 1905.32 347.648C1906.44 351.961 1903.82 356.025 1899.79 357.077C1895.77 358.129 1891.41 355.579 1890.36 351.554Z" fill="#1369FA"/>
<path d="M1865.35 358.089C1864.22 353.775 1866.85 349.711 1870.87 348.66C1875.18 347.533 1879.25 350.157 1880.3 354.183C1881.43 358.496 1878.8 362.56 1874.78 363.612C1870.75 364.663 1866.4 362.114 1865.35 358.089Z" fill="#1369FA"/>
<path d="M1840.33 364.624C1839.2 360.311 1841.83 356.246 1845.85 355.195C1850.17 354.068 1854.23 356.692 1855.28 360.718C1856.41 365.031 1853.78 369.095 1849.76 370.147C1845.73 371.198 1841.38 368.649 1840.33 364.624Z" fill="#1369FA"/>
<path d="M1815.31 371.159C1814.19 366.846 1816.81 362.781 1820.84 361.73C1825.15 360.603 1829.22 363.227 1830.27 367.253C1831.39 371.566 1828.77 375.63 1824.74 376.682C1820.43 377.809 1816.37 375.184 1815.31 371.159Z" fill="#1369FA"/>
<path d="M1790.01 377.769C1788.89 373.456 1791.51 369.391 1795.54 368.34C1799.85 367.213 1803.91 369.837 1804.96 373.863C1806.09 378.176 1803.47 382.24 1799.44 383.292C1795.42 384.343 1791.06 381.794 1790.01 377.769Z" fill="#1369FA"/>
<path d="M1765 384.304C1763.87 379.991 1766.49 375.926 1770.52 374.875C1774.54 373.823 1778.9 376.372 1779.95 380.398C1781.07 384.711 1778.45 388.775 1774.42 389.827C1770.4 390.879 1766.05 388.329 1765 384.304Z" fill="#1369FA"/>
<path d="M1983.13 296.296C1982 291.983 1984.63 287.919 1988.65 286.867C1992.68 285.815 1997.03 288.365 1998.08 292.39C1999.21 296.703 1996.58 300.768 1992.56 301.819C1988.53 302.871 1984.26 300.609 1983.13 296.296Z" fill="#1369FA"/>
<path d="M1958.11 302.831C1956.99 298.518 1959.61 294.454 1963.64 293.402C1967.95 292.276 1972.01 294.9 1973.06 298.925C1974.19 303.238 1971.57 307.303 1967.54 308.354C1963.59 309.694 1959.24 307.144 1958.11 302.831Z" fill="#1369FA"/>
<path d="M1933.1 309.366C1931.97 305.053 1934.59 300.989 1938.62 299.937C1942.65 298.886 1947 301.435 1948.05 305.46C1949.18 309.773 1946.55 313.838 1942.53 314.889C1938.5 315.941 1934.22 313.679 1933.1 309.366Z" fill="#1369FA"/>
<path d="M1908.08 315.901C1906.95 311.588 1909.58 307.524 1913.6 306.472C1917.92 305.346 1921.98 307.97 1923.03 311.995C1924.16 316.309 1921.54 320.373 1917.51 321.424C1913.27 322.839 1909.21 320.215 1908.08 315.901Z" fill="#1369FA"/>
<path d="M1882.78 322.511C1881.65 318.198 1884.27 314.134 1888.3 313.082C1892.33 312.031 1896.68 314.58 1897.73 318.605C1898.86 322.918 1896.23 326.983 1892.21 328.034C1888.18 329.086 1883.9 326.824 1882.78 322.511Z" fill="#1369FA"/>
<path d="M1857.76 329.046C1856.63 324.733 1859.26 320.669 1863.28 319.617C1867.6 318.491 1871.66 321.115 1872.71 325.14C1873.84 329.454 1871.22 333.518 1867.19 334.569C1863.24 335.909 1858.89 333.36 1857.76 329.046Z" fill="#1369FA"/>
<path d="M1832.75 335.581C1831.62 331.268 1834.24 327.204 1838.27 326.152C1842.58 325.025 1846.65 327.65 1847.7 331.675C1848.82 335.988 1846.2 340.053 1842.17 341.104C1838.22 342.443 1833.87 339.894 1832.75 335.581Z" fill="#1369FA"/>
<path d="M1807.73 342.117C1806.6 337.804 1809.23 333.739 1813.25 332.688C1817.56 331.561 1821.63 334.185 1822.68 338.211C1823.81 342.524 1821.18 346.588 1817.16 347.64C1812.92 349.054 1808.85 346.43 1807.73 342.117Z" fill="#1369FA"/>
<path d="M1782.43 348.726C1781.3 344.413 1783.92 340.349 1787.95 339.297C1792.26 338.171 1796.33 340.795 1797.38 344.82C1798.5 349.134 1795.88 353.198 1791.85 354.249C1787.9 355.589 1783.55 353.039 1782.43 348.726Z" fill="#1369FA"/>
<path d="M2000.92 260.932C1999.79 256.619 2002.42 252.554 2006.44 251.503C2010.47 250.451 2014.82 253 2015.87 257.026C2017 261.339 2014.38 265.403 2010.35 266.455C2006.32 267.507 2001.97 264.958 2000.92 260.932Z" fill="#1369FA"/>
<path d="M1975.62 267.542C1974.49 263.229 1977.11 259.165 1981.14 258.113C1985.17 257.062 1989.52 259.611 1990.57 263.636C1991.7 267.949 1989.07 272.014 1985.05 273.065C1981.02 274.117 1976.67 271.568 1975.62 267.542Z" fill="#1369FA"/>
<path d="M1950.6 274.077C1949.47 269.764 1952.1 265.7 1956.12 264.648C1960.44 263.522 1964.5 266.146 1965.55 270.171C1966.68 274.485 1964.06 278.549 1960.03 279.6C1956 280.652 1951.65 278.103 1950.6 274.077Z" fill="#1369FA"/>
<path d="M1925.59 280.612C1924.46 276.299 1927.08 272.235 1931.11 271.183C1935.13 270.131 1939.49 272.681 1940.54 276.706C1941.66 281.019 1939.04 285.084 1935.01 286.135C1930.99 287.187 1926.64 284.638 1925.59 280.612Z" fill="#1369FA"/>
<path d="M1900.57 287.147C1899.44 282.834 1902.07 278.77 1906.09 277.718C1910.4 276.591 1914.47 279.216 1915.52 283.241C1916.65 287.554 1914.02 291.619 1910 292.67C1905.68 293.797 1901.62 291.173 1900.57 287.147Z" fill="#1369FA"/>
<path d="M1875.27 293.758C1874.14 289.444 1876.76 285.38 1880.79 284.329C1884.81 283.277 1889.17 285.826 1890.22 289.852C1891.34 294.165 1888.72 298.229 1884.69 299.281C1880.67 300.332 1876.32 297.783 1875.27 293.758Z" fill="#1369FA"/>
<path d="M1850.25 300.292C1849.12 295.979 1851.75 291.915 1855.77 290.863C1860.09 289.736 1864.15 292.361 1865.2 296.386C1866.33 300.699 1863.7 304.764 1859.68 305.815C1855.65 306.867 1851.3 304.318 1850.25 300.292Z" fill="#1369FA"/>
<path d="M1825.23 306.828C1824.11 302.515 1826.73 298.45 1830.75 297.399C1835.07 296.272 1839.13 298.896 1840.18 302.922C1841.31 307.235 1838.69 311.299 1834.66 312.351C1830.64 313.403 1826.28 310.854 1825.23 306.828Z" fill="#1369FA"/>
<path d="M1800.22 313.363C1799.09 309.049 1801.71 304.985 1805.74 303.933C1810.05 302.807 1814.12 305.431 1815.17 309.457C1816.3 313.77 1813.67 317.834 1809.65 318.886C1805.33 320.012 1801.27 317.388 1800.22 313.363Z" fill="#1369FA"/>
<path d="M1774.91 319.972C1773.79 315.659 1776.41 311.595 1780.44 310.543C1784.75 309.417 1788.81 312.041 1789.87 316.066C1790.99 320.38 1788.37 324.444 1784.34 325.495C1780.32 326.547 1775.97 323.998 1774.91 319.972Z" fill="#1369FA"/>
<path d="M1993.33 231.89C1992.21 227.577 1994.83 223.513 1998.86 222.461C2002.88 221.41 2007.23 223.959 2008.29 227.984C2009.41 232.298 2006.79 236.362 2002.76 237.413C1998.74 238.465 1994.46 236.204 1993.33 231.89Z" fill="#1369FA"/>
<path d="M1968.03 238.501C1966.9 234.188 1969.53 230.123 1973.55 229.072C1977.58 228.02 1981.93 230.569 1982.98 234.595C1984.11 238.908 1981.48 242.972 1977.46 244.024C1973.43 245.075 1969.16 242.814 1968.03 238.501Z" fill="#1369FA"/>
<path d="M1943.01 245.036C1941.89 240.723 1944.51 236.658 1948.54 235.607C1952.85 234.48 1956.92 237.104 1957.97 241.13C1959.09 245.443 1956.47 249.507 1952.44 250.559C1948.49 251.898 1944.14 249.349 1943.01 245.036Z" fill="#1369FA"/>
<path d="M1918 251.571C1916.87 247.257 1919.5 243.193 1923.52 242.141C1927.55 241.09 1931.9 243.639 1932.95 247.665C1934.08 251.978 1931.45 256.042 1927.43 257.094C1923.4 258.145 1919.13 255.884 1918 251.571Z" fill="#1369FA"/>
<path d="M1892.98 258.106C1891.85 253.793 1894.48 249.728 1898.5 248.677C1902.82 247.55 1906.88 250.174 1907.93 254.2C1909.06 258.513 1906.44 262.577 1902.41 263.629C1898.17 265.043 1894.11 262.419 1892.98 258.106Z" fill="#1369FA"/>
<path d="M1867.68 264.716C1866.55 260.403 1869.18 256.339 1873.2 255.287C1877.23 254.235 1881.58 256.785 1882.63 260.81C1883.76 265.123 1881.13 269.188 1877.11 270.239C1873.08 271.291 1868.81 269.029 1867.68 264.716Z" fill="#1369FA"/>
<path d="M1842.66 271.251C1841.54 266.938 1844.16 262.874 1848.18 261.822C1852.5 260.695 1856.56 263.32 1857.61 267.345C1858.74 271.658 1856.12 275.723 1852.09 276.774C1848.14 278.113 1843.79 275.564 1842.66 271.251Z" fill="#1369FA"/>
<path d="M1817.64 277.786C1816.52 273.473 1819.14 269.409 1823.17 268.357C1827.48 267.231 1831.55 269.855 1832.6 273.88C1833.72 278.194 1831.1 282.258 1827.07 283.309C1823.12 284.649 1818.77 282.1 1817.64 277.786Z" fill="#1369FA"/>
<path d="M1792.63 284.321C1791.5 280.008 1794.13 275.944 1798.15 274.892C1802.47 273.765 1806.53 276.39 1807.58 280.415C1808.71 284.728 1806.08 288.793 1802.06 289.844C1797.82 291.258 1793.76 288.634 1792.63 284.321Z" fill="#1369FA"/>
<path d="M1767.33 290.931C1766.2 286.618 1768.82 282.553 1772.85 281.502C1777.16 280.375 1781.23 282.999 1782.28 287.025C1783.41 291.338 1780.78 295.402 1776.76 296.454C1772.81 297.793 1768.45 295.244 1767.33 290.931Z" fill="#1369FA"/>
<path d="M1985.82 203.136C1984.69 198.823 1987.32 194.758 1991.34 193.707C1995.37 192.655 1999.72 195.204 2000.77 199.23C2001.9 203.543 1999.28 207.607 1995.25 208.659C1991.23 209.71 1986.87 207.161 1985.82 203.136Z" fill="#1369FA"/>
<path d="M1960.52 209.746C1959.39 205.433 1962.02 201.369 1966.04 200.317C1970.07 199.265 1974.42 201.815 1975.47 205.84C1976.6 210.153 1973.97 214.218 1969.95 215.269C1965.92 216.321 1961.57 213.772 1960.52 209.746Z" fill="#1369FA"/>
<path d="M1935.5 216.281C1934.37 211.968 1937 207.903 1941.02 206.852C1945.34 205.725 1949.4 208.349 1950.45 212.375C1951.58 216.688 1948.96 220.752 1944.93 221.804C1940.91 222.855 1936.55 220.306 1935.5 216.281Z" fill="#1369FA"/>
<path d="M1910.49 222.816C1909.36 218.503 1911.98 214.438 1916.01 213.387C1920.03 212.335 1924.39 214.884 1925.44 218.91C1926.57 223.223 1923.94 227.287 1919.92 228.339C1915.89 229.391 1911.54 226.842 1910.49 222.816Z" fill="#1369FA"/>
<path d="M1885.47 229.351C1884.34 225.038 1886.97 220.974 1890.99 219.922C1895.31 218.795 1899.37 221.42 1900.42 225.445C1901.55 229.758 1898.92 233.823 1894.9 234.874C1890.59 236.001 1886.52 233.377 1885.47 229.351Z" fill="#1369FA"/>
<path d="M1860.17 235.961C1859.04 231.648 1861.66 227.583 1865.69 226.532C1869.72 225.48 1874.07 228.029 1875.12 232.055C1876.25 236.368 1873.62 240.432 1869.6 241.484C1865.57 242.536 1861.22 239.987 1860.17 235.961Z" fill="#1369FA"/>
<path d="M1835.15 242.496C1834.02 238.183 1836.65 234.119 1840.67 233.067C1844.99 231.94 1849.05 234.565 1850.1 238.59C1851.23 242.903 1848.6 246.968 1844.58 248.019C1840.55 249.071 1836.2 246.522 1835.15 242.496Z" fill="#1369FA"/>
<path d="M1810.13 249.031C1809.01 244.718 1811.63 240.654 1815.66 239.602C1819.97 238.475 1824.03 241.1 1825.09 245.125C1826.21 249.438 1823.59 253.503 1819.56 254.554C1815.54 255.606 1811.18 253.057 1810.13 249.031Z" fill="#1369FA"/>
<path d="M1785.12 255.567C1783.99 251.254 1786.62 247.189 1790.64 246.138C1794.95 245.011 1799.02 247.635 1800.07 251.661C1801.2 255.974 1798.57 260.038 1794.55 261.09C1790.23 262.217 1786.17 259.593 1785.12 255.567Z" fill="#1369FA"/>
<path d="M1978.24 174.095C1977.11 169.782 1979.73 165.717 1983.76 164.666C1987.78 163.614 1992.14 166.163 1993.19 170.189C1994.31 174.502 1991.69 178.566 1987.66 179.618C1983.64 180.669 1979.36 178.408 1978.24 174.095Z" fill="#1369FA"/>
<path d="M1952.93 180.704C1951.81 176.391 1954.43 172.327 1958.46 171.275C1962.48 170.224 1966.83 172.773 1967.88 176.798C1969.01 181.112 1966.39 185.176 1962.36 186.227C1958.34 187.279 1954.06 185.018 1952.93 180.704Z" fill="#1369FA"/>
<path d="M1927.92 187.24C1926.79 182.926 1929.41 178.862 1933.44 177.81C1937.75 176.684 1941.82 179.308 1942.87 183.334C1944 187.647 1941.37 191.711 1937.35 192.763C1933.39 194.102 1929.04 191.553 1927.92 187.24Z" fill="#1369FA"/>
<path d="M1902.9 193.774C1901.77 189.461 1904.4 185.397 1908.42 184.345C1912.45 183.294 1916.8 185.843 1917.85 189.868C1918.98 194.182 1916.36 198.246 1912.33 199.298C1908.3 200.349 1904.03 198.088 1902.9 193.774Z" fill="#1369FA"/>
<path d="M1877.88 200.31C1876.76 195.996 1879.38 191.932 1883.41 190.881C1887.72 189.754 1891.78 192.378 1892.84 196.404C1893.96 200.717 1891.34 204.781 1887.31 205.833C1883.07 207.247 1879.01 204.623 1877.88 200.31Z" fill="#1369FA"/>
<path d="M1852.58 206.92C1851.45 202.607 1854.08 198.542 1858.1 197.491C1862.13 196.439 1866.48 198.988 1867.53 203.014C1868.66 207.327 1866.04 211.391 1862.01 212.443C1857.98 213.494 1853.71 211.233 1852.58 206.92Z" fill="#1369FA"/>
<path d="M1827.56 213.455C1826.44 209.142 1829.06 205.077 1833.09 204.026C1837.4 202.899 1841.46 205.523 1842.52 209.549C1843.64 213.862 1841.02 217.926 1836.99 218.978C1833.04 220.317 1828.69 217.768 1827.56 213.455Z" fill="#1369FA"/>
</g>
</g>
<g opacity="0.08">
<mask id="mask1" mask-type="alpha" maskUnits="userSpaceOnUse" x="-107" y="0" width="316" height="316">
<circle cx="50.5405" cy="157.541" r="129.102" transform="rotate(-14.6403 50.5405 157.541)" fill="#C4C4C4"/>
</mask>
<g mask="url(#mask1)">
<path d="M192.045 249.227C190.998 245.22 193.436 241.444 197.177 240.467C200.917 239.49 204.96 241.858 205.937 245.598C206.984 249.606 204.546 253.382 200.806 254.359C197.065 255.336 193.022 252.967 192.045 249.227Z" fill="#1369FA"/>
<path d="M168.803 255.299C167.756 251.291 170.194 247.515 173.934 246.538C177.941 245.491 181.718 247.93 182.695 251.67C183.741 255.677 181.303 259.453 177.563 260.43C173.823 261.407 169.78 259.039 168.803 255.299Z" fill="#1369FA"/>
<path d="M145.56 261.371C144.514 257.363 146.952 253.587 150.692 252.61C154.432 251.633 158.475 254.001 159.452 257.742C160.499 261.749 158.061 265.525 154.321 266.502C150.581 267.479 146.537 265.111 145.56 261.371Z" fill="#1369FA"/>
<path d="M122.051 267.512C121.004 263.505 123.442 259.729 127.182 258.752C130.923 257.775 134.966 260.143 135.943 263.883C136.99 267.89 134.552 271.667 130.811 272.644C127.071 273.621 123.028 271.252 122.051 267.512Z" fill="#1369FA"/>
<path d="M98.8086 273.583C97.7618 269.576 100.2 265.8 103.94 264.823C107.947 263.776 111.723 266.214 112.701 269.954C113.747 273.962 111.309 277.738 107.569 278.715C103.829 279.692 99.7857 277.324 98.8086 273.583Z" fill="#1369FA"/>
<path d="M75.5672 279.655C74.5204 275.648 76.9585 271.872 80.6986 270.895C84.4387 269.918 88.482 272.286 89.4591 276.026C90.5059 280.033 88.0677 283.81 84.3276 284.787C80.5875 285.764 76.5442 283.395 75.5672 279.655Z" fill="#1369FA"/>
<path d="M52.3243 285.727C51.2774 281.72 53.7156 277.944 57.4557 276.967C61.463 275.92 65.2392 278.358 66.2162 282.098C67.263 286.105 64.8249 289.881 61.0847 290.858C57.0775 291.905 53.3013 289.467 52.3243 285.727Z" fill="#1369FA"/>
<path d="M28.8155 291.868C27.7687 287.861 30.2068 284.085 33.9469 283.108C37.687 282.131 41.7303 284.499 42.7074 288.239C43.7542 292.246 41.316 296.023 37.5759 297C33.8358 297.977 29.7925 295.608 28.8155 291.868Z" fill="#1369FA"/>
<path d="M5.57317 297.94C4.52634 293.932 6.9645 290.156 10.7046 289.179C14.7119 288.132 18.4881 290.57 19.4651 294.311C20.5119 298.318 18.0738 302.094 14.3336 303.071C10.5935 304.048 6.55021 301.68 5.57317 297.94Z" fill="#1369FA"/>
<path d="M208.24 216.173C207.193 212.166 209.631 208.39 213.371 207.413C217.378 206.366 221.154 208.804 222.131 212.544C223.178 216.552 220.74 220.328 217 221.305C213.33 222.549 209.286 220.181 208.24 216.173Z" fill="#1369FA"/>
<path d="M184.997 222.245C183.95 218.238 186.388 214.462 190.128 213.485C193.868 212.508 197.911 214.876 198.888 218.616C199.935 222.624 197.497 226.4 193.757 227.377C190.017 228.354 186.043 226.253 184.997 222.245Z" fill="#1369FA"/>
<path d="M161.754 228.317C160.707 224.309 163.146 220.533 166.886 219.556C170.893 218.509 174.669 220.947 175.646 224.688C176.693 228.695 174.255 232.471 170.515 233.448C166.844 234.692 162.801 232.324 161.754 228.317Z" fill="#1369FA"/>
<path d="M138.512 234.388C137.465 230.381 139.903 226.605 143.643 225.628C147.383 224.651 151.427 227.019 152.404 230.759C153.451 234.767 151.012 238.543 147.272 239.52C143.532 240.497 139.559 238.396 138.512 234.388Z" fill="#1369FA"/>
<path d="M115.003 240.53C113.956 236.523 116.394 232.747 120.134 231.769C123.874 230.792 127.917 233.161 128.895 236.901C129.941 240.908 127.503 244.684 123.763 245.661C120.023 246.638 116.049 244.537 115.003 240.53Z" fill="#1369FA"/>
<path d="M91.7601 246.601C90.7132 242.594 93.1514 238.818 96.8915 237.841C100.899 236.794 104.675 239.232 105.652 242.972C106.699 246.98 104.261 250.756 100.52 251.733C96.8501 252.977 92.8069 250.609 91.7601 246.601Z" fill="#1369FA"/>
<path d="M68.5186 252.673C67.4718 248.666 69.9099 244.89 73.65 243.913C77.3901 242.936 81.4334 245.304 82.4105 249.044C83.4573 253.051 81.0192 256.827 77.279 257.804C73.5389 258.782 69.5654 256.68 68.5186 252.673Z" fill="#1369FA"/>
<path d="M45.2757 258.745C44.2289 254.737 46.667 250.961 50.4071 249.984C54.4144 248.937 58.1906 251.375 59.1676 255.116C60.2144 259.123 57.7763 262.899 54.0361 263.876C50.0987 265.19 46.3225 262.752 45.2757 258.745Z" fill="#1369FA"/>
<path d="M21.7669 264.886C20.7201 260.878 23.1582 257.102 26.8983 256.125C30.6384 255.148 34.6817 257.517 35.6588 261.257C36.7056 265.264 34.2674 269.04 30.5273 270.017C26.7872 270.994 22.8137 268.893 21.7669 264.886Z" fill="#1369FA"/>
<path d="M-1.47541 270.957C-2.52224 266.95 -0.0840804 263.174 3.65604 262.197C7.66332 261.15 11.4395 263.588 12.4165 267.328C13.4633 271.336 11.0252 275.112 7.28505 276.089C3.61471 277.333 -0.428588 274.965 -1.47541 270.957Z" fill="#1369FA"/>
<path d="M201.261 189.458C200.214 185.45 202.652 181.674 206.392 180.697C210.4 179.65 214.176 182.089 215.153 185.829C216.2 189.836 213.761 193.612 210.021 194.589C206.281 195.566 202.238 193.198 201.261 189.458Z" fill="#1369FA"/>
<path d="M178.018 195.529C176.971 191.522 179.409 187.746 183.149 186.769C186.889 185.792 190.933 188.16 191.91 191.9C192.957 195.908 190.518 199.684 186.778 200.661C183.038 201.638 178.995 199.27 178.018 195.529Z" fill="#1369FA"/>
<path d="M154.775 201.601C153.728 197.594 156.167 193.818 159.907 192.841C163.914 191.794 167.69 194.232 168.667 197.972C169.714 201.98 167.276 205.756 163.536 206.733C159.796 207.71 155.752 205.341 154.775 201.601Z" fill="#1369FA"/>
<path d="M131.533 207.673C130.486 203.666 132.924 199.89 136.664 198.913C140.405 197.936 144.448 200.304 145.425 204.044C146.472 208.051 144.034 211.827 140.293 212.804C136.553 213.782 132.51 211.413 131.533 207.673Z" fill="#1369FA"/>
<path d="M108.024 213.814C106.977 209.807 109.415 206.031 113.155 205.054C116.895 204.077 120.938 206.445 121.916 210.185C122.962 214.192 120.524 217.969 116.784 218.946C113.044 219.923 109.001 217.554 108.024 213.814Z" fill="#1369FA"/>
<path d="M84.7813 219.886C83.7345 215.878 86.1726 212.102 89.9127 211.125C93.92 210.078 97.6961 212.517 98.6732 216.257C99.72 220.264 97.2818 224.04 93.5417 225.017C89.8016 225.994 85.7583 223.626 84.7813 219.886Z" fill="#1369FA"/>
<path d="M61.5398 225.957C60.493 221.95 62.9311 218.174 66.6713 217.197C70.4114 216.22 74.4547 218.588 75.4317 222.328C76.4786 226.335 74.0404 230.112 70.3003 231.089C66.5601 232.066 62.5169 229.697 61.5398 225.957Z" fill="#1369FA"/>
<path d="M38.2969 232.029C37.2501 228.021 39.6883 224.245 43.4284 223.268C47.4357 222.221 51.2118 224.66 52.1888 228.4C53.2357 232.407 50.7975 236.183 47.0574 237.16C43.0501 238.207 39.274 235.769 38.2969 232.029Z" fill="#1369FA"/>
<path d="M14.7881 238.17C13.7413 234.163 16.1794 230.387 19.9196 229.41C23.6597 228.433 27.703 230.801 28.68 234.541C29.7268 238.549 27.2887 242.325 23.5486 243.302C19.8084 244.279 15.7652 241.91 14.7881 238.17Z" fill="#1369FA"/>
<path d="M-8.45442 244.242C-9.50124 240.235 -7.06308 236.459 -3.32296 235.482C0.684314 234.435 4.46046 236.873 5.4375 240.613C6.48433 244.62 4.04617 248.397 0.306046 249.374C-3.43408 250.351 -7.47738 247.982 -8.45442 244.242Z" fill="#1369FA"/>
<path d="M194.213 162.476C193.166 158.468 195.604 154.692 199.344 153.715C203.351 152.668 207.127 155.107 208.104 158.847C209.151 162.854 206.713 166.63 202.973 167.607C199.303 168.851 195.259 166.483 194.213 162.476Z" fill="#1369FA"/>
<path d="M170.97 168.547C169.923 164.54 172.361 160.764 176.101 159.787C179.841 158.81 183.884 161.178 184.861 164.918C185.908 168.926 183.47 172.702 179.73 173.679C175.99 174.656 172.016 172.555 170.97 168.547Z" fill="#1369FA"/>
<path d="M147.727 174.619C146.68 170.612 149.118 166.836 152.859 165.859C156.866 164.812 160.642 167.25 161.619 170.99C162.666 174.997 160.228 178.774 156.488 179.751C152.817 180.995 148.774 178.626 147.727 174.619Z" fill="#1369FA"/>
<path d="M124.485 180.691C123.438 176.683 125.876 172.907 129.617 171.93C133.357 170.953 137.4 173.321 138.377 177.062C139.424 181.069 136.986 184.845 133.246 185.822C129.505 186.799 125.532 184.698 124.485 180.691Z" fill="#1369FA"/>
<path d="M100.975 186.832C99.9285 182.825 102.367 179.049 106.107 178.072C109.847 177.095 113.89 179.463 114.867 183.203C115.914 187.21 113.476 190.987 109.736 191.964C105.996 192.941 102.022 190.839 100.975 186.832Z" fill="#1369FA"/>
<path d="M77.7334 192.904C76.6866 188.897 79.1247 185.121 82.8649 184.144C86.8721 183.097 90.6483 185.535 91.6253 189.275C92.6721 193.282 90.234 197.058 86.4938 198.035C82.8235 199.28 78.7803 196.911 77.7334 192.904Z" fill="#1369FA"/>
<path d="M54.4916 198.975C53.4448 194.968 55.8829 191.192 59.623 190.215C63.3632 189.238 67.4064 191.606 68.3835 195.346C69.4303 199.353 66.9922 203.13 63.252 204.107C59.5119 205.084 55.5384 202.982 54.4916 198.975Z" fill="#1369FA"/>
<path d="M31.2491 205.047C30.2022 201.04 32.6404 197.264 36.3805 196.287C40.3878 195.24 44.1639 197.678 45.141 201.418C46.1878 205.425 43.7496 209.201 40.0095 210.178C36.072 211.492 32.2959 209.054 31.2491 205.047Z" fill="#1369FA"/>
<path d="M7.7399 211.188C6.69307 207.181 9.13121 203.405 12.8713 202.428C16.6115 201.451 20.6547 203.819 21.6318 207.559C22.6786 211.567 20.2404 215.343 16.5003 216.32C12.7602 217.297 8.78672 215.196 7.7399 211.188Z" fill="#1369FA"/>
<path d="M-15.502 217.26C-16.5489 213.252 -14.1107 209.476 -10.3706 208.499C-6.36329 207.452 -2.58716 209.89 -1.61013 213.631C-0.5633 217.638 -3.00146 221.414 -6.74158 222.391C-10.4119 223.635 -14.4552 221.267 -15.502 217.26Z" fill="#1369FA"/>
<path d="M187.234 135.762C186.187 131.754 188.625 127.978 192.365 127.001C196.373 125.954 200.149 128.392 201.126 132.133C202.173 136.14 199.735 139.916 195.994 140.893C192.254 141.87 188.211 139.502 187.234 135.762Z" fill="#1369FA"/>
<path d="M163.991 141.833C162.944 137.826 165.382 134.05 169.123 133.073C172.863 132.096 176.906 134.464 177.883 138.204C178.93 142.211 176.492 145.988 172.751 146.965C169.011 147.942 164.968 145.573 163.991 141.833Z" fill="#1369FA"/>
<path d="M140.749 147.905C139.702 143.898 142.14 140.122 145.88 139.144C149.887 138.098 153.663 140.536 154.64 144.276C155.687 148.283 153.249 152.059 149.509 153.036C145.769 154.013 141.726 151.645 140.749 147.905Z" fill="#1369FA"/>
<path d="M117.507 153.976C116.46 149.969 118.898 146.193 122.638 145.216C126.378 144.239 130.422 146.607 131.399 150.347C132.445 154.355 130.007 158.131 126.267 159.108C122.527 160.085 118.484 157.717 117.507 153.976Z" fill="#1369FA"/>
<path d="M93.9969 160.118C92.95 156.11 95.3882 152.334 99.1283 151.357C102.868 150.38 106.912 152.749 107.889 156.489C108.936 160.496 106.497 164.272 102.757 165.249C99.0172 166.226 94.9739 163.858 93.9969 160.118Z" fill="#1369FA"/>
<path d="M70.7549 166.19C69.7081 162.182 72.1462 158.406 75.8863 157.429C79.8936 156.382 83.6698 158.82 84.6468 162.561C85.6936 166.568 83.2555 170.344 79.5153 171.321C75.7752 172.298 71.7319 169.93 70.7549 166.19Z" fill="#1369FA"/>
<path d="M47.513 172.261C46.4661 168.254 48.9043 164.477 52.6444 163.5C56.3845 162.523 60.4278 164.892 61.4048 168.632C62.4517 172.639 60.0135 176.415 56.2734 177.392C52.5333 178.369 48.49 176.001 47.513 172.261Z" fill="#1369FA"/>
<path d="M24.2705 178.333C23.2237 174.325 25.6619 170.549 29.402 169.572C33.4093 168.525 37.1854 170.963 38.1625 174.704C39.2093 178.711 36.7711 182.487 33.031 183.464C29.0237 184.511 25.2476 182.073 24.2705 178.333Z" fill="#1369FA"/>
<path d="M0.761259 184.474C-0.285567 180.467 2.15257 176.691 5.8927 175.714C9.63282 174.737 13.6761 177.105 14.6531 180.845C15.7 184.852 13.2618 188.628 9.52168 189.605C5.78156 190.582 1.7383 188.214 0.761259 184.474Z" fill="#1369FA"/>
<path d="M203.693 102.637C202.647 98.6298 205.085 94.8537 208.825 93.8767C212.565 92.8996 216.608 95.268 217.585 99.0081C218.632 103.015 216.194 106.791 212.454 107.769C208.714 108.746 204.74 106.644 203.693 102.637Z" fill="#1369FA"/>
<path d="M180.185 108.778C179.138 104.771 181.576 100.995 185.316 100.018C189.323 98.9712 193.1 101.409 194.077 105.149C195.123 109.157 192.685 112.933 188.945 113.91C185.275 115.154 181.231 112.786 180.185 108.778Z" fill="#1369FA"/>
<path d="M156.942 114.85C155.895 110.843 158.333 107.067 162.073 106.09C165.813 105.113 169.857 107.481 170.834 111.221C171.88 115.229 169.442 119.005 165.702 119.982C161.962 120.959 157.989 118.858 156.942 114.85Z" fill="#1369FA"/>
<path d="M133.699 120.922C132.652 116.915 135.091 113.139 138.831 112.162C142.838 111.115 146.614 113.553 147.591 117.293C148.638 121.3 146.2 125.076 142.46 126.053C138.789 127.298 134.746 124.929 133.699 120.922Z" fill="#1369FA"/>
<path d="M110.457 126.993C109.41 122.986 111.849 119.21 115.589 118.233C119.329 117.256 123.372 119.624 124.349 123.364C125.396 127.372 122.958 131.148 119.218 132.125C115.478 133.102 111.504 131.001 110.457 126.993Z" fill="#1369FA"/>
<path d="M86.9477 133.135C85.9009 129.128 88.339 125.351 92.0791 124.374C95.8193 123.397 99.8626 125.766 100.84 129.506C101.886 133.513 99.4482 137.289 95.7081 138.266C91.968 139.243 87.9945 137.142 86.9477 133.135Z" fill="#1369FA"/>
<path d="M63.7056 139.206C62.6588 135.199 65.0969 131.423 68.837 130.446C72.8443 129.399 76.6205 131.837 77.5975 135.577C78.6443 139.585 76.2061 143.361 72.466 144.338C68.7957 145.582 64.7524 143.214 63.7056 139.206Z" fill="#1369FA"/>
<path d="M40.4637 145.278C39.4168 141.271 41.855 137.495 45.5951 136.518C49.3352 135.541 53.3785 137.909 54.3556 141.649C55.4024 145.656 52.9642 149.432 49.2241 150.409C45.484 151.386 41.5105 149.285 40.4637 145.278Z" fill="#1369FA"/>
<path d="M17.2214 151.35C16.1745 147.342 18.6127 143.566 22.3528 142.589C26.3601 141.542 30.1362 143.981 31.1133 147.721C32.1601 151.728 29.7219 155.504 25.9818 156.481C22.0443 157.795 18.2682 155.357 17.2214 151.35Z" fill="#1369FA"/>
<path d="M-6.28804 157.491C-7.33486 153.483 -4.89674 149.707 -1.15662 148.73C2.5835 147.753 6.62681 150.122 7.60384 153.862C8.65067 157.869 6.21249 161.645 2.47237 162.622C-1.26776 163.599 -5.24121 161.498 -6.28804 157.491Z" fill="#1369FA"/>
<path d="M196.715 75.9228C195.668 71.9155 198.106 68.1394 201.846 67.1623C205.586 66.1853 209.629 68.5537 210.606 72.2938C211.653 76.3011 209.215 80.0771 205.475 81.0542C201.735 82.0312 197.692 79.6629 196.715 75.9228Z" fill="#1369FA"/>
<path d="M173.206 82.0639C172.159 78.0566 174.597 74.2805 178.337 73.3034C182.345 72.2566 186.121 74.6947 187.098 78.4349C188.145 82.4421 185.707 86.2182 181.966 87.1953C178.226 88.1723 174.183 85.804 173.206 82.0639Z" fill="#1369FA"/>
<path d="M149.963 88.1354C148.916 84.1281 151.354 80.352 155.095 79.375C158.835 78.3979 162.878 80.7663 163.855 84.5064C164.902 88.5137 162.464 92.2898 158.724 93.2668C154.983 94.2438 150.94 91.8755 149.963 88.1354Z" fill="#1369FA"/>
<path d="M126.721 94.2072C125.674 90.1999 128.112 86.4238 131.852 85.4467C135.86 84.3999 139.636 86.8381 140.613 90.5782C141.66 94.5855 139.221 98.3615 135.481 99.3386C131.741 100.316 127.698 97.9473 126.721 94.2072Z" fill="#1369FA"/>
<path d="M103.479 100.278C102.432 96.2712 104.87 92.4951 108.61 91.518C112.35 90.541 116.394 92.9093 117.371 96.6495C118.417 100.657 115.979 104.433 112.239 105.41C108.499 106.387 104.456 104.019 103.479 100.278Z" fill="#1369FA"/>
<path d="M79.969 106.42C78.9222 102.413 81.3604 98.6367 85.1005 97.6596C88.8406 96.6826 92.8839 99.051 93.861 102.791C94.9078 106.798 92.4696 110.574 88.7295 111.551C84.9894 112.528 80.9461 110.16 79.969 106.42Z" fill="#1369FA"/>
<path d="M56.7272 112.492C55.6804 108.485 58.1185 104.708 61.8586 103.731C65.8659 102.685 69.6421 105.123 70.6191 108.863C71.6659 112.87 69.2277 116.646 65.4876 117.623C61.7475 118.6 57.7043 116.232 56.7272 112.492Z" fill="#1369FA"/>
<path d="M33.485 118.563C32.4382 114.556 34.8763 110.78 38.6165 109.803C42.3566 108.826 46.3999 111.194 47.3769 114.934C48.4237 118.941 45.9856 122.717 42.2454 123.695C38.5053 124.672 34.4621 122.303 33.485 118.563Z" fill="#1369FA"/>
<path d="M10.2428 124.635C9.19602 120.628 11.6342 116.851 15.3743 115.874C19.3816 114.828 23.1577 117.266 24.1348 121.006C25.1816 125.013 22.7434 128.789 19.0033 129.766C14.996 130.813 11.2199 128.375 10.2428 124.635Z" fill="#1369FA"/>
<path d="M-13.2667 130.776C-14.3135 126.769 -11.8754 122.993 -8.13526 122.016C-4.39513 121.039 -0.351832 123.407 0.625206 127.147C1.67203 131.155 -0.766149 134.931 -4.50627 135.908C-8.2464 136.885 -12.2896 134.516 -13.2667 130.776Z" fill="#1369FA"/>
<path d="M189.666 48.9403C188.619 44.9331 191.057 41.1569 194.797 40.1799C198.537 39.2029 202.58 41.5712 203.557 45.3114C204.604 49.3186 202.166 53.0947 198.426 54.0718C194.686 55.0488 190.712 52.9476 189.666 48.9403Z" fill="#1369FA"/>
<path d="M166.157 55.0815C165.111 51.0742 167.549 47.298 171.289 46.321C175.296 45.2742 179.072 47.7123 180.049 51.4525C181.096 55.4597 178.658 59.2358 174.918 60.2129C171.248 61.4571 167.204 59.0887 166.157 55.0815Z" fill="#1369FA"/>
<path d="M142.914 61.1532C141.868 57.146 144.306 53.3698 148.046 52.3928C151.786 51.4158 155.829 53.7841 156.806 57.5243C157.853 61.5315 155.415 65.3076 151.675 66.2847C147.935 67.2617 143.961 65.1605 142.914 61.1532Z" fill="#1369FA"/>
<path d="M119.672 67.225C118.625 63.2177 121.063 59.4416 124.803 58.4645C128.811 57.4177 132.587 59.8559 133.564 63.596C134.611 67.6033 132.173 71.3794 128.432 72.3564C124.762 73.6006 120.719 71.2323 119.672 67.225Z" fill="#1369FA"/>
<path d="M96.4301 73.2963C95.3833 69.289 97.8214 65.5129 101.562 64.5358C105.302 63.5588 109.345 65.9272 110.322 69.6673C111.369 73.6746 108.931 77.4507 105.191 78.4277C101.45 79.4048 97.4769 77.3036 96.4301 73.2963Z" fill="#1369FA"/>
<path d="M72.9202 79.4379C71.8734 75.4306 74.3115 71.6545 78.0517 70.6774C81.7918 69.7004 85.8351 72.0688 86.8121 75.8089C87.859 79.8162 85.4208 83.5923 81.6807 84.5693C77.9405 85.5464 73.967 83.4452 72.9202 79.4379Z" fill="#1369FA"/>
<path d="M49.6784 85.5094C48.6316 81.5022 51.0697 77.726 54.8098 76.749C58.8171 75.7022 62.5932 78.1403 63.5703 81.8804C64.6171 85.8877 62.1789 89.6638 58.4388 90.6409C54.7685 91.8851 50.7252 89.5167 49.6784 85.5094Z" fill="#1369FA"/>
<path d="M26.4365 91.581C25.3896 87.5737 27.8277 83.7976 31.5679 82.8205C35.308 81.8435 39.3513 84.2119 40.3283 87.952C41.3752 91.9592 38.937 95.7354 35.1969 96.7124C31.4567 97.6894 27.4833 95.5882 26.4365 91.581Z" fill="#1369FA"/>
<path d="M3.19353 97.6525C2.14671 93.6452 4.58486 89.8691 8.32499 88.892C12.3323 87.8452 16.1084 90.2834 17.0855 94.0235C18.1323 98.0308 15.6941 101.807 11.954 102.784C8.0165 104.098 4.24036 101.66 3.19353 97.6525Z" fill="#1369FA"/>
<path d="M135.935 34.4379C134.888 30.4306 137.326 26.6545 141.066 25.6775C144.806 24.7004 148.85 27.0688 149.827 30.8089C150.873 34.8162 148.435 38.5923 144.695 39.5693C140.955 40.5464 136.912 38.178 135.935 34.4379Z" fill="#1369FA"/>
<path d="M112.693 40.5092C111.646 36.5019 114.084 32.7258 117.824 31.7487C121.832 30.7019 125.608 33.1401 126.585 36.8802C127.632 40.8875 125.193 44.6636 121.453 45.6406C117.713 46.6176 113.67 44.2493 112.693 40.5092Z" fill="#1369FA"/>
<path d="M89.4506 46.581C88.4038 42.5737 90.8419 38.7975 94.5821 37.8205C98.3222 36.8435 102.365 39.2118 103.343 42.952C104.389 46.9592 101.951 50.7353 98.2111 51.7124C94.4709 52.6894 90.4276 50.3211 89.4506 46.581Z" fill="#1369FA"/>
<path d="M65.9411 52.7223C64.8943 48.7151 67.3324 44.9389 71.0725 43.9619C74.8127 42.9848 78.856 45.3532 79.833 49.0933C80.8798 53.1006 78.4417 56.8767 74.7015 57.8537C70.9614 58.8308 66.9181 56.4625 65.9411 52.7223Z" fill="#1369FA"/>
<path d="M42.6989 58.7939C41.6521 54.7866 44.0902 51.0104 47.8303 50.0334C51.8376 48.9866 55.6137 51.4247 56.5908 55.1649C57.6376 59.1721 55.1994 62.9482 51.4593 63.9253C47.7192 64.9023 43.6759 62.534 42.6989 58.7939Z" fill="#1369FA"/>
<path d="M19.4573 64.8654C18.4105 60.8581 20.8486 57.082 24.5887 56.1049C28.3289 55.1279 32.3722 57.4963 33.3492 61.2364C34.396 65.2437 31.9579 69.0198 28.2177 69.9968C24.4776 70.9739 20.4344 68.6055 19.4573 64.8654Z" fill="#1369FA"/>
<path d="M-3.78559 70.9372C-4.83242 66.9299 -2.39426 63.1537 1.34586 62.1767C5.35314 61.1299 9.12929 63.568 10.1063 67.3082C11.1532 71.3154 8.71498 75.0915 4.97486 76.0686C0.967583 77.1154 -2.80856 74.6773 -3.78559 70.9372Z" fill="#1369FA"/>
<path d="M82.4021 19.5993C81.3553 15.592 83.7935 11.8159 87.5336 10.8388C91.2737 9.86178 95.317 12.2302 96.2941 15.9703C97.3409 19.9775 94.9027 23.7537 91.1626 24.7307C87.4225 25.7078 83.449 23.6066 82.4021 19.5993Z" fill="#1369FA"/>
<path d="M58.893 25.7404C57.8462 21.7331 60.2843 17.957 64.0245 16.9799C67.7646 16.0029 71.8079 18.3713 72.7849 22.1114C73.8317 26.1187 71.3936 29.8948 67.6535 30.8719C63.9133 31.8489 59.9398 29.7477 58.893 25.7404Z" fill="#1369FA"/>
<path d="M35.6504 31.8122C34.6036 27.8049 37.0417 24.0288 40.7819 23.0517C44.7891 22.0049 48.5653 24.4431 49.5423 28.1832C50.5891 32.1904 48.151 35.9666 44.4109 36.9436C40.7405 38.1878 36.6973 35.8194 35.6504 31.8122Z" fill="#1369FA"/>
<path d="M12.409 37.8835C11.3622 33.8762 13.8003 30.1 17.5404 29.123C21.2805 28.146 25.3238 30.5143 26.3009 34.2545C27.3477 38.2617 24.9095 42.0379 21.1694 43.0149C17.4293 43.992 13.4558 41.8907 12.409 37.8835Z" fill="#1369FA"/>
<path d="M-10.8339 43.9552C-11.8808 39.948 -9.4426 36.1718 -5.70248 35.1948C-1.6952 34.1479 2.08095 36.5861 3.05799 40.3262C4.10481 44.3335 1.66665 48.1097 -2.07347 49.0867C-6.01096 50.4007 -9.78711 47.9625 -10.8339 43.9552Z" fill="#1369FA"/>
</g>
</g>
<path d="M535.981 153.554L548.983 160.171L556.297 156.456C555.136 155.76 553.859 155.179 552.582 154.599L548.867 156.456L538.419 151.116C537.606 151.116 536.678 151 535.865 151C535.052 151 534.123 151 533.311 151.116L522.862 156.456L519.264 154.599C517.987 155.179 516.826 155.76 515.549 156.456L522.862 160.171L535.981 153.554Z" fill="#12BFAC"/>
<path d="M522.979 168.646L535.981 162.028L548.983 168.646L561.986 162.028L565.701 163.886C564.075 162.145 562.218 160.519 560.361 159.126L548.983 164.931L535.981 158.313L522.979 164.931L511.601 159.126C509.628 160.519 507.886 162.145 506.261 163.886L509.976 162.028L522.979 168.646Z" fill="#12BFAC"/>
<path d="M522.978 177.005L535.981 170.387L548.983 177.005L561.986 170.387L573.827 176.424C573.131 174.683 572.318 173.057 571.389 171.432L561.986 166.672L548.983 173.29L535.981 166.672L522.978 173.29L509.976 166.672L500.572 171.432C499.644 173.057 498.831 174.683 498.135 176.424L509.976 170.387L522.978 177.005Z" fill="#12BFAC"/>
<path d="M509.86 178.862L522.863 185.479L535.865 178.862L548.867 185.479L561.87 178.862L574.872 185.479L576.149 184.899C575.917 183.738 575.685 182.693 575.453 181.532L574.988 181.764L561.986 175.147L548.983 181.764L535.981 175.147L522.979 181.764L509.976 175.147L496.974 181.764L496.509 181.532C496.277 182.577 495.929 183.738 495.813 184.899L497.09 185.479L509.86 178.862Z" fill="#12BFAC"/>
<path d="M576.846 189.31L575.104 190.239L562.102 183.622L549.099 190.239L536.097 183.622L523.095 190.239L510.092 183.622L496.857 190.239L495.116 189.31C495.116 190.239 495 191.052 495 191.981C495 192.329 495 192.677 495 193.025L496.857 193.954L509.86 187.337L522.862 193.954L535.865 187.337L548.867 193.954L561.87 187.337L574.872 193.954L576.73 193.025C576.73 192.677 576.73 192.329 576.73 191.981C576.962 191.052 576.962 190.239 576.846 189.31Z" fill="#12BFAC"/>
<path d="M562.102 191.981L549.1 198.598L536.097 191.981L523.095 198.598L510.092 191.981L497.09 198.598L495.697 197.902C495.929 199.295 496.161 200.688 496.51 202.081L497.09 202.429L510.092 195.812L523.095 202.429L536.097 195.812L549.1 202.429L562.102 195.812L575.105 202.429L575.685 202.081C576.033 200.688 576.266 199.295 576.498 197.902L575.105 198.598L562.102 191.981Z" fill="#12BFAC"/>
<path d="M548.983 207.073L535.981 200.456L522.979 207.073L509.976 200.456L497.786 206.609C498.135 207.653 498.599 208.698 499.063 209.627L509.976 204.054L522.979 210.672L535.981 204.054L548.983 210.672L561.986 204.054L572.899 209.627C573.363 208.582 573.827 207.653 574.176 206.609L561.986 200.456L548.983 207.073Z" fill="#12BFAC"/>
<path d="M548.984 215.547L535.981 208.93L522.979 215.547L509.976 208.93L501.153 213.458C501.734 214.387 502.314 215.315 503.011 216.244L509.976 212.645L522.979 219.262L535.981 212.645L548.984 219.262L561.986 212.645L568.952 216.244C569.648 215.315 570.229 214.387 570.809 213.458L561.986 208.93L548.984 215.547Z" fill="#12BFAC"/>
<path d="M548.983 224.022L535.981 217.405L522.978 224.022L509.976 217.405L505.681 219.611C506.493 220.423 507.306 221.352 508.119 222.049L509.86 221.12L522.862 227.737L535.865 221.12L548.867 227.737L561.87 221.12L563.727 222.049C564.54 221.236 565.352 220.423 566.165 219.611L561.87 217.405L548.983 224.022Z" fill="#12BFAC"/>
<path d="M524.952 231.452C526.577 231.917 528.319 232.265 530.176 232.497L536.097 229.479L542.018 232.497C543.759 232.265 545.5 231.917 547.242 231.452L536.213 225.764L524.952 231.452Z" fill="#12BFAC"/>
</svg>
