<?xml version="1.0" encoding="UTF-8"?>
<svg width="1120px" height="226px" viewBox="0 0 1120 226" version="1.1" xmlns="http://www.w3.org/2000/svg" xmlns:xlink="http://www.w3.org/1999/xlink">
    <!-- Generator: Sketch 56.2 (81672) - https://sketch.com -->
    <title>img/img_bg_effect</title>
    <desc>Created with Sketch.</desc>
    <g id="img/img_bg_effect" stroke="none" stroke-width="1" fill="none" fill-rule="evenodd">
        <g id="img_bg_effect" transform="translate(0.000000, -0.000000)">
            <g id="img_effect_l">
                <g id="img_bg_fire1" opacity="0.699999988" transform="translate(74.000000, 85.000000)">
                    <rect id="bound" x="0" y="0" width="45" height="45"></rect>
                    <path d="M21.9353708,2.75639271 L21.9353708,-2.48689958e-14 L23.0646292,-2.48689958e-14 L23.0646292,2.75639271 L21.9353708,2.75639271 Z M21.9353708,21.3157895 L21.9353708,18.5593968 L23.0646292,18.5593968 L23.0646292,21.3157895 L21.9353708,21.3157895 Z M30.4044326,11.2329034 L30.4044326,10.1019983 L33.1578947,10.1019983 L33.1578947,11.2329034 L30.4044326,11.2329034 Z M11.8421053,11.2329034 L11.8421053,10.1019983 L14.5963207,10.1019983 L14.5963207,11.2329034 L11.8421053,11.2329034 Z M28.4887613,5.47260059 L27.6894662,4.67267371 L29.6368533,2.72450118 L30.4361483,3.52442806 L28.4887613,5.47260059 Z M15.3626947,18.6097974 L14.5633997,17.8098706 L16.5107867,15.8609441 L17.3100818,16.660871 L15.3626947,18.6097974 Z M29.6372299,18.6097974 L27.6898429,16.660871 L28.4891379,15.8609441 L30.436525,17.8098706 L29.6372299,18.6097974 Z M16.5110881,5.47260059 L14.563701,3.52442806 L15.3629961,2.72450118 L17.3103831,4.67267371 L16.5110881,5.47260059 Z M19.8761126,3.18357326 L19.1513983,0.524438394 L20.2414831,0.226633383 L20.9661973,2.88576825 L19.8761126,3.18357326 Z M24.0339534,18.4483042 L25.1240381,18.1512531 L25.8487523,20.810388 L24.7586676,21.108193 L24.0339534,18.4483042 Z M30.2750086,9.13183254 L29.9774388,8.04088608 L32.6344733,7.31559894 L32.9312897,8.4065454 L30.2750086,9.13183254 Z M12.0678063,12.9283564 L14.7248407,12.2030692 L15.0216572,13.2940157 L12.3646227,14.0193028 L12.0678063,12.9283564 Z M26.9129221,4.07955168 L25.9313185,3.51862275 L27.2978795,1.12562755 L28.2787297,1.68655648 L26.9129221,4.07955168 Z M17.7021959,20.2089726 L16.7205923,19.6480437 L18.0871532,17.2550485 L19.0680035,17.8159774 L17.7021959,20.2089726 Z M31.4734991,16.4514273 L29.0823941,15.0837861 L29.64288,14.1021605 L32.033985,15.4698017 L31.4734991,16.4514273 Z M15.3568187,7.23228893 L12.9657137,5.86615557 L13.5261995,4.883776 L15.9173045,6.24990936 L15.3568187,7.23228893 Z M24.0203932,2.88320487 L24.7398341,0.223316061 L25.8299188,0.518105325 L25.110478,3.17874807 L24.0203932,2.88320487 Z M19.1699305,20.8150624 L19.8893714,18.1559275 L20.9794561,18.4507168 L20.2600153,21.1106056 L19.1699305,20.8150624 Z M29.9821095,13.2805202 L30.2774193,12.1888198 L32.9359604,12.9088294 L32.6406507,14.0005298 L29.9821095,13.2805202 Z M12.0644163,8.42622315 L12.3589727,7.33452275 L15.0175138,8.0537784 L14.7229574,9.14547879 L12.0644163,8.42622315 Z M29.6364766,7.21977358 L29.0744841,6.23890189 L31.463329,4.86749096 L32.0253216,5.84836266 L29.6364766,7.21977358 Z M13.5367463,16.46726 L12.9747538,15.4863883 L15.3635987,14.1149774 L15.9255913,15.0958491 L13.5367463,16.46726 Z M27.315357,20.2005286 L25.9450293,17.8105491 L26.9243729,17.2473584 L28.2954539,19.6373378 L27.315357,20.2005286 Z M18.0751751,4.0876942 L16.7048474,1.69620687 L17.684191,1.13377006 L19.055272,3.52525739 L18.0751751,4.0876942 Z" id="Combined-Shape" fill="#FFFFFF"></path>
                    <rect id="Rectangle" fill="#FFFFFF" x="22.1052632" y="24.4736842" width="1" height="20.5263158"></rect>
                </g>
                <g id="img_bg_fire2" transform="translate(10.000000, 131.000000)">
                    <rect id="bound" x="0" y="0" width="38" height="38"></rect>
                    <path d="M18.77285,4.90913473 L18.77285,-6.21724894e-15 L19.2298978,-6.21724894e-15 L19.2298978,4.90913473 L18.77285,4.90913473 Z M18.77285,38 L18.77285,33.0917812 L19.2298978,33.0917812 L19.2298978,38 L18.77285,38 Z M33.0912698,19 L37.9997252,19 L33.0912698,19 Z M33.0915445,19.228055 L33.0915445,18.7710292 L38,18.7710292 L38,19.228055 L33.0915445,19.228055 Z M-6.66133815e-15,19.228055 L-6.66133815e-15,18.7710292 L4.90937138,18.7710292 L4.90937138,19.228055 L-6.66133815e-15,19.228055 Z M29.1264944,9.19730055 L28.8022561,8.87307785 L32.2745372,5.40371174 L32.5978596,5.72701856 L29.1264944,9.19730055 Z M5.7265619,32.5974789 L5.40232356,32.2732562 L8.8746047,28.8020583 L9.19792711,29.126281 L5.7265619,32.5974789 Z M32.2741708,32.5974789 L28.8028056,29.126281 L29.126128,28.8020583 L32.5984092,32.2732562 L32.2741708,32.5974789 Z M8.87414674,9.19730055 L5.40278153,5.72701856 L5.72610393,5.40371174 L9.19838508,8.87307785 L8.87414674,9.19730055 Z M15.0736936,5.46580863 L13.7822358,0.728859966 L14.2237129,0.607963365 L15.5151707,5.34491203 L15.0736936,5.46580863 Z M22.4862032,32.6560954 L22.9276803,32.5361147 L24.2209699,37.2721475 L23.7785769,37.3930441 L22.4862032,32.6560954 Z M32.6561126,15.5146059 L32.5361261,15.0731502 L37.2723872,13.7808388 L37.3923737,14.2232104 L32.6561126,15.5146059 Z M0.607534709,23.7784382 L5.34471172,22.4861268 L5.46469823,22.9275826 L0.726605283,24.219894 L0.607534709,23.7784382 Z M26.1909468,6.88029887 L25.7934342,6.6531598 L28.2298014,2.39063871 L28.626398,2.61777778 L26.1909468,6.88029887 Z M9.77129772,35.6099108 L9.37378519,35.3827718 L11.8101523,31.1211665 L12.2067489,31.3483056 L9.77129772,35.6099108 Z M35.3832867,28.6276741 L31.1214761,26.1905086 L31.3486261,25.7939311 L35.6104368,28.2301808 L35.3832867,28.6276741 Z M6.76595642,12.0071391 L2.50414578,9.57272114 L6.76595642,12.0071391 Z M6.65228982,12.2061605 L2.39047917,9.77174259 L2.61762919,9.37424922 L6.87943984,11.8077513 L6.65228982,12.2061605 Z M22.9037746,5.45866474 L22.4622975,5.33868402 L23.744596,0.600819475 L24.1860731,0.720800193 L22.9037746,5.45866474 Z M14.0359477,37.3389154 L15.3182462,32.6019667 L14.0359477,37.3389154 Z M13.815026,37.2787419 L15.0973245,32.5427091 L15.5397175,32.6617739 L14.2565031,37.3987226 L13.815026,37.2787419 Z M37.2813633,24.1860063 L32.5423544,22.9037696 L32.6623409,22.4613979 L37.4013498,23.7445505 L37.2813633,24.1860063 Z M0.599291361,14.2570065 L0.719277863,13.8155507 L5.45828673,15.0959557 L5.33830023,15.5383273 L0.599291361,14.2570065 Z M31.3349788,12.1846373 L31.1078288,11.7871439 L35.3659757,9.34448301 L35.5931257,9.74197638 L31.3349788,12.1846373 Z M2.63439067,28.6562497 L2.40724065,28.2587563 L6.66538758,25.8160954 L6.8925376,26.2135888 L2.63439067,28.6562497 Z M28.2598438,35.5933333 L25.8161492,31.3363075 L26.2136618,31.1082526 L28.6573563,35.3652784 L28.2598438,35.5933333 Z M11.7874373,6.89376235 L9.34374277,2.63398891 L9.7412553,2.40593396 L12.1849499,6.6657074 L11.7874373,6.89376235 Z" id="Combined-Shape" fill="#FFFFFF"></path>
                </g>
                <path d="M207.093318,23 C205.743521,22.0961071 205.0004,20.9306871 205.0004,19.7173294 C205.0004,18.5045043 205.743521,17.3385517 207.093318,16.4346588 C207.776674,15.9776522 208.590838,15.2255622 208.590838,14.2391098 C208.590838,13.2526574 207.776674,12.5005674 207.093318,12.0435608 C205.743521,11.1396679 205.0004,9.97424793 205.0004,8.76089021 C205.0004,7.54753248 205.743521,6.3821125 207.093318,5.47821959 C207.776674,5.02121303 208.590838,4.26859035 208.590838,3.28213798 C208.590838,2.29621824 207.776674,1.5441282 207.093318,1.08658901 L207.908045,0 C209.257842,0.903360274 210.0004,2.06931289 210.0004,3.28213798 C210.0004,4.49602835 209.257842,5.66144832 207.908045,6.56534124 C207.22469,7.02234779 206.409962,7.77497047 206.409962,8.76089021 C206.409962,9.74680994 207.22469,10.4994326 207.908045,10.9569718 C209.257279,11.8592668 210.0004,13.0252194 210.0004,14.2391098 C210.0004,15.4530002 209.257279,16.6189528 207.908045,17.5212478 C207.22469,17.978787 206.409962,18.7314096 206.409962,19.7173294 C206.409962,20.7032491 207.22469,21.4558718 207.908045,21.913411 L207.093318,23 Z" id="Fill-1" fill="#FFFFFF"></path>
                <path d="M117.093318,226 C115.743521,225.096107 115.0004,223.930687 115.0004,222.717329 C115.0004,221.504504 115.743521,220.338552 117.093318,219.434659 C117.776674,218.977652 118.590838,218.225562 118.590838,217.23911 C118.590838,216.252657 117.776674,215.500567 117.093318,215.043561 C115.743521,214.139668 115.0004,212.974248 115.0004,211.76089 C115.0004,210.547532 115.743521,209.382113 117.093318,208.47822 C117.776674,208.021213 118.590838,207.26859 118.590838,206.282138 C118.590838,205.296218 117.776674,204.544128 117.093318,204.086589 L117.908045,203 C119.257842,203.90336 120.0004,205.069313 120.0004,206.282138 C120.0004,207.496028 119.257842,208.661448 117.908045,209.565341 C117.22469,210.022348 116.409962,210.77497 116.409962,211.76089 C116.409962,212.74681 117.22469,213.499433 117.908045,213.956972 C119.257279,214.859267 120.0004,216.025219 120.0004,217.23911 C120.0004,218.453 119.257279,219.618953 117.908045,220.521248 C117.22469,220.978787 116.409962,221.73141 116.409962,222.717329 C116.409962,223.703249 117.22469,224.455872 117.908045,224.913411 L117.093318,226 Z" id="Fill-1" fill="#FFFFFF"></path>
                <g id="img_bg_dots" opacity="0.599999964" transform="translate(112.000000, 15.000000)">
                    <rect id="bound" x="0" y="0" width="62" height="62"></rect>
                    <path d="M26.7699881,1.65035063 C26.7699881,2.56352764 26.0289883,3.30197664 25.1132605,3.30197664 C24.1962574,3.30197664 23.4552576,2.56352764 23.4552576,1.65035063 C23.4552576,0.738449006 24.1962574,3.19744231e-14 25.1132605,3.19744231e-14 C26.0289883,3.19744231e-14 26.7699881,0.738449006 26.7699881,1.65035063 Z M3.31473051,25.0681118 C3.31473051,25.9812888 2.57245535,26.7197378 1.65800295,26.7197378 C0.742275167,26.7197378 2.30926389e-14,25.9812888 2.30926389e-14,25.0681118 C2.30926389e-14,24.1549348 0.742275167,23.4164858 1.65800295,23.4164858 C2.57245535,23.4164858 3.31473051,24.1549348 3.31473051,25.0681118 Z M15.0398723,25.0681118 C15.0398723,25.9812888 14.2988725,26.7197378 13.3831447,26.7197378 C12.467417,26.7197378 11.7289679,25.9812888 11.7289679,25.0681118 C11.7289679,24.1549348 12.467417,23.4164858 13.3831447,23.4164858 C14.2988725,23.4164858 15.0398723,24.1549348 15.0398723,25.0681118 Z M26.7699881,25.0681118 C26.7699881,25.9812888 26.0289883,26.7197378 25.1132605,26.7197378 C24.1962574,26.7197378 23.4552576,25.9812888 23.4552576,25.0681118 C23.4552576,24.1549348 24.1962574,23.4164858 25.1132605,23.4164858 C26.0289883,23.4164858 26.7699881,24.1549348 26.7699881,25.0681118 Z M38.4975531,25.0681118 C38.4975531,25.9812888 37.7565533,26.7197378 36.8421009,26.7197378 C35.9263731,26.7197378 35.184098,25.9812888 35.184098,25.0681118 C35.184098,24.1549348 35.9263731,23.4164858 36.8421009,23.4164858 C37.7565533,23.4164858 38.4975531,24.1549348 38.4975531,25.0681118 Z M9.17857679,30.9231579 C9.17857679,31.8363349 8.43502624,32.5735086 7.52184923,32.5735086 C6.60612145,32.5735086 5.86512167,31.8363349 5.86512167,30.9231579 C5.86512167,30.0099809 6.60612145,29.2715319 7.52184923,29.2715319 C8.43502624,29.2715319 9.17857679,30.0099809 9.17857679,30.9231579 Z M20.9048664,30.9231579 C20.9048664,31.8363349 20.1638666,32.5735086 19.2494142,32.5735086 C18.3336865,32.5735086 17.5901359,31.8363349 17.5901359,30.9231579 C17.5901359,30.0099809 18.3336865,29.2715319 19.2494142,29.2715319 C20.1638666,29.2715319 20.9048664,30.0099809 20.9048664,30.9231579 Z M32.6337068,30.9231579 C32.6337068,31.8363349 31.8914317,32.5735086 30.9769793,32.5735086 C30.0599761,32.5735086 29.3202517,31.8363349 29.3202517,30.9231579 C29.3202517,30.0099809 30.0599761,29.2715319 30.9769793,29.2715319 C31.8914317,29.2715319 32.6337068,30.0099809 32.6337068,30.9231579 Z M15.0398723,13.3567442 C15.0398723,14.2699212 14.2988725,15.010921 13.3831447,15.010921 C12.467417,15.010921 11.7289679,14.2699212 11.7289679,13.3567442 C11.7289679,12.4473934 12.467417,11.7063936 13.3831447,11.7063936 C14.2988725,11.7063936 15.0398723,12.4473934 15.0398723,13.3567442 Z M26.7699881,13.3567442 C26.7699881,14.2699212 26.0289883,15.010921 25.1132605,15.010921 C24.1962574,15.010921 23.4552576,14.2699212 23.4552576,13.3567442 C23.4552576,12.4473934 24.1962574,11.7063936 25.1132605,11.7063936 C26.0289883,11.7063936 26.7699881,12.4473934 26.7699881,13.3567442 Z M38.4975531,13.3567442 C38.4975531,14.2699212 37.7565533,15.010921 36.8421009,15.010921 C35.9263731,15.010921 35.184098,14.2699212 35.184098,13.3567442 C35.184098,12.4473934 35.9263731,11.7063936 36.8421009,11.7063936 C37.7565533,11.7063936 38.4975531,12.4473934 38.4975531,13.3567442 Z M20.9048664,7.50348366 C20.9048664,8.41666067 20.1638666,9.15510967 19.2494142,9.15510967 C18.3336865,9.15510967 17.5901359,8.41666067 17.5901359,7.50348366 C17.5901359,6.59030665 18.3336865,5.85313303 19.2494142,5.85313303 C20.1638666,5.85313303 20.9048664,6.59030665 20.9048664,7.50348366 Z M32.6337068,7.50348366 C32.6337068,8.41666067 31.8914317,9.15510967 30.9769793,9.15510967 C30.0599761,9.15510967 29.3202517,8.41666067 29.3202517,7.50348366 C29.3202517,6.59030665 30.0599761,5.85313303 30.9769793,5.85313303 C31.8914317,5.85313303 32.6337068,6.59030665 32.6337068,7.50348366 Z M9.17857679,19.2130657 C9.17857679,20.1249673 8.43502624,20.8646917 7.52184923,20.8646917 C6.60612145,20.8646917 5.86512167,20.1249673 5.86512167,19.2130657 C5.86512167,18.3024395 6.60612145,17.5614397 7.52184923,17.5614397 C8.43502624,17.5614397 9.17857679,18.3024395 9.17857679,19.2130657 Z M9.17857679,7.50348366 C9.17857679,8.41410989 8.43502624,9.15510967 7.52184923,9.15510967 C6.60612145,9.15510967 5.86512167,8.41410989 5.86512167,7.50348366 C5.86512167,6.59158204 6.60612145,5.85185764 7.52184923,5.85185764 C8.43502624,5.85185764 9.17857679,6.59158204 9.17857679,7.50348366 Z M20.9048664,19.2130657 C20.9048664,20.1249673 20.1638666,20.8646917 19.2494142,20.8646917 C18.3336865,20.8646917 17.5901359,20.1249673 17.5901359,19.2130657 C17.5901359,18.3024395 18.3336865,17.5614397 19.2494142,17.5614397 C20.1638666,17.5614397 20.9048664,18.3024395 20.9048664,19.2130657 Z M32.6337068,19.2130657 C32.6337068,20.1249673 31.8914317,20.8646917 30.9769793,20.8646917 C30.0599761,20.8646917 29.3202517,20.1249673 29.3202517,19.2130657 C29.3202517,18.3024395 30.0599761,17.5614397 30.9769793,17.5614397 C31.8914317,17.5614397 32.6337068,18.3024395 32.6337068,19.2130657 Z M38.4999763,1.65035063 C38.4999763,2.56352764 37.7589766,3.30197664 36.8432488,3.30197664 C35.927521,3.30197664 35.1865212,2.56352764 35.1865212,1.65035063 C35.1865212,0.738449006 35.927521,3.19744231e-14 36.8432488,3.19744231e-14 C37.7589766,3.19744231e-14 38.4999763,0.738449006 38.4999763,1.65035063 Z M15.0398723,36.7764185 C15.0398723,37.6895955 14.2988725,38.4280445 13.3831447,38.4280445 C12.467417,38.4280445 11.7289679,37.6895955 11.7289679,36.7764185 C11.7289679,35.8645169 12.467417,35.1260679 13.3831447,35.1260679 C14.2988725,35.1260679 15.0398723,35.8645169 15.0398723,36.7764185 Z M26.7699881,36.7764185 C26.7699881,37.6895955 26.0289883,38.4280445 25.1132605,38.4280445 C24.1962574,38.4280445 23.4552576,37.6895955 23.4552576,36.7764185 C23.4552576,35.8645169 24.1962574,35.1260679 25.1132605,35.1260679 C26.0289883,35.1260679 26.7699881,35.8645169 26.7699881,36.7764185 Z M26.7699881,60.1941797 C26.7699881,61.1073567 26.0289883,61.8458057 25.1132605,61.8458057 C24.1962574,61.8458057 23.4552576,61.1073567 23.4552576,60.1941797 C23.4552576,59.2810027 24.1962574,58.5425537 25.1132605,58.5425537 C26.0289883,58.5425537 26.7699881,59.2810027 26.7699881,60.1941797 Z M38.4975531,60.1941797 C38.4975531,61.1073567 37.7565533,61.8458057 36.8421009,61.8458057 C35.9263731,61.8458057 35.184098,61.1073567 35.184098,60.1941797 C35.184098,59.2810027 35.9263731,58.5425537 36.8421009,58.5425537 C37.7565533,58.5425537 38.4975531,59.2810027 38.4975531,60.1941797 Z M15.0398723,48.4828121 C15.0398723,49.3959891 14.2988725,50.1369889 13.3831447,50.1369889 C12.467417,50.1369889 11.7289679,49.3959891 11.7289679,48.4828121 C11.7289679,47.5734613 12.467417,46.8324615 13.3831447,46.8324615 C14.2988725,46.8324615 15.0398723,47.5734613 15.0398723,48.4828121 Z M26.7699881,48.4828121 C26.7699881,49.3959891 26.0289883,50.1369889 25.1132605,50.1369889 C24.1962574,50.1369889 23.4552576,49.3959891 23.4552576,48.4828121 C23.4552576,47.5734613 24.1962574,46.8324615 25.1132605,46.8324615 C26.0289883,46.8324615 26.7699881,47.5734613 26.7699881,48.4828121 Z M38.4975531,48.4828121 C38.4975531,49.3959891 37.7565533,50.1369889 36.8421009,50.1369889 C35.9263731,50.1369889 35.184098,49.3959891 35.184098,48.4828121 C35.184098,47.5734613 35.9263731,46.8324615 36.8421009,46.8324615 C37.7565533,46.8324615 38.4975531,47.5734613 38.4975531,48.4828121 Z M3.31473051,36.7751431 C3.31473051,37.6883201 2.57245535,38.4293199 1.65800295,38.4293199 C0.742275167,38.4293199 2.30926389e-14,37.6883201 2.30926389e-14,36.7751431 C2.30926389e-14,35.8657923 0.742275167,35.1247925 1.65800295,35.1247925 C2.57245535,35.1247925 3.31473051,35.8657923 3.31473051,36.7751431 Z M9.17857679,42.6295515 C9.17857679,43.5427285 8.43502624,44.2811776 7.52184923,44.2811776 C6.60612145,44.2811776 5.86512167,43.5427285 5.86512167,42.6295515 C5.86512167,41.7163745 6.60612145,40.9792009 7.52184923,40.9792009 C8.43502624,40.9792009 9.17857679,41.7163745 9.17857679,42.6295515 Z M9.17857679,54.3372205 C9.17857679,55.2503975 8.43502624,55.9888465 7.52184923,55.9888465 C6.60612145,55.9888465 5.86512167,55.2503975 5.86512167,54.3372205 C5.86512167,53.4240435 6.60612145,52.6868699 7.52184923,52.6868699 C8.43502624,52.6868699 9.17857679,53.4240435 9.17857679,54.3372205 Z M20.9048664,42.6295515 C20.9048664,43.5427285 20.1638666,44.2811776 19.2494142,44.2811776 C18.3336865,44.2811776 17.5901359,43.5427285 17.5901359,42.6295515 C17.5901359,41.7163745 18.3336865,40.9792009 19.2494142,40.9792009 C20.1638666,40.9792009 20.9048664,41.7163745 20.9048664,42.6295515 Z M32.6337068,42.6295515 C32.6337068,43.5427285 31.8914317,44.2811776 30.9769793,44.2811776 C30.0599761,44.2811776 29.3202517,43.5427285 29.3202517,42.6295515 C29.3202517,41.7163745 30.0599761,40.9792009 30.9769793,40.9792009 C31.8914317,40.9792009 32.6337068,41.7163745 32.6337068,42.6295515 Z M20.9048664,54.3391336 C20.9048664,55.2510352 20.1638666,55.9907596 19.2494142,55.9907596 C18.3336865,55.9907596 17.5901359,55.2510352 17.5901359,54.3391336 C17.5901359,53.4285074 18.3336865,52.6875076 19.2494142,52.6875076 C20.1638666,52.6875076 20.9048664,53.4285074 20.9048664,54.3391336 Z M32.6337068,54.3391336 C32.6337068,55.2510352 31.8914317,55.9907596 30.9769793,55.9907596 C30.0599761,55.9907596 29.3202517,55.2510352 29.3202517,54.3391336 C29.3202517,53.4285074 30.0599761,52.6875076 30.9769793,52.6875076 C31.8914317,52.6875076 32.6337068,53.4285074 32.6337068,54.3391336 Z M38.4999763,36.7764185 C38.4999763,37.6895955 37.7589766,38.4280445 36.8432488,38.4280445 C35.927521,38.4280445 35.1865212,37.6895955 35.1865212,36.7764185 C35.1865212,35.8645169 35.927521,35.1260679 36.8432488,35.1260679 C37.7589766,35.1260679 38.4999763,35.8645169 38.4999763,36.7764185 Z M50.2749858,25.0681118 C50.2749858,25.9812888 49.5327106,26.7197378 48.6182582,26.7197378 C47.701255,26.7197378 46.9589799,25.9812888 46.9589799,25.0681118 C46.9589799,24.1549348 47.701255,23.4164858 48.6182582,23.4164858 C49.5327106,23.4164858 50.2749858,24.1549348 50.2749858,25.0681118 Z M62,25.0681118 C62,25.9812888 61.2590002,26.7197378 60.3432724,26.7197378 C59.4262693,26.7197378 58.6890956,25.9812888 58.6890956,25.0681118 C58.6890956,24.1549348 59.4262693,23.4164858 60.3432724,23.4164858 C61.2590002,23.4164858 62,24.1549348 62,25.0681118 Z M44.4085887,30.9231579 C44.4085887,31.8363349 43.6663135,32.5735086 42.7505858,32.5735086 C41.8361334,32.5735086 41.0951336,31.8363349 41.0951336,30.9231579 C41.0951336,30.0099809 41.8361334,29.2715319 42.7505858,29.2715319 C43.6663135,29.2715319 44.4085887,30.0099809 44.4085887,30.9231579 Z M56.1387045,30.9231579 C56.1387045,31.8363349 55.3938786,32.5735086 54.4807015,32.5735086 C53.5649738,32.5735086 52.8252494,31.8363349 52.8252494,30.9231579 C52.8252494,30.0099809 53.5649738,29.2715319 54.4807015,29.2715319 C55.3938786,29.2715319 56.1387045,30.0099809 56.1387045,30.9231579 Z M50.2749858,13.3567442 C50.2749858,14.2699212 49.5327106,15.010921 48.6182582,15.010921 C47.701255,15.010921 46.9589799,14.2699212 46.9589799,13.3567442 C46.9589799,12.4473934 47.701255,11.7063936 48.6182582,11.7063936 C49.5327106,11.7063936 50.2749858,12.4473934 50.2749858,13.3567442 Z M44.4085887,19.2130657 C44.4085887,20.1249673 43.6663135,20.8646917 42.7505858,20.8646917 C41.8361334,20.8646917 41.0951336,20.1249673 41.0951336,19.2130657 C41.0951336,18.3024395 41.8361334,17.5614397 42.7505858,17.5614397 C43.6663135,17.5614397 44.4085887,18.3024395 44.4085887,19.2130657 Z M56.1387045,19.2130657 C56.1387045,20.1249673 55.3938786,20.8646917 54.4807015,20.8646917 C53.5649738,20.8646917 52.8252494,20.1249673 52.8252494,19.2130657 C52.8252494,18.3024395 53.5649738,17.5614397 54.4807015,17.5614397 C55.3938786,17.5614397 56.1387045,18.3024395 56.1387045,19.2130657 Z M56.1387045,7.50348366 C56.1387045,8.41410989 55.3938786,9.15510967 54.4807015,9.15510967 C53.5649738,9.15510967 52.8252494,8.41410989 52.8252494,7.50348366 C52.8252494,6.59158204 53.5649738,5.85185764 54.4807015,5.85185764 C55.3938786,5.85185764 56.1387045,6.59158204 56.1387045,7.50348366 Z M44.4085887,7.50412135 C44.4085887,8.41602297 43.6663135,9.15574737 42.7505858,9.15574737 C41.8361334,9.15574737 41.0951336,8.41602297 41.0951336,7.50412135 C41.0951336,6.59349512 41.8361334,5.85249534 42.7505858,5.85249534 C43.6663135,5.85249534 44.4085887,6.59349512 44.4085887,7.50412135 Z M62,36.7764185 C62,37.6895955 61.2590002,38.4280445 60.3432724,38.4280445 C59.4262693,38.4280445 58.6890956,37.6895955 58.6890956,36.7764185 C58.6890956,35.8645169 59.4262693,35.1260679 60.3432724,35.1260679 C61.2590002,35.1260679 62,35.8645169 62,36.7764185 Z M50.2749858,48.4828121 C50.2749858,49.3959891 49.5327106,50.1369889 48.6182582,50.1369889 C47.701255,50.1369889 46.9589799,49.3959891 46.9589799,48.4828121 C46.9589799,47.5734613 47.701255,46.8324615 48.6182582,46.8324615 C49.5327106,46.8324615 50.2749858,47.5734613 50.2749858,48.4828121 Z M50.2749858,36.7751431 C50.2749858,37.6883201 49.5327106,38.4293199 48.6182582,38.4293199 C47.701255,38.4293199 46.9589799,37.6883201 46.9589799,36.7751431 C46.9589799,35.8657923 47.701255,35.1247925 48.6182582,35.1247925 C49.5327106,35.1247925 50.2749858,35.8657923 50.2749858,36.7751431 Z M56.1387045,42.6295515 C56.1387045,43.5427285 55.3938786,44.2811776 54.4807015,44.2811776 C53.5649738,44.2811776 52.8252494,43.5427285 52.8252494,42.6295515 C52.8252494,41.7163745 53.5649738,40.9792009 54.4807015,40.9792009 C55.3938786,40.9792009 56.1387045,41.7163745 56.1387045,42.6295515 Z M56.1387045,54.3372205 C56.1387045,55.2503975 55.3938786,55.9888465 54.4807015,55.9888465 C53.5649738,55.9888465 52.8252494,55.2503975 52.8252494,54.3372205 C52.8252494,53.4240435 53.5649738,52.6868699 54.4807015,52.6868699 C55.3938786,52.6868699 56.1387045,53.4240435 56.1387045,54.3372205 Z M44.4085887,54.3391336 C44.4085887,55.2510352 43.6663135,55.9907596 42.7505858,55.9907596 C41.8361334,55.9907596 41.0951336,55.2510352 41.0951336,54.3391336 C41.0951336,53.4285074 41.8361334,52.6875076 42.7505858,52.6875076 C43.6663135,52.6875076 44.4085887,53.4285074 44.4085887,54.3391336 Z M44.4085887,42.6301892 C44.4085887,43.5420909 43.6663135,44.2818152 42.7505858,44.2818152 C41.8361334,44.2818152 41.0951336,43.5420909 41.0951336,42.6301892 C41.0951336,41.719563 41.8361334,40.9785632 42.7505858,40.9785632 C43.6663135,40.9785632 44.4085887,41.719563 44.4085887,42.6301892 Z" id="Combined-Shape" fill="#FFFFFF"></path>
                </g>
                <circle id="Oval" stroke="#FFFFFF" cx="182" cy="88" r="2.5"></circle>
                <circle id="Oval" stroke="#FFFFFF" cx="3" cy="108" r="2.5"></circle>
                <path d="M62.5003962,22 L58,28.9995941 L62.5003962,36 L67,28.9995941 L62.5003962,22 Z M59.8968219,28.9995941 L62.5003962,24.9514698 L65.1023858,28.9995941 L62.5003962,33.0485302 L59.8968219,28.9995941 Z" id="Fill-1" fill="#FFFFFF"></path>
            </g>
            <g id="img_effect_r" transform="translate(902.000000, -0.000000)">
                <g id="img_bg_fire2" transform="translate(60.000000, 18.000000)">
                    <rect id="bound" x="0" y="0" width="60" height="60"></rect>
                    <path d="M29.6413421,7.75126537 L29.6413421,-6.21724894e-15 L30.3629965,-6.21724894e-15 L30.3629965,7.75126537 L29.6413421,7.75126537 Z M29.6413421,60 L29.6413421,52.2501808 L30.3629965,52.2501808 L30.3629965,60 L29.6413421,60 Z M52.2493733,30 L59.9995661,30 L52.2493733,30 Z M52.2498072,30.3600868 L52.2498072,29.6384671 L60,29.6384671 L60,30.3600868 L52.2498072,30.3600868 Z M-6.66133815e-15,30.3600868 L-6.66133815e-15,29.6384671 L7.75163903,29.6384671 L7.75163903,30.3600868 L-6.66133815e-15,30.3600868 Z M45.9892017,14.5220535 L45.4772464,14.0101229 L50.9597956,8.53217643 L51.4703047,9.04266088 L45.9892017,14.5220535 Z M9.04193984,51.4697035 L8.52998457,50.957773 L14.0125337,45.4769342 L14.5230428,45.9888648 L9.04193984,51.4697035 Z M50.9592171,51.4697035 L45.4781142,45.9888648 L45.9886232,45.4769342 L51.4711724,50.957773 L50.9592171,51.4697035 Z M14.267499,14.2665221 L8.78639607,8.78712943 L14.267499,14.2665221 Z M14.0118106,14.5220535 L8.53070767,9.04266088 L9.04121674,8.53217643 L14.5237659,14.0101229 L14.0118106,14.5220535 Z M23.8005688,8.63022415 L21.761425,1.15083153 L22.458494,0.959942155 L24.4976379,8.43933478 L23.8005688,8.63022415 Z M35.5045314,51.562256 L36.2016005,51.3728127 L38.2436367,58.8507592 L37.5451215,59.0416486 L35.5045314,51.562256 Z M51.5622831,24.4967462 L51.3728307,23.7997108 L58.8511377,21.7592191 L59.0405901,22.4577007 L51.5622831,24.4967462 Z M0.95926533,37.5449024 L8.43901851,35.5044107 L8.62847088,36.2014461 L1.1472715,38.2419378 L0.95926533,37.5449024 Z M41.3541265,10.8636298 L40.7264751,10.5049892 L44.5733706,3.7746927 L45.1995758,4.13333333 L41.3541265,10.8636298 Z M15.4283648,56.226175 L14.8007135,55.8675343 L18.6476089,49.138684 L19.2738141,49.4973247 L15.4283648,56.226175 Z M56.0476764,44.8880694 L49.3185017,41.0399132 L56.0476764,44.8880694 Z M55.8683475,45.2015907 L49.1391728,41.3534346 L49.4978307,40.7272596 L56.2270054,44.5739696 L55.8683475,45.2015907 Z M10.5036155,19.272885 L3.7744408,15.4290672 L4.13309873,14.8014461 L10.8622734,18.6438178 L10.5036155,19.272885 Z M36.1638546,8.61894432 L35.4667856,8.42950108 L37.4914674,0.948662328 L38.1885364,1.13810557 L36.1638546,8.61894432 Z M22.1620228,58.9561822 L24.1867046,51.4767896 L22.1620228,58.9561822 Z M21.813199,58.8611714 L23.8378808,51.3832249 L24.5363961,51.571222 L22.510268,59.0506146 L21.813199,58.8611714 Z M58.8653105,38.1884309 L51.3826649,36.1638467 L51.5721172,35.4653651 L59.0547628,37.4913955 L58.8653105,38.1884309 Z M0.946249518,22.5110629 L1.13570189,21.8140275 L8.61834747,23.8357195 L8.4288951,24.534201 L0.946249518,22.5110629 Z M49.4762823,19.2389009 L49.1176244,18.6112798 L55.8410143,14.7544469 L56.1996722,15.382068 L49.4762823,19.2389009 Z M4.15956421,45.2467101 L3.80090629,44.6190889 L10.5242962,40.762256 L10.8829541,41.3898771 L4.15956421,45.2467101 Z M44.620806,56.2 L40.7623409,49.4783803 L41.3899923,49.1182936 L45.2484574,55.8399132 L44.620806,56.2 Z M18.6117432,10.8848879 L14.7532781,4.15892986 L15.3809294,3.79884309 L19.2393945,10.5248012 L18.6117432,10.8848879 Z" id="Combined-Shape" fill="#FFFFFF"></path>
                </g>
                <g id="img_bg_fire1" opacity="0.6" transform="translate(176.000000, 139.000000)">
                    <rect id="bound" x="0" y="0" width="24" height="24"></rect>
                    <path d="M11.3642693,3.10104259 L11.3642693,-3.55271368e-15 L12.6357307,-3.55271368e-15 L12.6357307,3.10104259 L11.3642693,3.10104259 Z M11.3642693,23.9810426 L11.3642693,20.88 L12.6357307,20.88 L12.6357307,23.9810426 L11.3642693,23.9810426 Z M20.8998056,12.6374271 L20.8998056,11.3651175 L24,11.3651175 L24,12.6374271 L20.8998056,12.6374271 Z M3.13082893e-14,12.6374271 L3.13082893e-14,11.3651175 L3.10104259,11.3651175 L3.10104259,12.6374271 L3.13082893e-14,12.6374271 Z M18.7429016,6.15687577 L17.8429546,5.25692879 L20.0355681,3.06516346 L20.9355151,3.96511044 L18.7429016,6.15687577 Z M3.96392295,20.9367026 L3.06397597,20.0367556 L5.2565895,17.8441421 L6.15653649,18.7440891 L3.96392295,20.9367026 Z M20.0359922,20.9367026 L17.8433787,18.7440891 L18.7433257,17.8441421 L20.9359392,20.0367556 L20.0359922,20.9367026 Z M5.25692879,6.15687577 L3.06431525,3.96511044 L3.96426224,3.06516346 L6.15687577,5.25692879 L5.25692879,6.15687577 Z M9.04569712,3.58163633 L8.22972257,0.59001237 L9.45707722,0.254970843 L10.2730518,3.2465948 L9.04569712,3.58163633 Z M13.7271179,20.7550168 L14.9544725,20.4208235 L15.7704471,23.4124474 L14.5430924,23.747489 L13.7271179,20.7550168 Z M20.7540838,10.2736455 L20.4190422,9.04629086 L23.4106662,8.23031631 L23.7448595,9.45767097 L20.7540838,10.2736455 Z M0.254122637,14.5448737 L3.2457466,13.7288991 L3.57993992,14.9562538 L0.588315957,15.7722283 L0.254122637,14.5448737 Z M16.9686234,4.58964481 L15.8634105,3.95857925 L17.4020569,1.26637215 L18.5064216,1.89743771 L16.9686234,4.58964481 Z M6.59802792,22.7358332 L5.49281498,22.1047676 L7.03146139,19.4125605 L8.13582612,20.0436261 L6.59802792,22.7358332 Z M22.1034953,18.5084573 L19.4112882,16.9698109 L20.0423538,15.8654462 L22.7345609,17.4040926 L22.1034953,18.5084573 Z M3.95730694,8.1365895 L1.26509984,6.59963951 L1.8961654,5.49442658 L4.5883725,7.03137657 L3.95730694,8.1365895 Z M13.7118502,3.2437109 L14.5218873,0.251238735 L15.7492419,0.582887436 L14.9392048,3.57620781 L13.7118502,3.2437109 Z M8.25058844,23.4177063 L9.06062555,20.4260823 L10.2879802,20.757731 L9.4779431,23.7502032 L8.25058844,23.4177063 Z M20.4243011,14.9410709 L20.756798,13.712868 L23.7501184,14.5229051 L23.4176215,15.751108 L20.4243011,14.9410709 Z M0.250305708,9.47980915 L0.581954409,8.25160629 L3.57527478,9.06079519 L3.24362608,10.2889981 L0.250305708,9.47980915 Z M20.035144,8.12250928 L19.402382,7.01899275 L22.0920445,5.47610532 L22.7248065,6.57962184 L20.035144,8.12250928 Z M1.90804029,18.5262697 L1.27527832,17.4227531 L3.9649408,15.8798657 L4.59770277,16.9833822 L1.90804029,18.5262697 Z M17.4217353,22.7263333 L15.8788479,20.037519 L16.9815162,19.4039088 L18.5252518,22.0927231 L17.4217353,22.7263333 Z M7.01797491,4.59880544 L5.47508747,1.90829475 L6.57775579,1.27553278 L8.12149143,3.96604347 L7.01797491,4.59880544 Z" id="Combined-Shape" fill="#FFFFFF"></path>
                </g>
                <circle id="Oval" stroke="#FFFFFF" cx="190" cy="101" r="2.5"></circle>
                <circle id="Oval" stroke="#FFFFFF" cx="49" cy="84" r="2.5"></circle>
                <path d="M140.093318,33 C138.743521,32.0961071 138.0004,30.9306871 138.0004,29.7173294 C138.0004,28.5045043 138.743521,27.3385517 140.093318,26.4346588 C140.776674,25.9776522 141.590838,25.2255622 141.590838,24.2391098 C141.590838,23.2526574 140.776674,22.5005674 140.093318,22.0435608 C138.743521,21.1396679 138.0004,19.9742479 138.0004,18.7608902 C138.0004,17.5475325 138.743521,16.3821125 140.093318,15.4782196 C140.776674,15.021213 141.590838,14.2685904 141.590838,13.282138 C141.590838,12.2962182 140.776674,11.5441282 140.093318,11.086589 L140.908045,10 C142.257842,10.9033603 143.0004,12.0693129 143.0004,13.282138 C143.0004,14.4960283 142.257842,15.6614483 140.908045,16.5653412 C140.22469,17.0223478 139.409962,17.7749705 139.409962,18.7608902 C139.409962,19.7468099 140.22469,20.4994326 140.908045,20.9569718 C142.257279,21.8592668 143.0004,23.0252194 143.0004,24.2391098 C143.0004,25.4530002 142.257279,26.6189528 140.908045,27.5212478 C140.22469,27.978787 139.409962,28.7314096 139.409962,29.7173294 C139.409962,30.7032491 140.22469,31.4558718 140.908045,31.913411 L140.093318,33 Z" id="Fill-1" fill="#FFFFFF"></path>
                <path d="M129.092918,192 C127.743121,191.096107 127,189.930687 127,188.717329 C127,187.504504 127.743121,186.338552 129.092918,185.434659 C129.776274,184.977652 130.590438,184.225562 130.590438,183.23911 C130.590438,182.252657 129.776274,181.500567 129.092918,181.043561 C127.743121,180.139668 127,178.974248 127,177.76089 C127,176.547532 127.743121,175.382113 129.092918,174.47822 C129.776274,174.021213 130.590438,173.26859 130.590438,172.282138 C130.590438,171.296218 129.776274,170.544128 129.092918,170.086589 L129.907645,169 C131.257442,169.90336 132,171.069313 132,172.282138 C132,173.496028 131.257442,174.661448 129.907645,175.565341 C129.22429,176.022348 128.409562,176.77497 128.409562,177.76089 C128.409562,178.74681 129.22429,179.499433 129.907645,179.956972 C131.256879,180.859267 132,182.025219 132,183.23911 C132,184.453 131.256879,185.618953 129.907645,186.521248 C129.22429,186.978787 128.409562,187.73141 128.409562,188.717329 C128.409562,189.703249 129.22429,190.455872 129.907645,190.913411 L129.092918,192 Z" id="Fill-1" fill="#FFFFFF"></path>
                <path d="M4.50039616,-1.13686838e-13 L0,6.99959413 L4.50039616,14 L9,6.99959413 L4.50039616,-1.13686838e-13 Z M1.8968219,6.99959413 L4.50039616,2.95146982 L7.10238577,6.99959413 L4.50039616,11.0485302 L1.8968219,6.99959413 Z" id="Fill-1" fill="#FFFFFF"></path>
                <path d="M213.500396,109 L209,115.999594 L213.500396,123 L218,115.999594 L213.500396,109 Z M210.896822,115.999594 L213.500396,111.95147 L216.102386,115.999594 L213.500396,120.04853 L210.896822,115.999594 Z" id="Fill-1" fill="#FFFFFF"></path>
            </g>
        </g>
    </g>
</svg>