<?xml version="1.0" encoding="UTF-8"?>
<svg width="20px" height="15px" viewBox="0 0 20 15" version="1.1" xmlns="http://www.w3.org/2000/svg" xmlns:xlink="http://www.w3.org/1999/xlink">
    <!-- Generator: Sketch 56.3 (81716) - https://sketch.com -->
    <title>quote_left</title>
    <desc>Created with Sketch.</desc>
    <g id="홈페이지" stroke="none" stroke-width="1" fill="none" fill-rule="evenodd">
        <g id="서비스소개" transform="translate(-655.000000, -1817.000000)">
            <g id="sect02" transform="translate(0.000000, 1463.000000)">
                <g id="txt" transform="translate(655.000000, 354.000000)">
                    <g id="quote_left">
                        <rect id="bound" x="0" y="0" width="20" height="20"></rect>
                        <path d="M20,10.8695652 C20,12.0773007 19.4973595,13.067629 18.4920635,13.8405797 C17.4867675,14.6135304 16.2169389,15 14.6825397,15 C13.5185127,15 12.4470948,14.5289902 11.468254,13.5869565 C10.4894131,12.6449228 10,11.6425174 10,10.5797101 C10,8.06762029 10.6878238,5.77295725 12.0634921,3.69565217 C13.7037119,1.23187174 15.8200929,0 18.4126984,0 L18.8095238,0.144927536 C17.4338556,0.869568841 16.1507996,1.77535688 14.9603175,2.86231884 C13.7698353,3.9492808 13.0952389,5.19322971 12.9365079,6.5942029 C13.4127008,6.25603696 13.835977,6.08695652 14.2063492,6.08695652 L15.0793651,6.15942029 C16.3492127,6.15942029 17.4867675,6.53381268 18.4920635,7.2826087 C19.4973595,8.03140471 20,9.22704493 20,10.8695652 Z M10,10.8695652 C10,12.0773007 9.49735952,13.067629 8.49206349,13.8405797 C7.48676746,14.6135304 6.19048413,15 4.6031746,15 C3.49205794,15 2.44709484,14.5289902 1.46825397,13.5869565 C0.489413095,12.6449228 0,11.6425174 0,10.5797101 C0,8.01931087 0.68782381,5.70049348 2.06349206,3.62318841 C3.65080159,1.20771739 5.76718254,0 8.41269841,0 L8.73015873,0.144927536 C7.40740079,0.917878261 6.19048175,1.78743478 5.07936508,2.75362319 C3.80951746,3.91304928 3.06878413,5.19322971 2.85714286,6.5942029 C3.17460476,6.40096522 3.59788095,6.23188478 4.12698413,6.08695652 L5,6.15942029 C6.32275794,6.15942029 7.48676746,6.53381268 8.49206349,7.2826087 C9.49735952,8.03140471 10,9.22704493 10,10.8695652 Z" id="“" fill="#CDCDCD" fill-rule="nonzero"></path>
                    </g>
                </g>
            </g>
        </g>
    </g>
</svg>