<?xml version="1.0" encoding="UTF-8"?>
<svg width="51px" height="47px" viewBox="0 0 51 47" version="1.1" xmlns="http://www.w3.org/2000/svg" xmlns:xlink="http://www.w3.org/1999/xlink">
    <!-- Generator: Sketch 61.2 (89653) - https://sketch.com -->
    <title>ico_pay_nfc</title>
    <desc>Created with Sketch.</desc>
    <g id="Page" stroke="none" stroke-width="1" fill="none" fill-rule="evenodd">
        <g id="이용안내-이용가능API-결제API-부가" transform="translate(-1191.000000, -719.000000)">
            <g id="content" transform="translate(280.000000, 343.000000)">
                <g id="Group" transform="translate(1.000000, 324.000000)">
                    <g id="card" transform="translate(759.000000, 30.000000)">
                        <g id="ico_pay_nfc" transform="translate(148.000000, 22.000000)">
                            <rect id="bound" x="0" y="0" width="56" height="47"></rect>
                            <g id="Group-23" transform="translate(4.000000, 1.000000)" stroke="#36384D" stroke-linecap="round" stroke-linejoin="round" stroke-width="2">
                                <path d="M0.32277314,5.04640413 L27.6846022,5.04640413 L29,5.9876048 L29,3.07683822 C29,1.37731156 27.5164102,0 25.6867143,0 L3.31328573,0 C1.484562,0 0,1.37731156 0,3.07683822 L0,41.9231618 C0,43.6226884 1.484562,45 3.31328573,45 L25.6867143,45 C27.5164102,45 29,43.6226884 29,41.9231618 L29,30.8595411 L29,6.0318304" id="Stroke-1"></path>
                                <path d="M39.5147,22.3965 C39.5147,28.6675 34.4307,33.7515 28.1597,33.7515 C21.8877,33.7515 16.8037,28.6675 16.8037,22.3965 C16.8037,16.1255 21.8877,11.0415 28.1597,11.0415 C34.4307,11.0415 39.5147,16.1255 39.5147,22.3965 Z" id="Stroke-9" fill="#FFD786"></path>
                                <polyline id="Stroke-11" points="23.4297 18.4658 25.9607 26.3258 28.4917 18.5978 30.6227 26.3258 32.8887 18.7328"></polyline>
                                <line x1="33.4219" y1="22.396" x2="22.8969" y2="22.396" id="Stroke-13"></line>
                                <line x1="39.1279" y1="16.6255" x2="46.1259" y2="16.6255" id="Stroke-15"></line>
                                <line x1="39.1279" y1="26.7925" x2="46.1259" y2="26.7925" id="Stroke-17"></line>
                                <line x1="37.127" y1="21.709" x2="42.792" y2="21.709" id="Stroke-19"></line>
                                <line x1="46.876" y1="21.709" x2="48.124" y2="21.709" id="Stroke-21"></line>
                                <line x1="0.0928" y1="38.0273" x2="28.2368" y2="38.0273" id="Stroke-3"></line>
                                <line x1="13" y1="41" x2="16" y2="41" id="Stroke-24"></line>
                            </g>
                        </g>
                    </g>
                </g>
            </g>
        </g>
    </g>
</svg>