<?xml version="1.0" encoding="UTF-8"?>
<svg width="120px" height="114px" viewBox="0 0 120 114" version="1.1" xmlns="http://www.w3.org/2000/svg" xmlns:xlink="http://www.w3.org/1999/xlink">
    <!-- Generator: Sketch 61.2 (89653) - https://sketch.com -->
    <title>bg_fire1</title>
    <desc>Created with Sketch.</desc>
    <g id="Page-1" stroke="none" stroke-width="1" fill="none" fill-rule="evenodd">
        <g id="돈버는법-리셀러" transform="translate(-400.000000, -1237.000000)" fill="#FFFFFF">
            <g id="section" transform="translate(0.000000, 1214.000000)">
                <g id="bg-imgs" transform="translate(260.000000, 0.000000)">
                    <path d="M164.499412,128 C166.986672,128 169,130.014767 169,132.5 C169,134.98288 166.986672,137 164.499412,137 C162.014504,137 160,134.98288 160,132.5 C160,130.014767 162.014504,128 164.499412,128 Z M202.04233,131.541247 C202.294809,131.530334 202.506136,131.728945 202.513922,131.976663 L202.513922,132.001763 L202.380452,136.69313 C202.374891,136.867734 202.226962,137.006325 202.046779,136.999777 C201.875493,136.995412 201.737575,136.856821 201.732013,136.69313 L201.598544,132.001763 C201.590758,131.751862 201.78985,131.547794 202.04233,131.541247 Z M212.5,129 C214.433294,129 216,130.565313 216,132.501394 C216,134.4319 214.433294,136 212.5,136 C210.5681,136 209,134.4319 209,132.501394 C209,130.565313 210.5681,129 212.5,129 Z M229.211331,122.972856 C229.215461,122.97912 229.223722,122.987472 229.229229,122.993737 L232.573352,126.696886 C232.698384,126.837545 232.649273,127.023956 232.469809,127.118102 C232.800132,127.040953 233.144967,127 233.499412,127 C235.985496,127 238,129.014767 238,131.5 C238,133.987585 235.985496,136 233.499412,136 C231.013328,136 229,133.987585 229,131.5 C229,129.443003 230.379265,127.708307 232.264256,127.171563 C232.136099,127.178706 232.006937,127.136707 231.923527,127.053942 L228.312314,123.501132 C228.119569,123.310076 228.167755,123.040718 228.41557,122.897687 C228.663385,122.749435 229.017209,122.785976 229.211331,122.972856 Z M191.020156,130.455985 C191.330595,130.501572 191.53941,130.740626 191.479549,130.990799 C191.479549,130.996358 191.476765,131.007477 191.473981,131.014148 L190.065174,135.659581 C190.012274,135.833034 189.793714,135.941998 189.576546,135.898635 C189.366338,135.856384 189.234089,135.694049 189.271675,135.527267 L190.351947,130.822905 C190.407631,130.574956 190.708325,130.412621 191.020156,130.455985 Z M182.244535,127.210273 C182.530246,127.311588 182.666298,127.59786 182.550654,127.845255 C182.546572,127.852324 182.54113,127.861749 182.534327,127.868817 L180.010549,132.436211 C179.915312,132.60821 179.67586,132.680073 179.478583,132.599964 C179.28947,132.521033 179.205117,132.323116 179.285388,132.158186 L181.512571,127.47534 C181.630937,127.226766 181.958824,127.107781 182.244535,127.210273 Z M221.474126,127.446952 C221.478208,127.457559 221.483651,127.466987 221.483651,127.474058 L223.715153,132.158626 C223.798154,132.333045 223.701546,132.533392 223.498806,132.606459 C223.302869,132.675991 223.08108,132.602923 222.989915,132.436754 L220.461787,127.867679 C220.331162,127.626085 220.446819,127.336172 220.725757,127.220679 C221.003334,127.106363 221.340781,127.206537 221.474126,127.446952 Z M202.048598,121.714289 C202.354578,121.711254 202.608219,121.960416 202.612245,122.270847 L202.612245,122.285143 L202.556887,126.673051 C202.552861,126.951826 202.325389,127.177502 202.049604,127.173472 C201.77684,127.173472 201.558426,126.947742 201.556413,126.673051 L201.500049,122.285143 C201.496023,121.971649 201.742618,121.718402 202.048598,121.714289 Z M173.445595,122.880845 C173.705772,123.015538 173.771849,123.282836 173.594268,123.479133 C173.588761,123.484353 173.581878,123.490618 173.576372,123.501059 L169.964175,127.053197 C169.827892,127.18789 169.578727,127.212949 169.402522,127.110624 C169.233201,127.010387 169.194656,126.829752 169.31442,126.697148 L172.65818,122.993611 C172.835761,122.799403 173.186794,122.746152 173.445595,122.880845 Z M210.534136,121.068636 C210.53528,121.070714 210.536423,121.081108 210.536423,121.085265 L211.499067,125.463925 C211.560805,125.743502 211.359587,126.017883 211.0509,126.070888 C210.74793,126.128051 210.452963,125.951366 210.383223,125.679064 L209.301677,121.323269 C209.223934,121.014591 209.437728,120.707991 209.778426,120.636278 C210.119125,120.567683 210.457536,120.760997 210.534136,121.068636 Z M192.094211,120.634024 C192.436281,120.69327 192.658226,120.995734 192.589583,121.309632 C192.589583,121.311711 192.588439,121.317947 192.587295,121.322105 L191.503883,125.678214 C191.432952,125.956772 191.129779,126.133469 190.822031,126.067987 C190.518858,126.009781 190.328946,125.737459 190.388437,125.463059 L191.35058,121.084083 C191.418079,120.774343 191.752141,120.570621 192.094211,120.634024 Z M217.217771,117.698672 C217.218963,117.70306 217.22254,117.707447 217.223733,117.714028 L219.24709,122.04335 C219.377053,122.321953 219.238744,122.643334 218.937089,122.761795 C218.641395,122.87916 218.295623,122.755214 218.164469,122.48758 L216.019495,118.20652 C215.868071,117.904883 216.011149,117.545111 216.343804,117.403616 C216.674075,117.26212 217.063962,117.394841 217.217771,117.698672 Z M185.529725,117.397702 C185.862346,117.528244 186.018522,117.888058 185.87546,118.194119 C185.874268,118.198507 185.869499,118.205089 185.867114,118.207283 L183.723562,122.487749 C183.587652,122.761997 183.234765,122.882667 182.93791,122.755415 C182.644632,122.633649 182.513492,122.316618 182.639863,122.044564 L184.661813,117.714733 C184.80726,117.406478 185.194721,117.262772 185.529725,117.397702 Z M164.666415,115.320313 C164.844441,115.520346 164.838735,115.839911 164.650439,116.030187 C164.643591,116.035066 164.636744,116.042384 164.631038,116.049703 L160.894771,119.446611 C160.755545,119.573461 160.544424,119.553946 160.42574,119.40636 C160.311621,119.258775 160.323033,119.046544 160.449705,118.918474 L164.001099,115.302017 C164.190538,115.110521 164.488389,115.11784 164.666415,115.320313 Z M237.86678,115.282521 C237.872484,115.289839 237.879329,115.294718 237.887315,115.302036 L241.436467,118.91829 C241.571086,119.053671 241.575649,119.278087 241.449016,119.420785 C241.326946,119.556166 241.127299,119.568363 240.994962,119.446398 L237.256431,116.04968 C237.059065,115.871611 237.036248,115.552063 237.203952,115.339845 C237.372796,115.127626 237.669414,115.104453 237.86678,115.282521 Z M223.87156,114.285744 C223.875292,114.289603 223.877779,114.293462 223.882755,114.297321 L226.9678,117.681763 C227.165591,117.897873 227.098417,118.197919 226.822255,118.350354 C226.547338,118.500859 226.165439,118.45455 225.966404,118.247122 L222.768159,114.922497 C222.543,114.687092 222.603955,114.354243 222.909971,114.176724 C223.212256,114.001134 223.645157,114.050338 223.87156,114.285744 Z M178.963992,114.170643 C179.273759,114.338489 179.349646,114.671289 179.126962,114.910519 C179.126962,114.916306 179.121986,114.920165 179.118254,114.922094 L175.922305,118.245266 C175.715794,118.45845 175.327652,118.501859 175.052718,118.343659 C174.785249,118.189317 174.726779,117.893173 174.919606,117.679989 L178.004834,114.29701 C178.226274,114.055851 178.654225,113.998937 178.963992,114.170643 Z M202.057076,110.795925 C202.358508,110.798333 202.602706,111.108967 202.602706,111.487026 L202.602957,111.569801 C202.603894,111.87429 202.60738,112.971691 202.612245,114.070832 C202.607475,115.365143 202.60366,116.65825 202.60366,116.65825 C202.602706,117.041125 202.355646,117.346943 202.052307,117.346943 C201.750875,117.344535 201.508585,117.038717 201.507631,116.65825 L201.5,114.070832 C201.503816,112.777725 201.507631,111.487026 201.507631,111.487026 C201.509539,111.104151 201.753737,110.795925 202.057076,110.795925 Z M208.297667,111.257509 C208.297667,111.257509 208.54714,112.328772 208.794434,113.400035 C209.031923,114.474362 209.272681,115.54971 209.272681,115.54971 C209.342402,115.86731 209.125612,116.175719 208.784629,116.242099 C208.449093,116.3095 208.120094,116.108319 208.047104,115.792761 C208.047104,115.792761 207.801989,114.720476 207.552516,113.649213 L207.074269,111.502603 C207.004547,111.186023 207.221338,110.87455 207.556874,110.809192 C207.894588,110.74077 208.224677,110.943993 208.297667,111.257509 Z M195.446922,110.810352 C195.78165,110.878763 195.995353,111.187125 195.925573,111.502634 C195.925573,111.502634 195.687883,112.575774 195.448012,113.648914 C195.199419,114.718991 194.954097,115.792131 194.954097,115.792131 C194.878865,116.109682 194.545227,116.310832 194.207227,116.2414 C193.871408,116.172988 193.657706,115.863605 193.727486,115.549117 C193.727486,115.549117 193.965176,114.473935 194.207227,113.398753 C194.45364,112.328676 194.702233,111.257579 194.702233,111.257579 C194.775284,110.940027 195.110013,110.738877 195.446922,110.810352 Z M148.000686,112 C149.658888,112 151,112.897119 151,114.000914 C151,115.10471 149.658888,116 148.000686,116 C146.342485,116 145,115.10471 145,114.000914 C145,112.897119 146.342485,112 148.000686,112 Z M212.774833,108.975807 C212.774833,108.975807 213.284358,110.03126 213.791577,111.085636 C214.290727,112.145397 214.789877,113.201927 214.789877,113.201927 C214.938584,113.517486 214.786419,113.88151 214.452115,114.020442 C214.117812,114.155066 213.729328,114.01398 213.578315,113.704883 C213.578315,113.704883 213.073401,112.650507 212.565029,111.597208 C212.064727,110.538524 211.565577,109.478763 211.565577,109.478763 C211.420328,109.167512 211.570188,108.801334 211.905644,108.664556 C212.237642,108.527778 212.626126,108.668864 212.774833,108.975807 Z M189.986486,108.6671 C190.31847,108.808202 190.467171,109.170114 190.321928,109.479247 C190.321928,109.479247 189.821647,110.53913 189.323671,111.597937 C188.815321,112.651358 188.30697,113.705857 188.30697,113.705857 C188.158269,114.019298 187.764038,114.158246 187.432054,114.014989 C187.098918,113.88035 186.951369,113.516284 187.096612,113.202843 C187.096612,113.202843 187.595741,112.147267 188.096022,111.086306 C188.604373,110.032885 189.112723,108.976233 189.112723,108.976233 C189.260271,108.6671 189.655655,108.525997 189.986486,108.6671 Z M230.26796,108.764717 C230.270056,108.766941 230.274248,108.775838 230.279488,108.778063 L233.584884,112.016616 C233.799724,112.227923 233.8123,112.577135 233.616324,112.800675 C233.423492,113.021991 233.099659,113.039786 232.886915,112.844049 L229.503968,109.690018 C229.261879,109.466478 229.239871,109.078341 229.449472,108.82366 C229.661168,108.565644 230.02692,108.541177 230.26796,108.764717 Z M172.427206,108.811061 C172.64525,109.059146 172.630574,109.447405 172.394709,109.679916 L172.385274,109.688816 L168.997205,112.843837 C168.781257,113.044086 168.452095,113.019611 168.261306,112.79155 C168.075759,112.565715 168.092531,112.221956 168.301141,112.016145 L171.607444,108.776574 C171.844357,108.544064 172.211258,108.560751 172.427206,108.811061 Z M246.499303,104 C248.432981,104 250,105.565313 250,107.501394 C250,109.4319 248.432981,111 246.499303,111 C244.567019,111 243,109.4319 243,107.501394 C243,105.565313 244.567019,104 246.499303,104 Z M184.532766,105.467133 C184.839339,105.686904 184.908409,106.106361 184.685447,106.411206 C184.685447,106.411206 183.925678,107.43799 183.164697,108.471863 C182.395234,109.49392 181.625772,110.519522 181.625772,110.519522 C181.397962,110.820823 180.962943,110.885809 180.652734,110.664855 C180.342526,110.445084 180.275879,110.025626 180.498842,109.720782 C180.498842,109.720782 181.261034,108.689272 182.020803,107.662488 C182.791478,106.639249 183.56094,105.612466 183.56094,105.612466 C183.787538,105.309984 184.222557,105.248542 184.532766,105.467133 Z M159.174229,107.74711 C159.292778,107.968588 159.231494,108.257771 159.038601,108.39433 C159.031568,108.401216 159.024536,108.405806 159.018508,108.408101 L155.217904,110.757142 C155.076248,110.842061 154.898424,110.783536 154.820062,110.620583 C154.746722,110.461073 154.794945,110.265989 154.92555,110.17648 L158.604591,107.589896 C158.797484,107.453337 159.053671,107.524485 159.174229,107.74711 Z M218.327527,105.612814 C218.327527,105.612814 219.096868,106.639627 219.866209,107.661714 C220.62707,108.689708 221.38793,109.721248 221.38793,109.721248 C221.614492,110.02492 221.54301,110.450297 221.230427,110.66653 C220.922691,110.886308 220.48774,110.818957 220.26239,110.51883 C220.26239,110.51883 219.49426,109.49438 218.724919,108.472293 C217.962847,107.438391 217.201987,106.411578 217.201987,106.411578 C216.97906,106.106724 217.048119,105.682529 217.35949,105.465114 C217.672073,105.247699 218.102177,105.312687 218.327527,105.612814 Z M202.063161,100.969451 C202.334163,100.971494 202.552778,101.196189 202.555801,101.469909 L202.612217,105.858619 C202.61524,106.172172 202.369424,106.425465 202.064168,106.428579 C201.756898,106.432614 201.503022,106.185449 201.5,105.87394 L201.5,105.858619 L201.556417,101.469909 C201.559439,101.191082 201.785106,100.965366 202.063161,100.969451 Z M197.718782,100.983158 C198.021143,101.042431 198.213555,101.31176 198.151708,101.586288 L197.188505,105.967304 C197.122077,106.280307 196.788792,106.481004 196.44749,106.416532 C196.105043,106.357259 195.881708,106.054653 195.951572,105.743729 C195.951572,105.73957 195.953863,105.73333 195.955008,105.731251 L197.039615,101.373113 C197.108333,101.092345 197.41184,100.917645 197.718782,100.983158 Z M223.614365,102.218711 C223.614365,102.218711 224.433775,102.993505 225.257288,103.774819 C226.071571,104.55722 226.887904,105.342881 226.887904,105.342881 C227.129933,105.572167 227.147367,105.968801 226.9279,106.224168 C226.712536,106.478448 226.341289,106.498008 226.100286,106.268721 C226.100286,106.268721 225.278824,105.493927 224.457363,104.71696 C223.642055,103.929126 222.824696,103.146725 222.824696,103.146725 C222.584718,102.915265 222.567284,102.521892 222.785725,102.263265 C223.002115,102.013331 223.372337,101.991598 223.614365,102.218711 Z M204.84977,101.37359 L205.932936,105.730971 C206.010795,106.037683 205.797826,106.344394 205.455473,106.414054 C205.115409,106.484753 204.778781,106.29033 204.700921,105.983618 C204.699776,105.97738 204.698631,105.971142 204.697486,105.966983 L203.73569,101.586728 C203.67386,101.309129 203.874235,101.036727 204.183383,100.979544 C204.486807,100.92444 204.781071,101.099109 204.84977,101.37359 Z M179.105507,102.267627 C179.321904,102.525186 179.300367,102.915328 179.061407,103.146806 C179.061407,103.146806 178.247099,103.930351 177.430739,104.717156 L177.158341,104.975024 C176.437865,105.656804 175.788788,106.269032 175.788788,106.269032 C175.544701,106.500509 175.17139,106.476601 174.957045,106.220128 C174.739622,105.963656 174.760134,105.572427 174.999093,105.343123 C174.999093,105.343123 175.815453,104.558491 176.631813,103.774946 C177.453301,102.993574 178.274789,102.218723 178.274789,102.218723 C178.518877,101.990506 178.888085,102.013328 179.105507,102.267627 Z M209.306081,100.194014 L211.448779,104.478978 C211.602681,104.781911 211.45713,105.141919 211.126658,105.281312 C210.798573,105.420705 210.406063,105.287897 210.25574,104.987159 C210.254547,104.980574 210.249775,104.973988 210.247389,104.970696 L208.221609,100.637437 C208.092761,100.363041 208.231154,100.04145 208.534185,99.921813 C208.828866,99.8054692 209.171268,99.9262034 209.306081,100.194014 Z M234.713163,101.064748 C234.716658,101.067478 234.723648,101.072938 234.728308,101.075668 L239.031797,104.071815 C239.3079,104.264279 239.39877,104.6806 239.234506,105.005467 C239.072572,105.322144 238.725403,105.428613 238.45163,105.251165 L234.084066,102.381961 C233.773013,102.177213 233.663503,101.715847 233.838252,101.35276 C234.010671,100.992404 234.403274,100.86273 234.713163,101.064748 Z M168.041781,101.33846 C168.224668,101.69619 168.122158,102.160418 167.818122,102.370687 C167.813462,102.373418 167.807638,102.378879 167.802978,102.38161 L163.435809,105.251637 C163.1574,105.431867 162.802109,105.317175 162.646014,104.989484 C162.491083,104.669985 162.585439,104.259006 162.855694,104.071949 L167.158795,101.074942 C167.465161,100.861943 167.860058,100.982096 168.041781,101.33846 Z M193.370263,99.9283555 C193.661404,100.050222 193.792657,100.365318 193.666177,100.637596 L191.640118,104.970986 C191.496934,105.276201 191.111529,105.418928 190.776239,105.288278 C190.443335,105.157629 190.287026,104.801911 190.431403,104.495598 C190.434983,104.489011 190.438562,104.484619 190.439756,104.480227 L192.585135,100.194046 C192.719967,99.9217681 193.074348,99.8009997 193.370263,99.9283555 Z M211.512241,97.8868042 L214.711615,101.21061 C214.93694,101.448094 214.874695,101.780185 214.570942,101.957815 C214.269678,102.130618 213.838945,102.082349 213.612375,101.846796 C213.609885,101.844865 213.60366,101.841004 213.599926,101.839073 L210.510103,98.4525173 C210.3159,98.2353067 210.379389,97.9341079 210.658245,97.7815777 C210.933366,97.630013 211.313058,97.6811781 211.512241,97.8868042 Z M191.242186,97.789805 C191.511022,97.9442022 191.568274,98.239487 191.377848,98.4527482 L188.287478,101.837908 C188.069671,102.075294 187.639035,102.133193 187.330371,101.964321 C187.021707,101.794484 186.948275,101.4606 187.166082,101.221284 C187.168572,101.217424 187.174795,101.215494 187.177284,101.209704 L190.374691,97.8872682 C190.578808,97.674007 190.968371,97.6305828 191.242186,97.789805 Z M176.944475,96.9828002 C177.122792,97.350094 177.015344,97.8115316 176.704431,98.0183829 C176.704431,98.0183829 175.644811,98.7383847 174.584049,99.4557345 L174.264894,99.6670504 C173.314014,100.296758 172.451092,100.869219 172.451092,100.869219 C172.13675,101.077396 171.735535,100.950103 171.556074,100.589439 C171.376613,100.222145 171.485204,99.7607077 171.794974,99.5512044 C171.794974,99.5512044 172.855737,98.8338545 173.917643,98.1165047 C174.984121,97.4071107 176.049456,96.7003686 176.049456,96.7003686 C176.364941,96.4961692 176.766157,96.6194844 176.944475,96.9828002 Z M225.837903,96.7004621 C225.837903,96.7004621 226.905394,97.4072144 227.969457,98.1166187 C229.032377,98.833979 230.093011,99.5513392 230.093011,99.5513392 C230.405029,99.7621716 230.511321,100.227594 230.329596,100.590915 C230.149014,100.95291 229.747848,101.074901 229.436972,100.870699 C229.436972,100.870699 228.370624,100.16262 227.305418,99.455868 L226.987979,99.241303 C226.042121,98.6017054 225.183007,98.0184955 225.183007,98.0184955 C224.870989,97.8089892 224.763554,97.3395889 224.946422,96.9802458 C225.127004,96.6195767 225.525884,96.4962597 225.837903,96.7004621 Z M214.600107,95.6490306 L217.987339,98.8022088 C218.227487,99.0260042 218.250558,99.4134711 218.038725,99.6695554 C217.828989,99.9245264 217.464049,99.947908 217.223901,99.7241125 C217.220755,99.7241125 217.217609,99.7174321 217.212366,99.7129784 L213.901687,96.4685006 C213.690902,96.2647465 213.67727,95.9117954 213.874421,95.6857731 C214.064232,95.4664313 214.387225,95.4508435 214.600107,95.6490306 Z M154.758213,97.9888312 C154.8464,98.2198512 154.715279,98.4691379 154.468123,98.5529499 C154.461161,98.5572479 154.450717,98.5593969 154.443755,98.5615459 L149.657272,99.8649288 C149.478576,99.9132818 149.289437,99.8187247 149.238382,99.6511009 C149.187326,99.4931477 149.281315,99.3233748 149.449567,99.2685747 L154.146703,97.7202032 C154.397341,97.6363913 154.668865,97.7599602 154.758213,97.9888312 Z M247.715603,97.7116924 C247.722563,97.7138392 247.731844,97.7181328 247.741124,97.7224264 L252.438125,99.2691904 C252.614451,99.3260804 252.704934,99.506411 252.644612,99.6695672 C252.58313,99.8273565 252.399844,99.9110814 252.229318,99.8649254 L247.444154,98.5628957 C247.190105,98.4920515 247.04742,98.2483905 247.121663,98.0133168 C247.195905,97.7793164 247.460394,97.642995 247.715603,97.7116924 Z M188.025053,95.6995713 C188.210716,95.9233584 188.191835,96.2685027 187.985193,96.4689091 L184.675774,99.7132654 C184.439762,99.9459595 184.07368,99.9281456 183.857598,99.6809777 C183.640466,99.4304698 183.655152,99.0419041 183.892213,98.8125502 C183.893262,98.8114368 183.897458,98.8047566 183.900605,98.8025298 L187.287645,95.6494697 C187.505826,95.4468366 187.832047,95.4668772 188.025053,95.6995713 Z M164.764001,94.937312 C164.870034,95.3353259 164.703411,95.7650156 164.389639,95.8999822 C164.385311,95.9027367 164.379901,95.9027367 164.374491,95.9027367 L159.935162,97.6614346 C159.650603,97.7771203 159.347651,97.5732931 159.25893,97.2124639 C159.172372,96.8571436 159.32493,96.4784107 159.600833,96.3599706 L164.005539,94.4580427 C164.317147,94.3244533 164.657968,94.5392982 164.764001,94.937312 Z M238.978442,94.4525842 C238.983853,94.4553363 238.990346,94.4580885 238.993592,94.4608407 L243.39783,96.3612302 C243.679182,96.4795745 243.832843,96.8690099 243.736534,97.2295472 C243.641307,97.581828 243.344806,97.7744815 243.064536,97.6616416 L238.625671,95.9043661 C238.309691,95.7805174 238.132223,95.3553036 238.231778,94.9521072 C238.329169,94.5516631 238.665709,94.3287355 238.978442,94.4525842 Z M200.077465,91.1524032 C200.289555,91.1935716 200.417926,91.3571324 200.381647,91.5240313 L199.300264,96.2294651 C199.24166,96.4764754 198.94585,96.6400362 198.6319,96.5944172 C198.320741,96.5510235 198.115627,96.3118019 198.172836,96.0614537 C198.174231,96.0547777 198.178417,96.0436511 198.179812,96.0380878 L199.591889,91.3916249 C199.644911,91.2180501 199.861188,91.1090095 200.077465,91.1524032 Z M202.065912,91.1429684 C202.236085,91.1473338 202.371779,91.2837523 202.378453,91.4496372 L202.385,91.683 L203.708444,96.0386671 C203.782333,96.2834826 203.594124,96.5294109 203.286018,96.5883892 C202.977912,96.649593 202.669806,96.4993653 202.594522,96.253437 C202.593128,96.2423091 202.591734,96.2367451 202.588946,96.2300683 L202.505,95.869 L202.513034,96.1413425 C202.519708,96.3879871 202.321728,96.5931606 202.069248,96.6018913 C201.814544,96.6084394 201.606555,96.4119968 201.599881,96.1664435 L201.599881,96.1413425 L201.706,92.391 L201.507089,91.5240467 C201.465265,91.3482247 201.613044,91.1790794 201.830531,91.1479211 C201.884612,91.1402532 201.938149,91.1415001 201.98873,91.1503855 C202.013466,91.1448469 202.039367,91.1423173 202.065912,91.1429684 Z M185.856231,91.4898759 C186.007782,91.8095389 185.913355,92.2179972 185.646391,92.4024182 L181.337678,95.403699 C181.03341,95.6181738 180.638212,95.4979586 180.457516,95.1400453 C180.276821,94.782132 180.375912,94.3203965 180.681346,94.1100199 C180.686009,94.1072878 180.691838,94.1018234 180.695335,94.0963591 L185.065834,91.2289543 C185.344455,91.0472655 185.697686,91.1620163 185.856231,91.4898759 Z M197.93967,90.084007 C198.127685,90.1642078 198.213518,90.3552743 198.133135,90.5239318 L195.901483,95.2121386 C195.785677,95.4562791 195.457332,95.5754009 195.171223,95.4739705 C194.886476,95.3725401 194.751596,95.0894786 194.868765,94.8429791 C194.870127,94.8335437 194.875577,94.8241084 194.881026,94.8182112 L197.412412,90.245588 C197.507782,90.0745716 197.742119,90.0038062 197.93967,90.084007 Z M216.821703,91.2299663 L221.192311,94.0973445 C221.501167,94.3021572 221.61189,94.7636686 221.438231,95.1268698 C221.265737,95.4887056 220.872965,95.6170549 220.564109,95.4136076 C220.560613,95.4122422 220.551289,95.4067805 220.547792,95.4040497 L216.242451,92.4028605 C215.96856,92.2117019 215.876486,91.7979802 216.040821,91.4757415 C216.202825,91.1548683 216.550142,91.0510965 216.821703,91.2299663 Z M204.474705,90.2458522 L207.004961,94.8170192 C207.139854,95.0563658 207.024037,95.3464115 206.744714,95.4619582 C206.465391,95.5786839 206.130204,95.4761067 205.998037,95.235581 C205.992586,95.2249696 205.988499,95.2178953 205.985774,95.210821 L203.755278,90.5241074 C203.6708,90.3496084 203.766179,90.1468123 203.967836,90.0772485 C204.164043,90.0065056 204.387502,90.0843227 204.474705,90.2458522 Z M196.895592,90.1121376 C197.065142,90.2104071 197.099603,90.3944011 196.981056,90.5250787 L193.632795,94.2310941 C193.457732,94.4265877 193.104848,94.4778133 192.847078,94.3429541 C192.590686,94.2101857 192.52452,93.9436035 192.700962,93.7449736 C192.706476,93.7407919 192.711989,93.7345194 192.72026,93.7282469 L196.33594,90.1675449 C196.471029,90.0368673 196.721907,90.0128226 196.895592,90.1121376 Z M205.553875,90.1681599 L209.167373,93.7274008 C209.358862,93.9154992 209.3134,94.185107 209.064051,94.3293159 C208.817457,94.4745697 208.460654,94.437995 208.27192,94.2498965 C208.265032,94.2457165 208.258143,94.2384016 208.254011,94.2300417 L204.907771,90.5255469 C204.78103,90.3865631 204.829247,90.1963746 205.009715,90.1012804 C205.184673,90.0135011 205.424379,90.0438059 205.553875,90.1681599 Z M173.664204,91.6713098 C173.767322,92.0692195 173.592977,92.4922464 173.27618,92.6244423 C173.27618,92.6244423 172.190777,93.0686205 171.105373,93.5127987 C170.018907,93.9464013 168.929251,94.3826477 168.929251,94.3826477 C168.609264,94.5095558 168.264827,94.2874667 168.161708,93.889557 C168.059653,93.4916474 168.235061,93.0659766 168.552921,92.9337807 C168.552921,92.9337807 169.637261,92.4896024 170.723728,92.0467462 L171.065352,91.9106181 C172.026459,91.527458 172.898787,91.1782191 172.898787,91.1782191 C173.218774,91.052633 173.562148,91.2720782 173.664204,91.6713098 Z M228.990412,91.1791133 C228.990412,91.1791133 230.077787,91.6151867 231.165162,92.0459744 C232.247223,92.4899764 233.333535,92.9339784 233.333535,92.9339784 C233.65454,93.0661219 233.830986,93.4995524 233.72363,93.8946614 C233.6184,94.2910918 233.275074,94.5091285 232.956196,94.3822708 C232.956196,94.3822708 231.868821,93.9461973 230.781446,93.5127668 C229.696196,93.0687648 228.613073,92.6247627 228.613073,92.6247627 C228.294194,92.4926193 228.119874,92.0644744 228.224041,91.6640798 C228.329271,91.2689708 228.670471,91.0522555 228.990412,91.1791133 Z M207.60604,89.0425138 L211.343979,92.4447401 C211.542635,92.6217486 211.566611,92.9379225 211.397639,93.1478913 C211.23095,93.3603015 210.934107,93.387158 210.736592,93.207708 C210.730884,93.202825 210.724034,93.1955005 210.718325,93.1869552 L207.1642,89.5698772 C207.030621,89.4355948 207.027196,89.2121978 207.152783,89.0681495 C207.274946,88.9326464 207.474744,88.9228804 207.60604,89.0425138 Z M195.859937,89.085376 C195.974111,89.2281878 195.962693,89.4417953 195.83596,89.5687392 L192.282868,93.1854188 C192.095622,93.3807171 191.797628,93.3709522 191.619517,93.1707715 C191.440264,92.9681495 191.448256,92.6532311 191.63436,92.4628153 C191.64121,92.4530504 191.648061,92.4457267 191.654911,92.4432854 L195.394107,89.0414339 C195.532257,88.9181519 195.742338,88.9340198 195.859937,89.085376 Z M218.88126,87.8997822 L223.325647,89.6599385 C223.639623,89.7839903 223.816099,90.2099013 223.717576,90.6110019 C223.619052,91.0093458 223.285588,91.2326389 222.971612,91.1085872 L222.956454,91.1030738 L218.548879,89.1995688 C218.268465,89.0768954 218.116891,88.6909566 218.212166,88.3325849 C218.306359,87.9783483 218.605178,87.7867573 218.88126,87.8997822 Z M183.679318,88.3491086 C183.767028,88.701914 183.614348,89.0781478 183.338224,89.1994247 L178.93432,91.1026444 C178.620297,91.2377027 178.280286,91.0213338 178.174167,90.6230496 C178.069132,90.2275217 178.236972,89.7975401 178.54883,89.6624818 C178.552078,89.6624818 178.559658,89.6597255 178.559658,89.6597255 L183.007958,87.899833 C183.290579,87.7840687 183.592691,87.9880343 183.679318,88.3491086 Z M208.602931,86.8137473 L212.404708,89.163117 C212.606759,89.2860425 212.681146,89.5755492 212.572581,89.8030187 C212.464016,90.0316371 212.213714,90.1189486 212.013673,89.9937255 C212.006637,89.9891302 211.998595,89.9868325 211.992564,89.9799395 L208.313425,87.390463 C208.175709,87.2962585 208.132484,87.089468 208.215918,86.9343751 C208.297341,86.7827287 208.46823,86.7333288 208.602931,86.8137473 Z M193.678986,86.9510805 C193.753374,87.10849 193.706128,87.3015177 193.575446,87.3911377 L189.894243,89.9809257 C189.699226,90.1176537 189.445904,90.0487152 189.32628,89.8235163 C189.207661,89.6063601 189.266971,89.3145207 189.461988,89.1777927 C189.467014,89.1754948 189.477067,89.1708989 189.482093,89.164005 L193.283925,86.8143526 C193.42667,86.7293285 193.600577,86.7879262 193.678986,86.9510805 Z M162.567153,87.4869929 C162.605788,87.9277447 162.378157,88.3277671 162.063859,88.3757697 C162.058638,88.3815882 162.051328,88.3815882 162.047152,88.3815882 L157.580152,88.9561657 C157.293003,88.9925314 157.040312,88.6972422 157.012119,88.2986745 C156.988103,87.90738 157.192762,87.5611788 157.471558,87.5146308 L161.928115,86.781499 C162.243457,86.7276778 162.530607,87.0433318 162.567153,87.4869929 Z M152.557166,88.2053281 C152.590659,88.4185294 152.413151,88.6146746 152.160844,88.644049 C152.153029,88.6459441 152.144098,88.6459441 152.136283,88.6459441 L147.34915,88.9586393 C147.171642,88.9681149 147.014229,88.8553552 147.000832,88.7018502 C146.988552,88.5530831 147.113589,88.4261099 147.282166,88.4090538 L152.038039,87.870839 C152.292579,87.8424121 152.522558,87.9911793 152.557166,88.2053281 Z M239.944909,86.7787333 C239.949088,86.7816444 239.956401,86.7816444 239.960579,86.7816444 L244.421396,87.5152457 C244.704507,87.560368 244.908221,87.9184353 244.873746,88.3201694 C244.842406,88.7117145 244.589591,88.9911817 244.309615,88.9562483 L239.84044,88.3827584 C239.521811,88.3390917 239.287801,87.9475465 239.319141,87.5036013 C239.346303,87.0654783 239.628369,86.7394332 239.944909,86.7787333 Z M250.958657,87.8706495 L255.719074,88.4089349 C255.894434,88.4278886 256.020649,88.5662507 255.997193,88.7188281 C255.975971,88.8647716 255.820715,88.9680694 255.649823,88.9585925 L250.8626,88.6458563 C250.609053,88.6297456 250.419173,88.4411562 250.440395,88.2260316 C250.458266,88.0090116 250.679421,87.8507481 250.935201,87.8687542 C250.939669,87.8687542 250.953072,87.8687542 250.958657,87.8706495 Z M193.700266,85.9082451 C193.751354,86.0685169 193.658466,86.234167 193.492428,86.2890251 L188.789959,87.8411879 C188.539161,87.9240129 188.267462,87.8035401 188.18038,87.5744267 C188.093297,87.343162 188.221018,87.0936112 188.469494,87.0097105 C188.476461,87.0075592 188.48575,87.0032566 188.495039,87.0032566 L193.283429,85.696342 C193.462239,85.6479378 193.650338,85.742595 193.700266,85.9082451 Z M208.605161,85.6963621 L213.392989,87.0034554 C213.644858,87.0723065 213.788783,87.3165124 213.71566,87.5499603 C213.641376,87.7844841 213.375579,87.9168071 213.12371,87.8501077 C213.113264,87.8479561 213.103979,87.8436529 213.099336,87.8415013 L208.395077,86.2891262 C208.222135,86.2299574 208.12928,86.0535267 208.194279,85.8900055 C208.253474,85.734015 208.434541,85.6501028 208.605161,85.6963621 Z M230.083851,85.688063 C230.083851,85.688063 231.401015,85.831722 232.719411,85.9794854 C234.035343,86.1422989 235.350043,86.2996396 235.350043,86.2996396 C235.739401,86.3447896 236.02033,86.7333527 235.974741,87.1656977 C235.936544,87.5966745 235.587847,87.9058832 235.202185,87.8634696 C235.202185,87.8634696 233.885021,87.7129698 232.56909,87.5665745 C231.253158,87.4064974 229.937226,87.2491567 229.937226,87.2491567 C229.547868,87.1999022 229.269403,86.8154435 229.310064,86.3803622 C229.351957,85.9521218 229.699422,85.6429131 230.083851,85.688063 Z M173.690389,86.3912707 C173.728573,86.8195388 173.448972,87.2012857 173.063444,87.2491752 C173.063444,87.2491752 171.747966,87.4065261 170.430026,87.5666135 C169.11578,87.7143865 167.800303,87.8635278 167.800303,87.8635278 C167.408616,87.9059442 167.062503,87.5912423 167.024319,87.161606 C166.983672,86.7306013 167.264505,86.3461178 167.650033,86.3009649 C167.650033,86.3009649 168.966742,86.1422457 170.280988,85.9794218 L170.656115,85.9377532 C171.837002,85.8067065 172.916869,85.6879805 172.916869,85.6879805 C173.303629,85.6428277 173.652206,85.9588977 173.690389,86.3912707 Z M182.589592,85.2494509 C182.615706,85.6429406 182.410967,85.9897944 182.133107,86.0378875 L177.674813,86.7694867 C177.360392,86.8234094 177.071042,86.5100751 177.034481,86.0670349 C176.997921,85.6254521 177.224596,85.226133 177.540061,85.1751251 C177.543195,85.1722104 177.550507,85.1722104 177.550507,85.1722104 L182.02447,84.5950923 C182.309643,84.5572007 182.560343,84.8559613 182.589592,85.2494509 Z M219.862477,84.5945587 L224.33316,85.1717864 C224.649733,85.2155157 224.884812,85.6047071 224.854513,86.0463738 C224.824214,86.4880404 224.544209,86.8116378 224.22868,86.7722813 C224.224501,86.7722813 224.217187,86.7722813 224.213008,86.769366 L219.754863,86.0376279 C219.468588,85.9895256 219.266943,85.63386 219.299331,85.2315498 C219.330675,84.8423584 219.582471,84.5610328 219.862477,84.5945587 Z M202.471367,81.3194042 C202.491604,81.3140774 202.512522,81.3166567 202.532197,81.3271905 C202.5479,81.3356802 202.56175,81.3482248 202.573325,81.3636461 L202.542,81.344 L202.56831,81.3615868 C202.599628,81.3882227 202.615207,81.4225764 202.611779,81.4575029 C202.614405,81.4891442 202.612432,81.5228459 202.60281,81.55489 C202.601772,81.5606912 202.600733,81.5635918 202.598657,81.5693931 L202.218,82.614 L202.366143,82.4547751 C202.419968,82.3926433 202.513266,82.3926433 202.568287,82.4547751 C202.626897,82.5156124 202.626897,82.6126933 202.568287,82.6735307 C202.564699,82.6787083 202.561111,82.6812972 202.556326,82.683886 L202.121,83.066 L202.109,83.366 L202.118,83.371 L203.435963,82.4422618 C203.52461,82.377994 203.63814,82.4084366 203.694127,82.5014558 C203.750115,82.5961661 203.726787,82.7230104 203.639695,82.7822044 C203.63503,82.7855869 203.628809,82.7889694 203.621033,82.7957344 L202.351,83.501 L202.853,83.781 L203.494878,83.592463 C203.580277,83.5673507 203.681333,83.6033813 203.71407,83.6699833 C203.745383,83.7376772 203.704107,83.8119221 203.617284,83.839218 L203.60305,83.8435853 L203.583,83.847 C203.655814,83.8556263 203.712772,83.8975528 203.722592,83.9569487 C203.728627,83.9883473 203.719977,84.0191047 203.700778,84.0443988 C203.717521,84.065622 203.726719,84.0922445 203.724028,84.1193767 C203.722307,84.1496633 203.707812,84.1774426 203.684797,84.1989859 L203.646,84.225 C203.675857,84.2485915 203.692281,84.271107 203.703908,84.2961543 L203.712365,84.3259541 C203.721997,84.3446769 203.726198,84.3652274 203.723854,84.3863086 C203.725061,84.418723 203.719008,84.4513817 203.705811,84.4817036 C203.65761,84.5800394 203.545661,84.62073 203.453925,84.5698667 C203.447705,84.5664758 203.443041,84.5664758 203.435266,84.5579986 L203.247,84.425 L202.342,84.16 L202.14,84.169 L202.598302,85.4293796 C202.609068,85.4590212 202.613328,85.490451 202.612014,85.5206234 C202.612357,85.5282913 202.612372,85.535731 202.611901,85.5431151 C202.613775,85.5763604 202.602338,85.605886 202.578846,85.630105 C202.568674,85.6424998 202.557744,85.6535715 202.54536,85.6617798 C202.523602,85.678249 202.500497,85.6851156 202.478275,85.6834402 L202.440738,85.6834655 C202.400524,85.6851155 202.360197,85.6774967 202.326431,85.6604287 L202.294336,85.6786336 C202.242634,85.6944432 202.189759,85.6722162 202.157445,85.6249841 C202.137027,85.6587799 202.103159,85.6819655 202.063875,85.6833922 C201.989355,85.6887243 201.925957,85.6207405 201.92262,85.5327616 L201.92262,85.5167654 L201.934,85.234 L201.267,84.486 L201.28,84.585 L201.255,84.472 L201.238,84.453 L201.019,84.408 L200.871532,85.5449398 C200.861521,85.634756 200.792562,85.6932727 200.71693,85.6823859 C200.688329,85.6762759 200.662879,85.6583768 200.643679,85.6332229 L200.62,85.591 L200.608283,85.6193687 C200.57514,85.6759223 200.519126,85.6993895 200.46843,85.6726694 C200.402983,85.636365 200.370779,85.5361648 200.39675,85.4461299 C200.397789,85.4403212 200.398828,85.4345124 200.399867,85.4287037 L200.763,84.429 L200.65,84.453 L199.604594,85.6240932 C199.564885,85.6675566 199.498775,85.6874735 199.434573,85.6830927 C199.392991,85.6873979 199.350583,85.673062 199.318611,85.6398629 L199.315,85.635 C199.286657,85.6079856 199.272891,85.5750109 199.275922,85.5425448 C199.27278,85.4983023 199.287004,85.4532752 199.318611,85.4204244 C199.321006,85.4152305 199.324597,85.4126336 199.328189,85.4074398 L200.572,84.315 L199.889,84.174 L199.546,84.159 L198.648,84.423 L198.453808,84.560395 C198.365175,84.6198017 198.251662,84.5926444 198.195683,84.499291 C198.170033,84.460525 198.160239,84.4156864 198.164065,84.3719668 C198.163554,84.3588163 198.166454,84.345335 198.171796,84.3325673 C198.183185,84.2907619 198.207051,84.2528415 198.241044,84.224641 C198.201957,84.2063348 198.172404,84.174247 198.165528,84.1363385 C198.158706,84.1020945 198.16767,84.0698808 198.187551,84.0435939 C198.171145,84.0229366 198.161866,83.9970497 198.163437,83.9693937 C198.169785,83.9023214 198.235221,83.8475456 198.317947,83.847326 L198.29099,83.8432209 C198.19845,83.8246597 198.145773,83.7525985 198.168552,83.6816291 C198.194179,83.6139353 198.288143,83.56917 198.377836,83.5899149 C198.384954,83.5899149 198.389225,83.5899149 198.393496,83.5920986 L199.034,83.781 L199.537,83.501 L198.266995,82.7953589 C198.17529,82.7412273 198.136431,82.6160482 198.183061,82.5196264 C198.231245,82.4181298 198.346266,82.3775311 198.434863,82.4333542 C198.44108,82.4367375 198.445743,82.4418123 198.455069,82.4418123 L199.771,83.371 L199.978,83.255 L199.328778,82.6840047 C199.266538,82.6322314 199.25816,82.5351566 199.307234,82.4652627 C199.358701,82.4005461 199.448471,82.3876028 199.510711,82.4432591 C199.514302,82.4458477 199.519089,82.4497307 199.52268,82.454908 L200.167,83.15 L200.752,82.825 L199.313741,81.5278052 C199.25421,81.4703096 199.264628,81.3878631 199.342018,81.3444702 C199.417919,81.3010773 199.531027,81.308671 199.593534,81.3618273 C199.596511,81.3661666 199.600976,81.3726756 199.605441,81.3748452 L200.664,82.562 L200.786,82.63 L200.400098,81.5702525 C200.371016,81.4861582 200.394905,81.3803153 200.455145,81.3353683 C200.515358,81.2926277 200.58961,81.3240823 200.620751,81.4077231 C200.636391,81.3672882 200.666413,81.3345336 200.705481,81.3218476 C200.777777,81.2987333 200.850073,81.3504007 200.868981,81.4387791 C200.870094,81.4455774 200.871206,81.4496564 200.872318,81.4550951 L201.031,82.669 L201.225,82.561 L201.254,82.529 L201.279,82.413 L201.266,82.515 L201.934,81.767 L201.922723,81.4881049 C201.919386,81.3976012 201.976111,81.3217378 202.049519,81.3164141 C202.093105,81.3148336 202.133162,81.3385903 202.159214,81.3757047 C202.186078,81.3311402 202.23209,81.3087449 202.281527,81.3186686 C202.299768,81.3217097 202.316498,81.3293689 202.331154,81.3404985 C202.370883,81.3188796 202.422286,81.311559 202.471367,81.3194042 Z M201.95,84.184 L201.8,84.215 L201.719,84.585 L201.766,84.222 L201.623,84.251 L201.532,84.504 L201.95,84.871 L201.972,84.352 L201.95,84.184 Z M209.635744,83.5009793 L214.422397,83.8142001 C214.674856,83.8293866 214.863641,84.0182683 214.845768,84.2327771 C214.82566,84.4463367 214.60448,84.6076929 214.349788,84.5906081 C214.349788,84.5906081 214.336383,84.5887098 214.326329,84.5887098 L209.567602,84.047692 C209.388871,84.0296581 209.265993,83.8920308 209.288334,83.739217 C209.311793,83.5958947 209.463715,83.4886403 209.635744,83.5009793 Z M193.363731,83.5009276 C193.543546,83.4885916 193.697674,83.6024629 193.71331,83.7542913 C193.726712,83.8994773 193.600507,84.0285315 193.43186,84.04751 L188.672904,84.5883989 C188.42161,84.6168667 188.192653,84.4659872 188.156914,84.2534274 C188.124524,84.0399186 188.299872,83.8444395 188.551166,83.8159717 C188.561218,83.8140738 188.569036,83.8140738 188.576854,83.8140738 L193.363731,83.5009276 Z M199.77,83.63 L199.402,83.889 L199.54,83.93 L199.901,83.915 L200.18,83.858 L199.77,83.63 Z M200.926,83.014 L200.443,83.449 L200.612,83.632 L200.944,83.7 L201,83.688 L201.042,83.496 L200.951,83.083 L200.926,83.014 Z M214.842879,82.7466127 C214.876378,82.9601524 214.698835,83.1575581 214.447594,83.1841319 C214.438661,83.18603 214.430844,83.18603 214.421911,83.1879282 L209.637167,83.4992217 C209.45739,83.5106105 209.302179,83.3976717 209.286547,83.2477193 C209.274264,83.1006141 209.399326,82.9724903 209.569053,82.9525599 L214.325881,82.4115926 C214.578239,82.3831206 214.808264,82.5359201 214.842879,82.7466127 Z M188.645156,82.409177 C188.655211,82.411076 188.664149,82.411076 188.67197,82.411076 L193.43259,82.9522711 C193.610234,82.9722099 193.733132,83.1098823 193.711904,83.2608473 C193.688441,83.4061155 193.53426,83.5105566 193.364438,83.4991631 L188.575886,83.1877385 C188.323387,83.1706481 188.133453,82.9817045 188.154681,82.7680749 C188.173674,82.5534957 188.393774,82.3939856 188.645156,82.409177 Z M200.821,82.887 L200.278,83.271 L200.438,83.443 L200.883,82.943 L200.821,82.887 Z M201.519,82.478 L201.468,82.524 L201.352,82.944 L201.702,83.139 L201.519,82.478 Z M201.948,82.092 L201.524,82.474 L201.756,83.113 L201.803,83.062 L201.719,82.413 L201.85,83.011 L201.937,82.917 L201.972,82.65 L201.948,82.092 Z M224.853275,80.9325622 C224.88983,81.3775335 224.66319,81.7743604 224.34673,81.8283405 L224.333153,81.8312584 L219.864072,82.4046148 C219.5779,82.4440057 219.326195,82.1522213 219.297995,81.7480998 C219.272929,81.3571086 219.477636,81.011344 219.756496,80.9617406 L224.213044,80.2293616 C224.527415,80.1812172 224.815676,80.4963444 224.853275,80.9325622 Z M177.66006,80.2279639 C177.66215,80.2279639 177.669465,80.2308809 177.67469,80.2308809 L182.13348,80.9630306 C182.41875,81.0126184 182.622515,81.3714009 182.588032,81.7681036 C182.556683,82.1589723 182.304851,82.4389977 182.024805,82.405453 L177.553476,81.8308176 C177.236857,81.7899805 177.003834,81.3961948 177.033092,80.9571967 C177.062351,80.5123647 177.343441,80.1871269 177.66006,80.2279639 Z M213.706337,79.4257662 C213.795717,79.6559341 213.666871,79.9097642 213.417305,79.9904306 C213.41034,79.9947328 213.399893,79.9968839 213.394089,79.999035 L208.605899,81.3036786 C208.42714,81.3520784 208.237934,81.2574299 208.18686,81.0928705 C208.136946,80.9347645 208.230969,80.7669785 208.395799,80.7088988 L213.100414,79.1590295 C213.347658,79.0751365 213.619279,79.1988249 213.706337,79.4257662 Z M167.800904,79.1363533 C167.800904,79.1363533 169.116988,79.2828687 170.431839,79.4321227 C171.750388,79.5937004 173.066471,79.7511702 173.066471,79.7511702 C173.454642,79.8004651 173.735604,80.1866085 173.688777,80.6165695 C173.650576,81.0492692 173.304303,81.355993 172.919829,81.3121753 C172.919829,81.3121753 171.600048,81.1697678 170.282732,81.0191445 L169.908165,80.9738293 C168.729135,80.8309943 167.651797,80.6987277 167.651797,80.6987277 C167.262394,80.6535407 166.982664,80.2646587 167.024562,79.8319591 C167.06646,79.401998 167.411501,79.0952742 167.800904,79.1363533 Z M188.764527,79.1507887 C188.773814,79.1507887 188.78194,79.1550926 188.791226,79.1572446 L193.492554,80.7077469 C193.665516,80.7680023 193.757221,80.9455408 193.694537,81.1090913 C193.635335,81.2661859 193.454247,81.3511892 193.283606,81.3027696 L188.496378,79.9975932 C188.243318,79.9265778 188.098216,79.682328 188.172508,79.448838 C188.247962,79.2153481 188.512629,79.0819253 188.764527,79.1507887 Z M235.974983,79.8363536 C236.01934,80.2676145 235.738416,80.6523266 235.35153,80.6975063 C235.35153,80.6975063 234.035625,80.8604271 232.71972,81.0192406 C231.401351,81.1684705 230.084213,81.3122242 230.084213,81.3122242 C229.696095,81.3560348 229.348637,81.0452531 229.309209,80.609885 C229.273478,80.1813623 229.551937,79.7952812 229.937591,79.7514705 C229.937591,79.7514705 231.253496,79.5940261 232.569401,79.4324744 C233.885306,79.2818754 235.202444,79.1367527 235.202444,79.1367527 C235.593026,79.092942 235.93802,79.4064619 235.974983,79.8363536 Z M212.560761,77.1758439 C212.68036,77.3952702 212.621063,77.6847751 212.426086,77.8214857 C212.419051,77.826081 212.411011,77.8318252 212.403976,77.8375693 L208.602937,80.1846266 C208.461227,80.2719376 208.285346,80.2110496 208.208963,80.0490648 C208.133586,79.8939729 208.182833,79.6998208 208.313487,79.6079145 L211.991912,77.020752 C212.185883,76.8817438 212.440157,76.9506735 212.560761,77.1758439 Z M189.872684,77.00544 C189.880726,77.0100351 189.886757,77.015779 189.893794,77.0215229 L193.575077,79.608573 C193.710788,79.7027728 193.756025,79.909553 193.671582,80.0646382 C193.589151,80.216277 193.419261,80.267972 193.28355,80.18526 L189.481635,77.8383047 C189.280582,77.7107902 189.207198,77.4270418 189.314761,77.1984348 C189.421319,76.9663815 189.672636,76.8825206 189.872684,77.00544 Z M244.875296,78.6966206 C244.901405,79.0885335 244.697757,79.4381956 244.421004,79.4862742 L239.961635,80.2191077 C239.646241,80.2701001 239.358001,79.9539472 239.320404,79.5124988 C239.282808,79.0710504 239.509432,78.6703959 239.824825,78.6179466 C239.829002,78.6179466 239.837357,78.6150327 239.841534,78.6150327 L244.309259,78.043918 C244.596455,78.0074948 244.849188,78.297423 244.875296,78.6966206 Z M157.578899,78.0442651 L162.045843,78.6140708 C162.363269,78.6563326 162.598207,79.0483473 162.56897,79.4913675 C162.538689,79.9373024 162.256764,80.2593665 161.941426,80.2214766 L161.926808,80.218562 L157.470306,79.4855383 C157.18316,79.4389046 156.979548,79.0774933 157.014005,78.6752775 C157.046374,78.2861775 157.298019,78.0063752 157.578899,78.0442651 Z M143,76 C144.657064,76 146,76.8952904 146,77.9990855 C146,79.1065386 144.657064,80 143,80 C141.344307,80 140,79.1065386 140,77.9990855 C140,76.8952904 141.344307,76 143,76 Z M255.649516,78.041385 C255.829295,78.0319274 255.986741,78.1444733 255.999024,78.2976871 C256.012424,78.4433348 255.886243,78.5729045 255.718748,78.590874 L250.959631,79.1290139 C250.70727,79.1583326 250.476126,79.0079561 250.442626,78.7932676 C250.410244,78.5823622 250.585556,78.3846974 250.837917,78.358216 C250.84685,78.358216 250.854666,78.3553787 250.8636,78.3553787 L255.649516,78.041385 Z M223.713476,76.375849 C223.818499,76.7740833 223.651761,77.2012551 223.339939,77.3376745 C223.336691,77.3404305 223.328029,77.3431864 223.325864,77.3473203 L218.881313,79.1014806 C218.596559,79.2144744 218.296646,79.0105343 218.208946,78.6495053 C218.120164,78.2967441 218.272827,77.9178014 218.548919,77.8006736 L222.955575,75.8963142 C223.26848,75.7640288 223.60737,75.9776147 223.713476,76.375849 Z M178.919105,75.8916507 C178.921271,75.8944062 178.926684,75.8971617 178.926684,75.8971617 L183.337682,77.8011996 C183.620271,77.9224408 183.770769,78.3082083 183.67549,78.6691764 C183.582376,79.0177448 183.282463,79.2120063 183.007452,79.101787 L178.562891,77.3479229 C178.246737,77.2170375 178.072419,76.7913155 178.169864,76.3903929 C178.266226,75.9880926 178.602951,75.767654 178.919105,75.8916507 Z M147.349196,78.0412271 L152.136762,78.3547057 C152.389091,78.3707573 152.578897,78.5567673 152.559916,78.7692151 C152.540936,78.9863841 152.318752,79.145956 152.064189,79.1317928 C152.058606,79.1299044 152.049674,79.1299044 152.038509,79.1270718 L147.282206,78.5898147 C147.103565,78.569042 146.978517,78.4321312 147.00308,78.2820013 C147.026526,78.1347042 147.179487,78.0336734 147.349196,78.0412271 Z M192.262913,73.7943549 C192.26748,73.8016801 192.275473,73.8041218 192.282324,73.8126679 L195.8368,77.4300902 C195.969251,77.5643853 195.972676,77.792687 195.847076,77.9318656 C195.726044,78.0673816 195.526226,78.0771485 195.394917,77.9575037 L191.655466,74.5573954 C191.457932,74.3767074 191.432812,74.064166 191.602942,73.8517356 C191.769648,73.6393051 192.064236,73.6124461 192.262913,73.7943549 Z M211.381439,73.8297735 C211.55959,74.0312338 211.551596,74.3474656 211.365451,74.5342743 C211.358599,74.544042 211.351747,74.5513679 211.344896,74.5550308 L207.606014,77.9566586 C207.467833,78.0836397 207.257706,78.0653251 207.140081,77.9127036 C207.025882,77.7722919 207.037302,77.5598428 207.164063,77.4291988 L210.717942,73.8114589 C210.902945,73.6209873 211.203288,73.6283131 211.381439,73.8297735 Z M209.03912,72.6587013 C209.298148,72.7903908 209.362905,73.0579506 209.186546,73.2533947 C209.181035,73.2607108 209.175523,73.2648914 209.168634,73.2711623 L205.554649,76.8330518 C205.419624,76.9647414 205.166108,76.9866896 204.993882,76.8863547 C204.824412,76.7881101 204.785833,76.6062531 204.908458,76.4766538 L208.255149,72.7673974 C208.43013,72.5729985 208.782849,72.5217859 209.03912,72.6587013 Z M195.89049,71.7666438 L195.902753,71.7902217 L198.133256,76.475167 C198.216371,76.6484652 198.120993,76.8512358 197.919334,76.9231487 C197.723127,76.9927037 197.502393,76.9172542 197.412464,76.7522083 L194.882199,72.185153 C194.748669,71.9422997 194.863123,71.6522905 195.142447,71.5367584 C195.424496,71.4224052 195.755597,71.5237905 195.89049,71.7666438 Z M193.613303,72.7491321 C193.62295,72.7554018 193.62984,72.7616716 193.633974,72.7679413 L196.981302,76.4764737 C197.106706,76.6133623 197.057095,76.8014536 196.879325,76.8975891 C196.701554,76.98641 196.46177,76.9571513 196.336366,76.8328021 L192.721693,73.2716078 C192.527386,73.0856065 192.575618,72.8149641 192.82367,72.6718057 C193.071722,72.5265575 193.425886,72.5599959 193.613303,72.7491321 Z M206.714684,71.5255239 C207.000724,71.6292974 207.135571,71.912316 207.019793,72.1599574 C207.015707,72.1658536 207.008896,72.1764668 207.00481,72.1847215 L204.474042,76.7531146 C204.380057,76.9264635 204.144415,76.9960389 203.94555,76.9158503 C203.758943,76.8380202 203.674493,76.6434448 203.754857,76.4759921 L205.985965,71.7896746 C206.101743,71.5432125 206.430007,71.4252881 206.714684,71.5255239 Z M203.255856,70.4052768 C203.567014,70.4508958 203.772128,70.6890044 203.714919,70.9371269 C203.713524,70.9438029 203.710733,70.9560421 203.709338,70.9604927 L202.385,75.314 L202.378228,75.5483347 C202.371554,75.7240105 202.223626,75.8593137 202.046779,75.8571574 L201.98632,75.8499823 C201.929179,75.859762 201.868395,75.8598383 201.807503,75.8483951 C201.598204,75.8072268 201.469834,75.6403283 201.506112,75.4767677 L201.706,74.606 L201.599656,70.860736 C201.591871,70.6108617 201.790962,70.407907 202.04233,70.3980866 C202.294809,70.3926308 202.506136,70.5879474 202.512809,70.8345483 L202.512809,70.860736 L202.504,71.135 L202.588888,70.7702284 C202.644701,70.5243311 202.943302,70.3607706 203.255856,70.4052768 Z M199.292679,70.7461897 C199.295468,70.7562057 199.298258,70.7651088 199.299653,70.7706732 L200.38056,75.4781717 C200.422402,75.6517816 200.277351,75.82094 200.059775,75.8521007 C199.843593,75.8821486 199.641359,75.7753117 199.591149,75.6106049 L198.179693,70.9609763 C198.104378,70.7161419 198.295455,70.4701946 198.600898,70.4112117 C198.909131,70.351116 199.217364,70.5013553 199.292679,70.7461897 Z M168.929264,72.6168386 C168.929264,72.6168386 170.017867,73.0495673 171.104343,73.4836193 C172.189756,73.928258 173.27517,74.3742199 173.27517,74.3742199 C173.594096,74.5052295 173.768443,74.9366349 173.663197,75.334957 C173.557951,75.7332791 173.2167,75.9476585 172.897773,75.8206189 C172.897773,75.8206189 171.809171,75.3865669 170.722694,74.9525148 C169.637281,74.5078762 168.551868,74.0632375 168.551868,74.0632375 C168.231878,73.9309046 168.057532,73.5021459 168.163841,73.1011771 C168.268023,72.7081483 168.610338,72.4924456 168.929264,72.6168386 Z M181.323771,71.5854931 C181.323771,71.5854931 181.335428,71.5909582 181.33776,71.5936907 L185.646116,74.5926386 C185.920051,74.786648 186.010974,75.201992 185.846613,75.5257964 C185.686914,75.8427695 185.339542,75.9507043 185.065607,75.7689913 L180.695469,72.8971059 C180.384233,72.6976314 180.27699,72.238567 180.449511,71.875141 C180.623197,71.5117149 181.012535,71.3832862 181.323771,71.5854931 Z M233.726654,73.1076408 C233.827638,73.5085724 233.651181,73.9319986 233.333347,74.0643193 C233.333347,74.0643193 232.248031,74.5089168 231.164842,74.9535143 C230.078463,75.3875262 228.989959,75.821538 228.989959,75.821538 C228.668935,75.9472427 228.324525,75.7302368 228.223541,75.3279819 C228.120431,74.9296966 228.294762,74.5062704 228.612596,74.3752729 C228.612596,74.3752729 229.696849,73.9293522 230.781101,73.4847547 L231.123268,73.3482454 C232.085641,72.9644448 232.957047,72.6180542 232.957047,72.6180542 C233.278071,72.4897031 233.622481,72.7120019 233.726654,73.1076408 Z M221.429972,71.8579001 C221.610672,72.2158612 221.512744,72.6776584 221.206137,72.8907955 C221.203805,72.893528 221.196811,72.8989931 221.193313,72.8989931 L216.821542,75.7695134 C216.541749,75.953959 216.187344,75.8378266 216.032292,75.5099232 C215.879571,75.1888512 215.974001,74.7817046 216.242137,74.5931602 L220.548623,71.5942112 C220.85523,71.3838065 221.249272,71.5013052 221.429972,71.8579001 Z M159.935686,69.33787 L164.37481,71.0959855 C164.690731,71.2198934 164.867084,71.6453105 164.76863,72.0459461 C164.670175,72.4493352 164.334779,72.6696159 164.021022,72.5484615 L164.005875,72.540201 L159.601372,70.6416565 C159.318991,70.5205021 159.168604,70.1308806 159.262731,69.7715476 C159.356858,69.4177217 159.655468,69.2263528 159.935686,69.33787 Z M243.741579,69.7867768 C243.827065,70.1461165 243.67449,70.5233544 243.397474,70.6417575 L238.993352,72.540338 C238.682791,72.6766392 238.341931,72.464615 238.235886,72.0667254 C238.129841,71.6688358 238.297565,71.2379035 238.611373,71.1016023 C238.612455,71.0988487 238.620029,71.0960951 238.62544,71.0960951 L243.064189,69.3379463 C243.348779,69.2236735 243.652848,69.4274371 243.741579,69.7867768 Z M184.663622,67.2751835 C184.66572,67.2785231 184.670966,67.2829759 184.675162,67.2852023 L187.985065,70.5302023 C188.196982,70.737259 188.210621,71.0890325 188.01339,71.3105608 C187.823504,71.5343156 187.500382,71.5487873 187.287415,71.3528627 L183.899879,68.1969193 C183.660685,67.9742778 183.637605,67.5857684 183.847424,67.3330703 C184.058293,67.0759193 184.42233,67.0514288 184.663622,67.2751835 Z M218.030436,67.3187051 C218.247541,67.5691825 218.231809,67.9554743 217.996873,68.1870267 C217.993727,68.1914796 217.989532,68.1959326 217.987434,68.1959326 L214.599749,71.353061 C214.381594,71.5523297 214.054363,71.5322915 213.862429,71.3029655 C213.676788,71.075866 213.696715,70.7329903 213.901235,70.5303819 L217.212357,67.2853081 C217.447292,67.0559821 217.81333,67.0704541 218.030436,67.3187051 Z M230.330648,66.4120579 C230.511227,66.7767064 230.403794,67.2394786 230.092925,67.4489858 C230.092925,67.4489858 229.032315,68.1676749 227.969419,68.883712 C226.905379,69.5904672 225.837912,70.2972224 225.837912,70.2972224 C225.524757,70.5054036 225.121314,70.3807601 224.943021,70.0174375 C224.764729,69.652789 224.873305,69.1900168 225.18303,68.9805096 C225.18303,68.9805096 226.244784,68.2618205 227.305394,67.5457834 C228.370576,66.8363762 229.438044,66.132273 229.438044,66.132273 C229.752341,65.9214399 230.153499,66.0500613 230.330648,66.4120579 Z M172.452709,66.1311269 C172.452709,66.1311269 173.516797,66.8365507 174.584314,67.5459524 C175.644974,68.2619841 176.70449,68.9806677 176.70449,68.9806677 C177.019945,69.1928252 177.12281,69.6595718 176.941081,70.0215656 C176.760495,70.3795814 176.360461,70.50555 176.049579,70.2973704 C176.049579,70.2973704 174.984347,69.5906206 173.917973,68.8838708 C172.856171,68.1678392 171.795512,67.4491555 171.795512,67.4491555 C171.482343,67.23965 171.376048,66.7742294 171.558921,66.4095836 C171.739507,66.0462638 172.138397,65.9242733 172.452709,66.1311269 Z M252.64928,67.3478743 C252.700323,67.506915 252.607517,67.6756271 252.438147,67.7304317 L247.741017,69.2800039 C247.491601,69.3627481 247.218984,69.2423929 247.129659,69.0124287 C247.041493,68.7824644 247.171421,68.528859 247.419677,68.4461148 C247.426637,68.4461148 247.437078,68.4418164 247.444038,68.4396672 L252.229334,67.1351036 C252.409145,67.0867467 252.597077,67.1813114 252.64928,67.3478743 Z M214.556399,65.0361863 C214.867564,65.2070223 214.938509,65.5380773 214.721939,65.7774407 C214.719449,65.7822666 214.713226,65.7861273 214.710737,65.7909531 L211.51197,69.1150158 C211.309091,69.325424 210.919513,69.3688568 210.646933,69.2115333 C210.378088,69.0561401 210.318344,68.7627269 210.510021,68.5523188 L213.598014,65.1664849 C213.819563,64.924226 214.247725,64.8663155 214.556399,65.0361863 Z M188.274932,65.1537216 C188.278665,65.1556517 188.283644,65.1624068 188.286133,65.1662669 L191.37756,68.5515522 C191.572952,68.7648213 191.506991,69.0668721 191.228215,69.2174151 C190.953173,69.367958 190.574834,69.3226021 190.374464,69.1141581 L187.177251,65.7906339 C186.950746,65.5551694 187.012973,65.2203079 187.31415,65.0446745 C187.620306,64.8690411 188.049671,64.916327 188.274932,65.1537216 Z M149.658065,67.1350231 L154.444174,68.4394093 C154.698273,68.5081743 154.840986,68.7552985 154.765568,68.9873804 C154.692471,69.2216112 154.42677,69.3569923 154.171511,69.2882273 C154.166869,69.2860784 154.155267,69.2839295 154.147145,69.2796317 L149.450377,67.7313446 C149.271696,67.6711752 149.182355,67.4938904 149.243849,67.3305736 C149.304183,67.1737034 149.488666,67.0888216 149.658065,67.1350231 Z M211.111821,61.7123457 C211.445932,61.844031 211.601056,62.2006786 211.455478,62.5068468 C211.454285,62.5112363 211.450705,62.518918 211.448319,62.5222101 L209.305233,66.8052734 C209.168008,67.0774229 208.814805,67.1981344 208.516491,67.0730334 C208.225337,66.9479324 208.096465,66.6340825 208.220563,66.3608356 L210.246711,62.0294877 C210.391095,61.7233195 210.777709,61.5806604 211.111821,61.7123457 Z M191.633051,62.0175591 C191.635438,62.0197537 191.639018,62.0252403 191.639018,62.0296296 L193.665413,66.3607558 C193.795494,66.638378 193.657059,66.9609904 193.355129,67.0784038 C193.060359,67.1947198 192.716659,67.0729172 192.584192,66.8051708 L190.438456,62.5234241 C190.285701,62.2172715 190.430102,61.8606422 190.761868,61.7190878 C191.091246,61.5786307 191.480295,61.7125038 191.633051,62.0175591 Z M205.440628,60.583446 C205.783049,60.6437369 206.005222,60.946231 205.936509,61.2570411 C205.936509,61.2601596 205.934219,61.2684756 205.934219,61.2684756 L204.849693,65.6281327 C204.778689,65.9067184 204.47406,66.0803146 204.16714,66.0179447 C203.865946,65.9555748 203.67584,65.6853052 203.735391,65.413996 L204.697378,61.0325094 C204.764946,60.7206598 205.098206,60.5189971 205.440628,60.583446 Z M197.187271,61.018736 C197.187271,61.020815 197.188416,61.0280914 197.188416,61.0322493 L198.151736,65.4136709 C198.214735,65.6922524 198.013137,65.9635575 197.703866,66.0217686 C197.401469,66.0727032 197.105944,65.8991095 197.039508,65.6278044 L195.954772,61.268212 C195.876881,60.9636434 196.091079,60.6559564 196.431277,60.5852716 C196.771474,60.5166657 197.108235,60.7100095 197.187271,61.018736 Z M202.049084,60.5714467 C202.355347,60.5674116 202.608215,60.8165727 202.612245,61.1290451 L202.612245,61.1423201 L202.555828,65.5291885 C202.552806,65.8110264 202.326131,66.0346586 202.050092,66.030574 C201.778082,66.0285317 201.559467,65.8028572 201.556444,65.5291885 L201.500028,61.1423201 C201.497005,60.83189 201.742821,60.5755808 202.049084,60.5714467 Z M163.436027,61.7491974 L167.803091,64.6178195 C168.112944,64.8226236 168.224771,65.2813846 168.050042,65.6473012 C167.875312,66.0091217 167.483919,66.1374656 167.174066,65.9340269 C167.170571,65.9299308 167.164747,65.9272001 167.158923,65.9244694 L162.855926,62.9275034 C162.579854,62.7349876 162.488994,62.315822 162.65324,61.9949623 C162.815156,61.679564 163.159955,61.5703352 163.436027,61.7491974 Z M239.242213,62.0133572 C239.39599,62.3341858 239.302792,62.7382932 239.033681,62.9280599 L234.729077,65.9247352 C234.422687,66.1377107 234.027759,66.0189359 233.844857,65.6626114 C233.664285,65.3049217 233.764473,64.8407442 234.070863,64.6291339 C234.074358,64.6264034 234.080183,64.6209425 234.084843,64.6182121 L238.452356,61.7498683 C238.731951,61.5655625 239.086105,61.6857025 239.242213,62.0133572 Z M175.788304,60.7293324 C175.788304,60.7293324 176.610632,61.5053573 177.430908,62.2846429 C178.247083,63.0715365 179.061208,63.8562564 179.061208,63.8562564 C179.302164,64.0866727 179.321646,64.4801196 179.102222,64.7355339 C178.884848,64.9876877 178.514699,65.0083382 178.274768,64.7800956 C178.274768,64.7800956 177.541272,64.08887 176.76789,63.3564961 L176.631138,63.2269588 C175.815989,62.4433258 174.999813,61.6586059 174.999813,61.6586059 C174.757832,61.4260158 174.740401,61.032569 174.959825,60.773894 C175.177198,60.5228271 175.547348,60.5021766 175.788304,60.7293324 Z M226.930695,60.7785147 C227.14814,61.035026 227.127626,61.4263146 226.888642,61.6600008 C226.888642,61.6600008 226.072197,62.4436647 225.256777,63.2273287 C224.433152,64.0055581 223.614656,64.7805268 223.614656,64.7805268 C223.369517,65.0087785 222.998219,64.9881271 222.782825,64.7316157 C222.566406,64.4761913 222.58692,64.0849028 222.824878,63.8566511 C222.824878,63.8566511 223.642349,63.0719002 224.457769,62.2849755 C225.279342,61.5056592 226.09989,60.7306905 226.09989,60.7306905 C226.344003,60.500265 226.715301,60.5230902 226.930695,60.7785147 Z M181.624557,56.4813347 C181.624557,56.4813347 182.395515,57.5056214 183.16526,58.5275454 C183.92652,59.5601021 184.686568,60.5902959 184.686568,60.5902959 C184.9084,60.8915567 184.839305,61.3156847 184.528982,61.5342465 C184.217448,61.7539897 183.787118,61.6854676 183.561649,61.3865696 C183.561649,61.3865696 182.790691,60.3622828 182.020946,59.3403589 C181.260898,58.310165 180.498426,57.2776083 180.498426,57.2776083 C180.274169,56.9763475 180.344477,56.5510381 180.657223,56.331295 C180.966334,56.1139146 181.400301,56.1824367 181.624557,56.4813347 Z M221.233221,56.3347948 C221.543385,56.5580136 221.613657,56.9772868 221.388303,57.2796359 C221.388303,57.2796359 220.62743,58.3106938 219.865345,59.3405705 L219.635342,59.6460979 C218.950044,60.5567345 218.327849,61.3861515 218.327849,61.3861515 C218.101283,61.6885006 217.665114,61.7534584 217.354949,61.5314208 C217.048419,61.3105642 216.979359,60.8912909 217.20229,60.5901229 C217.20229,60.5901229 217.963163,59.5602461 218.725247,58.5280072 C219.494602,57.5063978 220.261533,56.4824263 220.261533,56.4824263 C220.48931,56.1812582 220.924267,56.1127572 221.233221,56.3347948 Z M155.217592,56.2449265 L159.017937,58.5902817 C159.217849,58.7131173 159.293193,59.0001162 159.185703,59.2285673 C159.076203,59.4604625 158.825057,59.5465622 158.62414,59.4237266 C158.618112,59.4179866 158.610075,59.4133947 158.604048,59.4088027 L154.925258,56.8246643 C154.786625,56.7259367 154.744433,56.5192975 154.829822,56.3620221 C154.911194,56.2093386 155.081973,56.1611228 155.217592,56.2449265 Z M247.066313,56.3801563 C247.141668,56.5339935 247.093441,56.7314563 246.962826,56.8244475 L243.282488,59.4086839 C243.086565,59.5464486 242.833372,59.4775662 242.713809,59.2536986 C242.59525,59.033275 242.655534,58.739377 242.848443,58.6027603 C242.857486,58.5970201 242.863514,58.594724 242.869543,58.5901319 L246.670448,56.2446877 C246.81312,56.1562886 246.990958,56.2171347 247.066313,56.3801563 Z M233.627306,54.210513 C233.812812,54.4341292 233.793947,54.7801224 233.586432,54.9826008 L230.279827,58.225592 C230.045064,58.4536582 229.677197,58.440308 229.461298,58.1911039 C229.242255,57.9385622 229.256928,57.5536308 229.493788,57.322227 C229.495884,57.320002 229.501124,57.3155519 229.504269,57.3099893 L232.888429,54.1582246 C233.106424,53.9557463 233.436561,53.9791092 233.627306,54.210513 Z M188.306921,53.2929356 C188.306921,53.2929356 188.815224,54.3473226 189.323528,55.4038635 C189.821459,56.4625585 190.321694,57.5212534 190.321694,57.5212534 C190.468076,57.8346616 190.317084,58.199766 189.981672,58.3354685 C189.650871,58.472248 189.260134,58.3311605 189.112599,58.0242143 C189.112599,58.0242143 188.604296,56.9698274 188.095992,55.9154404 C187.595756,54.8578225 187.096673,53.7991275 187.096673,53.7991275 C186.950291,53.4846423 187.101284,53.120615 187.436695,52.9816815 C187.768649,52.843825 188.159386,52.9838355 188.306921,53.2929356 Z M214.456137,52.9829161 C214.789298,53.1239614 214.936858,53.4878798 214.790451,53.8001176 C214.790451,53.8001176 214.291285,54.8584957 213.792119,55.9168739 C213.284883,56.9709453 212.775341,58.02394 212.775341,58.02394 C212.626629,58.3329477 212.233521,58.473993 211.899207,58.3329477 C211.56835,58.1940558 211.420791,57.831214 211.566045,57.5211297 C211.566045,57.5211297 212.065211,56.4638282 212.56553,55.4043734 C213.073919,54.3481486 213.578849,53.2940771 213.578849,53.2940771 C213.729867,52.9829161 214.121822,52.8429475 214.456137,52.9829161 Z M168.997536,54.1574967 L172.385227,57.3087693 C172.625259,57.5356876 172.648318,57.9238959 172.437636,58.1786228 C172.226953,58.4333498 171.860093,58.4600461 171.620062,58.2331277 C171.619014,58.230903 171.611676,58.2264537 171.607484,58.224229 L168.30155,54.9817441 C168.087723,54.774848 168.076193,54.4244594 168.271153,54.1975411 C168.462968,53.9761845 168.784757,53.961724 168.997536,54.1574967 Z M255.5,49 C257.985233,49 260,51.0142409 260,53.5 C260,55.9857591 257.985233,58 255.5,58 C253.013591,58 251,55.9857591 251,53.5 C251,51.0142409 253.013591,49 255.5,49 Z M202.057076,49.653082 C202.360416,49.653082 202.602706,49.9601911 202.60366,50.3419306 L202.603908,50.424935 C202.604826,50.7302391 202.608191,51.8302932 202.612245,52.9286072 C202.606522,54.2207412 202.602706,55.5152838 202.602706,55.5152838 C202.602706,55.8970233 202.355646,56.2041008 202.052307,56.2041008 C201.752783,56.2004881 201.509539,55.8946148 201.507631,55.5152838 L201.507204,55.3703143 C201.506174,55.0208601 201.503426,54.0891326 201.500572,53.1222832 L201.5,52.9286072 C201.503816,51.6364731 201.507631,50.3419306 201.507631,50.3419306 C201.508585,49.9565784 201.754691,49.6495008 202.057076,49.653082 Z M194.95407,51.2076917 C194.95407,51.2076917 195.199345,52.2769318 195.447891,53.3492356 C195.687715,54.4246031 195.92536,55.4989494 195.92536,55.4989494 C195.996217,55.8134918 195.779285,56.1249705 195.44244,56.1923725 C195.105596,56.2556895 194.775292,56.0565474 194.702254,55.7420049 C194.702254,55.7420049 194.453709,54.6697011 194.207344,53.5984186 C193.965339,52.5240723 193.727695,51.4507472 193.727695,51.4507472 C193.656837,51.1331411 193.87377,50.8226836 194.213884,50.7573241 C194.548549,50.6919646 194.881033,50.8911068 194.95407,51.2076917 Z M208.792369,50.7580107 C209.127969,50.8264209 209.341532,51.1368192 209.272887,51.4523227 C209.272887,51.4523227 209.032083,52.525443 208.794548,53.5995844 L208.712366,53.9551763 C208.494838,54.8956712 208.297686,55.742762 208.297686,55.742762 C208.224682,56.0592865 207.892351,56.2583907 207.553482,56.1910016 C207.218972,56.1205494 207.005409,55.8121932 207.074054,55.4997528 C207.074054,55.4997528 207.313768,54.4256114 207.552393,53.350449 C207.801913,52.2783497 208.047076,51.2093135 208.047076,51.2093135 C208.12008,50.8897258 208.455679,50.6906216 208.792369,50.7580107 Z M175.922334,48.754197 L179.11848,52.0772386 C179.346066,52.3125323 179.28264,52.6471508 178.977949,52.8226568 C178.674502,52.9981628 178.241717,52.9509112 178.017862,52.7156175 C178.014131,52.7117602 178.006669,52.7069386 178.005426,52.7030813 L174.921207,49.320252 C174.720982,49.1032803 174.789382,48.8043416 175.0692,48.6510149 C175.341556,48.4986526 175.722109,48.5449399 175.922334,48.754197 Z M226.833034,48.6584179 C227.10293,48.8127297 227.161386,49.1059222 226.96736,49.3190655 L223.882843,52.7023527 C223.662698,52.9444294 223.231115,53.0003675 222.92515,52.8306244 C222.614211,52.6608814 222.538342,52.3262176 222.759731,52.0889631 C222.762218,52.0851053 222.767193,52.0783542 222.768437,52.0764253 L225.964892,48.7529339 C226.170112,48.5417195 226.558164,48.4973549 226.833034,48.6584179 Z M163.498606,45 C165.4319,45 167,46.5639188 167,48.4986061 C167,50.4332935 165.4319,52 163.498606,52 C161.5681,52 160,50.4332935 160,48.4986061 C160,46.5639188 161.5681,45 163.498606,45 Z M241.462127,47.5938932 C241.576248,47.7378542 241.564836,47.9550158 241.43702,48.0818966 L237.886698,51.698002 C237.698397,51.8895434 237.399399,51.8810033 237.221369,51.6833619 C237.042198,51.4820605 237.050187,51.1599783 237.237346,50.9696569 C237.243052,50.9647769 237.249899,50.9562368 237.255605,50.9537968 L240.994228,47.5548529 C241.131174,47.426752 241.34344,47.4450522 241.462127,47.5938932 Z M183.724618,44.5128045 L185.868032,48.7915118 C186.01943,49.0974471 185.877569,49.4593059 185.546163,49.5952772 C185.215948,49.7389242 184.823744,49.6051461 184.671154,49.3014039 C184.669961,49.2970177 184.666385,49.2893419 184.662809,49.2849558 L182.640989,44.956904 C182.509857,44.6794789 182.650526,44.358192 182.950938,44.2375724 C183.247774,44.1213389 183.591101,44.2452482 183.724618,44.5128045 Z M218.94958,44.2447801 C219.244125,44.3665319 219.374107,44.6835252 219.247703,44.956644 L217.224048,49.2859612 C217.079757,49.5930828 216.689813,49.7367718 216.358301,49.6029545 C216.024404,49.471331 215.869381,49.1170444 216.012479,48.8066322 C216.013672,48.8022448 216.017249,48.7967604 216.019634,48.792373 L218.164922,44.5124146 C218.297289,44.2371021 218.652651,44.117544 218.94958,44.2447801 Z M211.065646,40.9317139 C211.367538,40.9909437 211.55965,41.2652709 211.499043,41.538559 L210.536193,45.9142857 C210.468725,46.2260212 210.135959,46.4286492 209.794044,46.3663021 C209.453273,46.3060333 209.230286,46.0015717 209.297754,45.6898362 C209.298897,45.6867188 209.300041,45.6804841 209.301184,45.6784059 L210.382961,41.3203441 C210.453859,41.0428996 210.759181,40.8672886 211.065646,40.9317139 Z M191.50364,41.3214741 L192.586484,45.677654 C192.663095,45.9861388 192.44927,46.2915077 192.109667,46.3631759 C191.768919,46.4338054 191.430459,46.2374969 191.353848,45.929012 C191.352705,45.9269347 191.352705,45.9175867 191.350418,45.913432 L190.388779,41.5395947 C190.327033,41.2570766 190.525993,40.9859839 190.83701,40.9278184 C191.140024,40.8748462 191.435033,41.0503814 191.50364,41.3214741 Z M202.063633,39.8265537 C202.335385,39.8306914 202.553793,40.0542415 202.557819,40.3278098 L202.61217,44.7151092 C202.617202,45.0254254 202.369606,45.2816404 202.06464,45.2857361 C201.757661,45.2877651 201.504026,45.040737 201.5,44.7283793 L201.5,44.7151092 L201.55737,40.3278098 C201.559383,40.0481169 201.785843,39.8225251 202.063633,39.8265537 Z M169.964363,39.9448898 L173.575796,43.5010445 C173.76848,43.6879358 173.718933,43.959398 173.47395,44.1045259 C173.223462,44.2496537 172.865621,44.2141548 172.675691,44.0262195 C172.670186,44.0199549 172.661928,44.0105582 172.657799,44.00847 L169.314746,40.303011 C169.189502,40.1641477 169.237673,39.9741242 169.419345,39.8801565 C169.595513,39.788277 169.833614,39.8175113 169.964363,39.9448898 Z M232.485804,39.8891522 C232.655155,39.9904182 232.69233,40.1689388 232.573922,40.3025683 L229.229579,44.0076535 C229.051967,44.2018338 228.696742,44.2540328 228.439273,44.1172714 C228.181804,43.983642 228.115716,43.7153391 228.294705,43.5211588 C228.298835,43.5138509 228.30572,43.5065431 228.312604,43.5002792 L231.924053,39.9455271 C232.060361,39.8129416 232.309568,39.7868421 232.485804,39.8891522 Z M223.520079,34.4031426 C223.710553,34.480926 223.794906,34.6753843 223.714634,34.8427364 L221.483367,39.5262364 C221.367723,39.7737288 221.041196,39.8927609 220.754124,39.7890498 C220.469774,39.6888743 220.333721,39.4024901 220.449366,39.1561762 L220.46161,39.1302484 L222.989473,34.5622449 C223.08471,34.3925358 223.322802,34.3171095 223.520079,34.4031426 Z M180.011234,34.5632341 L182.535842,39.1304674 C182.670578,39.3732048 182.553535,39.6630756 182.277257,39.7785526 C181.995535,39.895208 181.659374,39.7915143 181.525999,39.5511336 C181.520555,39.5417069 181.516472,39.5334586 181.51375,39.5263885 L179.285834,34.8424999 C179.201454,34.6657494 179.296722,34.4666105 179.499507,34.3935536 C179.696849,34.3228534 179.918688,34.4006236 180.011234,34.5632341 Z M212.312179,31.1010944 C212.522381,31.142235 212.654628,31.3067977 212.61565,31.475808 L211.534014,36.1758505 C211.479723,36.4260302 211.179037,36.5905928 210.865822,36.5427807 C210.556783,36.4971924 210.349365,36.2603556 210.407832,36.009064 C210.409224,36.0023926 210.4134,35.9923854 210.416184,35.9857139 L211.823564,31.340155 C211.873678,31.1655851 212.090841,31.0588418 212.312179,31.1010944 Z M190.065285,31.338087 L191.473705,35.9855395 C191.547466,36.2302008 191.360976,36.4781983 191.050623,36.5382516 C190.743053,36.5971927 190.434091,36.4470596 190.358938,36.199062 C190.356155,36.1923895 190.354763,36.1857169 190.35198,36.175708 L189.272005,31.4737628 C189.231646,31.2980515 189.377776,31.1279007 189.599059,31.0978741 C189.809209,31.0645112 190.015184,31.1734967 190.065285,31.338087 Z M202.065519,30.0000254 C202.236805,30.0044159 202.374723,30.1418953 202.380285,30.3110168 L202.513754,34.9984099 C202.519315,35.2482733 202.321336,35.4534013 202.068856,35.4588568 C201.814152,35.4686768 201.60505,35.2711865 201.598377,35.0235053 L201.598377,34.9984099 L201.731846,30.3110168 C201.737407,30.1331664 201.886448,29.9978692 202.065519,30.0000254 Z M175.499412,23 C177.98432,23 180,25.0139778 180,27.4994121 C180,29.9824951 177.98432,32 175.499412,32 C173.014504,32 171,29.9824951 171,27.4994121 C171,25.0139778 173.014504,23 175.499412,23 Z" id="bg_fire1"></path>
                </g>
            </g>
        </g>
    </g>
</svg>