<?xml version="1.0" encoding="UTF-8"?>
<svg width="62px" height="39px" viewBox="0 0 62 39" version="1.1" xmlns="http://www.w3.org/2000/svg" xmlns:xlink="http://www.w3.org/1999/xlink">
    <!-- Generator: Sketch 60.1 (88133) - https://sketch.com -->
    <title>img_bg_seller</title>
    <desc>Created with Sketch.</desc>
    <g id="✡️Symbols" stroke="none" stroke-width="1" fill="none" fill-rule="evenodd" stroke-linecap="round" stroke-linejoin="round">
        <g id="img/img_bg_seller" transform="translate(-7.000000, -1.000000)" stroke="#FFFFFF">
            <g id="img_bg_seller" transform="translate(8.249859, 3.250300)">
                <path d="M12.4175408,34.94 C12.4235408,33.268 12.4055408,31.595 12.4115408,29.923 C12.4295408,25.923 18.1475408,24.21 21.1345408,22.475 C22.1855408,21.865 23.2285408,21.413 23.2285408,19.999 L23.2285408,16.368 C23.2285408,16.088 22.6635408,15.37 22.5545408,15.07 C21.9605408,13.462 21.7635408,11.618 21.7635408,9.911 C21.7635408,6.419 22.2315408,2.3 25.8645408,0.673 C26.8945408,0.211 28.2615408,-7.10542736e-15 29.3845408,-7.10542736e-15" id="Stroke-1" stroke-width="3"></path>
                <path d="M46.5386408,34.94 C46.5326408,31.268 46.5506408,31.595 46.5446408,29.923 C46.5266408,25.923 40.8086408,24.21 37.8216408,22.475 C36.7686408,21.865 35.7276408,21.413 35.7276408,19.999 L35.7276408,16.368 C35.7276408,16.088 36.2906408,15.37 36.4016408,15.07 C36.9956408,13.462 37.1926408,11.618 37.1926408,9.911 C37.1926408,6.419 36.7246408,2.3 33.0916408,0.673 C32.0616408,0.211 30.6946408,-7.10542736e-15 29.5716408,-7.10542736e-15" id="Stroke-3" stroke-width="3"></path>
                <path d="M0.00544084094,34.94 C0.0104408409,33.695 -0.00455915906,32.449 0.00144084094,31.203 C0.0134408409,28.223 4.27544084,26.948 6.49844084,25.656 C7.28044084,25.201 8.05744084,24.864 8.05744084,23.81 L8.05744084,21.616 C8.05744084,21.408 7.63844084,20.873 7.55644084,20.65 C7.11344084,19.452 6.96644084,18.079 6.96644084,16.806 C6.96644084,14.206 7.31644084,11.137 10.0214408,9.925 C10.7884408,9.582 11.8064408,9.424 12.6434408,9.424" id="Stroke-5" stroke-width="2"></path>
                <path d="M17.8706408,19.5531734 C18.3126408,18.472212 18.4596408,17.2333473 18.4596408,16.0847131 C18.4596408,13.7387201 18.1096408,10.9695461 15.4056408,9.87685479 C14.6376408,9.56646188 13.6196408,9.4248 12.7826408,9.4248" id="Stroke-7" stroke-width="2"></path>
                <path d="M58.9507408,34.94 C58.9457408,33.695 58.9607408,32.449 58.9547408,31.203 C58.9427408,28.223 54.6807408,26.948 52.4577408,25.656 C51.6757408,25.201 50.8987408,24.864 50.8987408,23.81 L50.8987408,21.616 C50.8987408,21.408 51.3177408,20.873 51.3997408,20.65 C51.8427408,19.452 51.9897408,18.079 51.9897408,16.806 C51.9897408,14.206 51.6397408,11.137 48.9347408,9.925 C48.1677408,9.582 47.1497408,9.424 46.3127408,9.424" id="Stroke-9" stroke-width="2"></path>
                <path d="M41.0854408,19.5531734 C40.6434408,18.472212 40.4964408,17.2333473 40.4964408,16.0847131 C40.4964408,13.7387201 40.8464408,10.9695461 43.5504408,9.87685479 C44.3184408,9.56646188 45.3364408,9.4248 46.1734408,9.4248" id="Stroke-11" stroke-width="2"></path>
                <polyline id="Stroke-13" stroke-width="2" points="26.7501408 22.7497 28.3455692 24.6433446 29.8871042 24.7497 31.7501408 22.7497"></polyline>
                <polyline id="Stroke-15" stroke-width="2" points="29.9273071 24.7497 31.7501408 33.1436276 29.1915782 35.7497 26.7501408 33.1436276 28.5729746 24.7497"></polyline>
            </g>
        </g>
    </g>
</svg>