<svg xmlns="http://www.w3.org/2000/svg" width="53" height="64" viewBox="0 0 53 64">
  <g fill="none" fill-rule="evenodd">
    <rect width="53" height="64"/>
    <g stroke="#FFF" stroke-linecap="round" stroke-width="3" transform="translate(2 3)">
      <path stroke-linejoin="round" d="M45.5514962,33.5670541 C45.8420465,32.1370991 46,30.520363 46,28.6916159 C46,13.1897658 33.5460844,8 33.5460844,8 L20.979572,8 C20.979572,8 9,14.3621231 9,29.8627469 C9,33.9637462 9.79422102,36.8937935 11.0968254,39"/>
      <polygon stroke-linejoin="round" points="33.163 8 37 0 18 0 21.273 8"/>
      <polyline stroke-linejoin="round" points="20 17 24.013 30 28.028 17.221 31.409 30 35 17.441"/>
      <line x1="19" x2="37" y1="21" y2="21"/>
      <path stroke-linejoin="round" d="M13.1335384,56 L36.0955394,54.108103 L47.3945081,38.3546604 C48.2018306,37.5868852 48.2018306,36.3436066 47.3945081,35.5758314 C46.5871856,34.8080562 45.2798669,34.8080562 44.4725445,35.5758314 L35.4844329,44.7194379 C35.4844329,44.7194379 16.540132,44.6103981 22.2812232,41.2245433 C25.9561363,40.5703044 33.8816082,38.5749883 33.8816082,38.5749883 C34.3863325,38.2163934 34.7184813,37.6475878 34.7184813,37.0012178 C34.7184813,35.9164403 33.7941384,35.0362529 32.6523031,35.0362529 L19.333255,35.0362529 L17.7257022,35.0362529 C17.7257022,35.0362529 10.0732779,40.4219204 9,42.7522248"/>
      <polygon stroke-linejoin="round" points="8.819 43 0 46.526 4.024 59 13 56.2"/>
    </g>
  </g>
</svg>
