<svg xmlns="http://www.w3.org/2000/svg" width="280" height="196" viewBox="0 0 280 196">
  <defs>
    <linearGradient id="img_bg_graph-a" x1="50%" x2="50%" y1="0%" y2="100%">
      <stop offset="0%" stop-color="#FFF"/>
      <stop offset="100%" stop-color="#FFF" stop-opacity="0"/>
    </linearGradient>
  </defs>
  <path fill="url(#img_bg_graph-a)" fill-rule="evenodd" d="M0,317 C0,225.014485 0,179.021728 0,179.021728 C11.8583148,178.982145 11.8583148,149.219386 30.0903723,149.219386 C47.4951559,149.219386 47.4951559,171.445539 65.9099516,171.445539 C85.0284779,171.445539 90.1942906,138.435281 104.727812,138.435281 C112.424802,138.435281 112.424802,149.219386 126.843084,149.219386 C144.307173,146.468263 142.376886,161.211898 157.460486,162.302127 C171.667239,161.211898 173.52644,143.768244 187.757777,143.768244 C202.987859,143.768244 210.253084,171.445539 227.303953,171.445539 C232.796251,171.445539 237.608297,158.96787 241.574336,152.513336 C248.0465,141.980207 252.308098,128.741367 253.346594,126.482002 C255.852162,121.03086 257.620887,121.03086 259.474274,121.03086 C259.981592,121.03086 266.240544,119.32153 266.331266,141.34602 C266.364706,149.464193 270.964735,179.021728 280,179.021728 C280,179.021728 280,225.014485 280,317 L0,317 Z" opacity=".3" transform="translate(0 -121)"/>
</svg>
