<svg xmlns="http://www.w3.org/2000/svg" width="90" height="70" viewBox="0 0 90 70">
  <g fill="none" fill-rule="evenodd">
    <rect width="90" height="70"/>
    <path fill="#FF6161" d="M65,25 C71.627417,25 77,30.372583 77,37 C77,43.627417 71.627417,49 65,49 C58.372583,49 53,43.627417 53,37 C53,30.372583 58.372583,25 65,25 Z M65,30.5 C64.1715729,30.5 63.5,31.1715729 63.5,32 L63.5,32 L63.5,35.5 L60,35.5 L59.85554,35.5068666 C59.0948881,35.5795513 58.5,36.2203039 58.5,37 C58.5,37.8284271 59.1715729,38.5 60,38.5 L60,38.5 L63.5,38.5 L63.5,42 L63.5068666,42.14446 C63.5795513,42.9051119 64.2203039,43.5 65,43.5 C65.8284271,43.5 66.5,42.8284271 66.5,42 L66.5,42 L66.5,38.5 L70,38.5 L70.14446,38.4931334 C70.9051119,38.4204487 71.5,37.7796961 71.5,37 C71.5,36.1715729 70.8284271,35.5 70,35.5 L70,35.5 L66.5,35.5 L66.5,32 L66.4931334,31.85554 C66.4204487,31.0948881 65.7796961,30.5 65,30.5 Z" opacity=".7"/>
    <path stroke="#1369FA" stroke-linecap="round" stroke-linejoin="round" stroke-width="4.5" d="M50,41 L50,45 C50,49.9705627 45.9705627,54 41,54 L23,54 C18.0294373,54 14,49.9705627 14,45 L14,41 L14,41" transform="matrix(1 0 0 -1 0 95)"/>
    <circle cx="32" cy="25" r="9" stroke="#1369FA" stroke-width="4.5"/>
  </g>
</svg>
