<?xml version="1.0" encoding="UTF-8"?>
<svg width="52px" height="46px" viewBox="0 0 52 46" version="1.1" xmlns="http://www.w3.org/2000/svg" xmlns:xlink="http://www.w3.org/1999/xlink">
    <!-- Generator: Sketch 61.2 (89653) - https://sketch.com -->
    <title>ico_pay_cash</title>
    <desc>Created with Sketch.</desc>
    <g id="✡️Symbols" stroke="none" stroke-width="1" fill="none" fill-rule="evenodd">
        <g id="img/ico_pay_cash" transform="translate(-2.000000, -1.000000)">
            <g id="ico_pay_cash">
                <rect id="bound" x="0" y="0" width="56" height="47"></rect>
                <g id="Group-21" transform="translate(3.000000, 2.000000)">
                    <path d="M12,2 L46,2 L46,43 L42.5941295,45 L39.188259,43 L35.7872806,45 L32.3872806,43 L28.988259,45 L25.5931511,43 L22.1931511,45 L18.7941295,43 L15.3960863,45 L12,43 L12,2 Z" id="Combined-Shape" fill="#FFD786"></path>
                    <path d="M8,0 L42,0 L42,41 L38.5941295,43 L35.188259,41 L31.7872806,43 L28.3872806,41 L24.988259,43 L21.5931511,41 L18.1931511,43 L14.7941295,41 L11.3960863,43 L8,41 L8,0 Z" id="Combined-Shape" stroke="#36384D" stroke-width="2" stroke-linecap="round" stroke-linejoin="round"></path>
                    <path d="M42,0 L46.5,0 C48.4329966,0 50,1.56700338 50,3.5 C50,5.43299662 48.4329966,7 46.5,7 L42,7" id="Rectangle" stroke="#36384D" stroke-width="2"></path>
                    <path d="M0,0 L4.5,0 C6.43299662,0 8,1.56700338 8,3.5 C8,5.43299662 6.43299662,7 4.5,7 L0,7" id="Rectangle" stroke="#36384D" stroke-width="2" transform="translate(4.000000, 3.500000) scale(-1, 1) translate(-4.000000, -3.500000) "></path>
                    <line x1="16" y1="10.5" x2="34" y2="10.5" id="Stroke-11" stroke="#36384D" stroke-width="2" stroke-linecap="round" stroke-linejoin="round"></line>
                    <line x1="16" y1="18.5" x2="34" y2="18.5" id="Stroke-15" stroke="#36384D" stroke-width="2" stroke-linecap="round" stroke-linejoin="round"></line>
                    <line x1="16" y1="27.5" x2="34" y2="27.5" id="Stroke-19" stroke="#36384D" stroke-width="2" stroke-linecap="round" stroke-linejoin="round"></line>
                </g>
            </g>
        </g>
    </g>
</svg>