<?xml version="1.0" encoding="UTF-8"?>
<svg width="40px" height="40px" viewBox="0 0 40 40" version="1.1" xmlns="http://www.w3.org/2000/svg" xmlns:xlink="http://www.w3.org/1999/xlink">
    <!-- Generator: Sketch 60.1 (88133) - https://sketch.com -->
    <title>img_profile</title>
    <desc>Created with Sketch.</desc>
    <g id="✡️-Symbols" stroke="none" stroke-width="1" fill="none" fill-rule="evenodd">
        <g id="img/img_profile">
            <g id="img_profile">
                <circle id="Oval" fill="#DCDEE4" cx="20" cy="20" r="20"></circle>
                <path d="M11.5,30 C11.2238576,30 11,29.7761397 11,29.5 C11,28.4693852 11.7544057,27.921234 13.5523663,27.1747208 C13.7043943,27.1115987 14.3355465,26.8548384 14.4959069,26.7882567 C16.5360276,25.9411986 17.3752748,25.2675181 17.3752748,24.205969 C17.3752748,23.2445849 17.1716025,22.7730659 16.5855562,22.0695667 C16.5987477,22.0854019 16.2910238,21.7208028 16.2004272,21.608942 C15.2432816,20.4271416 14.8026798,19.157769 14.8026798,16.7943295 C14.8026798,16.6387158 14.8118203,16.3753787 14.8390417,16.0392726 C14.8844211,15.4789669 14.9662209,14.9178596 15.0946559,14.3892582 C15.3339715,13.4043046 15.7063279,12.6380489 16.3263203,12.1336527 C17.6296706,11.3290208 18.9462502,10.9880737 20.4519356,11.0003178 C21.9751992,11.0127048 23.3096682,11.3559371 24.6245268,12.1730684 C25.1894116,12.6380489 25.5617681,13.4043046 25.8010836,14.3892582 C25.9295187,14.9178596 26.0113185,15.4789669 26.0566979,16.0392726 C26.0839193,16.3753787 26.0930598,16.6387158 26.0930598,16.7943295 C26.0930598,19.157769 25.652458,20.4271416 24.6953123,21.608942 C24.6047157,21.7208028 24.2969919,22.0854019 24.3101834,22.0695667 C23.724137,22.7730659 23.5204648,23.2445849 23.5204648,24.205969 C23.5204648,25.2647682 24.3752244,25.9398605 26.4493221,26.7871691 C26.6123615,26.8537738 27.2538355,27.1105342 27.4082933,27.1736332 C29.2355459,27.9201008 30,28.4666155 30,29.5 C30,29.7761397 29.7761424,30 29.5,30 L11.5,30 Z" id="Path" fill="#FFFFFF" fill-rule="nonzero"></path>
            </g>
        </g>
    </g>
</svg>