<svg xmlns="http://www.w3.org/2000/svg" width="280" height="196" viewBox="0 0 280 196">
  <defs>
    <linearGradient id="img_bg_graph-a" x1="50%" x2="50%" y1="0%" y2="100%">
      <stop offset="0%" stop-color="#FFF"/>
      <stop offset="100%" stop-color="#FFF" stop-opacity="0"/>
    </linearGradient>
  </defs>
  <path fill="url(#img_bg_graph-a)" fill-rule="evenodd" d="M0,317 C0,224.632012 0,178.448019 0,178.448019 C12.7963674,178.408429 12.7963674,149.192965 32.4706728,149.192965 C51.2522626,149.192965 51.2522626,171.422618 71.1237616,171.422618 C91.7546599,171.422618 97.3291144,138.407162 113.012311,138.407162 C121.318171,138.407162 121.318171,149.192965 136.877012,149.192965 C155.722599,146.441408 153.639617,161.187366 169.916405,162.277766 C185.246984,161.187366 187.253257,143.740965 202.610366,143.740965 C219.045224,143.740965 226.885164,171.422618 245.284844,171.422618 C251.21161,171.422618 256.404313,158.942984 260.684086,152.487434 C267.668231,141.952646 272.266942,128.711721 273.387589,126.452 C275.190103,122.817333 277.39424,121 280,121 L280,317 L0,317 Z" opacity=".3" transform="translate(0 -121)"/>
</svg>
