<?xml version="1.0" encoding="UTF-8"?>
<svg width="135px" height="82px" viewBox="0 0 135 82" version="1.1" xmlns="http://www.w3.org/2000/svg" xmlns:xlink="http://www.w3.org/1999/xlink">
    <!-- Generator: Sketch 60.1 (88133) - https://sketch.com -->
    <title>img_pn1</title>
    <desc>Created with Sketch.</desc>
    <g id="✡️Symbols" stroke="none" stroke-width="1" fill="none" fill-rule="evenodd">
        <g id="img/img_pn1">
            <g id="img_pn1">
                <rect id="bound" x="0" y="0" width="135" height="82"></rect>
                <g id="Group-10" transform="translate(1.000000, 1.000000)" fill="#DCDEE4" stroke="#36384D" stroke-linecap="round" stroke-linejoin="round" stroke-width="2">
                    <path d="M113.427856,0 C116.513667,0 119,2.50727761 119,5.62095951 L119,74.3775283 C119,77.4912102 116.513667,80 113.427856,80 L19.5721443,80 C16.487832,80 14,77.4912102 14,74.3775283 L14,5.62095951 C14,2.50727761 16.487832,0 19.5721443,0 L113.427856,0 Z M113,6.03773585 L20,6.03773585 L20,72.4528302 L113,72.4528302 L113,6.03773585 Z" id="Combined-Shape"></path>
                    <path d="M124.453736,80 L7.54777398,80 C3.37838363,80 0,76.4176 0,72 L132,72 C132,76.4176 128.621616,80 124.453736,80 Z" id="Stroke-9"></path>
                </g>
                <g id="Group-2" transform="translate(55.000000, 19.000000)">
                    <polygon id="Stroke-7" stroke="#36384D" stroke-width="2" fill="#FFFFFF" stroke-linecap="round" stroke-linejoin="round" points="0 23 79 23 79 0 0 0"></polygon>
                    <g id="logo_fill" transform="translate(11.000000, 4.000000)">
                        <g id="Group-10">
                            <path d="M4.71100494,3.38709677 C5.90904936,3.38709677 6.89506733,3.81209513 7.67014479,4.66154767 C8.45662444,5.5052864 8.85,6.57050316 8.85,7.85583749 C8.85,9.11287488 8.45961072,10.1606781 7.67910365,10.9987031 C6.90429768,11.8310142 5.92696708,12.2473058 4.74684039,12.2473058 C3.72770177,12.2473058 2.81606951,11.8541415 2.01140066,11.0675408 L2.01140066,11.0675408 L2.01140066,15 L0,15 L0,3.61973032 L2.01140066,3.61973032 L2.01140066,4.53230681 C2.80412436,3.76910554 3.70381147,3.38709677 4.71100494,3.38709677 Z M20.9180355,3.38709677 L23.4698348,8.05749144 L25.8501121,3.38709677 L28.025,3.38709677 L22.1296144,14.516129 L19.9558189,14.516129 L22.4336016,10.0005629 L18.6833333,3.38709677 L20.9180355,3.38709677 Z M31.85917,3.38709677 C32.5068647,3.38709677 33.0532966,3.58383948 33.4826953,3.9718522 C33.9192875,4.36615851 34.1403503,4.87019197 34.1403503,5.46972362 C34.1403503,5.88509973 34.0188903,6.26681888 33.7795669,6.60366208 C33.5870015,6.87893769 33.2768496,7.18595481 32.8330638,7.54031058 L32.8330638,7.54031058 L33.9757291,8.90629051 C34.079482,8.79191158 34.1790847,8.67917445 34.2734307,8.5694473 C34.4117679,8.40937153 34.5503818,8.23971857 34.6862289,8.06568747 L34.6862289,8.06568747 L34.7808515,7.94419407 L34.8779643,7.81941705 L34.989464,7.93215418 L36.0070724,8.96512177 L36.0870313,9.04611738 L36.0211828,9.13915287 L35.957271,9.22917839 C35.8504747,9.37995061 35.7093708,9.55671805 35.5381093,9.75373438 C35.407519,9.90395934 35.2592216,10.0703287 35.0968137,10.247917 L35.0968137,10.247917 L36.6923949,12.1953688 L36.875,12.4183803 L34.5869028,12.4183803 L34.545125,12.3677581 L33.8512256,11.5252396 C33.091201,12.2257421 32.2874619,12.5806452 31.4599288,12.5806452 C30.6456761,12.5806452 29.9429231,12.318504 29.3696538,11.7994207 C28.803578,11.2715811 28.5166667,10.6113027 28.5166667,9.83773996 C28.5166667,8.91422589 28.9651559,8.1403895 29.8499606,7.53675334 L29.8499606,7.53675334 L30.2685689,7.25436326 C29.7996058,6.69177217 29.5622192,6.1228875 29.5622192,5.56193821 C29.5622192,4.92546599 29.7780252,4.39735276 30.2046571,3.99182747 C30.6354391,3.59040669 31.192108,3.38709677 31.85917,3.38709677 Z M13.2168867,3.38709677 C14.1736324,3.38709677 15.031772,3.78199533 15.7915721,4.57205964 L15.7915721,3.61553945 L17.7,3.61553945 L17.7,11.8595144 L15.7915721,11.8595144 L15.7915721,10.9965088 C15.0091193,11.72993 14.1680358,12.0967742 13.2675222,12.0967742 C12.130354,12.0967742 11.1903979,11.6847758 10.4473876,10.8610463 C9.7102403,10.020217 9.34166667,8.9704494 9.34166667,7.71227801 C9.34166667,6.47655011 9.7102403,5.4468214 10.4473876,4.62282467 C11.1850679,3.79909514 12.1079677,3.38709677 13.2168867,3.38709677 Z M31.3819067,8.57218364 C30.9538914,8.87181265 30.6578498,9.11452583 30.5012521,9.2932087 C30.3576581,9.46012531 30.2879361,9.62786283 30.2879361,9.8049039 C30.2879361,10.0818213 30.4008193,10.3321962 30.6293523,10.5672477 C30.8681223,10.7943637 31.1201727,10.9049118 31.3998905,10.9049118 C31.7720175,10.9049118 32.2196767,10.6665767 32.731801,10.195653 L32.731801,10.195653 Z M4.38034142,5.13497734 C3.6413709,5.13497734 3.04248443,5.38203144 2.58368201,5.87559547 C2.12460812,6.36943159 1.89520691,7.01781256 1.89520691,7.82155465 C1.89520691,8.60788324 2.12460812,9.25680839 2.58368201,9.76751384 C3.03624038,10.2667917 3.63241204,10.5165666 4.37138256,10.5165666 C5.06881653,10.5165666 5.64381269,10.2640708 6.09664254,9.758535 C6.56168901,9.25381544 6.79407651,8.62257588 6.79407651,7.86481633 C6.79407651,7.06080215 6.5673901,6.40670737 6.11456026,5.90144364 C5.65548636,5.39073819 5.07777539,5.13497734 4.38034142,5.13497734 Z M13.5713357,5.10509253 C12.9184033,5.10509253 12.3726052,5.35357404 11.9331418,5.85000267 C11.4998079,6.35230936 11.2834075,6.97297875 11.2834075,7.71227801 C11.2834075,8.50234232 11.4944778,9.14545519 11.9166186,9.64215101 C12.3499524,10.1444577 12.8960171,10.3953439 13.5542795,10.3953439 C14.2578474,10.3953439 14.8265647,10.1527404 15.2598986,9.66726635 C15.693499,9.16522684 15.9098994,8.52799202 15.9098994,7.75449315 C15.9098994,6.98152865 15.693499,6.34402665 15.2598986,5.84171996 C14.8265647,5.35063501 14.2637104,5.10509253 13.5713357,5.10509253 Z M31.8431229,4.97061557 C31.679885,4.97061557 31.5537214,5.01549151 31.4433284,5.11427332 C31.3442789,5.19855253 31.3002877,5.29487162 31.3002877,5.42648948 C31.3002877,5.60708779 31.3788632,5.79370604 31.5335242,5.98059792 L31.5335242,5.98059792 L31.7518203,6.2410973 C31.8815806,6.14204187 31.9881002,6.05721539 32.075806,5.98251336 C32.2008628,5.87661708 32.2592411,5.8112186 32.2896753,5.77044717 C32.362994,5.68096891 32.397025,5.57698807 32.397025,5.44263387 C32.397025,5.29733433 32.3533104,5.19034351 32.2597945,5.10469613 C32.1612984,5.01439698 32.0248979,4.97061557 31.8431229,4.97061557 Z" id="Combined-Shape" fill="#36384D"></path>
                            <path d="M51.4196098,3.38709677 C52.6173827,3.38709677 53.6036721,3.81380256 54.3784781,4.66721413 C55.1652293,5.51515863 55.5583333,6.58506666 55.5583333,7.87639154 C55.5583333,9.13928759 55.1682155,10.1919743 54.3877085,11.033905 C53.6123595,11.8700953 52.6350289,12.2883271 51.4554452,12.2883271 C50.4363066,12.2883271 49.5244028,11.8933304 48.7200055,11.103337 L48.7200055,11.103337 L48.7200055,15 L46.7083333,15 L46.7083333,3.6205412 L48.7200055,3.6205412 L48.7200055,4.53764428 C49.5124577,3.77088596 50.4124163,3.38709677 51.4196098,3.38709677 Z M41.2418867,3.38709677 C42.1986324,3.38709677 43.056772,3.78199533 43.8165721,4.57205964 L43.8165721,3.61553945 L45.725,3.61553945 L45.725,11.8597816 L43.8165721,11.8597816 L43.8165721,10.9965088 C43.0341193,11.72993 42.1930358,12.0967742 41.2925222,12.0967742 C40.155354,12.0967742 39.2153979,11.685043 38.4723876,10.8610463 C37.7352403,10.020217 37.3666667,8.97071659 37.3666667,7.7125452 C37.3666667,6.47655011 37.7352403,5.4468214 38.4723876,4.62309186 C39.2100679,3.79936232 40.1329677,3.38709677 41.2418867,3.38709677 Z M58.7147199,3.51294434 L58.7147199,11.6129032 L56.8269468,11.6129032 L56.8269468,3.51294434 L58.7147199,3.51294434 Z M51.0886748,5.14312366 C50.3497042,5.14312366 49.7508178,5.39105585 49.2920153,5.88719359 C48.8332129,6.38305797 48.6038117,7.0347342 48.6038117,7.84194892 C48.6038117,8.63194234 48.8332129,9.28389192 49.2920153,9.79697761 C49.7448452,10.2988558 50.3407454,10.5495215 51.0799874,10.5495215 C51.7771499,10.5495215 52.352146,10.2958489 52.8049759,9.78823028 C53.2700223,9.28088503 53.5026813,8.64670346 53.5026813,7.88541223 C53.5026813,7.07765079 53.2759949,6.42050748 52.8231651,5.91316223 C52.3638197,5.40007654 51.7861087,5.14312366 51.0886748,5.14312366 Z M41.5963357,5.10535972 C40.9434033,5.10535972 40.3976052,5.35384122 39.9581418,5.85000267 C39.5248079,6.35230936 39.3084075,6.97297875 39.3084075,7.7125452 C39.3084075,8.50234232 39.5194778,9.14572238 39.9416186,9.64215101 C40.3749524,10.1444577 40.9210171,10.3953439 41.5792795,10.3953439 C42.2828474,10.3953439 42.8515647,10.1530076 43.2848986,9.66726635 C43.718499,9.16522684 43.9348994,8.52799202 43.9348994,7.75449315 C43.9348994,6.98152865 43.718499,6.34402665 43.2848986,5.84171996 C42.8515647,5.35063501 42.2887104,5.10535972 41.5963357,5.10535972 Z M57.7665515,0 C58.1077636,0 58.3983961,0.119370607 58.6392518,0.357581286 C58.8795722,0.590486605 59,0.87591499 59,1.21413171 C59,1.55234843 58.8795722,1.84069477 58.6392518,2.07890545 C58.4042837,2.31764666 58.1160598,2.436752 57.7748476,2.436752 C57.433903,2.436752 57.1427353,2.31764666 56.9026825,2.07890545 C56.6618269,1.84069477 56.5416667,1.54969575 56.5416667,1.20564313 C56.5416667,0.878832939 56.6618269,0.596057233 56.9026825,0.357581286 C57.1427353,0.119370607 57.4309592,0 57.7665515,0 Z" id="Combined-Shape" fill="#6F74F4"></path>
                        </g>
                    </g>
                </g>
                <g id="Group-15" transform="translate(1.000000, 22.000000)" stroke="#36384D" stroke-linecap="round" stroke-linejoin="round" stroke-width="2">
                    <path d="M0,50 C0,41.1635361 8.95214283,34 20.0006411,34 C31.0504215,34 40,41.1635361 40,50" id="Stroke-1" fill="#F9C6C9"></path>
                    <path d="M25,31.9750863 L25,36.1771951 C25,39.3919007 22.7604442,42 20,42 C17.2413185,42 15,39.3919007 15,36.1771951 L15,31" id="Stroke-5" fill="#FFFFFF"></path>
                    <path d="M35,20.2907861 C35,27.8615103 28.2829562,34 19.9986896,34 C11.7104918,34 5,27.8615103 5,20.2907861 L5,13.7104114 C5,6.13729219 11.7104918,0 19.9986896,0 C28.2829562,0 35,6.13729219 35,13.7104114 L35,20.2907861 Z" id="Stroke-9" fill="#FFFFFF"></path>
                    <path d="M5,16.9568386 C5,16.9568386 19.9810947,16.1464914 24.868217,9 C24.868217,9 26.4617006,18 35,18" id="Stroke-11"></path>
                    <path d="M24,28.0216216 C22.7799511,28.6396396 21.7070312,29 20.0330073,29 C18.3589834,29 17.2860636,28.6396396 16,28" id="Stroke-13"></path>
                </g>
                <g id="Group-3" transform="translate(38.000000, 4.000000)" stroke="#36384D" stroke-width="2">
                    <circle id="Oval" fill="#FFD786" cx="12.5" cy="12.5" r="11.5"></circle>
                    <path d="M7,13 L19,13 M13,7 L13,19" id="Combined-Shape" stroke-linecap="round" stroke-linejoin="round"></path>
                </g>
            </g>
        </g>
    </g>
</svg>