<svg xmlns="http://www.w3.org/2000/svg" width="53" height="60" viewBox="0 0 53 60">
  <g fill="none" fill-rule="evenodd" stroke="#FFF" stroke-linecap="round" stroke-linejoin="round" transform="translate(2 2)">
    <path stroke-width="4" d="M33.3871032 9L38.9866005.131125828C39.0218678.0749290445 38.9833943 0 38.9192718 0L11.0804886 0C11.0179691 0 10.9778926.0732261116 11.01316.131125828L15.7822709 9M15.3014194 10.8C15.3014194 10.8 0 17.0828407 0 38.9098247 0 53.3613281 11.7329066 55.0874976 21.094381 55.8L27.9025884 55.8C37.2686087 55.0874976 49 51.6347656 49 37.2605136 49 15.4335295 33.6985806 10.8 33.6985806 10.8L15.3014194 10.8z"/>
    <path stroke-width="3" d="M13,25 L18.8816629,42.9425274 C18.9087128,43.0188786 19.0202937,43.0188786 19.0439624,42.9441872 L24.842785,25.570974 C24.8698349,25.4929631 24.9831063,25.4962827 25.0050844,25.5759535 L29.872376,42.9060116 C29.8960447,42.9873423 30.0126974,42.9890021 30.0363661,42.9076715 L36,25.570974"/>
    <line x1="37.5" x2="11.5" y1="31.5" y2="31.5" stroke-width="3"/>
  </g>
</svg>
