<svg width="208" height="38" viewBox="0 0 208 38" fill="none" xmlns="http://www.w3.org/2000/svg">
<g clip-path="url(#clip0)">
<path d="M13.3938 25.6459C5.13948 25.1893 5.13948 18.6447 5.13948 18.6447V6.46864H0.0778709L0 18.4164C0.155742 25.6459 5.91819 28.8421 5.91819 28.8421C15.4184 34.0931 22.2711 28.3855 22.2711 28.3855V18.4925C21.6481 26.2547 13.3938 25.6459 13.3938 25.6459Z" fill="#F44347"/>
<path d="M27.5662 6.3923H22.271V31.0488H27.5662V6.3923Z" fill="#1369FA"/>
<path d="M52.0175 9.51254C49.7593 7.38173 46.7223 6.08803 43.296 6.08803C36.2876 6.08803 30.5251 11.6433 30.5251 18.5685C30.5251 25.4175 36.2097 31.0489 43.296 31.0489C46.7223 31.0489 49.8371 29.7552 52.0954 27.6244V31.0489H56.9234V0H52.0175V9.51254ZM43.296 26.0263C39.0909 26.0263 35.6646 22.6779 35.6646 18.5685C35.6646 14.4591 39.0909 11.1106 43.296 11.1106C47.501 11.1106 50.9273 14.4591 50.9273 18.5685C50.9273 22.6779 47.501 26.0263 43.296 26.0263Z" fill="#1369FA"/>
<path fill-rule="evenodd" clip-rule="evenodd" d="M65.8011 27.6242C68.0594 29.755 71.0964 30.9726 74.5227 30.9726C81.5311 30.9726 87.2156 25.4173 87.2156 18.5683C87.2156 11.7193 81.5311 6.16394 74.5227 6.16394C71.0964 6.16394 68.0594 7.45765 65.8011 9.58846V6.24004H60.9731V36.9846H65.879L65.8011 27.6242ZM74.4448 11.2627C78.6498 11.2627 82.0762 14.6111 82.0762 18.7205C82.0762 22.8299 78.6498 26.1783 74.4448 26.1783C70.2398 26.1783 66.8135 22.8299 66.8135 18.7205C66.8913 14.535 70.2398 11.2627 74.4448 11.2627ZM110.888 9.66489C108.63 7.53409 105.593 6.31648 102.167 6.31648C95.1583 6.31648 89.4737 11.8718 89.4737 18.7208C89.4737 25.5699 95.1583 31.1252 102.167 31.1252C105.593 31.1252 108.63 29.8315 110.888 27.7007V31.0491H115.716V6.69698H110.81L110.888 9.66489ZM102.167 26.1026C97.9617 26.1026 94.5353 22.7542 94.5353 18.6447C94.5353 14.5353 97.9617 11.1869 102.167 11.1869C106.372 11.1869 109.798 14.5353 109.798 18.6447C109.798 22.7542 106.372 26.1026 102.167 26.1026ZM131.991 24.6567L139.389 6.31648H145.385L131.135 37H124.594L128.331 29.451L118.13 6.31648H124.36L131.991 24.6567Z" fill="#161637"/>
<path d="M154.591 34H151.402L150.182 30.3906H144.512L143.322 34H140.133L145.722 18.9062H149.095L154.591 34ZM149.454 28.0732L147.608 22.6079C147.533 22.3892 147.455 21.9722 147.373 21.3569H147.301C147.246 21.8149 147.161 22.2251 147.044 22.5874L145.188 28.0732H149.454ZM159.083 28.6475V34H156.161V18.9062H161.144C164.822 18.9062 166.661 20.4819 166.661 23.6333C166.661 25.1577 166.103 26.3848 164.989 27.3145C163.882 28.2441 162.487 28.6885 160.806 28.6475H159.083ZM159.083 21.2339V26.3608H160.57C162.586 26.3608 163.595 25.4893 163.595 23.7461C163.595 22.0713 162.607 21.2339 160.631 21.2339H159.083ZM171.573 18.9062V34H168.65V18.9062H171.573Z" fill="#73808F"/>
<path d="M188.759 25.8285V30.8471H186.544V18.4106H188.759V23.9565H191.264V25.8285H188.759ZM184.743 19.307C184.743 21.6977 184.64 23.7338 184.435 25.4154L182.282 25.2133C182.411 24.0297 182.493 22.6791 182.528 21.1615H176.015V19.307H184.743ZM185.991 28.1488C182.499 28.3539 178.749 28.4565 174.741 28.4565L174.521 26.602C176.097 26.602 177.333 26.5902 178.23 26.5668V23.2006H180.445V26.5492C183.011 26.4906 184.816 26.4232 185.859 26.3471L185.991 28.1488ZM177.254 34.7934V29.3881H179.469V32.9389H188.979V34.7934H177.254ZM204.382 35.3647V18.4106H206.562V35.3647H204.382ZM203.011 31.2426C201.98 31.4125 201.013 31.5121 200.111 31.5414C199.214 31.5707 196.967 31.5854 193.37 31.5854V24.4223H199.399V21.5746H193.405V19.7201H201.579V26.2592H195.541V29.7484C199.414 29.7836 201.81 29.6869 202.73 29.4584L203.011 31.2426Z" fill="#73808F"/>
</g>
<defs>
<clipPath id="clip0">
<rect width="208" height="38" fill="white"/>
</clipPath>
</defs>
</svg>
