<svg xmlns="http://www.w3.org/2000/svg" width="28" height="34" viewBox="0 0 28 34">
  <g fill="none" fill-rule="evenodd">
    <path fill="#FFDD82" d="M20,28 C20,31.3130358 17.3126386,34 14.0008869,34 C10.6873614,34 8,31.3130358 8,28 C8,28 20,28 20,28 Z"/>
    <path fill="#FFB800" d="M27.9225918,24.3219752 C26.4239691,20.3727982 25.6203409,16.2371739 25.5313398,12.0314756 L25.5077806,11.0016363 C25.5077806,4.93521994 20.3457127,0 14.0004527,0 C7.65519279,0 2.49181603,4.93521994 2.49181603,10.9778612 L2.47087458,12.0302243 C2.38056456,16.23342 1.57693634,20.3702955 0.0783136848,24.3219752 C-0.0669676385,24.7061315 -0.00806980474,25.1328328 0.237992256,25.4669362 C0.481436636,25.8010396 0.881941905,26 1.30862399,26 L26.6922815,26 C27.1189636,26 27.51816,25.8010396 27.7629132,25.4669362 C28.0076665,25.1328328 28.0665643,24.7061315 27.9225918,24.3219752"/>
  </g>
</svg>
