<svg xmlns="http://www.w3.org/2000/svg" width="28" height="32" viewBox="0 0 28 32">
  <g fill="none" fill-rule="evenodd">
    <path fill="#FF5050" d="M21.5160243,32 L6.48397568,32 C1.70823495,32 -1.42461019,27.25737 0.652907135,23.1734049 L6.48397568,9 L21.4918784,9 L27.3470929,23.1734049 C29.4246102,27.25737 26.291765,32 21.5160243,32 Z"/>
    <path fill="#FFB7B7" d="M24.928769,0.875 C25.1259365,0.528077017 24.928769,0 24.1489329,0 C23.3690967,0 4.55231188,0 3.81238466,0 C3.07245745,0 2.87363177,0.529481173 3.07245745,0.875 C3.06867777,0.875 4.14523124,2.91666667 6.30211786,7 L21.6976992,7 C23.8517458,2.91666667 24.928769,0.875 24.928769,0.875 Z"/>
    <line x1="18" x2="10" y1="16" y2="24" stroke="#FFF" stroke-linecap="round" stroke-linejoin="round" stroke-width="3"/>
    <line x1="10" x2="18" y1="16" y2="24" stroke="#FFF" stroke-linecap="round" stroke-linejoin="round" stroke-width="3"/>
  </g>
</svg>
