<?xml version="1.0" encoding="UTF-8"?>
<svg xmlns:xlink="http://www.w3.org/1999/xlink" width="46px" height="39px" viewBox="0 0 46 39" version="1.1" xmlns="http://www.w3.org/2000/svg">
    <!-- Generator: Sketch 63.1 (92452) - https://sketch.com -->
    <title>ico_printcall</title>
    <desc>Created with Sketch.</desc>
    <g id="Page-1" stroke="none" stroke-width="1" fill="none" fill-rule="evenodd">
        <g id="main" transform="translate(-530.000000, -1899.000000)">
            <g id="section" transform="translate(0.000000, 1619.000000)">
                <g id="bx" transform="translate(454.000000, 215.000000)">
                    <g id="li" transform="translate(30.000000, 43.000000)">
                        <g id="ico_printcall" transform="translate(46.000000, 19.000000)">
                            <rect id="bound" x="0" y="0" width="46" height="46"></rect>
                            <g id="ico" transform="translate(0.000000, 4.000000)" stroke="#111111" stroke-width="2">
                                <rect id="Rectangle" fill="#F7667D" x="1" y="31" width="44" height="6" rx="3"></rect>
                                <polygon id="Stroke-7" stroke-linecap="round" stroke-linejoin="round" points="33.6665524 3.33872568 30.9998286 0 28.3331048 3.33872568 25.666381 0 23.0003429 3.33872568 20.333619 0 17.6668952 3.33872568 15.0001714 0 12.3334476 3.33872568 9.66672381 0 7 3.33872568 7 31 39 31 39 3.33872568 36.3332762 0"></polygon>
                                <line x1="12" y1="9.5" x2="34" y2="9.5" id="Line-2" stroke-linecap="round"></line>
                                <line x1="12" y1="14.5" x2="34" y2="14.5" id="Line-2" stroke-linecap="round"></line>
                                <line x1="12" y1="19.5" x2="34" y2="19.5" id="Line-2" stroke-linecap="round"></line>
                            </g>
                        </g>
                    </g>
                </g>
            </g>
        </g>
    </g>
</svg>
