<?xml version="1.0" encoding="UTF-8"?>
<svg xmlns:xlink="http://www.w3.org/1999/xlink" width="52px" height="52px" viewBox="0 0 52 52" version="1.1" xmlns="http://www.w3.org/2000/svg">
    <!-- Generator: Sketch 64 (93537) - https://sketch.com -->
    <title>ico_free1</title>
    <desc>Created with Sketch.</desc>
    <g id="Page-1" stroke="none" stroke-width="1" fill="none" fill-rule="evenodd">
        <g id="main" transform="translate(-444.000000, -2863.000000)">
            <g id="section" transform="translate(370.000000, 2691.000000)">
                <g id="wrap-benefit" transform="translate(0.000000, 149.000000)">
                    <g id="li">
                        <g id="ico_free1" transform="translate(74.000000, 23.000000)">
                            <rect id="bound" x="0" y="0" width="52" height="52"></rect>
                            <g id="ico" transform="translate(1.000000, 1.000000)">
                                <polygon id="Star" stroke="#111111" stroke-width="2" stroke-linejoin="round" points="25 44.9410575 18.5295239 49.1481457 15.0294713 42.2694624 7.32233047 42.6776695 7.73053765 34.9705287 0.851854343 31.4704761 5.05894252 25 0.851854343 18.5295239 7.73053765 15.0294713 7.32233047 7.32233047 15.0294713 7.73053765 18.5295239 0.851854343 25 5.05894252 31.4704761 0.851854343 34.9705287 7.73053765 42.6776695 7.32233047 42.2694624 15.0294713 49.1481457 18.5295239 44.9410575 25 49.1481457 31.4704761 42.2694624 34.9705287 42.6776695 42.6776695 34.9705287 42.2694624 31.4704761 49.1481457"></polygon>
                                <path d="M11.6447778,31 L11.6447778,26.8 L15.3267778,26.8 L15.3267778,25.064 L11.6447778,25.064 L11.6447778,22.362 L15.9567778,22.362 L15.9567778,20.64 L9.57277778,20.64 L9.57277778,31 L11.6447778,31 Z M19.4458889,31 L19.4458889,27.08 L20.8878889,27.08 L23.0158889,31 L25.3258889,31 L22.9038889,26.758 C24.0938889,26.296 24.8778889,25.33 24.8778889,23.776 C24.8778889,21.396 23.1558889,20.64 20.9858889,20.64 L17.3738889,20.64 L17.3738889,31 L19.4458889,31 Z M20.7898889,25.442 L19.4458889,25.442 L19.4458889,22.278 L20.7898889,22.278 C22.1198889,22.278 22.8478889,22.656 22.8478889,23.776 C22.8478889,24.882 22.1198889,25.442 20.7898889,25.442 Z M33.043,31 L33.043,29.264 L28.605,29.264 L28.605,26.492 L32.245,26.492 L32.245,24.756 L28.605,24.756 L28.605,22.362 L32.889,22.362 L32.889,20.64 L26.533,20.64 L26.533,31 L33.043,31 Z M41.2641111,31 L41.2641111,29.264 L36.8261111,29.264 L36.8261111,26.492 L40.4661111,26.492 L40.4661111,24.756 L36.8261111,24.756 L36.8261111,22.362 L41.1101111,22.362 L41.1101111,20.64 L34.7541111,20.64 L34.7541111,31 L41.2641111,31 Z" id="FREE" fill="#F7667D" fill-rule="nonzero" transform="translate(25.418444, 25.820000) rotate(-30.000000) translate(-25.418444, -25.820000) "></path>
                            </g>
                        </g>
                    </g>
                </g>
            </g>
        </g>
    </g>
</svg>
