<?xml version="1.0" encoding="UTF-8"?>
<svg xmlns:xlink="http://www.w3.org/1999/xlink" width="46px" height="31px" viewBox="0 0 46 31" version="1.1" xmlns="http://www.w3.org/2000/svg">
    <!-- Generator: Sketch 64 (93537) - https://sketch.com -->
    <title>ico_coupon</title>
    <desc>Created with Sketch.</desc>
    <g id="Page-1" stroke="none" stroke-width="1" fill="none" fill-rule="evenodd">
        <g id="main" transform="translate(-530.000000, -2425.000000)">
            <g id="section" transform="translate(0.000000, 1619.000000)">
                <g id="bx" transform="translate(454.000000, 215.000000)">
                    <g id="li" transform="translate(30.000000, 563.000000)">
                        <g id="ico_coupon" transform="translate(46.000000, 19.000000)">
                            <rect id="bound" x="0" y="0" width="46" height="46"></rect>
                            <g id="ico" transform="translate(0.000000, 9.000000)">
                                <path d="M41.2857143,5 C43.3370576,5 45,6.66294236 45,8.71428571 L45,26 C45,28.209139 43.209139,30 41,30 L9.7037037,30 C7.65820463,30 6,28.3417954 6,26.2962963 L6,26.2962963 L6,26.2962963" id="Rectangle" stroke="#111111" stroke-width="2"></path>
                                <rect id="Rectangle" stroke="#111111" stroke-width="2" x="1" y="1" width="40" height="25" rx="4"></rect>
                                <path d="M38,1 L37,1 L37,26 L38,26 C38.8284271,26 39.5784271,25.6642136 40.1213203,25.1213203 C40.6642136,24.5784271 41,23.8284271 41,23 L41,4 C41,3.17157288 40.6642136,2.42157288 40.1213203,1.87867966 C39.5784271,1.33578644 38.8284271,1 38,1 Z" id="Rectangle" stroke="#111111" stroke-width="2" fill="#F7667D"></path>
                                <path d="M6.51220703,16.0732422 C6.93701172,16.0732422 7.31481934,15.9951172 7.64562988,15.8388672 C7.97644043,15.6826172 8.23339844,15.4622803 8.41650391,15.1778564 C8.59960938,14.8934326 8.69970703,14.5656738 8.71679688,14.1945801 L8.71679688,14.1945801 L7.4387207,14.1945801 C7.42895508,14.4973145 7.34594727,14.7182617 7.18969727,14.8574219 C7.03344727,14.996582 6.80761719,15.0661621 6.51220703,15.0661621 C6.16308594,15.0661621 5.91711426,14.9440918 5.77429199,14.6999512 C5.63146973,14.4558105 5.56005859,14.0493164 5.56005859,13.4804688 L5.56005859,13.4804688 L5.56005859,13.1032715 C5.56738281,12.5783691 5.64550781,12.1962891 5.79443359,11.9570312 C5.94335938,11.7177734 6.17773438,11.5981445 6.49755859,11.5981445 C6.8125,11.5981445 7.046875,11.6689453 7.20068359,11.8105469 C7.35449219,11.9521484 7.4362793,12.1853027 7.44604492,12.5100098 L7.44604492,12.5100098 L8.7277832,12.5100098 C8.67407227,11.9118652 8.45068359,11.4425049 8.05761719,11.1019287 C7.66455078,10.7613525 7.14453125,10.5910645 6.49755859,10.5910645 C6.04833984,10.5910645 5.65283203,10.697876 5.31103516,10.911499 C4.96923828,11.1251221 4.70739746,11.4278564 4.5255127,11.8197021 C4.34362793,12.2115479 4.25268555,12.6687012 4.25268555,13.1911621 L4.25268555,13.1911621 L4.25268555,13.454834 C4.25268555,14.2873535 4.45410156,14.9318848 4.85693359,15.3884277 C5.25976562,15.8449707 5.81152344,16.0732422 6.51220703,16.0732422 Z M11.5146484,16.0732422 C11.96875,16.0732422 12.3734131,15.96521 12.7286377,15.7491455 C13.0838623,15.5330811 13.3579102,15.2248535 13.5507812,14.8244629 C13.7436523,14.4240723 13.8400879,13.9638672 13.8400879,13.4438477 L13.8400879,13.4438477 L13.8400879,13.1984863 C13.8376465,12.685791 13.7381592,12.2310791 13.541626,11.8343506 C13.3450928,11.4376221 13.0698242,11.1318359 12.7158203,10.9169922 C12.3618164,10.7021484 11.9589844,10.5947266 11.5073242,10.5947266 C11.0507812,10.5947266 10.6436768,10.7033691 10.2860107,10.9206543 C9.92834473,11.1379395 9.65368652,11.446167 9.46203613,11.8453369 C9.27038574,12.2445068 9.17456055,12.7053223 9.17456055,13.2277832 L9.17456055,13.2277832 L9.17456055,13.5280762 C9.18432617,14.0310059 9.28747559,14.4765625 9.48400879,14.8647461 C9.68054199,15.2529297 9.95458984,15.5513916 10.3061523,15.7601318 C10.6577148,15.9688721 11.0605469,16.0732422 11.5146484,16.0732422 Z M11.5146484,15.0698242 C11.1728516,15.0698242 10.9152832,14.9294434 10.7419434,14.6486816 C10.5686035,14.3679199 10.4819336,13.9663086 10.4819336,13.4438477 L10.4819336,13.4438477 L10.4855957,13.052002 C10.5222168,12.0852051 10.862793,11.6018066 11.5073242,11.6018066 C11.8369141,11.6018066 12.09021,11.7391357 12.2672119,12.0137939 C12.4442139,12.2884521 12.5327148,12.6906738 12.5327148,13.220459 L12.5327148,13.220459 L12.5327148,13.4658203 C12.5302734,13.9833984 12.4411621,14.380127 12.2653809,14.6560059 C12.0895996,14.9318848 11.8393555,15.0698242 11.5146484,15.0698242 Z M16.590332,16.0732422 C17.0200195,16.0732422 17.392334,15.9975586 17.7072754,15.8461914 C18.0222168,15.6948242 18.263916,15.4744873 18.432373,15.1851807 C18.6008301,14.895874 18.6850586,14.5534668 18.6850586,14.157959 L18.6850586,14.157959 L18.6850586,10.6679688 L17.3996582,10.6679688 L17.3996582,14.1506348 C17.3996582,14.4802246 17.3312988,14.7182617 17.1945801,14.8647461 C17.0578613,15.0112305 16.8564453,15.0844727 16.590332,15.0844727 C16.0629883,15.0844727 15.7919922,14.7927246 15.7773438,14.2092285 L15.7773438,14.2092285 L15.7773438,10.6679688 L14.4846191,10.6679688 L14.4846191,14.1835938 C14.4919434,14.7695312 14.682373,15.230957 15.0559082,15.5678711 C15.4294434,15.9047852 15.940918,16.0732422 16.590332,16.0732422 Z M20.7724609,16 L20.7724609,14.190918 L21.5927734,14.190918 C22.2421875,14.190918 22.7530518,14.0352783 23.1253662,13.723999 C23.4976807,13.4127197 23.6838379,12.9970703 23.6838379,12.4770508 C23.6838379,12.1254883 23.5977783,11.8111572 23.4256592,11.5340576 C23.25354,11.256958 23.0106201,11.043335 22.6968994,10.8931885 C22.3831787,10.743042 22.0224609,10.6679688 21.6147461,10.6679688 L21.6147461,10.6679688 L19.4870605,10.6679688 L19.4870605,16 L20.7724609,16 Z M21.6147461,13.1984863 L20.7724609,13.1984863 L20.7724609,11.6604004 L21.6293945,11.6604004 C21.8613281,11.6628418 22.0444336,11.7385254 22.1787109,11.8874512 C22.3129883,12.036377 22.380127,12.2353516 22.380127,12.484375 C22.380127,12.7114258 22.3148193,12.887207 22.1842041,13.0117188 C22.0535889,13.1362305 21.8637695,13.1984863 21.6147461,13.1984863 L21.6147461,13.1984863 Z M26.5585938,16.0732422 C27.0126953,16.0732422 27.4173584,15.96521 27.772583,15.7491455 C28.1278076,15.5330811 28.4018555,15.2248535 28.5947266,14.8244629 C28.7875977,14.4240723 28.8840332,13.9638672 28.8840332,13.4438477 L28.8840332,13.4438477 L28.8840332,13.1984863 C28.8815918,12.685791 28.7821045,12.2310791 28.5855713,11.8343506 C28.3890381,11.4376221 28.1137695,11.1318359 27.7597656,10.9169922 C27.4057617,10.7021484 27.0029297,10.5947266 26.5512695,10.5947266 C26.0947266,10.5947266 25.6876221,10.7033691 25.3299561,10.9206543 C24.97229,11.1379395 24.6976318,11.446167 24.5059814,11.8453369 C24.3143311,12.2445068 24.2185059,12.7053223 24.2185059,13.2277832 L24.2185059,13.2277832 L24.2185059,13.5280762 C24.2282715,14.0310059 24.3314209,14.4765625 24.5279541,14.8647461 C24.7244873,15.2529297 24.9985352,15.5513916 25.3500977,15.7601318 C25.7016602,15.9688721 26.1044922,16.0732422 26.5585938,16.0732422 Z M26.5585938,15.0698242 C26.2167969,15.0698242 25.9592285,14.9294434 25.7858887,14.6486816 C25.6125488,14.3679199 25.5258789,13.9663086 25.5258789,13.4438477 L25.5258789,13.4438477 L25.529541,13.052002 C25.5661621,12.0852051 25.9067383,11.6018066 26.5512695,11.6018066 C26.8808594,11.6018066 27.1341553,11.7391357 27.3111572,12.0137939 C27.4881592,12.2884521 27.5766602,12.6906738 27.5766602,13.220459 L27.5766602,13.220459 L27.5766602,13.4658203 C27.5742188,13.9833984 27.4851074,14.380127 27.3093262,14.6560059 C27.1335449,14.9318848 26.8833008,15.0698242 26.5585938,15.0698242 Z M30.8322754,16 L30.8322754,12.6821289 L32.7219238,16 L34,16 L34,10.6679688 L32.7182617,10.6679688 L32.7182617,13.9858398 L30.8322754,10.6679688 L29.546875,10.6679688 L29.546875,16 L30.8322754,16 Z" id="COUPON" fill="#F7667D" fill-rule="nonzero"></path>
                            </g>
                        </g>
                    </g>
                </g>
            </g>
        </g>
    </g>
</svg>
