<?xml version="1.0" encoding="UTF-8"?>
<svg xmlns:xlink="http://www.w3.org/1999/xlink" width="42px" height="50px" viewBox="0 0 42 50" version="1.1" xmlns="http://www.w3.org/2000/svg">
    <!-- Generator: Sketch 63.1 (92452) - https://sketch.com -->
    <title>ico_amsapp</title>
    <desc>Created with Sketch.</desc>
    <g id="Page-1" stroke="none" stroke-width="1" fill="none" fill-rule="evenodd">
        <g id="이용안내" transform="translate(-1214.000000, -411.000000)">
            <g id="wrap-step" transform="translate(216.000000, 370.000000)">
                <g id="li" transform="translate(884.000000, 40.000000)">
                    <g id="ico_amsapp" transform="translate(109.000000, 0.000000)">
                        <rect id="bound" x="0" y="0" width="52" height="52"></rect>
                        <g id="Group-17" transform="translate(6.000000, 2.000000)">
                            <path d="M28,13 L28,3.28196077 C28,1.46913234 26.5684592,0 24.8008583,0 L3.19914175,0 C1.43341826,0 0,1.46913234 0,3.28196077 L0,44.7180392 C0,46.5308677 1.43341826,48 3.19914175,48 L24.8008583,48 C26.5684592,48 28,46.5308677 28,44.7180392 L28,31" id="Stroke-1" stroke="#111111" stroke-width="2" stroke-linecap="round" stroke-linejoin="round"></path>
                            <path d="M2,1.13686838e-13 L26,1.13686838e-13 C27.1045695,1.13483932e-13 28,0.8954305 28,2 L28,5 L28,5 L9.09494702e-13,5 L9.09494702e-13,2 C9.09359431e-13,0.8954305 0.8954305,1.13889744e-13 2,1.13686838e-13 Z" id="Rectangle" stroke="#111111" stroke-width="2"></path>
                            <path d="M9.09494702e-13,38 L28,38 L28,46 C28,47.1045695 27.1045695,48 26,48 L2,48 C0.8954305,48 9.09629973e-13,47.1045695 9.09494702e-13,46 L9.09494702e-13,38 L9.09494702e-13,38 Z" id="Rectangle" stroke="#111111" stroke-width="2"></path>
                            <path d="M15.672,42.836 C15.672,43.85 14.848,44.672 13.836,44.672 C12.822,44.672 12,43.85 12,42.836 C12,41.822 12.822,41 13.836,41 C14.848,41 15.672,41.822 15.672,42.836 Z" id="Stroke-5" fill="#111111"></path>
                            <polygon id="Stroke-1" stroke="#111111" stroke-width="2" fill="#F7667D" stroke-linecap="round" stroke-linejoin="round" points="16 30 40 30 40 13 16 13"></polygon>
                            <polygon id="Stroke-3" stroke="#111111" stroke-width="2" stroke-linecap="round" stroke-linejoin="round" points="40 13 28.0005186 23 16 13"></polygon>
                            <line x1="16" y1="30" x2="26" y2="22" id="Stroke-4" stroke="#111111" stroke-width="2" stroke-linecap="round" stroke-linejoin="round"></line>
                            <line x1="30" y1="22" x2="40" y2="30" id="Stroke-5" stroke="#111111" stroke-width="2" stroke-linecap="round" stroke-linejoin="round"></line>
                        </g>
                    </g>
                </g>
            </g>
        </g>
    </g>
</svg>
