<svg xmlns="http://www.w3.org/2000/svg" width="60" height="14" viewBox="0 0 60 14">
  <g fill="none" fill-rule="evenodd">
    <path fill="#FF273D" d="M5.53266773,11.2940795 C2.13680127,11.1033005 2.13680127,8.31792687 2.13680127,8.31792687 L2.13680127,3.12873768 L0.0382321145,3.12873768 L7.63116057e-05,8.20345946 C0.0763879173,11.2559237 2.44204769,12.6295326 2.44204769,12.6295326 C6.41025119,14.8425692 9.2337806,12.4387536 9.2337806,12.4387536 L9.2337806,8.24161526 C8.96668998,11.5611701 5.53266773,11.2940795 5.53266773,11.2940795"/>
    <path fill="#0069FF" d="M11.4467409,3.1288903 L11.4467409,13.5835803 L9.23370429,13.5835803 L9.23370429,3.1288903 L11.4467409,3.1288903 Z M23.6565215,0.381519873 L23.6565215,13.5452719 L21.6342639,13.5452719 L21.6342639,12.0953514 C20.6803688,13.0110906 19.3830715,13.5834277 17.9713068,13.5834277 C15.03331,13.5834277 12.6676502,11.2177679 12.6676502,8.27977107 C12.6676502,5.34177424 15.03331,2.97611447 17.9713068,2.97611447 C19.3830715,2.97611447 20.642213,3.54845151 21.5961081,4.42603498 L21.5961081,4.42603498 L21.5961081,0.381519873 L23.6565215,0.381519873 Z M17.9713068,5.15099523 C16.2161399,5.15099523 14.8043752,6.56275994 14.8043752,8.31792687 C14.8043752,10.0730938 16.2161399,11.4848585 17.9713068,11.4848585 C19.7264738,11.4848585 21.1763943,10.034938 21.1382385,8.31792687 C21.1382385,6.56275994 19.7264738,5.15099523 17.9713068,5.15099523 Z"/>
    <path fill="#1F3B56" d="M55.7744035,3.31764706 C58.1753855,3.31764706 59.7507897,4.56432878 59.8656972,6.61111966 L57.676233,6.61111966 C57.599384,5.71797455 56.8883479,5.10430943 55.6971886,5.10430943 C54.5257904,5.10430943 53.9113645,5.56948917 53.9113645,6.25758305 C53.9113645,8.32335326 59.8850925,7.16933535 60,10.8729104 C60,12.6033791 58.4443569,13.9058824 55.9471307,13.9058824 C53.4114801,13.9058824 51.62529,12.4545215 51.5294118,10.5938026 L53.795725,10.5938026 C53.872574,11.4311261 54.6988836,12.11922 55.9090722,12.11922 C57.1763486,12.11922 57.8485943,11.5985908 57.8485943,10.8911455 C57.8485943,8.88156896 51.7017731,10.0355869 51.7017731,6.27656238 C51.7017731,4.63912968 53.2771773,3.31764706 55.7744035,3.31764706 Z M32.2720588,3.13491892 L32.2720588,5.38611129 L31.4426126,5.38611129 C29.8235294,5.38611129 28.4412591,6.54786358 28.4412591,8.7803596 L28.4412591,13.8193068 L26.1580159,13.8193068 L26.1580159,3.30662003 L28.4412591,3.30662003 L28.4412591,4.83285215 C29.0822766,3.78356757 30.7095787,3.13491892 32.2720588,3.13491892 Z M46.521719,3.1347663 C48.9661264,3.1347663 50.8235294,4.68045787 50.8235294,7.61845469 L50.8235294,13.8191542 L48.6820105,13.8191542 L48.6820105,8.2786937 C48.6820105,6.35182566 47.8037396,5.0238601 46.2308134,5.0238601 C44.6394757,5.0238601 43.4329064,6.35182566 43.4329064,8.2786937 L43.4329064,13.8191542 L41.2917485,13.8191542 L41.2917485,8.2786937 C41.2917485,6.35182566 40.2495089,5.0238601 38.6765828,5.0238601 C37.084884,5.0238601 36.0426445,6.35182566 36.0426445,8.2786937 L36.0426445,13.8191542 L33.8823529,13.8191542 L33.8823529,3.30684897 L36.0426445,3.30684897 L36.0426445,4.50875676 C36.7440894,3.65025119 37.8805529,3.1347663 39.131457,3.1347663 C40.7798345,3.1347663 42.1632297,3.84103021 42.8834473,5.21463911 C43.5278524,3.93641971 45.0054716,3.1347663 46.521719,3.1347663 Z"/>
  </g>
</svg>
