<svg xmlns="http://www.w3.org/2000/svg" width="78" height="66" viewBox="0 0 78 66">
  <g fill="none" fill-rule="evenodd" stroke="#FFF" stroke-linecap="round" stroke-linejoin="round" transform="translate(2 2)">
    <path stroke-width="3" d="M66,39.8333437 C63.0080132,49.9731919 54.235657,62.5657872 34.8969941,61.9803169 C25.2133855,61.686336 19.3150747,57.3575925 15.14864,52.9154919 C6.6953463,43.8992485 6.79590685,31.5595265 6.79590685,31.5595265 L0,31.5595265 L12.71284,17 L24.9117038,31.7301849 L18.0040631,31.7301849 C18.0040631,31.7301849 17.3882849,46.7468766 33.0211053,49.9943685 C44.439073,52.3661463 51.4559648,45.391575 54.3076634,38.5876621"/>
    <path stroke-width="4" d="M19.4878713,23.142628 C22.4263387,16.4248525 29.4496878,9.66472496 40.7852034,12.0052961 C56.5078146,15.2526984 55.8921476,30.2689758 55.8921476,30.2689758 L48.9412299,30.2689758 L61.2121097,45 L74,30.4383839 L67.1614759,30.4383839 C67.1614759,30.4383839 67.2638789,18.0990024 58.7594324,9.08425335 C54.5708988,4.64102967 48.6377673,0.313651182 38.8969915,0.0196784355 C20.2271712,-0.542108466 11.3480795,11.0324456 8,20.9291129"/>
  </g>
</svg>
