<?xml version="1.0" encoding="UTF-8"?>
<svg width="63px" height="13px" viewBox="0 0 63 13" version="1.1" xmlns="http://www.w3.org/2000/svg" xmlns:xlink="http://www.w3.org/1999/xlink">
    <!-- Generator: Sketch 57.1 (83088) - https://sketch.com -->
    <title>img/cider_logo</title>
    <desc>Created with Sketch.</desc>
    <defs>
        <linearGradient x1="-1.11022302e-14%" y1="50%" x2="100%" y2="50%" id="linearGradient-1">
            <stop stop-color="#00D593" offset="0%"></stop>
            <stop stop-color="#00E0B8" offset="100%"></stop>
        </linearGradient>
        <path d="M10.3055755,0.0288095244 C10.9229278,0.0288095244 11.4899525,0.408622591 11.5584191,1.12077209 L11.5653321,1.26761908 L11.5653321,2.62166672 L11.937533,2.62166672 C12.5674113,2.62166672 13.0827663,3.16904769 13.0827663,3.80285723 C13.0827663,4.39441279 12.6338349,4.88558317 12.0618629,4.94844342 L11.937533,4.9552382 L11.5653321,4.9552382 L11.5653321,10.8323812 C11.5653321,11.5238098 10.9927155,12.1000003 10.3055755,12.1000003 C9.6613817,12.1000003 9.14300703,11.6189037 9.0571355,10.989047 L9.04581877,10.8611907 L9.04581877,1.26761908 C9.04581877,0.460952391 9.64706628,0.0288095244 10.3055755,0.0288095244 Z M61.4116138,0.0288095244 C61.7551838,0.0288095244 62.0414922,0.144047622 62.2991697,0.345714293 C62.5246375,0.547380964 62.6405029,0.815219512 62.6851267,1.14922994 L62.7000014,1.2964286 L62.7000014,10.8900002 C62.7000014,11.5112056 62.2470526,12.0058066 61.6478392,12.0652052 L61.5261372,12.0711907 L61.3257213,12.0711907 C60.708369,12.0711907 60.2168357,11.6154151 60.1578056,11.0124618 L60.1518571,10.8900002 L60.1518571,1.2964286 C60.1518571,0.864285733 60.2663805,0.547380964 60.524058,0.345714293 C60.7817355,0.144047622 61.0680438,0.0288095244 61.4116138,0.0288095244 Z M23.475759,1.24344979e-14 C24.122479,1.24344979e-14 24.6931143,0.382797833 24.7102707,1.12437481 L24.7068849,1.26761908 L24.7068849,10.8035717 C24.7068849,11.451786 24.2036085,11.9987168 23.574513,12.064551 L23.4471282,12.0711907 L23.3197433,12.064551 C22.7325876,12.0031057 22.2550342,11.5225719 22.19397,10.9317515 L22.1873715,10.8035717 L22.1873715,1.26761908 C22.1873715,0.432142867 22.788619,1.24344979e-14 23.475759,1.24344979e-14 Z M35.8729101,0.0576190489 C36.5314192,0.0576190489 37.1326668,0.489761915 37.1326668,1.2964286 L37.1326668,1.2964286 L37.1326668,2.56404767 L37.4476059,2.56404767 C38.0774843,2.56404767 38.5928393,3.08261911 38.5928393,3.71642865 C38.5928393,4.35023819 38.0774843,4.86880963 37.4476059,4.86880963 L37.4476059,4.86880963 L37.1326668,4.86880963 L37.1326668,10.8035717 L37.1260682,10.9317515 C37.0606423,11.5647733 36.5171038,12.0711907 35.8729101,12.0711907 L35.8729101,12.0711907 L35.7455252,12.064551 C35.1164298,11.9987168 34.6131534,11.451786 34.6131534,10.8035717 L34.6131534,10.8035717 L34.6131534,1.2964286 C34.6131534,0.489761915 35.2144009,0.0576190489 35.8729101,0.0576190489 Z M46.5522111,0.0288095244 C46.8385194,0.0288095244 47.0961969,0.144047622 47.3252436,0.288095244 C47.5215693,0.436258513 47.6337554,0.669086506 47.661802,0.950294342 L47.6688136,1.09476193 L47.6688136,10.9476193 C47.6688136,11.5526193 47.1820894,12.0423812 46.5808419,12.0423812 C46.0196776,12.0423812 45.5582758,11.6157442 45.4992496,11.0669718 L45.4928702,10.9476193 L45.4928702,6.94309539 L45.3497161,6.94309539 C45.1493002,6.94309539 44.9775152,6.91428586 44.8629919,6.85666682 C44.7484686,6.79904777 44.662576,6.74142872 44.5766835,6.62619062 C44.5194219,6.53976205 44.4621602,6.42452395 44.4335294,6.28047633 C44.4048985,6.1364287 44.3762677,5.99238108 44.3762677,5.84833346 C44.3762677,5.70428584 44.4048985,5.56023822 44.4335294,5.41619059 C44.4621602,5.3009525 44.490791,5.1857144 44.5766835,5.0704763 C44.6339452,4.9552382 44.7198377,4.86880963 44.8629919,4.81119058 C44.9703575,4.76797629 45.0777231,4.74096736 45.209246,4.73016379 L45.3497161,4.72476201 L45.4928702,4.72476201 L45.4928702,1.12357145 C45.4928702,0.77785716 45.6073936,0.489761915 45.8078094,0.316904769 C46.0082252,0.115238098 46.2659027,0.0288095244 46.5522111,0.0288095244 Z M49.3007711,0.0288095244 C49.5870795,0.0288095244 49.844757,0.144047622 50.0451728,0.316904769 C50.2414985,0.465068037 50.3536847,0.697896031 50.3817312,0.979103867 L50.3887428,1.12357145 L50.3887428,10.9476193 C50.3887428,11.512286 49.964752,11.9765675 49.4193834,12.035962 L49.3007711,12.0423812 L49.2721403,12.0423812 C48.710976,12.0423812 48.2495742,11.6157442 48.190548,11.0669718 L48.1841686,10.9476193 L48.1841686,1.12357145 C48.1841686,0.77785716 48.2986919,0.489761915 48.5277386,0.316904769 C48.7567853,0.115238098 49.0144628,0.0288095244 49.3007711,0.0288095244 Z M55.3418771,0.230476195 C55.8572321,0.230476195 56.3725871,0.316904769 56.8020496,0.460952391 C57.2315121,0.605000013 57.6323438,0.835476209 57.9472829,1.12357145 C58.2622221,1.4116667 58.5198996,1.78619051 58.6916846,2.21833338 C58.8389289,2.58874155 58.9230685,3.00148209 58.9441034,3.47469742 L58.9493621,3.71642865 L58.9493621,8.35476209 C58.9493621,8.90214305 58.8634696,9.42071449 58.6916846,9.85285736 C58.5198996,10.2850002 58.2622221,10.659524 57.9472829,10.9476193 C57.6323438,11.2357145 57.2601429,11.4661907 56.8020496,11.6102383 C56.3439562,11.754286 55.8572321,11.8407145 55.3418771,11.8407145 C54.8265221,11.8407145 54.311167,11.754286 53.8817045,11.6102383 C53.452242,11.4661907 53.0514104,11.2357145 52.7364712,10.9476193 C52.421532,10.659524 52.1638545,10.2850002 51.9920695,9.85285736 C51.8448252,9.48244919 51.7606856,9.06970865 51.7396507,8.59649331 L51.734392,8.35476209 L51.734392,3.71642865 C51.734392,3.14023816 51.8202845,2.65047625 51.9920695,2.21833338 C52.1638545,1.78619051 52.421532,1.4116667 52.7364712,1.12357145 C53.0514104,0.835476209 53.452242,0.605000013 53.8817045,0.460952391 C54.311167,0.316904769 54.7978912,0.230476195 55.3418771,0.230476195 Z M17.1197139,0.201666671 C19.170051,0.201666671 20.6573052,1.33486128 20.7511235,3.47069814 L20.7558298,3.68761913 L20.7558298,8.35476209 C20.7558298,10.6307145 19.2383956,11.8407145 17.1197139,11.8407145 C15.0693768,11.8407145 13.5821226,10.7075199 13.4883043,8.57168308 L13.483598,8.35476209 L13.483598,3.68761913 C13.483598,1.4116667 14.9724014,0.201666671 17.1197139,0.201666671 Z M28.2571083,0.489761915 L32.3226867,0.489761915 C33.0384575,0.489761915 33.2675042,1.0659524 33.2675042,1.55571432 C33.2675042,2.01282544 33.0679791,2.57032175 32.4594275,2.64262298 L32.3226867,2.65047625 L29.1160333,2.65047625 C28.9124362,2.65047625 28.7993268,2.71876549 28.7767049,2.93627938 L28.7724633,3.02500007 L28.7724633,9.0750002 C28.7724633,9.33108486 28.8629508,9.42782795 29.043926,9.44616488 L29.1160333,9.44952401 L32.8953033,9.44952401 C33.639705,9.44952401 33.8687517,10.054524 33.8401209,10.5442859 C33.8401209,11.0013971 33.6405958,11.5337971 33.0320442,11.6027521 L32.8953033,11.6102383 L28.2571083,11.6102383 C26.6558266,11.6102383 26.3057928,11.2352001 26.2828328,9.76183543 L26.2815807,9.59357164 L26.2815807,2.4776191 C26.2815807,0.921904782 26.574426,0.518093731 28.0842903,0.491234414 L28.2571083,0.489761915 L32.3226867,0.489761915 Z M43.0592494,3.02500007 C43.4028194,3.02500007 43.631866,3.11142864 43.8322819,3.28428579 C44.0040669,3.43244905 44.0917123,3.64411087 44.113248,3.91927122 L44.1185902,4.06214295 L44.1185902,9.59357164 C44.4335294,9.59357164 44.662576,9.70880973 44.6912069,9.88166688 C44.8343611,10.0833336 44.8916227,10.3138097 44.8916227,10.5442859 C44.8916227,10.6883336 44.8629919,10.8035717 44.8343611,10.9188098 C44.8057302,11.0340479 44.7484686,11.149286 44.662576,11.2357145 C44.6053144,11.3221431 44.490791,11.4085717 44.3762677,11.4661907 C44.2903752,11.509405 44.1883779,11.5364139 44.0823543,11.5472175 L43.975436,11.5526193 L39.5376568,11.5526193 C39.3945026,11.5526193 39.2513485,11.5238098 39.1368251,11.4661907 C39.0223018,11.4085717 38.9364093,11.3221431 38.8505168,11.2357145 C38.7646243,11.149286 38.7073626,11.0340479 38.6787318,10.9188098 C38.6501009,10.8035717 38.6214701,10.659524 38.6214701,10.5442859 C38.6214701,10.3426193 38.6787318,10.1409526 38.7932551,9.93928593 C38.891418,9.76642878 39.0316506,9.65707018 39.2500129,9.61121012 L39.3658718,9.59357164 L39.3658718,4.06214295 C39.3658718,3.71642865 39.4517643,3.45714293 39.6521801,3.28428579 C39.852596,3.11142864 40.0816426,3.02500007 40.4252126,3.02500007 C40.7687826,3.02500007 40.9978293,3.11142864 41.1982452,3.28428579 C41.3700302,3.43244905 41.4576756,3.64411087 41.4792113,3.91927122 L41.4845535,4.06214295 L41.4845535,9.59357164 L41.9999085,9.59357164 L41.9999085,4.06214295 C41.9999085,3.71642865 42.085801,3.45714293 42.2862168,3.28428579 C42.4866327,3.11142864 42.7443102,3.02500007 43.0592494,3.02500007 Z M4.12131535,0.374523818 C4.73866771,0.374523818 5.30569242,0.779657755 5.37415898,1.47123405 L5.38107204,1.61333337 L5.38107204,2.5928572 C5.38107204,3.02500007 5.38107204,3.42833341 5.35244121,3.80285723 C5.46696454,6.62619062 6.09684289,8.35476209 7.72880041,9.47833354 C8.33004792,9.91047641 8.27278626,10.6307145 7.98647792,11.0340479 C7.64290791,11.4661907 6.8698754,11.5238098 6.21136622,11.1780955 C5.35244121,10.7171431 4.66530119,9.99690498 4.12131535,9.04619067 C3.57732951,9.99690498 2.8901895,10.7171431 2.03126448,11.1780955 C1.3727553,11.5238098 0.599722791,11.4950002 0.256152785,11.0340479 C-0.0874172204,10.6307145 -0.144678888,9.88166688 0.456568622,9.47833354 C2.25553935,8.22511923 2.82382959,6.29888241 2.85971675,2.97096407 L2.86155866,2.62166672 L2.86155866,1.61333337 C2.86155866,0.806666684 3.46280617,0.374523818 4.12131535,0.374523818 Z M55.3132462,2.33357148 C54.9983071,2.362381 54.7406296,2.44880958 54.5402137,2.67928577 C54.3684287,2.8768368 54.2597484,3.13788637 54.2322027,3.48057692 L54.2252745,3.6588096 L54.2252745,8.41238113 C54.2252745,8.844524 54.3397979,9.16142877 54.5402137,9.39190497 C54.7406296,9.59357164 54.9983071,9.70880973 55.3132462,9.70880973 C55.6281854,9.70880973 55.9144937,9.62238116 56.1149096,9.39190497 C56.2866946,9.19435394 56.3953749,8.93330437 56.4229206,8.59061382 L56.4298488,8.41238113 L56.4298488,3.63000008 C56.4298488,3.19785721 56.3153254,2.88095244 56.1149096,2.65047625 C55.8858629,2.42000005 55.6281854,2.33357148 55.3132462,2.33357148 Z M17.0910831,2.30476195 C16.5299187,2.33165084 16.0685169,2.73498419 16.0094908,3.46791556 L16.0031114,3.63000008 L16.0031114,8.38357161 C16.0031114,9.27666687 16.4612047,9.70880973 17.0910831,9.70880973 C17.681594,9.70880973 18.1462859,9.3036758 18.2020657,8.54088456 L18.2076856,8.38357161 L18.2076856,3.63000008 C18.2076856,2.76571435 17.6923306,2.27595243 17.0910831,2.30476195 Z M43.803651,0.489761915 C43.975436,0.489761915 44.1185902,0.51857144 44.2331135,0.576190489 C44.3476369,0.633809538 44.4335294,0.720238111 44.5194219,0.806666684 C44.6053144,0.921904782 44.662576,1.03714288 44.6912069,1.15238098 C44.7198377,1.26761908 44.7484686,1.4116667 44.7484686,1.52690479 C44.7484686,1.67095242 44.7198377,1.78619051 44.6912069,1.90142861 C44.662576,2.01666671 44.6053144,2.13190481 44.5194219,2.21833338 C44.4621602,2.30476195 44.3476369,2.39119053 44.2331135,2.44880958 C44.147221,2.49202386 44.0452237,2.51903279 43.9392001,2.52983636 L43.8322819,2.53523815 L39.7380726,2.53523815 C39.5949185,2.53523815 39.4517643,2.50642863 39.337241,2.44880958 C39.2227176,2.39119053 39.1368251,2.30476195 39.0509326,2.21833338 C38.9650401,2.13190481 38.9077784,2.01666671 38.8791476,1.90142861 C38.8505168,1.78619051 38.8218859,1.64214289 38.8218859,1.52690479 C38.8218859,1.4116667 38.8505168,1.26761908 38.8791476,1.15238098 C38.9077784,1.00833336 38.9650401,0.893095257 39.0509326,0.806666684 C39.1081943,0.720238111 39.2227176,0.633809538 39.337241,0.576190489 C39.4231335,0.532976202 39.5251308,0.505967273 39.643233,0.495163701 L39.7667035,0.489761915 L43.803651,0.489761915 Z" id="path-2"></path>
        <linearGradient x1="-1.11022302e-14%" y1="50%" x2="100%" y2="50%" id="linearGradient-4">
            <stop stop-color="#00D593" offset="0%"></stop>
            <stop stop-color="#00E0B8" offset="100%"></stop>
        </linearGradient>
    </defs>
    <g id="img/cider_logo" stroke="none" stroke-width="1" fill="none" fill-rule="evenodd">
        <mask id="mask-3" fill="white">
            <use xlink:href="#path-2"></use>
        </mask>
        <use id="Mask" fill="url(#linearGradient-1)" fill-rule="nonzero" xlink:href="#path-2"></use>
        <g id="color/cider-gr" mask="url(#mask-3)" fill="url(#linearGradient-4)">
            <rect id="color" x="0" y="0" width="63" height="13"></rect>
        </g>
    </g>
</svg>