<?xml version="1.0" encoding="UTF-8"?>
<svg xmlns:xlink="http://www.w3.org/1999/xlink" width="52px" height="41px" viewBox="0 0 52 41" version="1.1" xmlns="http://www.w3.org/2000/svg">
    <!-- Generator: Sketch 63.1 (92452) - https://sketch.com -->
    <title>ico_ceopc</title>
    <desc>Created with Sketch.</desc>
    <g id="Page-1" stroke="none" stroke-width="1" fill="none" fill-rule="evenodd">
        <g id="이용안내" transform="translate(-629.000000, -417.000000)">
            <g id="wrap-step" transform="translate(216.000000, 370.000000)">
                <g id="li" transform="translate(304.000000, 40.000000)">
                    <g id="ico_ceopc" transform="translate(109.000000, 0.000000)">
                        <rect id="bound" x="0" y="0" width="52" height="52"></rect>
                        <g id="Group-31" transform="translate(1.000000, 8.000000)" stroke="#111111" stroke-linecap="round" stroke-linejoin="round" stroke-width="2">
                            <path d="M50,27.152643 L50,31.4611151 C50,32.3106445 49.298935,33 48.4303588,33 L1.56860718,33 C0.702099059,33 0,32.3106445 0,31.4611151 L0,1.53888487 C0,0.689355539 0.702099059,0 1.56860718,0 L48.4303588,0 C49.298935,0 50,0.689355539 50,1.53888487 L50,27.4892107" id="Stroke-7"></path>
                            <path d="M50,32.1646633 L50,32.7801593 C50,32.9015206 49.298935,33 48.4303588,33 L1.56860718,33 C0.702099059,33 0,32.9015206 0,32.7801593 L0,28.2198407 C0,28.0984794 0.702099059,28 1.56860718,28 L48.4303588,28 C49.298935,28 50,28.0984794 50,28.2198407 L50,32.2127444" id="Stroke-7" fill="#F7667D"></path>
                            <line x1="17.75" y1="38.0849365" x2="20.25" y2="33.0849365" id="Stroke-11"></line>
                            <line x1="32.25" y1="38.0849365" x2="29.75" y2="33.0849365" id="Stroke-13"></line>
                            <path d="M42,28 L41.892789,23.2538015 L38.031064,23.3398426 C37.6648239,21.571573 36.9313821,19.8681237 35.8398301,18.3438417 L38.5509099,15.5098266 L35.0026432,12.1138961 L32.2907913,14.9476302 C30.7343369,13.9343565 29.01921,13.2777569 27.2535767,12.9857248 L27.1654657,9 L22.2544103,9.10805308 L22.3411873,13.0950409 C20.606666,13.4622004 18.9370392,14.184345 17.4373905,15.2490114 L14.5093894,12.4477985 L11.1139219,15.997089 L14.0315372,18.7884016 C13.0275282,20.3193658 12.3670005,22.0068213 12.0643049,23.7440789 L8,23.8342017 L8,28" id="Stroke-1"></path>
                            <path d="M19.0887004,27.0294185 C18.7669594,25.1715947 19.3233924,23.1913263 20.75762,21.7570987 C22.8161125,19.6986061 25.9964259,19.4487528 28.3275723,21.0058335 C28.6506552,21.2216355 28.957427,21.4721456 29.2426407,21.7573593 C30.6882041,23.2029227 31.2422954,25.2022751 30.9043237,27.0722647" id="Stroke-3"></path>
                            <line x1="14" y1="39" x2="36" y2="39" id="Stroke-9"></line>
                        </g>
                    </g>
                </g>
            </g>
        </g>
    </g>
</svg>
