<?xml version="1.0" encoding="UTF-8"?>
<svg xmlns:xlink="http://www.w3.org/1999/xlink" width="52px" height="45px" viewBox="0 0 52 45" version="1.1" xmlns="http://www.w3.org/2000/svg">
    <!-- Generator: Sketch 64 (93537) - https://sketch.com -->
    <title>ico_day3</title>
    <desc>Created with Sketch.</desc>
    <g id="Page-1" stroke="none" stroke-width="1" fill="none" fill-rule="evenodd">
        <g id="main" transform="translate(-1104.000000, -2866.000000)">
            <g id="section" transform="translate(370.000000, 2691.000000)">
                <g id="wrap-benefit" transform="translate(0.000000, 149.000000)">
                    <g id="li" transform="translate(660.000000, 8.000000)">
                        <g id="ico_day3" transform="translate(74.000000, 15.000000)">
                            <rect id="bound" x="0" y="0" width="52" height="52"></rect>
                            <g id="ico" transform="translate(0.000000, 3.000000)">
                                <rect id="Rectangle" stroke="#111111" stroke-width="2" x="1" y="4" width="50" height="40" rx="4"></rect>
                                <path d="M48,4 L4,4 C3.17157288,4 2.42157288,4.33578644 1.87867966,4.87867966 C1.33578644,5.42157288 1,6.17157288 1,7 L1,12 L51,12 L51,7 C51,6.17157288 50.6642136,5.42157288 50.1213203,4.87867966 C49.5784271,4.33578644 48.8284271,4 48,4 Z" id="Rectangle" stroke="#111111" stroke-width="2" fill="#F7667D"></path>
                                <path d="M15.1806641,34 C16.2998047,33.9941406 17.3046875,33.7363281 18.1953125,33.2265625 C19.0859375,32.7167969 19.7758789,31.9990234 20.2651367,31.0732422 C20.7543945,30.1474609 20.9990234,29.0898438 20.9990234,27.9003906 L20.9990234,27.9003906 L20.9990234,27.3115234 C20.9990234,26.1220703 20.75,25.0600586 20.2519531,24.1254883 C19.7539062,23.190918 19.0610352,22.4702148 18.1733398,21.9633789 C17.2856445,21.456543 16.2792969,21.203125 15.1542969,21.203125 L15.1542969,21.203125 L11.2167969,21.203125 L11.2167969,34 L15.1806641,34 Z M15.1279297,31.8818359 L13.8535156,31.8818359 L13.8535156,23.3388672 L15.1542969,23.3388672 C16.1914062,23.3388672 16.9794922,23.6743164 17.5185547,24.3452148 C18.0576172,25.0161133 18.3271484,26.0019531 18.3271484,27.3027344 L18.3271484,27.3027344 L18.3271484,27.9794922 C18.3154297,29.2333984 18.0371094,30.1972656 17.4921875,30.8710938 C16.9472656,31.5449219 16.1591797,31.8818359 15.1279297,31.8818359 L15.1279297,31.8818359 Z M27.8720703,32.7167969 L27.8720703,29.1308594 L31.0449219,29.1308594 L31.0449219,26.8369141 L27.8720703,26.8369141 L27.8720703,23.4003906 L25.4550781,23.4003906 L25.4550781,26.8369141 L22.2734375,26.8369141 L22.2734375,29.1308594 L25.4550781,29.1308594 L25.4550781,32.7167969 L27.8720703,32.7167969 Z M36.5117188,34.1757812 C37.8769531,34.1757812 38.9741211,33.8330078 39.8032227,33.1474609 C40.6323242,32.4619141 41.046875,31.5507812 41.046875,30.4140625 C41.046875,29.7109375 40.8696289,29.1015625 40.5151367,28.5859375 C40.1606445,28.0703125 39.6230469,27.6835938 38.9023438,27.4257812 C39.4824219,27.1621094 39.9511719,26.7841797 40.3085938,26.2919922 C40.6660156,25.7998047 40.8447266,25.2607422 40.8447266,24.6748047 C40.8447266,23.5380859 40.4609375,22.6459961 39.6933594,21.9985352 C38.9257812,21.3510742 37.8652344,21.0273438 36.5117188,21.0273438 C35.7324219,21.0273438 35.019043,21.1767578 34.371582,21.4755859 C33.7241211,21.7744141 33.2202148,22.1889648 32.8598633,22.7192383 C32.4995117,23.2495117 32.3193359,23.8486328 32.3193359,24.5166016 L32.3193359,24.5166016 L34.859375,24.5166016 C34.859375,24.0888672 35.0234375,23.7416992 35.3515625,23.4750977 C35.6796875,23.2084961 36.0869141,23.0751953 36.5732422,23.0751953 C37.1123047,23.0751953 37.5356445,23.21875 37.8432617,23.5058594 C38.1508789,23.7929688 38.3046875,24.1943359 38.3046875,24.7099609 C38.3046875,25.2431641 38.1494141,25.6708984 37.8388672,25.9931641 C37.5283203,26.3154297 37.0507812,26.4765625 36.40625,26.4765625 L36.40625,26.4765625 L35.0527344,26.4765625 L35.0527344,28.4628906 L36.3974609,28.4628906 C37.8037109,28.4628906 38.5068359,29.1015625 38.5068359,30.3789062 C38.5068359,30.90625 38.3354492,31.3295898 37.9926758,31.6489258 C37.6499023,31.9682617 37.1767578,32.1279297 36.5732422,32.1279297 C36.0458984,32.1279297 35.6020508,31.9755859 35.2416992,31.6708984 C34.8813477,31.3662109 34.7011719,30.9736328 34.7011719,30.4931641 L34.7011719,30.4931641 L32.1611328,30.4931641 C32.1611328,31.6005859 32.5668945,32.4912109 33.378418,33.1650391 C34.1899414,33.8388672 35.234375,34.1757812 36.5117188,34.1757812 Z" id="D+3" fill="#F7667D" fill-rule="nonzero"></path>
                                <line x1="15" y1="1" x2="15" y2="6" id="Line-3" stroke="#111111" stroke-width="2" stroke-linecap="round"></line>
                                <line x1="37" y1="1" x2="37" y2="6" id="Line-3" stroke="#111111" stroke-width="2" stroke-linecap="round"></line>
                            </g>
                        </g>
                    </g>
                </g>
            </g>
        </g>
    </g>
</svg>
