<?xml version="1.0" encoding="UTF-8"?>
<svg xmlns:xlink="http://www.w3.org/1999/xlink" width="46px" height="37px" viewBox="0 0 46 37" version="1.1" xmlns="http://www.w3.org/2000/svg">
    <!-- Generator: Sketch 64 (93537) - https://sketch.com -->
    <title>ico_realnumber</title>
    <desc>Created with Sketch.</desc>
    <g id="Page-1" stroke="none" stroke-width="1" fill="none" fill-rule="evenodd">
        <g id="main" transform="translate(-530.000000, -2005.000000)">
            <g id="section" transform="translate(0.000000, 1619.000000)">
                <g id="bx" transform="translate(454.000000, 215.000000)">
                    <g id="li" transform="translate(30.000000, 147.000000)">
                        <g id="ico_realnumber" transform="translate(46.000000, 19.000000)">
                            <rect id="bound" x="0" y="0" width="46" height="46"></rect>
                            <g id="ico" transform="translate(1.000000, 6.000000)">
                                <path d="M39.5,30.5808081 L18.623,30.5808081 L13.686,35 L13.686,30.5808081 L4.5,30.5808081 C2.015,30.5808081 0,28.6010101 0,26.1616162 L0,4.41919192 C0,1.97881594 2.015,0 4.5,0 L39.5,0 C41.985,0 44,1.97881594 44,4.41919192 L44,26.1616162 C44,28.6010101 41.985,30.5808081 39.5,30.5808081 Z" id="Stroke-1" stroke="#111111" stroke-width="2" stroke-linecap="round" stroke-linejoin="round"></path>
                                <path d="M10.5566406,20.1171875 C11.4980469,20.1171875 12.2275391,19.8046875 12.7451172,19.1796875 C13.2626953,18.5546875 13.5214844,17.6660156 13.5214844,16.5136719 L13.5214844,16.5136719 L13.5214844,14.9609375 C13.5214844,13.8125 13.2617188,12.9238281 12.7421875,12.2949219 C12.2226562,11.6660156 11.4902344,11.3515625 10.5449219,11.3515625 C9.59960938,11.3515625 8.86816406,11.6640625 8.35058594,12.2890625 C7.83300781,12.9140625 7.57421875,13.8027344 7.57421875,14.9550781 L7.57421875,14.9550781 L7.57421875,16.5136719 C7.57421875,17.6582031 7.83398438,18.5449219 8.35351562,19.1738281 C8.87304688,19.8027344 9.60742188,20.1171875 10.5566406,20.1171875 Z M10.5566406,18.59375 C10.2089844,18.59375 9.95507812,18.4462891 9.79492188,18.1513672 C9.63476562,17.8564453 9.5546875,17.390625 9.5546875,16.7539062 L9.5546875,16.7539062 L9.5546875,14.5742188 C9.56640625,14.0039062 9.64941406,13.578125 9.80371094,13.296875 C9.95800781,13.015625 10.2050781,12.875 10.5449219,12.875 C10.8925781,12.875 11.1464844,13.0263672 11.3066406,13.3291016 C11.4667969,13.6318359 11.546875,14.0898438 11.546875,14.703125 L11.546875,14.703125 L11.546875,16.8125 C11.5429688,17.4257812 11.4609375,17.8759766 11.3007812,18.1630859 C11.140625,18.4501953 10.8925781,18.59375 10.5566406,18.59375 Z M18.9238281,20 L18.9238281,11.46875 L18.7421875,11.46875 L14.9980469,12.7636719 L14.9980469,14.2636719 L16.9433594,13.6953125 L16.9433594,20 L18.9238281,20 Z M24.4550781,20.1171875 C25.3964844,20.1171875 26.1259766,19.8046875 26.6435547,19.1796875 C27.1611328,18.5546875 27.4199219,17.6660156 27.4199219,16.5136719 L27.4199219,16.5136719 L27.4199219,14.9609375 C27.4199219,13.8125 27.1601562,12.9238281 26.640625,12.2949219 C26.1210938,11.6660156 25.3886719,11.3515625 24.4433594,11.3515625 C23.4980469,11.3515625 22.7666016,11.6640625 22.2490234,12.2890625 C21.7314453,12.9140625 21.4726562,13.8027344 21.4726562,14.9550781 L21.4726562,14.9550781 L21.4726562,16.5136719 C21.4726562,17.6582031 21.7324219,18.5449219 22.2519531,19.1738281 C22.7714844,19.8027344 23.5058594,20.1171875 24.4550781,20.1171875 Z M24.4550781,18.59375 C24.1074219,18.59375 23.8535156,18.4462891 23.6933594,18.1513672 C23.5332031,17.8564453 23.453125,17.390625 23.453125,16.7539062 L23.453125,16.7539062 L23.453125,14.5742188 C23.4648438,14.0039062 23.5478516,13.578125 23.7021484,13.296875 C23.8564453,13.015625 24.1035156,12.875 24.4433594,12.875 C24.7910156,12.875 25.0449219,13.0263672 25.2050781,13.3291016 C25.3652344,13.6318359 25.4453125,14.0898438 25.4453125,14.703125 L25.4453125,14.703125 L25.4453125,16.8125 C25.4414062,17.4257812 25.359375,17.8759766 25.1992188,18.1630859 C25.0390625,18.4501953 24.7910156,18.59375 24.4550781,18.59375 Z" id="010" fill="#F7667D" fill-rule="nonzero"></path>
                                <text id="…" font-family="Roboto-Black, Roboto" font-size="12" font-weight="700" fill="#F7667D">
                                    <tspan x="29" y="17">…</tspan>
                                </text>
                            </g>
                        </g>
                    </g>
                </g>
            </g>
        </g>
    </g>
</svg>
