<?xml version="1.0" encoding="UTF-8"?>
<svg xmlns:xlink="http://www.w3.org/1999/xlink" width="48px" height="44px" viewBox="0 0 48 44" version="1.1" xmlns="http://www.w3.org/2000/svg">
    <!-- Generator: Sketch 64 (93537) - https://sketch.com -->
    <title>ico_pos</title>
    <desc>Created with Sketch.</desc>
    <g id="Page-1" stroke="none" stroke-width="1" fill="none" fill-rule="evenodd">
        <g id="이용안내" transform="translate(-921.000000, -414.000000)">
            <g id="wrap-step" transform="translate(216.000000, 370.000000)">
                <g id="li" transform="translate(594.000000, 40.000000)">
                    <g id="ico_pos" transform="translate(109.000000, 0.000000)">
                        <rect id="bound" x="0" y="0" width="52" height="52"></rect>
                        <g id="ico" transform="translate(2.000000, 4.000000)">
                            <path d="M13.5023333,25 L13.5023333,21.318 L14.8883333,21.318 C17.1143333,21.318 18.8923333,20.254 18.8923333,17.888 C18.8923333,15.438 17.1283333,14.64 14.8323333,14.64 L11.4303333,14.64 L11.4303333,25 L13.5023333,25 Z M14.7483333,19.68 L13.5023333,19.68 L13.5023333,16.278 L14.6783333,16.278 C16.1063333,16.278 16.8623333,16.684 16.8623333,17.888 C16.8623333,19.078 16.1763333,19.68 14.7483333,19.68 Z M24.4954444,25.196 C27.2394444,25.196 29.1294444,23.138 29.1294444,19.778 C29.1294444,16.418 27.2394444,14.444 24.4954444,14.444 C21.7514444,14.444 19.8614444,16.404 19.8614444,19.778 C19.8614444,23.138 21.7514444,25.196 24.4954444,25.196 Z M24.4954444,23.404 C22.9554444,23.404 21.9754444,21.99 21.9754444,19.778 C21.9754444,17.552 22.9554444,16.222 24.4954444,16.222 C26.0354444,16.222 27.0154444,17.552 27.0154444,19.778 C27.0154444,21.99 26.0354444,23.404 24.4954444,23.404 Z M33.8645556,25.196 C36.2585556,25.196 37.6725556,23.754 37.6725556,22.06 C37.6725556,20.562 36.8465556,19.764 35.5865556,19.246 L34.2285556,18.672 C33.3465556,18.322 32.6045556,18.056 32.6045556,17.314 C32.6045556,16.628 33.1925556,16.222 34.1025556,16.222 C34.9565556,16.222 35.6425556,16.53 36.3005556,17.076 L37.3505556,15.774 C36.5105556,14.92 35.3065556,14.444 34.1025556,14.444 C32.0025556,14.444 30.5185556,15.746 30.5185556,17.44 C30.5185556,18.952 31.5685556,19.792 32.6185556,20.226 L34.0045556,20.814 C34.9285556,21.206 35.5585556,21.444 35.5585556,22.214 C35.5585556,22.942 34.9845556,23.404 33.9065556,23.404 C32.9965556,23.404 32.0165556,22.942 31.2745556,22.256 L30.0845556,23.684 C31.0925556,24.65 32.4785556,25.196 33.8645556,25.196 Z" id="POS" fill="#F7667D" fill-rule="nonzero"></path>
                            <rect id="Rectangle" stroke="#111111" stroke-width="2" x="1" y="1" width="46" height="37" rx="5"></rect>
                            <line x1="14" y1="43" x2="34" y2="43" id="Line-2" stroke="#111111" stroke-width="2" stroke-linecap="round"></line>
                            <line x1="30" y1="39" x2="30" y2="43" id="Line-3" stroke="#111111" stroke-width="2" stroke-linecap="round"></line>
                            <line x1="18" y1="39" x2="18" y2="43" id="Line-3" stroke="#111111" stroke-width="2" stroke-linecap="round"></line>
                        </g>
                    </g>
                </g>
            </g>
        </g>
    </g>
</svg>
