<?xml version="1.0" encoding="UTF-8"?>
<svg xmlns:xlink="http://www.w3.org/1999/xlink" width="48px" height="52px" viewBox="0 0 48 52" version="1.1" xmlns="http://www.w3.org/2000/svg">
    <!-- Generator: Sketch 64 (93537) - https://sketch.com -->
    <title>ico_free2</title>
    <desc>Created with Sketch.</desc>
    <g id="Page-1" stroke="none" stroke-width="1" fill="none" fill-rule="evenodd">
        <g id="main" transform="translate(-666.000000, -2863.000000)">
            <g id="section" transform="translate(370.000000, 2691.000000)">
                <g id="wrap-benefit" transform="translate(0.000000, 149.000000)">
                    <g id="li" transform="translate(220.000000, 8.000000)">
                        <g id="ico_free2" transform="translate(74.000000, 15.000000)">
                            <rect id="bound" x="0" y="0" width="52" height="52"></rect>
                            <g id="ico" transform="translate(3.000000, 1.000000)">
                                <g id="Group" stroke="#111111" stroke-linecap="round" stroke-linejoin="round" stroke-width="2">
                                    <path d="M18,47 C7.77389481,45.1642848 0,35.9846305 0,24.9379826 C0,14.1210688 7.45518085,5.09564898 17.3667657,3" id="Stroke-1"></path>
                                    <path d="M30.041205,4 C39.2323407,6.51924121 46,15.089965 46,25.2730031 C46,36.1974937 38.2132964,45.2625191 28,47" id="Stroke-3"></path>
                                    <polyline id="Stroke-5" points="15.5251724 7 19 1.90861735 13 0"></polyline>
                                    <polyline id="Stroke-7" points="30.0857449 43 26 47.5941924 32 50"></polyline>
                                </g>
                                <path d="M9.64477778,31 L9.64477778,26.8 L13.3267778,26.8 L13.3267778,25.064 L9.64477778,25.064 L9.64477778,22.362 L13.9567778,22.362 L13.9567778,20.64 L7.57277778,20.64 L7.57277778,31 L9.64477778,31 Z M17.4458889,31 L17.4458889,27.08 L18.8878889,27.08 L21.0158889,31 L23.3258889,31 L20.9038889,26.758 C22.0938889,26.296 22.8778889,25.33 22.8778889,23.776 C22.8778889,21.396 21.1558889,20.64 18.9858889,20.64 L15.3738889,20.64 L15.3738889,31 L17.4458889,31 Z M18.7898889,25.442 L17.4458889,25.442 L17.4458889,22.278 L18.7898889,22.278 C20.1198889,22.278 20.8478889,22.656 20.8478889,23.776 C20.8478889,24.882 20.1198889,25.442 18.7898889,25.442 Z M31.043,31 L31.043,29.264 L26.605,29.264 L26.605,26.492 L30.245,26.492 L30.245,24.756 L26.605,24.756 L26.605,22.362 L30.889,22.362 L30.889,20.64 L24.533,20.64 L24.533,31 L31.043,31 Z M39.2641111,31 L39.2641111,29.264 L34.8261111,29.264 L34.8261111,26.492 L38.4661111,26.492 L38.4661111,24.756 L34.8261111,24.756 L34.8261111,22.362 L39.1101111,22.362 L39.1101111,20.64 L32.7541111,20.64 L32.7541111,31 L39.2641111,31 Z" id="FREE" fill="#F7667D" fill-rule="nonzero" transform="translate(23.418444, 25.820000) rotate(-30.000000) translate(-23.418444, -25.820000) "></path>
                            </g>
                        </g>
                    </g>
                </g>
            </g>
        </g>
    </g>
</svg>
