<?xml version="1.0" encoding="UTF-8"?>
<svg width="147px" height="147px" viewBox="0 0 147 147" version="1.1" xmlns="http://www.w3.org/2000/svg" xmlns:xlink="http://www.w3.org/1999/xlink">
    <!-- Generator: Sketch 61.2 (89653) - https://sketch.com -->
    <title>bg_fire2</title>
    <desc>Created with Sketch.</desc>
    <g id="Page-1" stroke="none" stroke-width="1" fill="none" fill-rule="evenodd" stroke-linecap="round" stroke-linejoin="round">
        <g id="돈버는법-리셀러" transform="translate(-1104.000000, -1341.000000)" stroke="#FFFFFF">
            <g id="section" transform="translate(0.000000, 1214.000000)">
                <g id="bg-imgs" transform="translate(260.000000, 0.000000)">
                    <path d="M859,247 L890,224 M858,238 L880,224 M871,246 L886,232 M874,252 L896,230 M880,258 L893,239 M894,261 L903,242 M888,258 L900,239 M909,274 L914,237 M902,269 L907,244 M916.025,265 L916.975,244 M923.262,268 L923.738,237 M932,267 L928,244 M945,260 L937,239 M937,262 L932,240 M964,259 L941,228 M955,260 L941,238 M963,247 L949,232 M969,244 L947,222 M975,238 L956,225 M978,224 L959,215 M975,230 L956,218 M991,209 L954,204 M986,216 L961,211 M982,199.9755 L961,199.0245 M985,194.737 L954,194.263 M984,186 L961,190 M977,173 L956,181 M979,180 L957,185 M976,154 L945,177 M977,163 L955,177 M964,155 L949,169 M961,149 L939,171 M955,143 L942,162 M941,140 L932,159 M947,143 L935,162 M926,127 L921,164 M933,132 L928,157 M916.9755,136 L916.0245,157 M911.736,132 L911.264,163 M903,132 L907,155 M890,140 L898,161 M897,139 L902,161 M871,142 L894,173 M880,141 L894,163 M872,154 L886,169 M866,157 L888,179 M860,163 L879,176 M857,177 L876,186 M860,171 L879,183 M844,192 L881,197 M849,185 L874,190 M853,199.0255 L874,199.9745 M849,206.263 L880,206.737 M849,215 L872,211 M857,228 L878,220 M856,220 L878,215" id="bg_fire2"></path>
                </g>
            </g>
        </g>
    </g>
</svg>