<?xml version="1.0" encoding="UTF-8"?>
<svg width="63px" height="45px" viewBox="0 0 63 45" version="1.1" xmlns="http://www.w3.org/2000/svg" xmlns:xlink="http://www.w3.org/1999/xlink">
    <!-- Generator: Sketch 61.2 (89653) - https://sketch.com -->
    <title>ico_pay_card</title>
    <desc>Created with Sketch.</desc>
    <g id="✡️Symbols" stroke="none" stroke-width="1" fill="none" fill-rule="evenodd">
        <g id="img/ico_pay_card" transform="translate(0.000000, -1.000000)">
            <g id="ico_pay_card">
                <rect id="bound" x="0" y="0" width="63" height="47"></rect>
                <g id="Group-13" transform="translate(1.000000, 2.000000)">
                    <path d="M36.4152809,35 L1.53979658,35 C0.689175008,35 0,34.314376 0,33.4679018 L0,1.53209823 C0,0.688639954 0.689175008,0 1.53979658,0 L48.4622215,0 C49.3138521,0 50,0.688639954 50,1.53209823 L50,20.2620997" id="Stroke-3" stroke="#36384D" stroke-width="2" stroke-linecap="round" stroke-linejoin="round"></path>
                    <polygon id="Fill-5" fill="#36384D" points="0 13 50 13 50 7 0 7"></polygon>
                    <line x1="5" y1="27.5" x2="23" y2="27.5" id="Stroke-12" stroke="#36384D" stroke-width="2" stroke-linecap="round" stroke-linejoin="round"></line>
                </g>
                <g id="Group-6" transform="translate(37.000000, 22.000000)">
                    <path d="M26,13.0004627 C26,19.0739915 21.0749169,24 14.9986119,24 C8.92508308,24 4,19.0739915 4,13.0004627 C4,6.9260085 8.92508308,2 14.9986119,2 C21.0749169,2 26,6.9260085 26,13.0004627 Z" id="Stroke-17" fill="#FFD786"></path>
                    <path d="M22,11.0004627 C22,17.0739915 17.0749169,22 10.9986119,22 C4.92508308,22 0,17.0739915 0,11.0004627 C0,4.9260085 4.92508308,0 10.9986119,0 C17.0749169,0 22,4.9260085 22,11.0004627 Z" id="Stroke-17" stroke="#36384D" stroke-width="2" stroke-linecap="round" stroke-linejoin="round"></path>
                    <polyline id="Stroke-19" stroke="#36384D" stroke-width="2" stroke-linecap="round" stroke-linejoin="round" points="6.5 7 8.90860432 15 11.3172086 7.13415968 13.3449808 15 15.5 7.27123587"></polyline>
                    <line x1="16" y1="11.5" x2="6" y2="11.5" id="Stroke-21" stroke="#36384D" stroke-width="2" stroke-linecap="round" stroke-linejoin="round"></line>
                </g>
            </g>
        </g>
    </g>
</svg>