<?xml version="1.0" encoding="UTF-8"?>
<svg width="54px" height="47px" viewBox="0 0 54 47" version="1.1" xmlns="http://www.w3.org/2000/svg" xmlns:xlink="http://www.w3.org/1999/xlink">
    <!-- Generator: Sketch 61.2 (89653) - https://sketch.com -->
    <title>ico_pay_alim</title>
    <desc>Created with Sketch.</desc>
    <g id="✡️Symbols" stroke="none" stroke-width="1" fill="none" fill-rule="evenodd">
        <g id="img/ico_pay_alim" transform="translate(-1.000000, 0.000000)">
            <g id="ico_pay_alim">
                <rect id="bound" x="0" y="0" width="56" height="47"></rect>
                <g id="Group-25" transform="translate(2.000000, 1.000000)">
                    <path d="M26,0 L52,15.6521739 L52,45 L0,45 L0,15.6521739 L26,0 Z" id="Combined-Shape" stroke="#36384D" stroke-width="2" fill="#FFFFFF" stroke-linecap="round" stroke-linejoin="round"></path>
                    <polygon id="Stroke-11" fill="#FFFFFF" points="10 22.9515083 10 5 42 5 42 23 26.4848485 35"></polygon>
                    <polygon id="Stroke-11" fill="#F9C6C9" points="14 24.9515083 14 7 46 7 46 25 30.4848485 37"></polygon>
                    <polygon id="Stroke-11" stroke="#36384D" stroke-width="2" stroke-linecap="round" stroke-linejoin="round" points="10 22.9515083 10 5 42 5 42 23 26.4848485 35"></polygon>
                    <line x1="52" y1="16" x2="33" y2="30" id="Stroke-14" stroke="#36384D" stroke-width="2" stroke-linecap="round" stroke-linejoin="round"></line>
                    <line x1="20" y1="30" x2="0" y2="16" id="Stroke-17" stroke="#36384D" stroke-width="2" stroke-linecap="round" stroke-linejoin="round"></line>
                    <polygon id="Stroke-20" stroke="#36384D" stroke-width="2" fill="#FFFFFF" stroke-linecap="round" stroke-linejoin="round" points="52 45 26.5 26 1 45"></polygon>
                    <g id="Group-9" transform="translate(16.000000, 10.000000)" stroke="#36384D" stroke-linecap="round" stroke-linejoin="round" stroke-width="2">
                        <path d="M6,12 C7.31382338,10.747517 8.909623,10 10.6371148,10 C12.2468583,10 13.7404028,10.651333 15,11.7501307" id="Stroke-3"></path>
                        <path d="M20,3.7620097 C17.2549633,1.40590569 13.8385181,0 10.1305299,0 C6.30373613,0 2.78802564,1.5028647 0,4" id="Stroke-5"></path>
                        <path d="M3,8 C5.12362268,6.12616243 7.76484816,5 10.6390755,5 C13.3883365,5 15.9247514,6.03316801 18,7.76193428" id="Stroke-7"></path>
                    </g>
                </g>
            </g>
        </g>
    </g>
</svg>