<?xml version="1.0" encoding="UTF-8"?>
<svg width="53px" height="43px" viewBox="0 0 53 43" version="1.1" xmlns="http://www.w3.org/2000/svg" xmlns:xlink="http://www.w3.org/1999/xlink">
    <!-- Generator: Sketch 61.2 (89653) - https://sketch.com -->
    <title>ico_pay_link</title>
    <desc>Created with Sketch.</desc>
    <g id="✡️Symbols" stroke="none" stroke-width="1" fill="none" fill-rule="evenodd">
        <g id="img/ico_pay_link" transform="translate(-1.000000, -2.000000)">
            <g id="ico_pay_link">
                <rect id="bound" x="0" y="0" width="54" height="47"></rect>
                <g id="Group-5" transform="translate(1.000000, 2.000000)">
                    <g id="Group-8" stroke="#36384D" stroke-width="2">
                        <path d="M3.00433378,24.3178867 C0.331888742,26.9903317 0.331888742,31.3232212 3.00433378,33.9956662 C5.67677881,36.6681113 10.0096683,36.6681113 12.6821133,33.9956662 L16.9956662,29.6821133 C19.6681113,27.0096683 19.6681113,22.6767788 16.9956662,20.0043338 C14.3232212,17.3318887 9.99033169,17.3318887 7.31788666,20.0043338 L3.00433378,24.3178867 Z" id="Rectangle"></path>
                        <path d="M20.0043338,7.31788666 C17.3318887,9.99033169 17.3318887,14.3232212 20.0043338,16.9956662 C22.6767788,19.6681113 27.0096683,19.6681113 29.6821133,16.9956662 L33.9956662,12.6821133 C36.6681113,10.0096683 36.6681113,5.67677881 33.9956662,3.00433378 C31.3232212,0.331888742 26.9903317,0.331888742 24.3178867,3.00433378 L20.0043338,7.31788666 Z" id="Rectangle"></path>
                        <line x1="10" y1="27" x2="27" y2="10" id="Line" stroke-linecap="round" stroke-linejoin="round"></line>
                    </g>
                    <g id="Group-6" transform="translate(27.000000, 19.000000)">
                        <path d="M26,13.0004627 C26,19.0739915 21.0749169,24 14.9986119,24 C8.92508308,24 4,19.0739915 4,13.0004627 C4,6.9260085 8.92508308,2 14.9986119,2 C21.0749169,2 26,6.9260085 26,13.0004627 Z" id="Stroke-17" fill="#FFD786"></path>
                        <path d="M22,11.0004627 C22,17.0739915 17.0749169,22 10.9986119,22 C4.92508308,22 0,17.0739915 0,11.0004627 C0,4.9260085 4.92508308,0 10.9986119,0 C17.0749169,0 22,4.9260085 22,11.0004627 Z" id="Stroke-17" stroke="#36384D" stroke-width="2" stroke-linecap="round" stroke-linejoin="round"></path>
                        <polyline id="Stroke-19" stroke="#36384D" stroke-width="2" stroke-linecap="round" stroke-linejoin="round" points="6.5 7 8.90860432 15 11.3172086 7.13415968 13.3449808 15 15.5 7.27123587"></polyline>
                        <line x1="16" y1="11.5" x2="6" y2="11.5" id="Stroke-21" stroke="#36384D" stroke-width="2" stroke-linecap="round" stroke-linejoin="round"></line>
                    </g>
                </g>
            </g>
        </g>
    </g>
</svg>