<?xml version="1.0" encoding="UTF-8"?>
<svg width="51px" height="45px" viewBox="0 0 51 45" version="1.1" xmlns="http://www.w3.org/2000/svg" xmlns:xlink="http://www.w3.org/1999/xlink">
    <!-- Generator: Sketch 61.2 (89653) - https://sketch.com -->
    <title>ico_pay_camera</title>
    <desc>Created with Sketch.</desc>
    <g id="Page" stroke="none" stroke-width="1" fill="none" fill-rule="evenodd">
        <g id="이용안내-이용가능API-결제API-부가" transform="translate(-820.000000, -718.000000)">
            <g id="content" transform="translate(280.000000, 343.000000)">
                <g id="Group" transform="translate(1.000000, 324.000000)">
                    <g id="card" transform="translate(389.000000, 30.000000)">
                        <g id="ico_pay_camera" transform="translate(147.000000, 20.000000)">
                            <rect id="bound" x="0" y="0" width="56" height="47"></rect>
                            <g id="Group-21" transform="translate(4.000000, 2.000000)">
                                <rect id="Rectangle" fill="#F9C6C9" x="0" y="8" width="49" height="27"></rect>
                                <path d="M0,10 L0,3.31679742 C0,1.48477157 1.37790635,0 3.07939569,0 L10,0" id="Stroke-1" stroke="#36384D" stroke-width="2" stroke-linecap="round" stroke-linejoin="round"></path>
                                <path d="M49,10 L49,3.31679742 C49,1.48477157 47.6210222,0 45.9195328,0 L39,0" id="Stroke-3" stroke="#36384D" stroke-width="2" stroke-linecap="round" stroke-linejoin="round"></path>
                                <path d="M0,33 L0,39.6832026 C0,41.5152284 1.37790635,43 3.07939569,43 L10,43" id="Stroke-5" stroke="#36384D" stroke-width="2" stroke-linecap="round" stroke-linejoin="round"></path>
                                <path d="M49,33 L49,39.6832026 C49,41.5152284 47.6210222,43 45.9195328,43 L39,43" id="Stroke-7" stroke="#36384D" stroke-width="2" stroke-linecap="round" stroke-linejoin="round"></path>
                                <path d="M7.11764706,10 L7.11764706,33 L6,33 L6,10 L7.11764706,10 Z M19.4117647,10 L19.4117647,33 L18.2941176,33 L18.2941176,10 L19.4117647,10 Z M22.7647059,10 L22.7647059,33 L21.6470588,33 L21.6470588,10 L22.7647059,10 Z M26.1176471,10 L26.1176471,33 L25,33 L25,10 L26.1176471,10 Z M28.3529412,10 L28.3529412,33 L27.2352941,33 L27.2352941,10 L28.3529412,10 Z M41.7647059,10 L41.7647059,33 L40.6470588,33 L40.6470588,10 L41.7647059,10 Z M44,10 L44,33 L42.8823529,33 L42.8823529,10 L44,10 Z M17.1764706,10 L17.1764706,33 L14.9411765,33 L14.9411765,10 L17.1764706,10 Z M31.7058824,10 L31.7058824,33 L29.4705882,33 L29.4705882,10 L31.7058824,10 Z M12.7058824,10 L12.7058824,33 L9.35294118,33 L9.35294118,10 L12.7058824,10 Z M38.4117647,10 L38.4117647,33 L35.0588235,33 L35.0588235,10 L38.4117647,10 Z" id="Combined-Shape" fill="#36384D"></path>
                            </g>
                        </g>
                    </g>
                </g>
            </g>
        </g>
    </g>
</svg>