<?xml version="1.0" encoding="UTF-8"?>
<svg width="53px" height="47px" viewBox="0 0 53 47" version="1.1" xmlns="http://www.w3.org/2000/svg" xmlns:xlink="http://www.w3.org/1999/xlink">
    <!-- Generator: Sketch 61.2 (89653) - https://sketch.com -->
    <title>ico_pay_cert</title>
    <desc>Created with Sketch.</desc>
    <g id="✡️Symbols" stroke="none" stroke-width="1" fill="none" fill-rule="evenodd">
        <g id="img/ico_pay_cert" transform="translate(-3.000000, 0.000000)">
            <g id="ico_pay_cert">
                <rect id="bound" x="0" y="0" width="56" height="47"></rect>
                <g id="Group-21" transform="translate(4.000000, 1.000000)" stroke="#36384D" stroke-linecap="round" stroke-linejoin="round" stroke-width="2">
                    <path d="M0,45 C0,36.1635361 6.9379107,29 15.5004968,29 C24.0640767,29 31,36.1635361 31,45" id="Stroke-1"></path>
                    <path d="M20,28.7091537 L20,31.7652328 C20,34.1032005 17.9843998,36 15.5,36 C13.0171867,36 11,34.1032005 11,31.7652328 L11,28.7091537" id="Stroke-5" fill="#FFFFFF"></path>
                    <path d="M28,17.306847 C28,23.7642294 22.4024635,29 15.498908,29 C8.59207653,29 3,23.7642294 3,17.306847 L3,11.6941744 C3,5.23474923 8.59207653,0 15.498908,0 C22.4024635,0 28,5.23474923 28,11.6941744 L28,17.306847 Z" id="Stroke-11"></path>
                    <path d="M3,14.0727455 C3,14.0727455 11.1364195,13.3524368 15.2090214,7 C15.2090214,7 20.8847505,15 28,15" id="Stroke-13"></path>
                    <path d="M19,23.1425 C17.9324572,23.6215 16.7322738,24 15.5,24 C14.2484719,24 13.0867971,23.6105 12,23.1125" id="Stroke-15"></path>
                </g>
                <g id="Group-10" transform="translate(32.000000, 24.000000)">
                    <circle id="Oval" fill="#F9C6C9" cx="13.5" cy="12.5" r="10.5"></circle>
                    <circle id="Oval" stroke="#36384D" stroke-width="2" cx="10.5" cy="10.5" r="9.5"></circle>
                    <polyline id="Stroke-1" stroke="#36384D" stroke-width="2" stroke-linecap="round" stroke-linejoin="round" points="6 10.6941742 9.67976245 14 15 7"></polyline>
                </g>
            </g>
        </g>
    </g>
</svg>