<?xml version="1.0" encoding="UTF-8"?>
<svg width="80px" height="79px" viewBox="0 0 80 79" version="1.1" xmlns="http://www.w3.org/2000/svg" xmlns:xlink="http://www.w3.org/1999/xlink">
    <!-- Generator: Sketch 61.2 (89653) - https://sketch.com -->
    <title>img_app2app</title>
    <desc>Created with Sketch.</desc>
    <g id="✡️Symbols" stroke="none" stroke-width="1" fill="none" fill-rule="evenodd">
        <g id="img/img_app2app">
            <g id="img_app2app">
                <rect id="bound" x="0" y="0" width="80" height="78"></rect>
                <g id="Group-3" transform="translate(53.000000, 1.000000)" stroke="#36384D" stroke-linecap="round" stroke-linejoin="round" stroke-width="2">
                    <path d="M23.0589064,47.098 L2.94211062,47.098 C1.31698349,47.098 0,45.803 0,44.206 L0,2.892 C0,1.295 1.31698349,-2.13162821e-14 2.94211062,-2.13162821e-14 L23.0589064,-2.13162821e-14 C24.6830165,-2.13162821e-14 26,1.295 26,2.892 L26,44.206 C26,45.803 24.6830165,47.098 23.0589064,47.098 Z" id="Stroke-17"></path>
                    <polygon id="Stroke-19" fill="#FFFFFF" points="0 40 26 40 26 7 0 7"></polygon>
                    <line x1="11.1012" y1="43.6048" x2="15.1012" y2="43.6048" id="Stroke-24"></line>
                    <line x1="12" y1="4" x2="14" y2="4" id="Stroke-21"></line>
                </g>
                <g id="Group-3" transform="translate(1.000000, 30.000000)" stroke="#36384D" stroke-linecap="round" stroke-linejoin="round" stroke-width="2">
                    <path d="M23.0589064,47.098 L2.94211062,47.098 C1.31698349,47.098 0,45.803 0,44.206 L0,2.892 C0,1.295 1.31698349,-2.13162821e-14 2.94211062,-2.13162821e-14 L23.0589064,-2.13162821e-14 C24.6830165,-2.13162821e-14 26,1.295 26,2.892 L26,44.206 C26,45.803 24.6830165,47.098 23.0589064,47.098 Z" id="Stroke-17"></path>
                    <polygon id="Stroke-19" fill="#FFFFFF" points="0 40 26 40 26 7 0 7"></polygon>
                    <line x1="11.1012" y1="43.6048" x2="15.1012" y2="43.6048" id="Stroke-24"></line>
                    <line x1="12" y1="4" x2="14" y2="4" id="Stroke-21"></line>
                </g>
                <g id="Group-2" transform="translate(13.000000, 1.000000)" stroke="#36384D" stroke-linecap="round" stroke-linejoin="round" stroke-width="2">
                    <path d="M10,4 L5.00375281,4 C2.24001334,4 -1.77635684e-15,6.38755556 -1.77635684e-15,9.33333333 L-1.77635684e-15,20" id="Stroke-3" stroke-dasharray="3,4"></path>
                    <polyline id="Stroke-5" points="10 8 14 4.00045866 10 0"></polyline>
                </g>
                <g id="Group-2" transform="translate(60.000000, 67.000000) scale(-1, -1) translate(-60.000000, -67.000000) translate(53.000000, 57.000000)" stroke="#36384D" stroke-linecap="round" stroke-linejoin="round" stroke-width="2">
                    <path d="M10,4 L5.00375281,4 C2.24001334,4 -1.77635684e-15,6.38755556 -1.77635684e-15,9.33333333 L-1.77635684e-15,20" id="Stroke-3" stroke-dasharray="3,4"></path>
                    <polyline id="Stroke-5" points="10 8 14 4.00045866 10 0"></polyline>
                </g>
                <g id="Group-7" transform="translate(31.000000, 31.000000)">
                    <path d="M21,11.0005382 C21,15.9711774 16.9711774,20 12.0005382,20 C7.02989894,20 3,15.9711774 3,11.0005382 C3,6.02989894 7.02989894,2 12.0005382,2 C16.9711774,2 21,6.02989894 21,11.0005382 Z" id="Stroke-3" fill="#FFD786"></path>
                    <path d="M18,9.00053818 C18,13.9711774 13.9711774,18 9.00053818,18 C4.02989894,18 0,13.9711774 0,9.00053818 C0,4.02989894 4.02989894,0 9.00053818,0 C13.9711774,0 18,4.02989894 18,9.00053818 Z" id="Stroke-3" stroke="#36384D" stroke-width="2" stroke-linecap="round" stroke-linejoin="round"></path>
                    <polyline id="Stroke-5" stroke="#36384D" stroke-width="2" stroke-linecap="round" stroke-linejoin="round" points="13 7 8.16764236 12.2941176 5 8.82495465"></polyline>
                </g>
            </g>
        </g>
    </g>
</svg>