<svg width="22" height="22" viewBox="0 0 22 22" fill="none" xmlns="http://www.w3.org/2000/svg">
<path d="M19.5097 9.3505L15.7838 7.19873L10.6792 11.0128L15.7837 14.8269L19.5223 12.6677C20.1052 12.3136 20.453 11.6947 20.453 11.0129C20.453 10.331 20.1051 9.71224 19.5097 9.3505Z" fill="#FF9100"/>
<path d="M11.9699 11.0126C11.9643 11.0198 7.45651 16.8155 7.45285 16.8202L1.58076 21.4447C1.21935 21.0833 1 20.593 1 20.0509V1.94236C1 1.40036 1.21935 0.909901 1.58076 0.548584L7.45285 5.20505C7.45651 5.20974 11.9643 11.0054 11.9699 11.0126Z" fill="#25D9F8"/>
<path d="M15.7899 7.19272L11.9698 11.0128L1.58069 0.54886C1.7097 0.432665 1.8388 0.342325 1.98077 0.251985C2.6002 -0.0964256 3.33586 -0.0835629 3.94248 0.290746L10.6792 4.25026L15.7899 7.19272Z" fill="#7FE881"/>
<path d="M15.7899 14.833L10.6792 17.7755L3.92957 21.7161C3.61983 21.8967 3.28428 22 2.93579 22C2.61314 22 2.2905 21.9096 1.98077 21.7418C1.8388 21.6515 1.7097 21.5612 1.58069 21.4451L11.9698 11.0129L15.7899 14.833Z" fill="#FF637B"/>
</svg>
