<svg width="730" height="770" viewBox="0 0 730 770" fill="none" xmlns="http://www.w3.org/2000/svg">
<path d="M76 57.375V50.5195L68.9198 48.9375C68.3914 46.9336 67.6517 45.0352 66.5949 43.3477L70.5049 37.3359L65.6438 32.4844L59.6203 36.3867C57.8239 35.332 55.9217 34.4883 53.9139 33.9609L52.4344 27H45.5656L44.0861 33.9609C42.0783 34.4883 40.1761 35.2266 38.3796 36.3867L32.3562 32.4844L27.4951 37.3359L31.4051 43.3477C30.3483 45.0352 29.6086 46.9336 29.0802 48.9375L22 50.5195V57.375L29.1859 58.957C29.7143 60.8555 30.454 62.7539 31.5108 64.4414L27.4951 70.6641L32.3562 75.5156L38.591 71.5078C40.2818 72.457 42.0783 73.1953 43.9804 73.7227L45.5656 81H52.4344L54.0196 73.7227C55.9217 73.1953 57.7182 72.457 59.409 71.5078L65.6438 75.5156L70.5049 70.6641L66.4892 64.4414C67.546 62.7539 68.2857 60.9609 68.8141 59.0625L76 57.375Z" fill="white" stroke="#1369FA" stroke-width="3" stroke-miterlimit="10" stroke-linejoin="round"/>
<path d="M42.1177 59.7646L36.8236 54.9999L42.1177 50.2352" stroke="#FF9090" stroke-width="3" stroke-linecap="round" stroke-linejoin="round"/>
<path d="M55.8823 50.2354L61.1764 55.0001L55.8823 59.7648" stroke="#FF9090" stroke-width="3" stroke-linecap="round" stroke-linejoin="round"/>
<line x1="51.8965" y1="47.9226" x2="46.7662" y2="62.018" stroke="#FF9090" stroke-width="3" stroke-linecap="round"/>
<path d="M80.6155 45.0241C80.3641 44.6524 80.0922 44.2974 79.8818 43.8856C79.6713 43.4737 79.5431 43.0458 79.3892 42.6245L76.1864 42.0537C75.4721 41.9267 74.965 41.2885 75.0019 40.5641L75.2469 35.9286C75.2851 35.2067 75.8561 34.6235 76.5794 34.5719L79.8108 34.3389C80.2074 33.5155 80.6752 32.7302 81.275 32.026L80.1896 29.0296C79.9449 28.3484 80.2429 27.5912 80.8893 27.2629L85.0372 25.1563C85.6836 24.828 86.4758 25.0314 86.8821 25.6306L88.6755 28.2674C89.602 28.1964 90.5156 28.2834 91.4156 28.4449L93.5018 25.9773C93.9714 25.423 94.7791 25.3028 95.3886 25.6989L99.2915 28.2277C99.8997 28.6212 100.119 29.4054 99.8039 30.0586L98.3843 32.9772C98.6382 33.3476 98.9101 33.7026 99.1205 34.1144C99.331 34.5263 99.4592 34.9542 99.6131 35.3755L102.813 35.9476C103.528 36.0746 104.037 36.7115 103.998 37.4372L103.755 42.0714C103.717 42.7933 103.146 43.3765 102.423 43.4281L99.1902 43.6586C98.7936 44.4819 98.3258 45.2673 97.726 45.9714L98.8114 48.9678C99.0575 49.6516 98.7594 50.4088 98.113 50.7371L93.9651 52.8437C93.3187 53.172 92.5265 52.9686 92.1202 52.3694L90.3268 49.7326C89.4029 49.8023 88.4867 49.7166 87.5893 49.5538L85.5005 52.0227C85.0335 52.5757 84.2258 52.6959 83.6163 52.2998L79.7108 49.7723C79.1026 49.3788 78.8828 48.5946 79.1984 47.9414L80.6155 45.0241ZM92.1158 44.1164C94.9503 42.6768 96.0761 39.2212 94.6315 36.3944C93.1869 33.5675 89.721 32.444 86.8865 33.8836C84.052 35.3232 82.9262 38.7788 84.3708 41.6056C85.8154 44.4324 89.2813 45.556 92.1158 44.1164Z" fill="#FF9090"/>
<path d="M120.616 38.1979C120.616 38.1979 108 44.7722 108 60.7022C108 74.8622 117.336 75.4943 124.779 76H130.203C137.647 75.4943 146.982 73.5979 146.982 59.4379C146.982 43.5079 133.862 38.0715 133.862 38.0715H120.616V38.1979Z" fill="white" stroke="#1369FA" stroke-width="3" stroke-miterlimit="10" stroke-linecap="round" stroke-linejoin="round"/>
<path d="M133.544 38.0715L137.5 29.6429H117.482L120.958 38.0715H133.544Z" fill="white" stroke="#1369FA" stroke-width="3" stroke-miterlimit="10" stroke-linecap="round" stroke-linejoin="round"/>
<path d="M119.589 51.7679L123.854 64.4107L128.118 52.0087L131.63 64.4107L135.393 52.1291" fill="white"/>
<path d="M119.589 51.7679L123.854 64.4107L128.118 52.0087L131.63 64.4107L135.393 52.1291" stroke="#1369FA" stroke-width="3" stroke-miterlimit="10" stroke-linecap="round" stroke-linejoin="round"/>
<path d="M137.5 54.9286H118.536" stroke="#1369FA" stroke-width="3" stroke-miterlimit="10" stroke-linecap="round" stroke-linejoin="round"/>
<path d="M162.786 70.7322L162.786 51.7679" stroke="#FF9090" stroke-width="3" stroke-linecap="round" stroke-linejoin="round"/>
<path d="M158.571 55.9822L162.786 51.7679L167 55.9822" stroke="#FF9090" stroke-width="3" stroke-linecap="round" stroke-linejoin="round"/>
<path d="M154.357 62.3036L154.357 43.3393" stroke="#FF9090" stroke-width="3" stroke-linecap="round" stroke-linejoin="round"/>
<path d="M150.143 47.5536L154.357 43.3393L158.571 47.5536" stroke="#FF9090" stroke-width="3" stroke-linecap="round" stroke-linejoin="round"/>
<path d="M225.322 30.5871C226.873 29.087 229.334 29.087 230.885 30.5871L233.347 32.9695C234.234 33.8274 235.467 34.228 236.689 34.0552L240.081 33.5753C242.218 33.2732 244.209 34.7197 244.581 36.8448L245.173 40.2197C245.387 41.435 246.149 42.4838 247.238 43.0621L250.265 44.668C252.171 45.6792 252.932 48.0198 251.984 49.9581L250.479 53.0365C249.938 54.1449 249.938 55.4414 250.479 56.5498L251.984 59.6282C252.932 61.5665 252.171 63.9071 250.265 64.9183L247.238 66.5242C246.149 67.1025 245.387 68.1514 245.173 69.3666L244.581 72.7415C244.209 74.8666 242.218 76.3132 240.081 76.011L236.689 75.5311C235.467 75.3583 234.234 75.7589 233.347 76.6168L230.885 78.9992C229.334 80.4993 226.873 80.4993 225.322 78.9992L222.86 76.6168C221.973 75.7589 220.74 75.3583 219.518 75.5311L216.125 76.011C213.989 76.3132 211.998 74.8666 211.625 72.7415L211.033 69.3666C210.82 68.1514 210.058 67.1025 208.968 66.5242L205.942 64.9183C204.036 63.9071 203.275 61.5665 204.223 59.6282L205.727 56.5498C206.269 55.4414 206.269 54.1449 205.727 53.0365L204.223 49.9581C203.275 48.0198 204.036 45.6792 205.942 44.668L208.968 43.0621C210.058 42.4838 210.82 41.435 211.033 40.2197L211.625 36.8448C211.998 34.7197 213.989 33.2732 216.125 33.5753L219.518 34.0552C220.74 34.228 221.973 33.8274 222.86 32.9695L225.322 30.5871Z" fill="#FF9090"/>
<path d="M214.115 26.1043C215.666 24.6042 218.127 24.6042 219.678 26.1043L222.14 28.4867C223.027 29.3446 224.26 29.7452 225.482 29.5724L228.874 29.0925C231.011 28.7904 233.002 30.2369 233.375 32.362L233.967 35.7369C234.18 36.9522 234.942 38.001 236.032 38.5793L239.058 40.1852C240.964 41.1965 241.725 43.537 240.777 45.4754L239.273 48.5537C238.731 49.6621 238.731 50.9586 239.273 52.067L240.777 55.1454C241.725 57.0837 240.964 59.4243 239.058 60.4355L236.032 62.0415C234.942 62.6197 234.18 63.6686 233.967 64.8838L233.375 68.2587C233.002 70.3838 231.011 71.8304 228.874 71.5282L225.482 71.0483C224.26 70.8755 223.027 71.2762 222.14 72.134L219.678 74.5164C218.127 76.0165 215.666 76.0165 214.115 74.5164L211.653 72.134C210.766 71.2762 209.533 70.8755 208.311 71.0483L204.919 71.5282C202.782 71.8304 200.791 70.3838 200.419 68.2587L199.827 64.8838C199.613 63.6686 198.851 62.6197 197.761 62.0415L194.735 60.4355C192.829 59.4243 192.068 57.0837 193.016 55.1454L194.521 52.067C195.062 50.9586 195.062 49.6621 194.521 48.5537L193.016 45.4754C192.068 43.537 192.829 41.1965 194.735 40.1852L197.761 38.5793C198.851 38.001 199.613 36.9522 199.827 35.7369L200.419 32.362C200.791 30.2369 202.782 28.7904 204.919 29.0925L208.311 29.5724C209.533 29.7452 210.766 29.3446 211.653 28.4867L214.115 26.1043Z" fill="white" stroke="#1369FA" stroke-width="3" stroke-linejoin="round"/>
<path d="M206.81 42.4655L211.951 58.1552L217.092 42.7644L221.326 58.1552L225.862 42.9138" fill="white"/>
<path d="M206.81 42.4655L211.951 58.1552L217.092 42.7644L221.326 58.1552L225.862 42.9138" stroke="#1369FA" stroke-width="3" stroke-miterlimit="10" stroke-linecap="round" stroke-linejoin="round"/>
<path d="M228.103 46.9483H205.69" stroke="#1369FA" stroke-width="3" stroke-miterlimit="10" stroke-linecap="round" stroke-linejoin="round"/>
<path d="M319 74H307V82H319V74Z" stroke="#1369FA" stroke-width="3" stroke-miterlimit="10" stroke-linecap="round" stroke-linejoin="round"/>
<path d="M289.613 36H288C285.791 36 284 37.7909 284 40V70C284 72.2091 285.791 74 288 74H338C340.209 74 342 72.2091 342 70V40C342 37.7909 340.209 36 338 36H322.355" stroke="#1369FA" stroke-width="3" stroke-linecap="round"/>
<path d="M301 82H325" stroke="#1369FA" stroke-width="3" stroke-miterlimit="10" stroke-linecap="round" stroke-linejoin="round"/>
<path d="M284 69H342V70C342 72.2091 340.209 74 338 74H288C285.791 74 284 72.2091 284 70V69Z" stroke="#1369FA" stroke-width="3"/>
<path d="M298.035 39.8787C297.809 39.5467 297.565 39.2298 297.377 38.8621C297.188 38.4944 297.073 38.1123 296.935 37.7362L294.064 37.2265C293.423 37.1131 292.969 36.5433 293.002 35.8965L293.221 31.7577C293.256 31.1132 293.768 30.5924 294.416 30.5464L297.313 30.3383C297.669 29.6031 298.088 28.9019 298.626 28.2732L297.653 25.5979C297.433 24.9896 297.701 24.3136 298.28 24.0205L301.999 22.1395C302.578 21.8464 303.289 22.0281 303.653 22.563L305.261 24.9173C306.091 24.8539 306.911 24.9316 307.717 25.0758L309.588 22.8726C310.009 22.3777 310.733 22.2703 311.279 22.624L314.779 24.8819C315.324 25.2332 315.521 25.9334 315.238 26.5166L313.965 29.1225C314.193 29.4533 314.437 29.7702 314.625 30.1379C314.814 30.5056 314.929 30.8877 315.067 31.2638L317.936 31.7747C318.577 31.8881 319.033 32.4567 318.998 33.1047L318.781 37.2423C318.746 37.8868 318.234 38.4076 317.586 38.4536L314.688 38.6594C314.332 39.3946 313.913 40.0958 313.375 40.7245L314.348 43.3998C314.569 44.0104 314.302 44.6864 313.722 44.9795L310.003 46.8605C309.424 47.1536 308.713 46.9719 308.349 46.437L306.741 44.0827C305.913 44.1449 305.092 44.0684 304.287 43.923L302.414 46.1274C301.996 46.6212 301.271 46.7285 300.725 46.3748L297.223 44.1181C296.678 43.7668 296.481 43.0666 296.764 42.4834L298.035 39.8787ZM308.345 39.0682C310.886 37.7829 311.896 34.6975 310.601 32.1735C309.306 29.6496 306.198 28.6464 303.657 29.9318C301.116 31.2171 300.106 34.3025 301.401 36.8265C302.697 39.3504 305.804 40.3536 308.345 39.0682Z" fill="#FF9090"/>
<path d="M307 54.4286L311.174 59L319 51" stroke="#FF9090" stroke-width="3" stroke-linecap="round" stroke-linejoin="round"/>
<path d="M395.276 40.3318C395.276 40.3318 389.286 31.3456 384.217 31C384.217 31 385.945 41.1382 384.217 43.6728" stroke="#1369FA" stroke-width="3" stroke-miterlimit="10" stroke-linecap="round" stroke-linejoin="round"/>
<path d="M394.124 37.7973C395.392 37.4516 396.774 37.106 398.041 36.8756C398.041 36.8756 410.599 35.2627 418.203 37.3364C427.534 39.871 432.604 47.0138 432.604 54.8479C432.604 68.0968 424.654 80.7695 424.654 80.7695H415.899V74.7788C406.221 81.6912 396.083 74.894 396.083 74.894V81H387.558C387.558 81 385.599 72.3594 385.023 69.8249C383.871 64.9862 375 61.9908 375 61.9908V49.7788C376.613 49.0876 380.415 49.0876 381.797 47.8203C383.525 44.5945 384.447 43.0968 384.447 43.0968" stroke="#1369FA" stroke-width="3" stroke-miterlimit="10" stroke-linecap="round" stroke-linejoin="round"/>
<path d="M384.447 50.9309C384.447 51.7373 385.138 52.4286 385.945 52.4286C386.751 52.4286 387.442 51.7373 387.442 50.9309C387.442 50.1244 386.751 49.4332 385.945 49.4332C385.138 49.4332 384.447 50.1244 384.447 50.9309Z" fill="#1369FA" stroke="#1369FA" stroke-miterlimit="10"/>
<path d="M432.674 58.1705C434.343 59.6977 436.074 60.9658 438.357 60.8446C442.992 60.5985 442.224 54.1399 440.053 52.9076C436.933 51.1362 435.712 55.3027 437.883 57.6152C440.053 59.9276 442.81 60.9491 444.615 59.0318C446.057 57.5007 446.057 55.2041 444.615 52.9075" stroke="#1369FA" stroke-width="3" stroke-linecap="round" stroke-linejoin="round"/>
<path d="M426 35C426 42.2091 420.209 48 413 48C405.791 48 400 42.2091 400 35C400 27.7909 405.791 22 413 22C420.091 22 426 27.7909 426 35Z" fill="#FF9090"/>
<path fill-rule="evenodd" clip-rule="evenodd" d="M410.991 28.3818H415.009V32.991H419.618V37.0091H415.009V41.6181H410.991V37.0091H406.382V32.991H410.991V28.3818Z" fill="white"/>
<rect opacity="0.3" x="468.75" y="33.75" width="56.25" height="45" rx="8" fill="#FF9090"/>
<rect x="462" y="27" width="56.25" height="45" rx="6" fill="white" stroke="#1369FA" stroke-width="3"/>
<path d="M469.012 35.8685C470.037 35.8685 470.868 35.0375 470.868 34.0124C470.868 32.9873 470.037 32.1563 469.012 32.1563C467.987 32.1563 467.156 32.9873 467.156 34.0124C467.156 35.0375 467.987 35.8685 469.012 35.8685Z" fill="#1369FA"/>
<path d="M474.46 35.8685C475.485 35.8685 476.316 35.0375 476.316 34.0124C476.316 32.9873 475.485 32.1563 474.46 32.1563C473.435 32.1563 472.604 32.9873 472.604 34.0124C472.604 35.0375 473.435 35.8685 474.46 35.8685Z" fill="#1369FA"/>
<path d="M479.908 35.8685C480.933 35.8685 481.764 35.0375 481.764 34.0124C481.764 32.9873 480.933 32.1563 479.908 32.1563C478.883 32.1563 478.052 32.9873 478.052 34.0124C478.052 35.0375 478.883 35.8685 479.908 35.8685Z" fill="#1369FA"/>
<path d="M501.375 63V60.375C501.375 57.4755 498.857 55.125 495.75 55.125H484.5C481.393 55.125 478.875 57.4755 478.875 60.375V63" stroke="#FF9090" stroke-width="3" stroke-linecap="round" stroke-linejoin="round"/>
<path fill-rule="evenodd" clip-rule="evenodd" d="M490.125 49.5C493.232 49.5 495.75 46.9816 495.75 43.875C495.75 40.7684 493.232 38.25 490.125 38.25C487.018 38.25 484.5 40.7684 484.5 43.875C484.5 46.9816 487.018 49.5 490.125 49.5Z" stroke="#FF9090" stroke-width="3" stroke-linecap="round" stroke-linejoin="round"/>
<path opacity="0.3" d="M606 39H551C549.895 39 549 39.8954 549 41V75C549 76.1046 549.895 77 551 77H606C607.105 77 608 76.1046 608 75V41C608 39.8954 607.105 39 606 39Z" fill="#FF9090"/>
<path d="M602 33H543V71H602V33Z" fill="white" stroke="#1369FA" stroke-width="3" stroke-miterlimit="10" stroke-linecap="round" stroke-linejoin="round"/>
<path d="M577 46H593" stroke="#1369FA" stroke-width="3" stroke-miterlimit="10" stroke-linecap="round" stroke-linejoin="round"/>
<path d="M577 53H593" stroke="#1369FA" stroke-width="3" stroke-miterlimit="10" stroke-linecap="round" stroke-linejoin="round"/>
<path d="M577 60H593" stroke="#1369FA" stroke-width="3" stroke-miterlimit="10" stroke-linecap="round" stroke-linejoin="round"/>
<path d="M551 62V59.1136C551 56.2727 553.828 54 557.364 54H558.636C562.172 54 565 56.2727 565 59.1136V62" stroke="#FF9090" stroke-width="2.5" stroke-miterlimit="10" stroke-linecap="round" stroke-linejoin="round"/>
<path d="M562 48C562 50.1429 560.143 52 558 52C555.857 52 554 50.1429 554 48C554 45.8571 555.857 44 558 44C560.286 44.1429 562 45.8571 562 48Z" stroke="#FF9090" stroke-width="2.5" stroke-miterlimit="10" stroke-linecap="round" stroke-linejoin="round"/>
<path d="M578 36.5652C578 37.9565 576.817 39 575.371 39H570.77C569.193 39 568.01 37.8406 568.01 36.5652V25.4348C567.879 24.1594 569.062 23 570.639 23H575.24C576.817 23 578 24.1594 578 25.4348V36.5652Z" fill="#FF9090"/>
<rect opacity="0.3" x="628.75" y="33.75" width="56.25" height="45" rx="8" fill="#FF9090"/>
<rect x="622" y="27" width="56.25" height="45" rx="6" fill="white" stroke="#1369FA" stroke-width="3"/>
<path d="M629.012 35.8685C630.037 35.8685 630.868 35.0375 630.868 34.0124C630.868 32.9873 630.037 32.1563 629.012 32.1563C627.987 32.1563 627.156 32.9873 627.156 34.0124C627.156 35.0375 627.987 35.8685 629.012 35.8685Z" fill="#1369FA"/>
<path d="M634.46 35.8685C635.485 35.8685 636.316 35.0375 636.316 34.0124C636.316 32.9873 635.485 32.1563 634.46 32.1563C633.435 32.1563 632.604 32.9873 632.604 34.0124C632.604 35.0375 633.435 35.8685 634.46 35.8685Z" fill="#1369FA"/>
<path d="M639.908 35.8685C640.933 35.8685 641.764 35.0375 641.764 34.0124C641.764 32.9873 640.933 32.1563 639.908 32.1563C638.883 32.1563 638.052 32.9873 638.052 34.0124C638.052 35.0375 638.883 35.8685 639.908 35.8685Z" fill="#1369FA"/>
<path d="M639.397 46C639.638 46 639.759 46.1222 639.879 46.2444C640 46.3667 640 46.6111 640 46.8556C640 47.1 640 47.2222 639.879 47.4667C639.759 47.5889 639.638 47.5889 639.397 47.5889H634.931V50.6444H639.034C639.276 50.6444 639.397 50.7667 639.517 50.8889C639.638 51.0111 639.638 51.2556 639.638 51.5C639.638 51.7444 639.638 51.8667 639.517 52.1111C639.517 52.2333 639.276 52.3556 639.034 52.3556H634.931V56.1444C634.931 56.3889 634.81 56.6333 634.69 56.7556C634.448 56.8778 634.207 57 633.966 57C633.724 57 633.483 56.8778 633.241 56.7556C633.121 56.6333 633 56.3889 633 56.1444V47.2222C633 46.7333 633.121 46.3667 633.241 46.2444C633.483 46.1222 633.845 46 634.328 46H639.397Z" fill="#FF9090" stroke="#FF9090" stroke-width="0.5"/>
<path d="M645.914 46C647 46 647.966 46.2444 648.569 46.8556C649.172 47.4667 649.535 48.2 649.535 49.1778V49.4222C649.535 50.1556 649.414 50.7667 649.052 51.1333C648.69 51.6222 648.328 51.9889 647.724 52.2333L649.655 55.6556C649.776 55.9 649.776 56.1444 649.776 56.3889C649.655 56.6333 649.535 56.7556 649.293 56.8778C648.81 56.8778 648.569 57 648.328 57C648.086 57 647.845 56.8778 647.724 56.5111L645.672 52.4778H645.552H645.431H643.741V56.0222C643.741 56.2667 643.621 56.5111 643.5 56.6333C643.259 56.8778 643.017 57 642.776 57C642.535 57 642.172 56.8778 642.052 56.7556C641.81 56.6333 641.81 56.3889 641.81 56.1444V47.2222C641.81 46.7333 641.931 46.3667 642.052 46.2444C642.172 46.1222 642.535 46 643.017 46H645.914ZM643.741 50.8889H645.552C646.276 50.8889 646.759 50.7667 647.121 50.5222C647.362 50.2778 647.483 49.9111 647.483 49.4222V49.1778C647.483 48.6889 647.362 48.3222 647 48.0778C646.759 47.8333 646.276 47.7111 645.552 47.7111H643.741V50.8889Z" fill="#FF9090" stroke="#FF9090" stroke-width="0.5"/>
<path d="M658.103 46C658.345 46 658.466 46.1222 658.586 46.2444C658.707 46.3667 658.707 46.6111 658.707 46.8556C658.707 47.1 658.707 47.2222 658.586 47.4667C658.466 47.5889 658.345 47.7111 658.103 47.7111H653.638V50.6444H657.862C658.103 50.6444 658.224 50.7667 658.345 50.8889C658.466 51.0111 658.466 51.2556 658.466 51.5C658.466 51.7444 658.466 51.8667 658.345 52.1111C658.224 51.9889 657.983 52.1111 657.862 52.1111H653.638V55.2889H658.224C658.466 55.2889 658.586 55.4111 658.707 55.5333C658.828 55.6556 658.828 55.9 658.828 56.1444C658.828 56.3889 658.828 56.5111 658.707 56.7556C658.586 57 658.466 57 658.224 57H653.034C652.552 57 652.19 56.8778 652.069 56.7556C651.828 56.5111 651.828 56.2667 651.828 55.7778V47.2222C651.828 46.7333 651.948 46.3667 652.069 46.2444C652.19 46.1222 652.552 46 653.034 46H658.103Z" fill="#FF9090" stroke="#FF9090" stroke-width="0.5"/>
<path d="M667.276 46C667.517 46 667.638 46.1222 667.759 46.2444C667.879 46.3667 668 46.6111 668 46.8556C668 47.1 668 47.2222 667.879 47.4667C667.759 47.5889 667.638 47.7111 667.397 47.7111H662.931V50.6444H667.155C667.397 50.6444 667.517 50.7667 667.638 50.8889C667.759 51.0111 667.759 51.2556 667.759 51.5C667.759 51.7444 667.759 51.8667 667.638 52.1111C667.397 51.9889 667.155 52.1111 667.034 52.1111H662.81V55.2889H667.397C667.638 55.2889 667.759 55.4111 667.879 55.5333C668 55.6556 668 55.7778 668 56.0222C668 56.2667 668 56.3889 667.879 56.6333C667.759 56.8778 667.638 56.8778 667.397 56.8778H662.207C661.724 56.8778 661.362 56.7556 661.241 56.6333C661 56.3889 661 56.1444 661 55.6556V47.2222C661 46.7333 661.121 46.3667 661.241 46.2444C661.362 46.1222 661.603 46 662.086 46H667.276Z" fill="#FF9090" stroke="#FF9090" stroke-width="0.5"/>
<rect opacity="0.3" x="37" y="140" width="48" height="36" rx="5" fill="#FFC036"/>
<rect x="27" y="133" width="48" height="36" rx="5" fill="white" stroke="#454F5D" stroke-width="3" stroke-linejoin="round"/>
<rect x="20.625" y="143.625" width="60.75" height="6.75" rx="3.375" fill="#FFC036" stroke="#FFC036" stroke-width="1.25"/>
<path opacity="0.3" d="M154.333 184H131.667C128.493 184 126 181.678 126 178.722V132.278C126 129.322 128.493 127 131.667 127H154.333C157.507 127 160 129.322 160 132.278V178.722C160 181.678 157.507 184 154.333 184Z" fill="#FFC036"/>
<path d="M147.333 180H124.667C121.493 180 119 177.678 119 174.722V128.278C119 125.322 121.493 123 124.667 123H147.333C150.507 123 153 125.322 153 128.278V174.722C153 177.678 150.507 180 147.333 180Z" fill="white" stroke="#454F5D" stroke-width="3" stroke-miterlimit="10" stroke-linecap="round" stroke-linejoin="round"/>
<line x1="129.5" y1="125.5" x2="142.5" y2="125.5" stroke="#454F5D" stroke-width="3" stroke-linecap="round" stroke-linejoin="round"/>
<path d="M128 145L132.317 158L136.635 145.248L140.19 158L144 145.371" stroke="#FFC036" stroke-width="3" stroke-miterlimit="10" stroke-linecap="round" stroke-linejoin="round"/>
<path d="M146 149H127" stroke="#FFC036" stroke-width="3" stroke-miterlimit="10" stroke-linecap="round" stroke-linejoin="round"/>
<rect x="190" y="135" width="65" height="36" rx="18" fill="#FFEB00"/>
<path fill-rule="evenodd" clip-rule="evenodd" d="M205.514 147C201.601 147 198.429 149.479 198.429 152.536C198.429 154.37 199.574 155.994 201.334 157.002L200.5 160.083C200.42 160.378 200.754 160.613 201.01 160.443L204.628 158.026C204.919 158.055 205.214 158.071 205.514 158.071C209.427 158.071 212.599 155.593 212.599 152.536C212.599 149.479 209.427 147 205.514 147ZM218.875 149.649V155.704C219.025 155.723 219.399 155.76 219.755 155.76C221.702 155.76 222.451 154.408 222.451 152.278C222.451 150.408 221.945 149.278 220.391 149.278C219.886 149.278 219.324 149.426 218.875 149.649ZM218.875 157.593V161.36H216.142V147.389H218.07L218.407 148.278C218.987 147.704 219.867 147.093 221.291 147.093C223.969 147.093 225.241 149.074 225.223 152.278C225.223 155.63 223.257 157.778 220.447 157.778C219.905 157.778 219.494 157.74 218.875 157.593ZM232.3 154.901V153.05H231.045C229.641 153.05 228.929 153.55 228.929 154.55C228.929 155.308 229.322 155.679 230.128 155.679C230.876 155.679 231.831 155.308 232.3 154.901ZM230.745 151.327H232.3V150.994C232.3 149.883 231.663 149.364 230.558 149.364C229.716 149.364 228.629 149.605 227.75 150.031L227.001 148.216C227.975 147.55 229.472 147.087 230.801 147.087C233.423 147.087 234.847 148.457 234.847 151.068V157.494H232.917L232.636 156.642C231.532 157.438 230.521 157.772 229.603 157.772C227.6 157.772 226.476 156.587 226.476 154.587C226.476 152.457 227.975 151.327 230.745 151.327V151.327ZM243.002 156.63C242.047 159.149 240.905 160.981 239.238 162L237.554 160.463C238.527 159.63 239.22 158.815 239.819 157.722L236.186 147.926L238.902 147.204L241.223 155.148L243.526 147.167L246.204 147.908L243.002 156.63V156.63Z" fill="black"/>
<path d="M317 139H279V167H317V139Z" stroke="#454F5D" stroke-width="3" stroke-miterlimit="10" stroke-linecap="round" stroke-linejoin="round"/>
<path d="M317 139L298.209 155.447L279.279 139H317Z" stroke="#454F5D" stroke-width="3" stroke-miterlimit="10" stroke-linecap="round" stroke-linejoin="round"/>
<path d="M279.279 167L294.311 153.408" stroke="#454F5D" stroke-width="3" stroke-miterlimit="10" stroke-linecap="round" stroke-linejoin="round"/>
<path d="M301.967 153.272L317 167" stroke="#454F5D" stroke-width="3" stroke-miterlimit="10" stroke-linecap="round" stroke-linejoin="round"/>
<path d="M322 145H334" stroke="#FFC036" stroke-width="3" stroke-miterlimit="10" stroke-linecap="round" stroke-linejoin="round"/>
<path d="M322 161H329" stroke="#FFC036" stroke-width="3" stroke-miterlimit="10" stroke-linecap="round" stroke-linejoin="round"/>
<path d="M322 153H330" stroke="#FFC036" stroke-width="3" stroke-miterlimit="10" stroke-linecap="round" stroke-linejoin="round"/>
<path d="M334 153H336" stroke="#FFC036" stroke-width="3" stroke-miterlimit="10" stroke-linecap="round" stroke-linejoin="round"/>
<path d="M415.465 181H369.591C366.51 181 364 178.492 364 175.414V129.586C364 126.508 366.51 124 369.591 124H415.408C418.489 124 420.999 126.508 420.999 129.586V175.357C421.056 178.492 418.546 181 415.465 181Z" fill="#FFEB00"/>
<path d="M392.5 135C381.712 135 373 141.923 373 150.404C373 155.942 376.692 160.788 382.231 163.5C381.827 165 380.731 169.038 380.558 169.846C380.269 170.885 380.962 170.885 381.365 170.596C381.712 170.365 386.731 166.962 388.865 165.519C390.019 165.692 391.231 165.808 392.5 165.808C403.288 165.808 412 158.885 412 150.404C412 141.923 403.288 135 392.5 135Z" fill="#381E1F"/>
<path d="M385.231 146.423C383.788 146.423 379.058 146.538 379.058 146.538C377.846 146.538 377.846 148.615 379.058 148.615H381.077C381.077 148.615 381.077 154.038 381.077 155.365C381.077 156.288 383.212 156.231 383.212 155.308V148.442C383.212 148.442 383.904 148.442 385.231 148.442C386.5 148.442 386.5 146.423 385.231 146.423Z" fill="#FFEB00"/>
<path d="M389.962 147.058C389.673 146.423 387.942 146.077 387.481 147.058C386.962 148.154 385.173 153.346 384.596 154.731C384.135 155.711 386.038 156.519 386.442 155.538L386.846 154.096H390.538C390.538 154.096 390.423 154.154 390.885 155.481C391.288 156.519 393.192 155.827 392.788 154.731C392.327 153.231 390.308 147.808 389.962 147.058ZM387.538 152.25L388.75 148.731L389.904 152.25H387.538Z" fill="#FFEB00"/>
<path d="M398.5 153.923C397.519 153.923 395.788 153.923 395.788 153.923C395.788 153.923 395.788 148.673 395.788 147.404C395.788 146.192 393.596 146.192 393.596 147.404C393.596 149.192 393.596 154.846 393.596 154.846C393.596 154.846 393.423 156 394.404 156C395.385 156 397.519 156 398.5 156C399.481 156 399.423 153.923 398.5 153.923Z" fill="#FFEB00"/>
<path d="M406.75 154.5L403.923 150.75C403.923 150.75 405.827 148.673 406.635 147.923C407.096 147.462 405.712 146.077 405.25 146.538C404.846 146.942 401.788 150 401.788 150C401.788 150 401.788 148.096 401.788 147.058C401.788 146.25 399.712 146.308 399.712 147.115C399.712 147.865 399.712 154.904 399.712 155.423C399.712 156.231 401.788 156.231 401.788 155.423C401.788 154.5 401.788 152.654 401.788 152.654L402.423 152.135L405.077 155.769C405.596 156.519 407.269 155.25 406.75 154.5Z" fill="#FFEB00"/>
<path d="M485 172V168C485 163 481 159 476 159H458C453 159 449 163 449 168V172" stroke="#454F5D" stroke-width="3" stroke-miterlimit="10" stroke-linecap="round" stroke-linejoin="round"/>
<path d="M467 152C471.971 152 476 147.971 476 143C476 138.029 471.971 134 467 134C462.029 134 458 138.029 458 143C458 147.971 462.029 152 467 152Z" stroke="#454F5D" stroke-width="3" stroke-miterlimit="10"/>
<path fill-rule="evenodd" clip-rule="evenodd" d="M495 143.5C494.2 143.5 493.5 144.2 493.5 145V148.5H490H489.9C489.1 148.6 488.5 149.2 488.5 150C488.5 150.8 489.2 151.5 490 151.5H493.5V155V155.1C493.6 155.9 494.2 156.5 495 156.5C495.8 156.5 496.5 155.8 496.5 155V151.5H500H500.1C500.9 151.4 501.5 150.8 501.5 150C501.5 149.2 500.8 148.5 500 148.5H496.5V145V144.9C496.4 144.1 495.8 143.5 495 143.5ZM495 138C501.6 138 507 143.4 507 150C507 156.6 501.6 162 495 162C488.4 162 483 156.6 483 150C483 143.4 488.4 138 495 138Z" fill="#FFC036"/>
<path d="M582.688 160L587 175.943C587 178 585.732 178 584.083 178H537.917C536.268 178 535 178 535 175.943L539.312 160H582.688Z" stroke="#454F5D" stroke-width="3" stroke-miterlimit="10" stroke-linecap="round" stroke-linejoin="round"/>
<path d="M554 160L551 178" stroke="#454F5D" stroke-width="3" stroke-miterlimit="10" stroke-linecap="round" stroke-linejoin="round"/>
<path d="M568 160L571 178" stroke="#454F5D" stroke-width="3" stroke-miterlimit="10" stroke-linecap="round" stroke-linejoin="round"/>
<path d="M583 160V135.055C583 133.273 581.743 132 580.109 132H541.891C540.257 132 539 133.4 539 135.055V160" stroke="#454F5D" stroke-width="3" stroke-miterlimit="10" stroke-linecap="round" stroke-linejoin="round"/>
<path d="M547 147H563" stroke="#454F5D" stroke-width="3" stroke-miterlimit="10" stroke-linecap="round" stroke-linejoin="round"/>
<path d="M547 152H568" stroke="#454F5D" stroke-width="3" stroke-miterlimit="10" stroke-linecap="round" stroke-linejoin="round"/>
<path d="M590 136.5C590 143.4 584.4 149 577.5 149C570.6 149 565 143.4 565 136.5C565 129.6 570.6 124 577.5 124C584.4 124 590 129.6 590 136.5Z" fill="#FFC036"/>
<path d="M571 132L574.467 143L577.933 132.138L580.822 143L584 132.413" stroke="white" stroke-width="2.5" stroke-miterlimit="10" stroke-linecap="round" stroke-linejoin="round"/>
<path d="M585 136H570" stroke="white" stroke-width="2.5" stroke-miterlimit="10" stroke-linecap="round" stroke-linejoin="round"/>
<path d="M586 248.92H539.164V279H586V248.92Z" fill="white" stroke="#454F5D" stroke-width="3" stroke-miterlimit="10" stroke-linejoin="round"/>
<path d="M562.418 258.2L585.836 279H539.164L562.418 258.2Z" fill="white" stroke="#454F5D" stroke-width="3" stroke-miterlimit="10" stroke-linejoin="round"/>
<path d="M585.836 248.92L578.467 255.48L562.418 269.72L546.533 255.48L539 248.92L546.533 242.36L562.418 228.12L578.467 242.36L585.836 248.92Z" fill="white" stroke="#454F5D" stroke-width="3" stroke-miterlimit="10" stroke-linejoin="round"/>
<path d="M578.467 227V255.48L562.418 269.72L546.533 255.48V227H578.467Z" fill="white" stroke="#454F5D" stroke-width="3" stroke-miterlimit="10" stroke-linejoin="round"/>
<path d="M568 241H557C555.895 241 555 241.895 555 243V251C555 252.105 555.895 253 557 253H568C569.105 253 570 252.105 570 251V243C570 241.895 569.105 241 568 241Z" fill="#FFC036"/>
<path d="M566 243H559V239.889C559 237.75 560.537 236 562.415 236C564.293 236 565.829 237.75 565.829 239.889V243H566Z" stroke="#FFC036" stroke-width="3" stroke-miterlimit="10" stroke-linejoin="round"/>
<rect x="561" y="245" width="3" height="4" fill="white"/>
<path d="M621.943 163.011L625.372 160.979L621.943 158.989V163.011Z" fill="#064362"/>
<path d="M625.372 157L621.943 155.011L625.372 152.979V157Z" fill="#127B9A"/>
<path d="M621.943 150.989L625.372 152.979L621.943 155.011V150.989Z" fill="#115E7E"/>
<path d="M625.372 152.979L621.943 150.989L625.372 149V152.979Z" fill="#289784"/>
<path d="M625.372 165L628.844 163.011L625.372 160.979V165Z" fill="#4C296B"/>
<path d="M632.315 152.979L635.787 150.989L632.315 149V152.979Z" fill="#EA762D"/>
<path d="M632.315 157L635.787 155.011L632.315 152.979V157Z" fill="#C3282C"/>
<path d="M632.315 160.979L635.787 158.989L632.315 157V160.979Z" fill="#D33589"/>
<path d="M632.315 149L635.787 147.011L632.315 144.979V149Z" fill="#F0A140"/>
<path d="M625.372 144.979L628.844 142.989L625.372 141V144.979Z" fill="#8FC044"/>
<path d="M618.471 149L615 147.011L618.471 144.979V149Z" fill="#0C3522"/>
<path d="M621.943 142.989L618.471 144.979L621.943 147.011V142.989Z" fill="#165D30"/>
<path d="M618.471 149L621.943 147.011L618.471 144.979V149Z" fill="#0F5234"/>
<path d="M625.372 157L621.943 158.989L625.372 160.979V157Z" fill="#0A506E"/>
<path d="M621.943 158.989L625.372 157L621.943 155.01V158.989Z" fill="#115E7E"/>
<path d="M625.372 160.979L621.943 163.011L625.372 165V160.979Z" fill="#292862"/>
<path d="M621.943 142.989L625.372 144.979L621.943 147.011V142.989Z" fill="#156937"/>
<path d="M625.372 144.979L621.943 142.989L625.372 141V144.979Z" fill="#329648"/>
<path d="M628.844 142.989L625.372 144.979L628.844 147.011V142.989Z" fill="#C5C237"/>
<path d="M628.844 150.989L625.372 152.979L628.844 155.011V150.989Z" fill="#3BB9E4"/>
<path d="M625.372 152.979L628.844 150.989L625.372 149V152.979Z" fill="#21A0B4"/>
<path d="M625.372 157L628.844 155.011L625.372 152.979V157Z" fill="#21A0B4"/>
<path d="M628.844 158.989L625.372 160.979L628.844 163.011V158.989Z" fill="#6C276D"/>
<path d="M628.844 142.989L632.315 144.979L628.844 147.011V142.989Z" fill="#F5C329"/>
<path d="M632.315 149L628.844 147.011L632.315 144.979V149Z" fill="#F2B029"/>
<path d="M628.844 158.989L632.315 160.979L628.844 163.011V158.989Z" fill="#973C8D"/>
<path d="M632.315 160.979L628.844 158.989L632.315 157V160.979Z" fill="#B12479"/>
<path d="M635.787 147.011L632.315 149L635.787 150.989V147.011Z" fill="#ED8F3F"/>
<path d="M635.787 150.989L632.315 152.979L635.787 155.011V150.989Z" fill="#DA3A2E"/>
<path d="M635.787 155.01L632.315 157L635.787 158.989V155.01Z" fill="#A92242"/>
<path d="M615 158.989L618.471 157L615 155.01V158.989Z" fill="#064362"/>
<path d="M618.471 152.979L615 155.011L618.471 157V152.979Z" fill="#0A506E"/>
<path d="M615 155.011L618.471 152.979L615 150.989V155.011Z" fill="#115E7E"/>
<path d="M618.471 157L615 158.989L618.471 160.979V157Z" fill="#0D3756"/>
<path d="M618.471 149L615 150.989L618.471 152.979V149Z" fill="#1B6A8B"/>
<path d="M615 150.989L618.471 149L615 147.011V150.989Z" fill="#0C5967"/>
<path d="M650.604 151.37C650.604 153.698 648.868 155.391 646.497 155.391H644.846V158.439H641.798V147.391H646.497C648.868 147.391 650.604 149.085 650.604 151.37ZM647.471 151.37C647.471 150.566 646.963 150.016 646.159 150.016H644.889V152.682H646.159C646.921 152.725 647.471 152.175 647.471 151.37Z" fill="#242020"/>
<path d="M656.15 155.053H655.049V158.439H652.001V147.391H656.785C659.155 147.391 660.891 149 660.891 151.286C660.891 152.64 660.214 153.741 659.155 154.418L661.357 158.439H657.97L656.15 155.053ZM655.049 152.513H656.446C657.293 152.513 657.801 152.005 657.801 151.328C657.801 150.651 657.293 150.143 656.446 150.143H655.049V152.513Z" fill="#242020"/>
<path d="M668.088 158.735C664.532 158.735 661.992 156.323 661.992 152.937C661.992 149.55 664.532 147.138 668.088 147.138C671.644 147.138 674.142 149.55 674.142 152.937C674.142 156.323 671.602 158.735 668.088 158.735ZM668.088 155.899C669.782 155.899 671.009 154.672 671.009 152.937C671.009 151.201 669.782 149.974 668.088 149.974C666.395 149.974 665.167 151.243 665.167 152.937C665.167 154.63 666.395 155.899 668.088 155.899Z" fill="#242020"/>
<path d="M675.158 154.884H678.291C678.291 155.688 678.884 156.069 679.603 156.069C680.238 156.069 680.831 155.73 680.831 155.138C680.831 154.46 679.984 154.249 678.926 153.995C677.317 153.614 675.285 153.106 675.285 150.608C675.285 148.45 676.894 147.18 679.476 147.18C682.143 147.18 683.667 148.534 683.667 150.778H680.619C680.619 150.058 680.111 149.762 679.476 149.762C678.926 149.762 678.418 150.016 678.418 150.524C678.418 151.159 679.265 151.37 680.281 151.624C681.889 152.048 684.049 152.598 684.049 155.095C684.049 157.508 682.186 158.778 679.646 158.778C676.894 158.735 675.158 157.296 675.158 154.884Z" fill="#242020"/>
<path d="M692.854 155.815V158.439H685.657V147.391H692.727V150.016H688.663V151.624H692.304V154.122H688.663V155.815H692.854Z" fill="#242020"/>
<path d="M701.618 155.645V158.439H694.59V147.391H697.68V155.645H701.618Z" fill="#242020"/>
<path d="M710 155.645V158.439H702.972V147.391H706.063V155.645H710Z" fill="#242020"/>
<g clip-path="url(#clip0)">
<path d="M72.0795 281.076H29.9205V273.13C29.9205 265.368 36.1799 259.085 43.9121 259.085H57.9958C65.728 259.085 71.9874 265.368 71.9874 273.13V281.076H72.0795Z" fill="#3EAEFF" stroke="#454F5D" stroke-width="2" stroke-miterlimit="10" stroke-linecap="round" stroke-linejoin="round"/>
<path d="M57.4435 247.905H44.4644V259.085L51 267.216L57.4435 259.085V247.905Z" fill="#FFE8E1" stroke="#454F5D" stroke-width="2" stroke-miterlimit="10" stroke-linecap="round" stroke-linejoin="round"/>
<path d="M67.2008 233.306V238.665C67.2008 245.687 61.4937 251.416 54.4979 251.416H47.5021C40.5063 251.416 34.7992 245.687 34.7992 238.665V233.306C34.7992 232.844 34.7992 232.474 34.8912 232.012C35.5356 225.821 40.7824 220.924 47.1339 220.924H54.8661C56.6151 220.924 58.272 221.294 59.8368 221.94C64.1632 223.881 67.2008 228.224 67.2008 233.306Z" fill="#454F5D" stroke="#454F5D" stroke-width="2" stroke-miterlimit="10" stroke-linecap="round" stroke-linejoin="round"/>
<path d="M63.9791 240.698V243.932C63.9791 250.584 58.6402 256.313 51.6444 256.683C44.1883 256.96 38.0209 251.231 38.0209 244.209V240.513C38.0209 237.648 38.8494 234.876 40.3222 232.474H49.251C53.1172 232.474 57.4435 232.289 59.2845 229.332L61.4937 232.382C63.0586 234.876 63.9791 237.741 63.9791 240.698Z" fill="#FFE8E1" stroke="#454F5D" stroke-width="2" stroke-miterlimit="10" stroke-linecap="round" stroke-linejoin="round"/>
<path d="M54.9582 239.774V241.622" stroke="#454F5D" stroke-width="2" stroke-miterlimit="10" stroke-linecap="round" stroke-linejoin="round"/>
<path d="M46.9498 241.622V239.774" stroke="#454F5D" stroke-width="2" stroke-miterlimit="10" stroke-linecap="round" stroke-linejoin="round"/>
<path d="M54.59 248.736C54.3138 249.845 52.6569 250.677 51.7364 250.677H50.6318C49.6192 250.677 48.0544 249.753 47.8703 248.736" fill="#FFE8E1"/>
<path d="M54.59 248.736C54.3138 249.845 52.6569 250.677 51.7364 250.677H50.6318C49.6192 250.677 48.0544 249.753 47.8703 248.736" stroke="#454F5D" stroke-width="2" stroke-miterlimit="10" stroke-linecap="round" stroke-linejoin="round"/>
<path d="M59.2845 229.332C57.4435 232.382 53.2092 234.599 49.5272 234.599H40.5063C38.4812 234.599 36.6402 233.583 35.4435 232.104C34.523 230.903 33.9707 229.517 33.9707 227.946V220.924H54.9582C56.7071 220.924 58.272 221.294 59.8368 221.94" fill="#454F5D"/>
<path d="M59.2845 229.332C57.4435 232.382 53.2092 234.599 49.5272 234.599H40.5063C38.4812 234.599 36.6402 233.583 35.4435 232.104C34.523 230.903 33.9707 229.517 33.9707 227.946V220.924H54.9582C56.7071 220.924 58.272 221.294 59.8368 221.94" stroke="#454F5D" stroke-width="2" stroke-miterlimit="10" stroke-linecap="round" stroke-linejoin="round"/>
<path d="M38.0209 246.888L38.113 239.127H38.0209C36.0879 239.127 34.431 240.698 34.431 242.73V243.377C34.431 245.225 35.9958 246.888 38.0209 246.888Z" fill="#FFE8E1" stroke="#454F5D" stroke-width="2" stroke-miterlimit="10" stroke-linecap="round" stroke-linejoin="round"/>
<path d="M63.9791 246.888V239.127C65.9121 239.127 67.569 240.698 67.569 242.73V243.377C67.569 245.225 66.0042 246.888 63.9791 246.888Z" fill="#FFE8E1" stroke="#454F5D" stroke-width="2" stroke-miterlimit="10" stroke-linecap="round" stroke-linejoin="round"/>
<path d="M64.4393 259.177H37.5607C35.9958 259.177 34.7992 260.379 34.7992 261.949V281.076H67.2008V261.949C67.2008 260.379 65.9121 259.177 64.4393 259.177Z" fill="white" stroke="#454F5D" stroke-width="2" stroke-miterlimit="10" stroke-linecap="round" stroke-linejoin="round"/>
</g>
<g clip-path="url(#clip1)">
<path d="M156.08 281.088H113.921V273.247C113.921 265.588 120.18 259.388 127.912 259.388H141.996C149.728 259.388 155.987 265.588 155.987 273.247V281.088H156.08Z" fill="#FF9090" stroke="#454F5D" stroke-width="2" stroke-miterlimit="10" stroke-linecap="round" stroke-linejoin="round"/>
<path d="M151.201 234.041V239.33C151.201 246.259 151.937 259.388 144.941 259.388L125.519 259.571C118.523 259.571 118.799 246.259 118.799 239.33V234.041C118.799 233.585 118.799 233.221 118.891 232.765C119.536 226.565 124.782 220.912 131.134 220.912H138.958C145.678 220.912 151.201 229.027 151.201 234.041Z" fill="#725638" stroke="#454F5D" stroke-width="2" stroke-miterlimit="10" stroke-linecap="round" stroke-linejoin="round"/>
<path d="M141.444 248.356H128.464V259.388L135 265.679L141.444 259.388V248.356Z" fill="#FFE8E1" stroke="#454F5D" stroke-width="2" stroke-miterlimit="10" stroke-linecap="round" stroke-linejoin="round"/>
<path d="M122.021 241.244V244.435C122.021 251 127.36 256.653 134.356 257.018C141.812 257.291 147.979 251.73 147.979 244.709V241.062C147.979 239.421 147.703 237.871 147.151 236.412H122.849C122.297 237.962 122.021 239.603 122.021 241.244Z" fill="#FFE8E1" stroke="#454F5D" stroke-width="2" stroke-miterlimit="10" stroke-linecap="round" stroke-linejoin="round"/>
<path d="M138.958 240.332V242.156" stroke="#454F5D" stroke-width="2" stroke-miterlimit="10" stroke-linecap="round" stroke-linejoin="round"/>
<path d="M130.95 242.156V240.332" stroke="#454F5D" stroke-width="2" stroke-miterlimit="10" stroke-linecap="round" stroke-linejoin="round"/>
<path d="M138.59 249.268C138.314 250.362 136.657 251.182 135.736 251.182H134.632C133.619 251.182 132.054 250.271 131.87 249.268" fill="#FFE8E1"/>
<path d="M138.59 249.268C138.314 250.362 136.657 251.182 135.736 251.182H134.632C133.619 251.182 132.054 250.271 131.87 249.268" stroke="#454F5D" stroke-width="2" stroke-miterlimit="10" stroke-linecap="round" stroke-linejoin="round"/>
<path d="M122.021 247.353L122.113 239.694H122.021C120.088 239.694 118.431 241.244 118.431 243.25V243.888C118.431 245.803 119.996 247.353 122.021 247.353Z" fill="#FFE8E1" stroke="#454F5D" stroke-width="2" stroke-miterlimit="10" stroke-linecap="round" stroke-linejoin="round"/>
<path d="M147.979 247.353V239.694C149.912 239.694 151.569 241.244 151.569 243.25V243.888C151.569 245.803 150.004 247.353 147.979 247.353Z" fill="#FFE8E1" stroke="#454F5D" stroke-width="2" stroke-miterlimit="10" stroke-linecap="round" stroke-linejoin="round"/>
<path d="M129.293 265.497L128.464 259.388L134.908 265.68L132.791 267.138C131.502 268.05 129.569 267.23 129.293 265.497Z" fill="white" stroke="#454F5D" stroke-width="2" stroke-miterlimit="10" stroke-linecap="round" stroke-linejoin="round"/>
<path d="M140.707 265.497L141.536 259.388L135.092 265.68L137.209 267.138C138.498 268.05 140.431 267.23 140.707 265.497Z" fill="white" stroke="#454F5D" stroke-width="2" stroke-miterlimit="10" stroke-linecap="round" stroke-linejoin="round"/>
</g>
<g clip-path="url(#clip2)">
<path d="M242.08 281.088H199.921V273.247C199.921 265.588 206.18 259.388 213.912 259.388H227.996C235.728 259.388 241.987 265.588 241.987 273.247V281.088H242.08Z" fill="white" stroke="#454F5D" stroke-width="2" stroke-miterlimit="10" stroke-linecap="round" stroke-linejoin="round"/>
<path d="M227.444 248.356H214.464V259.388L221 265.679L227.444 259.388V248.356Z" fill="#FFE8E1" stroke="#454F5D" stroke-width="2" stroke-miterlimit="10" stroke-linecap="round" stroke-linejoin="round"/>
<path d="M237.201 234.041V239.33C237.201 246.259 231.494 251.912 224.498 251.912H217.502C210.506 251.912 204.799 246.259 204.799 239.33V234.041C204.799 233.585 204.799 233.221 204.891 232.765C205.536 226.565 210.782 220.912 217.134 220.912C217.134 220.912 222.657 220.912 224.958 220.912C231.678 220.912 237.201 229.027 237.201 234.041Z" fill="#454F5D" stroke="#454F5D" stroke-width="2" stroke-miterlimit="10" stroke-linecap="round" stroke-linejoin="round"/>
<path d="M233.979 241.244V244.435C233.979 251 228.64 256.653 221.644 257.018C214.188 257.382 208.021 251.729 208.021 244.8V241.153C208.021 238.327 208.849 235.591 210.322 233.221H216.398C220.264 233.221 224.13 232.491 224.958 230.668C226.431 232.491 231.402 233.129 231.402 233.129C233.059 235.5 233.979 238.327 233.979 241.244Z" fill="#FFE8E1" stroke="#454F5D" stroke-width="2" stroke-miterlimit="10" stroke-linecap="round" stroke-linejoin="round"/>
<path d="M224.958 240.332V242.156" stroke="#454F5D" stroke-width="2" stroke-miterlimit="10" stroke-linecap="round" stroke-linejoin="round"/>
<path d="M216.95 242.156V240.332" stroke="#454F5D" stroke-width="2" stroke-miterlimit="10" stroke-linecap="round" stroke-linejoin="round"/>
<path d="M224.59 249.268C224.314 250.362 222.657 251.182 221.736 251.182H220.632C219.619 251.182 218.054 250.271 217.87 249.268" fill="#FFE8E1"/>
<path d="M224.59 249.268C224.314 250.362 222.657 251.182 221.736 251.182H220.632C219.619 251.182 218.054 250.271 217.87 249.268" stroke="#454F5D" stroke-width="2" stroke-miterlimit="10" stroke-linecap="round" stroke-linejoin="round"/>
<path d="M208.021 247.353L208.113 239.694H208.021C206.088 239.694 204.431 241.244 204.431 243.25V243.888C204.431 245.803 205.996 247.353 208.021 247.353Z" fill="#FFE8E1" stroke="#454F5D" stroke-width="2" stroke-miterlimit="10" stroke-linecap="round" stroke-linejoin="round"/>
<path d="M233.979 247.353V239.694C235.912 239.694 237.569 241.244 237.569 243.25V243.888C237.569 245.803 236.004 247.353 233.979 247.353Z" fill="#FFE8E1" stroke="#454F5D" stroke-width="2" stroke-miterlimit="10" stroke-linecap="round" stroke-linejoin="round"/>
<path d="M215.845 269.235L214.464 259.388L221 265.68L215.845 269.235Z" fill="white" stroke="#454F5D" stroke-width="2" stroke-miterlimit="10" stroke-linecap="round" stroke-linejoin="round"/>
<path d="M226.155 269.235L227.444 259.388L221 265.68L226.155 269.235Z" fill="white" stroke="#454F5D" stroke-width="2" stroke-miterlimit="10" stroke-linecap="round" stroke-linejoin="round"/>
<path d="M219.343 271.606L217.778 267.868L221 265.68L224.222 267.868L222.381 271.606L223.485 281.088H218.515L219.343 271.606Z" fill="#B1BCCB" stroke="#454F5D" stroke-width="2" stroke-miterlimit="10" stroke-linecap="round" stroke-linejoin="round"/>
</g>
<rect opacity="0.2" x="38" y="337" width="48" height="36" rx="5" fill="#FF6161"/>
<rect x="28" y="330" width="48" height="36" rx="5" fill="white" stroke="#1369FA" stroke-width="3" stroke-linejoin="round"/>
<rect x="21" y="340" width="62" height="8" rx="4" fill="#FF9090"/>
<rect opacity="0.2" x="132" y="339" width="40" height="28" rx="5" fill="#FF6161"/>
<rect x="132" y="344.6" width="40" height="5.6" fill="#FF9090"/>
<path d="M151 353.75V348.164L145.231 346.875C144.8 345.242 144.198 343.695 143.337 342.32L146.523 337.422L142.562 333.469L137.654 336.648C136.19 335.789 134.64 335.102 133.004 334.672L131.798 329H126.202L124.996 334.672C123.36 335.102 121.81 335.703 120.346 336.648L115.438 333.469L111.477 337.422L114.663 342.32C113.802 343.695 113.2 345.242 112.769 346.875L107 348.164V353.75L112.855 355.039C113.286 356.586 113.888 358.133 114.75 359.508L111.477 364.578L115.438 368.531L120.519 365.266C121.896 366.039 123.36 366.641 124.91 367.07L126.202 373H131.798L133.09 367.07C134.64 366.641 136.104 366.039 137.481 365.266L142.562 368.531L146.523 364.578L143.25 359.508C144.112 358.133 144.714 356.672 145.145 355.125L151 353.75Z" fill="white" stroke="#1369FA" stroke-width="3" stroke-miterlimit="10" stroke-linejoin="round"/>
<path d="M123.392 355.697L119.078 351.815L123.392 347.932" stroke="#FF9090" stroke-width="3" stroke-linecap="round" stroke-linejoin="round"/>
<path d="M134.608 347.933L138.922 351.815L134.608 355.697" stroke="#FF9090" stroke-width="3" stroke-linecap="round" stroke-linejoin="round"/>
<line x1="131.526" y1="346.404" x2="127.536" y2="357.367" stroke="#FF9090" stroke-width="3" stroke-linecap="round"/>
<path d="M222.569 365.348H212.431V373H222.569V365.348Z" stroke="#1369FA" stroke-width="3" stroke-miterlimit="10" stroke-linecap="round" stroke-linejoin="round"/>
<path d="M197 365.348H238C240.209 365.348 242 363.557 242 361.348V357.217V333C242 330.791 240.209 329 238 329H225.403H197.742H197C194.791 329 193 330.791 193 333V361.348C193 363.557 194.791 365.348 197 365.348Z" fill="white" stroke="#1369FA" stroke-width="3" stroke-linecap="round"/>
<path d="M207.362 373H227.638" stroke="#1369FA" stroke-width="3" stroke-miterlimit="10" stroke-linecap="round" stroke-linejoin="round"/>
<path d="M193 360.565H242V361.348C242 363.557 240.209 365.348 238 365.348H197C194.791 365.348 193 363.557 193 361.348V360.565Z" stroke="#1369FA" stroke-width="3"/>
<path d="M236.5 373H250.5C252.46 373 254 371.533 254 369.667V340.333C254 338.467 252.46 337 250.5 337H236.5C234.54 337 233 338.467 233 340.333V362.66V369.667C233 371.533 234.54 373 236.5 373Z" fill="#FFDFDF" stroke="#FF9090" stroke-width="3" stroke-miterlimit="10" stroke-linecap="round" stroke-linejoin="round"/>
<line x1="239.5" y1="338.5" x2="247.5" y2="338.5" stroke="#FF9090" stroke-width="3" stroke-linecap="round" stroke-linejoin="round"/>
<rect x="282" y="330" width="50" height="42" rx="6" fill="white" stroke="#1369FA" stroke-width="3"/>
<line x1="291.5" y1="327.5" x2="291.5" y2="332.5" stroke="#1369FA" stroke-width="3" stroke-linecap="round"/>
<line x1="299.5" y1="327.5" x2="299.5" y2="332.5" stroke="#1369FA" stroke-width="3" stroke-linecap="round"/>
<line x1="307.5" y1="327.5" x2="307.5" y2="332.5" stroke="#1369FA" stroke-width="3" stroke-linecap="round"/>
<line x1="315.5" y1="327.5" x2="315.5" y2="332.5" stroke="#1369FA" stroke-width="3" stroke-linecap="round"/>
<line x1="323.5" y1="327.5" x2="323.5" y2="332.5" stroke="#1369FA" stroke-width="3" stroke-linecap="round"/>
<line x1="330.5" y1="338.5" x2="283.5" y2="338.5" stroke="#1369FA" stroke-width="3" stroke-linecap="round"/>
<rect opacity="0.7" x="288" y="343" width="10" height="10" rx="2" fill="#FF6161"/>
<rect opacity="0.2" x="288" y="357" width="10" height="10" rx="2" fill="#FF6161"/>
<rect opacity="0.2" x="302" y="343" width="10" height="10" rx="2" fill="#FF6161"/>
<rect opacity="0.2" x="302" y="357" width="10" height="10" rx="2" fill="#FF6161"/>
<rect opacity="0.2" x="316" y="343" width="10" height="10" rx="2" fill="#FF6161"/>
<rect opacity="0.2" x="316" y="357" width="10" height="10" rx="2" fill="#FF6161"/>
<path d="M381.219 330.691C382.77 329.19 385.23 329.19 386.781 330.691L388.528 332.38C389.415 333.238 390.648 333.639 391.869 333.466L394.275 333.126C396.412 332.823 398.403 334.27 398.775 336.395L399.195 338.789C399.408 340.004 400.171 341.053 401.26 341.631L403.407 342.77C405.313 343.781 406.073 346.122 405.126 348.06L404.059 350.243C403.517 351.352 403.517 352.648 404.059 353.757L405.126 355.94C406.073 357.878 405.313 360.219 403.407 361.23L401.26 362.369C400.171 362.947 399.408 363.996 399.195 365.211L398.775 367.605C398.403 369.73 396.412 371.177 394.275 370.874L391.869 370.534C390.648 370.361 389.415 370.762 388.528 371.62L386.781 373.309C385.23 374.81 382.77 374.81 381.219 373.309L379.472 371.62C378.585 370.762 377.352 370.361 376.131 370.534L373.725 370.874C371.588 371.177 369.597 369.73 369.225 367.605L368.805 365.211C368.592 363.996 367.829 362.947 366.74 362.369L364.593 361.23C362.687 360.219 361.927 357.878 362.874 355.94L363.941 353.757C364.483 352.648 364.483 351.352 363.941 350.243L362.874 348.06C361.927 346.122 362.687 343.781 364.593 342.77L366.74 341.631C367.829 341.053 368.592 340.004 368.805 338.789L369.225 336.395C369.597 334.27 371.588 332.823 373.725 333.126L376.131 333.466C377.352 333.639 378.585 333.238 379.472 332.38L381.219 330.691Z" fill="white" stroke="#1369FA" stroke-width="3" stroke-linejoin="round"/>
<circle opacity="0.7" cx="378.5" cy="346.5" r="2.5" fill="white" stroke="#FF6161" stroke-width="3"/>
<circle opacity="0.7" cx="389.5" cy="357.5" r="2.5" fill="white" stroke="#FF6161" stroke-width="3"/>
<line opacity="0.7" x1="376" y1="359.879" x2="392.263" y2="343.615" stroke="#FF6161" stroke-width="3" stroke-linecap="round"/>
<path d="M411 353L411 371" stroke="#FF9090" stroke-width="3" stroke-linecap="round" stroke-linejoin="round"/>
<path d="M415 367L411 371L407 367" stroke="#FF9090" stroke-width="3" stroke-linecap="round" stroke-linejoin="round"/>
<path d="M419 347L419 365" stroke="#FF9090" stroke-width="3" stroke-linecap="round" stroke-linejoin="round"/>
<path d="M423 361L419 365L415 361" stroke="#FF9090" stroke-width="3" stroke-linecap="round" stroke-linejoin="round"/>
<rect x="22" y="424" width="50" height="42" rx="6" fill="white" stroke="#1369FA" stroke-width="3"/>
<line x1="31.5" y1="421.5" x2="31.5" y2="426.5" stroke="#1369FA" stroke-width="3" stroke-linecap="round"/>
<line x1="39.5" y1="421.5" x2="39.5" y2="426.5" stroke="#1369FA" stroke-width="3" stroke-linecap="round"/>
<line x1="47.5" y1="421.5" x2="47.5" y2="426.5" stroke="#1369FA" stroke-width="3" stroke-linecap="round"/>
<line x1="55.5" y1="421.5" x2="55.5" y2="426.5" stroke="#1369FA" stroke-width="3" stroke-linecap="round"/>
<line x1="63.5" y1="421.5" x2="63.5" y2="426.5" stroke="#1369FA" stroke-width="3" stroke-linecap="round"/>
<line x1="70.5" y1="432.5" x2="23.5" y2="432.5" stroke="#1369FA" stroke-width="3" stroke-linecap="round"/>
<path opacity="0.7" d="M29.5536 456.53H34.9256C39.5156 456.53 42.3546 453.708 42.3546 449.611C42.3546 445.514 39.5156 442.675 34.9256 442.675H29.5536V456.53ZM32.6476 453.793V445.412H34.9766C37.6286 445.412 39.2606 446.942 39.2606 449.611C39.2606 452.28 37.6286 453.793 34.9766 453.793H32.6476ZM52.3898 448.37H49.5338V445.412H46.6948V448.37H43.8388V450.852H46.6948V453.81H49.5338V450.852H52.3898V448.37ZM58.7739 442.301C55.9349 442.301 53.9459 444.205 53.9459 446.84H56.9889C56.9889 445.854 57.5499 444.885 58.7569 444.885C59.9129 444.885 60.5929 445.514 60.5929 446.534C60.5929 447.588 59.8449 448.268 58.5869 448.268H57.2099V450.784H58.5869C60.0319 450.784 61.0009 451.396 61.0009 452.552C61.0009 453.572 60.1509 454.269 58.8759 454.269C57.5839 454.269 56.8869 453.606 56.7679 452.501H53.7249C53.9459 455.17 55.8329 456.87 58.8759 456.87C61.7489 456.87 64.0099 455.204 64.0099 452.535C64.0099 450.75 62.5819 449.645 61.3069 449.441C62.4629 449.237 63.6359 448.064 63.6359 446.466C63.6359 443.984 61.6469 442.301 58.7739 442.301Z" fill="#FF6161"/>
<path d="M83 461.733C83 464.09 78.9706 466 74 466C69.0294 466 65 464.09 65 461.733C65 460.254 65 458 65 458C65 458 68.5 460.667 74 460.667C79.5 460.667 83 458 83 458C83 458 83 460.459 83 461.733Z" fill="white" stroke="#FF9090" stroke-width="3" stroke-linejoin="round"/>
<path d="M83 456.733C83 459.09 78.9706 461 74 461C69.0294 461 65 459.09 65 456.733C65 455.254 65 453 65 453C65 453 68.5 455.667 74 455.667C79.5 455.667 83 453 83 453C83 453 83 455.459 83 456.733Z" fill="white" stroke="#FF9090" stroke-width="3" stroke-linejoin="round"/>
<path d="M83 451.733C83 454.09 78.9706 456 74 456C69.0294 456 65 454.09 65 451.733C65 450.254 65 448 65 448C65 448 68.5 450.667 74 450.667C79.5 450.667 83 448 83 448C83 448 83 450.459 83 451.733Z" fill="white" stroke="#FF9090" stroke-width="3" stroke-linejoin="round"/>
<ellipse cx="74" cy="447" rx="9" ry="4" fill="white" stroke="#FF9090" stroke-width="3"/>
<rect opacity="0.2" x="133" y="430" width="40" height="28" rx="5" fill="#FF6161"/>
<rect x="133" y="435.6" width="40" height="5.6" fill="#FF9090"/>
<rect x="107" y="424" width="50" height="42" rx="6" fill="white" stroke="#1369FA" stroke-width="3"/>
<line x1="116.5" y1="421.5" x2="116.5" y2="426.5" stroke="#1369FA" stroke-width="3" stroke-linecap="round"/>
<line x1="124.5" y1="421.5" x2="124.5" y2="426.5" stroke="#1369FA" stroke-width="3" stroke-linecap="round"/>
<line x1="132.5" y1="421.5" x2="132.5" y2="426.5" stroke="#1369FA" stroke-width="3" stroke-linecap="round"/>
<line x1="140.5" y1="421.5" x2="140.5" y2="426.5" stroke="#1369FA" stroke-width="3" stroke-linecap="round"/>
<line x1="148.5" y1="421.5" x2="148.5" y2="426.5" stroke="#1369FA" stroke-width="3" stroke-linecap="round"/>
<line x1="155.5" y1="432.5" x2="108.5" y2="432.5" stroke="#1369FA" stroke-width="3" stroke-linecap="round"/>
<path opacity="0.7" d="M114.554 456.53H119.926C124.516 456.53 127.355 453.708 127.355 449.611C127.355 445.514 124.516 442.675 119.926 442.675H114.554V456.53ZM117.648 453.793V445.412H119.977C122.629 445.412 124.261 446.942 124.261 449.611C124.261 452.28 122.629 453.793 119.977 453.793H117.648ZM137.39 448.37H134.534V445.412H131.695V448.37H128.839V450.852H131.695V453.81H134.534V450.852H137.39V448.37ZM143.774 442.301C140.935 442.301 138.946 444.205 138.946 446.84H141.989C141.989 445.854 142.55 444.885 143.757 444.885C144.913 444.885 145.593 445.514 145.593 446.534C145.593 447.588 144.845 448.268 143.587 448.268H142.21V450.784H143.587C145.032 450.784 146.001 451.396 146.001 452.552C146.001 453.572 145.151 454.269 143.876 454.269C142.584 454.269 141.887 453.606 141.768 452.501H138.725C138.946 455.17 140.833 456.87 143.876 456.87C146.749 456.87 149.01 455.204 149.01 452.535C149.01 450.75 147.582 449.645 146.307 449.441C147.463 449.237 148.636 448.064 148.636 446.466C148.636 443.984 146.647 442.301 143.774 442.301Z" fill="#FF6161"/>
<rect x="192" y="422" width="54" height="40" rx="6" fill="white" stroke="#1369FA" stroke-width="3"/>
<path d="M198.233 429.883C199.144 429.883 199.883 429.144 199.883 428.233C199.883 427.322 199.144 426.583 198.233 426.583C197.322 426.583 196.583 427.322 196.583 428.233C196.583 429.144 197.322 429.883 198.233 429.883Z" fill="#1369FA"/>
<path d="M203.076 429.883C203.987 429.883 204.726 429.144 204.726 428.233C204.726 427.322 203.987 426.583 203.076 426.583C202.165 426.583 201.426 427.322 201.426 428.233C201.426 429.144 202.165 429.883 203.076 429.883Z" fill="#1369FA"/>
<path d="M207.918 429.883C208.83 429.883 209.568 429.144 209.568 428.233C209.568 427.322 208.83 426.583 207.918 426.583C207.007 426.583 206.269 427.322 206.269 428.233C206.269 429.144 207.007 429.883 207.918 429.883Z" fill="#1369FA"/>
<g opacity="0.7">
<path d="M229 455V452.667C229 450.089 226.761 448 224 448H214C211.239 448 209 450.089 209 452.667V455" stroke="#FF6161" stroke-width="3" stroke-linecap="round" stroke-linejoin="round"/>
<path fill-rule="evenodd" clip-rule="evenodd" d="M219 443C221.761 443 224 440.761 224 438C224 435.239 221.761 433 219 433C216.239 433 214 435.239 214 438C214 440.761 216.239 443 219 443Z" stroke="#FF6161" stroke-width="3" stroke-linecap="round" stroke-linejoin="round"/>
</g>
<path d="M238.5 466H252.5C254.46 466 256 464.533 256 462.667V433.333C256 431.467 254.46 430 252.5 430H238.5C236.54 430 235 431.467 235 433.333V455.66V462.667C235 464.533 236.54 466 238.5 466Z" fill="#FFDFDF" stroke="#FF9090" stroke-width="3" stroke-miterlimit="10" stroke-linecap="round" stroke-linejoin="round"/>
<line x1="241.5" y1="431.5" x2="249.5" y2="431.5" stroke="#FF9090" stroke-width="3" stroke-linecap="round" stroke-linejoin="round"/>
<path d="M58 560V556C58 551 54 547 49 547H31C26 547 22 551 22 556V560" stroke="#1369FA" stroke-width="3" stroke-miterlimit="10" stroke-linecap="round" stroke-linejoin="round"/>
<path d="M40 540C44.9706 540 49 535.971 49 531C49 526.029 44.9706 522 40 522C35.0294 522 31 526.029 31 531C31 535.971 35.0294 540 40 540Z" stroke="#1369FA" stroke-width="3" stroke-miterlimit="10"/>
<path opacity="0.7" fill-rule="evenodd" clip-rule="evenodd" d="M68 531.5C67.2 531.5 66.5 532.2 66.5 533V536.5H63H62.9C62.1 536.6 61.5 537.2 61.5 538C61.5 538.8 62.2 539.5 63 539.5H66.5V543V543.1C66.6 543.9 67.2 544.5 68 544.5C68.8 544.5 69.5 543.8 69.5 543V539.5H73H73.1C73.9 539.4 74.5 538.8 74.5 538C74.5 537.2 73.8 536.5 73 536.5H69.5V533V532.9C69.4 532.1 68.8 531.5 68 531.5ZM68 526C74.6 526 80 531.4 80 538C80 544.6 74.6 550 68 550C61.4 550 56 544.6 56 538C56 531.4 61.4 526 68 526Z" fill="#FF6161"/>
<rect x="114" y="532.681" width="53" height="42" rx="8" fill="#FF9090"/>
<rect x="107" y="522" width="54" height="44" rx="6" fill="white" stroke="#1369FA" stroke-width="3"/>
<path d="M113.8 530.6C114.794 530.6 115.6 529.794 115.6 528.8C115.6 527.806 114.794 527 113.8 527C112.806 527 112 527.806 112 528.8C112 529.794 112.806 530.6 113.8 530.6Z" fill="#1369FA"/>
<path d="M119.083 530.6C120.077 530.6 120.882 529.794 120.882 528.8C120.882 527.806 120.077 527 119.083 527C118.089 527 117.283 527.806 117.283 528.8C117.283 529.794 118.089 530.6 119.083 530.6Z" fill="#1369FA"/>
<path d="M124.366 530.6C125.36 530.6 126.165 529.794 126.165 528.8C126.165 527.806 125.36 527 124.366 527C123.372 527 122.566 527.806 122.566 528.8C122.566 529.794 123.372 530.6 124.366 530.6Z" fill="#1369FA"/>
<path fill-rule="evenodd" clip-rule="evenodd" d="M134.351 540.253C133.665 539.576 133.665 538.478 134.351 537.801C138.255 533.949 145 536.683 145 542.154C145 543.798 144.351 545.344 143.173 546.507L140.215 549.425C137.777 551.831 133.831 551.831 131.394 549.425C130.708 548.748 130.708 547.651 131.394 546.974C132.08 546.296 133.192 546.296 133.878 546.974C134.943 548.024 136.667 548.024 137.731 546.974L140.689 544.055C141.203 543.547 141.487 542.872 141.487 542.154C141.487 539.784 138.561 538.549 136.836 540.253C136.15 540.93 135.037 540.93 134.351 540.253ZM125.514 549.847C125.514 552.236 128.459 553.431 130.165 551.748C130.851 551.071 131.963 551.071 132.649 551.748C133.335 552.425 133.335 553.523 132.649 554.2C131.433 555.4 129.835 556 128.238 556C122.691 556 119.92 549.349 123.827 545.494L126.785 542.576C129.223 540.169 133.169 540.17 135.606 542.576C136.293 543.252 136.293 544.35 135.606 545.027C134.92 545.704 133.808 545.704 133.122 545.027C132.057 543.976 130.334 543.976 129.269 545.027L126.312 547.946C125.797 548.454 125.514 549.129 125.514 549.847Z" fill="#FF9090"/>
<path d="M29.9691 649.69L30.2906 648.496L29.1801 647.952C24.4339 645.629 21.5 641.604 21.5 637.215C21.5 630.526 28.5233 624.5 38 624.5C47.4767 624.5 54.5 630.526 54.5 637.215C54.5 643.904 47.4767 649.929 38 649.929C36.9193 649.929 35.8771 649.831 34.8674 649.68L34.2896 649.593L33.8054 649.92C32.8099 650.592 31.1468 651.719 29.6991 652.699C29.4732 652.852 29.2525 653.002 29.0403 653.145C29.2977 652.178 29.5859 651.11 29.7998 650.317C29.8639 650.08 29.9212 649.868 29.9691 649.69Z" stroke="#B1BCCB" stroke-width="3"/>
<path d="M32.4895 634C31.3715 634 27.7044 634.089 27.7044 634.089C26.7652 634.089 26.7652 635.699 27.7044 635.699H29.2696C29.2696 635.699 29.2696 639.901 29.2696 640.93C29.2696 641.645 30.9243 641.6 30.9243 640.885V635.565C30.9243 635.565 31.4609 635.565 32.4895 635.565C33.4734 635.565 33.4734 634 32.4895 634Z" fill="#B1BCCB"/>
<path d="M36.1567 634.492C35.9331 634 34.5915 633.732 34.2337 634.492C33.8312 635.341 32.4449 639.365 31.9977 640.438C31.6399 641.198 33.1157 641.824 33.4287 641.064L33.7418 639.946H36.6039C36.6039 639.946 36.5145 639.991 36.8723 641.019C37.1853 641.824 38.6611 641.287 38.3481 640.438C37.9903 639.276 36.4251 635.073 36.1567 634.492ZM34.2784 638.516L35.2176 635.788L36.112 638.516H34.2784Z" fill="#B1BCCB"/>
<path d="M42.7754 639.812C42.0152 639.812 40.6735 639.812 40.6735 639.812C40.6735 639.812 40.6735 635.744 40.6735 634.76C40.6735 633.821 38.9741 633.821 38.9741 634.76C38.9741 636.146 38.9741 640.528 38.9741 640.528C38.9741 640.528 38.84 641.422 39.6002 641.422C40.3605 641.422 42.0152 641.422 42.7754 641.422C43.5357 641.422 43.491 639.812 42.7754 639.812Z" fill="#B1BCCB"/>
<path d="M49.1706 640.259L46.9793 637.353C46.9793 637.353 48.4551 635.744 49.0812 635.163C49.4389 634.805 48.3656 633.732 48.0079 634.09C47.6948 634.403 45.3246 636.772 45.3246 636.772C45.3246 636.772 45.3246 635.297 45.3246 634.492C45.3246 633.866 43.7146 633.911 43.7146 634.537C43.7146 635.118 43.7146 640.572 43.7146 640.975C43.7146 641.6 45.3246 641.6 45.3246 640.975C45.3246 640.259 45.3246 638.829 45.3246 638.829L45.8165 638.426L47.8737 641.243C48.2762 641.824 49.5731 640.84 49.1706 640.259Z" fill="#B1BCCB"/>
<path d="M89.9691 649.69L90.2906 648.496L89.1801 647.952C84.4339 645.629 81.5 641.604 81.5 637.215C81.5 630.526 88.5233 624.5 98 624.5C107.477 624.5 114.5 630.526 114.5 637.215C114.5 643.904 107.477 649.929 98 649.929C96.9193 649.929 95.8771 649.831 94.8674 649.68L94.2896 649.593L93.8054 649.92C92.8099 650.592 91.1468 651.719 89.6991 652.699C89.4732 652.852 89.2525 653.002 89.0403 653.145C89.2977 652.178 89.5859 651.11 89.7998 650.317C89.8639 650.08 89.9212 649.868 89.9691 649.69Z" stroke="white" stroke-width="3"/>
<path d="M92.4895 634C91.3715 634 87.7044 634.089 87.7044 634.089C86.7652 634.089 86.7652 635.699 87.7044 635.699H89.2696C89.2696 635.699 89.2696 639.901 89.2696 640.93C89.2696 641.645 90.9243 641.6 90.9243 640.885V635.565C90.9243 635.565 91.4609 635.565 92.4895 635.565C93.4734 635.565 93.4734 634 92.4895 634Z" fill="white"/>
<path d="M96.1567 634.492C95.9331 634 94.5915 633.732 94.2337 634.492C93.8312 635.341 92.4449 639.365 91.9977 640.438C91.6399 641.198 93.1157 641.824 93.4287 641.064L93.7418 639.946H96.6039C96.6039 639.946 96.5145 639.991 96.8723 641.019C97.1853 641.824 98.6611 641.287 98.3481 640.438C97.9903 639.276 96.4251 635.073 96.1567 634.492ZM94.2784 638.516L95.2176 635.788L96.112 638.516H94.2784Z" fill="white"/>
<path d="M102.775 639.812C102.015 639.812 100.674 639.812 100.674 639.812C100.674 639.812 100.674 635.744 100.674 634.76C100.674 633.821 98.9741 633.821 98.9741 634.76C98.9741 636.146 98.9741 640.528 98.9741 640.528C98.9741 640.528 98.84 641.422 99.6002 641.422C100.361 641.422 102.015 641.422 102.775 641.422C103.536 641.422 103.491 639.812 102.775 639.812Z" fill="white"/>
<path d="M109.171 640.259L106.979 637.353C106.979 637.353 108.455 635.744 109.081 635.163C109.439 634.805 108.366 633.732 108.008 634.09C107.695 634.403 105.325 636.772 105.325 636.772C105.325 636.772 105.325 635.297 105.325 634.492C105.325 633.866 103.715 633.911 103.715 634.537C103.715 635.118 103.715 640.572 103.715 640.975C103.715 641.6 105.325 641.6 105.325 640.975C105.325 640.259 105.325 638.829 105.325 638.829L105.817 638.426L107.874 641.243C108.276 641.824 109.573 640.84 109.171 640.259Z" fill="white"/>
<path fill-rule="evenodd" clip-rule="evenodd" d="M223.688 647.563V651.763H226.088C227.675 651.763 228.639 651.268 228.639 649.727V649.397C228.639 647.947 227.675 647.563 226.296 647.563H223.688ZM221.27 645.6H226.41C229.68 645.6 231.078 647.214 231.078 649.378V649.764C231.078 651.91 229.566 653.744 226.41 653.744H223.69V658.825H221.27V645.6ZM238.528 654.137H236.208C234.965 654.137 234.531 654.654 234.531 655.477V655.707C234.531 656.395 235.021 656.797 235.945 656.797C236.945 656.797 237.605 656.587 238.095 656.089C238.528 655.668 238.528 655.209 238.528 654.424V654.137ZM232.231 655.878V655.266C232.231 653.544 233.23 652.262 236.152 652.262H238.528V651.861C238.528 650.559 237.962 650.024 236.68 650.024C235.568 650.024 234.606 650.387 233.74 651.076L232.57 649.316C233.626 648.57 234.927 647.9 236.7 647.9C239.131 647.9 240.885 649.144 240.885 651.267V658.672H238.754L238.716 657.371C238.321 658.308 236.85 658.825 235.756 658.825C233.532 658.825 232.231 657.735 232.231 655.878ZM245.211 647.9L247.529 655.401H247.603L249.939 647.9H252.423L247.121 662.275L244.933 661.519L246.249 658.184L242.615 647.9H245.211Z" fill="#03C75A"/>
<mask id="mask0" mask-type="alpha" maskUnits="userSpaceOnUse" x="193" y="641" width="60" height="23">
<path d="M193 664H253V641H193V664Z" fill="white"/>
</mask>
<g mask="url(#mask0)">
<path fill-rule="evenodd" clip-rule="evenodd" d="M193 664H216.077V641H193V664Z" fill="#03C75A"/>
<path fill-rule="evenodd" clip-rule="evenodd" d="M209.731 658.25H206.362L202.298 652.095V658.25H198.769V646.75H202.138L206.202 652.905V646.75H209.731V658.25Z" fill="white"/>
</g>
<path d="M54.8728 738.982V734.873C54.8728 730.334 51.1934 726.655 46.6546 726.655H30.2182C25.6794 726.655 22 730.334 22 734.873V738.982" stroke="#1369FA" stroke-width="3" stroke-linecap="round" stroke-linejoin="round"/>
<path fill-rule="evenodd" clip-rule="evenodd" d="M38.4359 718.436C42.9747 718.436 46.6541 714.757 46.6541 710.218C46.6541 705.679 42.9747 702 38.4359 702C33.8971 702 30.2177 705.679 30.2177 710.218C30.2177 714.757 33.8971 718.436 38.4359 718.436Z" stroke="#1369FA" stroke-width="3" stroke-linecap="round" stroke-linejoin="round"/>
<path opacity="0.7" d="M67.1999 738.982V734.873C67.1971 731.127 64.6625 727.858 61.0362 726.922" stroke="#FF6161" stroke-width="3" stroke-linecap="round" stroke-linejoin="round"/>
<path opacity="0.7" d="M52.818 702.267C56.4544 703.198 58.9978 706.475 58.9978 710.228C58.9978 713.982 56.4544 717.259 52.818 718.19" stroke="#FF6161" stroke-width="3" stroke-linecap="round" stroke-linejoin="round"/>
<path d="M142 752H130V760H142V752Z" stroke="#1369FA" stroke-width="3" stroke-miterlimit="10" stroke-linecap="round" stroke-linejoin="round"/>
<path d="M112.613 714H111C108.791 714 107 715.791 107 718V748C107 750.209 108.791 752 111 752H161C163.209 752 165 750.209 165 748V718C165 715.791 163.209 714 161 714H145.355" stroke="#1369FA" stroke-width="3" stroke-linecap="round"/>
<path d="M124 760H148" stroke="#1369FA" stroke-width="3" stroke-miterlimit="10" stroke-linecap="round" stroke-linejoin="round"/>
<path d="M107 747H165V748C165 750.209 163.209 752 161 752H111C108.791 752 107 750.209 107 748V747Z" stroke="#1369FA" stroke-width="3"/>
<path opacity="0.2" d="M121.035 717.879C120.809 717.547 120.565 717.23 120.377 716.862C120.188 716.494 120.073 716.112 119.935 715.736L117.064 715.226C116.423 715.113 115.969 714.543 116.002 713.896L116.221 709.758C116.256 709.113 116.768 708.592 117.416 708.546L120.313 708.338C120.669 707.603 121.088 706.902 121.626 706.273L120.653 703.598C120.433 702.99 120.701 702.314 121.28 702.02L124.999 700.14C125.578 699.846 126.289 700.028 126.653 700.563L128.261 702.917C129.091 702.854 129.911 702.932 130.717 703.076L132.588 700.873C133.009 700.378 133.733 700.27 134.279 700.624L137.779 702.882C138.324 703.233 138.521 703.933 138.238 704.517L136.965 707.122C137.193 707.453 137.437 707.77 137.625 708.138C137.814 708.506 137.929 708.888 138.067 709.264L140.936 709.775C141.577 709.888 142.033 710.457 141.998 711.105L141.781 715.242C141.746 715.887 141.234 716.408 140.586 716.454L137.688 716.659C137.332 717.395 136.913 718.096 136.375 718.724L137.348 721.4C137.569 722.01 137.302 722.686 136.722 722.98L133.003 724.86C132.424 725.154 131.713 724.972 131.349 724.437L129.741 722.083C128.913 722.145 128.092 722.068 127.287 721.923L125.414 724.127C124.996 724.621 124.271 724.728 123.725 724.375L120.223 722.118C119.678 721.767 119.481 721.067 119.764 720.483L121.035 717.879ZM131.345 717.068C133.886 715.783 134.896 712.697 133.601 710.174C132.306 707.65 129.198 706.646 126.657 707.932C124.116 709.217 123.106 712.303 124.401 714.826C125.697 717.35 128.804 718.354 131.345 717.068Z" fill="#FF6161"/>
<path d="M129 728H147" stroke="#FF9090" stroke-width="3" stroke-linecap="round" stroke-linejoin="round"/>
<path d="M143 724L147 728L143 732" stroke="#FF9090" stroke-width="3" stroke-linecap="round" stroke-linejoin="round"/>
<path d="M153 738H135" stroke="#FF9090" stroke-width="3" stroke-linecap="round" stroke-linejoin="round"/>
<path d="M139 742L135 738L139 734" stroke="#FF9090" stroke-width="3" stroke-linecap="round" stroke-linejoin="round"/>
<defs>
<clipPath id="clip0">
<rect width="62" height="62" fill="white" transform="translate(20 220)"/>
</clipPath>
<clipPath id="clip1">
<rect width="62" height="62" fill="white" transform="translate(105 220)"/>
</clipPath>
<clipPath id="clip2">
<rect width="62" height="62" fill="white" transform="translate(190 220)"/>
</clipPath>
</defs>
</svg>
