<svg width="22" height="22" viewBox="0 0 22 22" fill="none" xmlns="http://www.w3.org/2000/svg">
<g clip-path="url(#clip0)">
<path fill-rule="evenodd" clip-rule="evenodd" d="M15.1194 0C15.2006 2.92514 13.1086 4.95447 11.0191 4.8272C10.6748 2.49283 13.1084 0 15.1194 0ZM2 11.8934C2 15.2974 4.70841 21.9812 7.98267 22.0001H8.00407C8.81805 22.0001 9.5357 21.7323 10.17 21.4955L10.1755 21.4935C10.6407 21.3191 11.08 21.1548 11.4275 21.1548C12.1129 21.1548 12.5277 21.331 13.0086 21.5356L13.0088 21.5357C13.484 21.7377 14.0227 21.9668 14.7848 21.9668C17.8999 21.9668 20.0449 16.1956 20.0449 15.9268C20.0449 15.5159 19.732 15.3276 19.4291 15.1454L19.4275 15.1444L19.4266 15.1439C18.7389 14.7302 17.3095 13.8701 17.3095 11.6354C17.3095 9.74797 18.5724 8.79501 19.2648 8.27255L19.2651 8.27235L19.7497 7.90665L19.413 7.4006C17.9754 5.24168 15.5842 5.0686 14.7955 5.0686H14.7893C13.7331 5.0686 12.8261 5.42924 12.0972 5.71941L12.0825 5.72523C11.7444 5.8591 11.366 6.00893 11.2041 6.00893C10.9296 6.00893 10.4362 5.82765 9.95906 5.65203C9.27676 5.40028 8.50319 5.11578 7.77874 5.11578C6.17119 5.11578 2 6.33309 2 11.8934Z" fill="#161637"/>
</g>
<defs>
<clipPath id="clip0">
<rect width="22" height="22" fill="white"/>
</clipPath>
</defs>
</svg>
