<svg xmlns="http://www.w3.org/2000/svg" xmlns:xlink="http://www.w3.org/1999/xlink" width="110" height="110" viewBox="0 0 110 110">
  <defs>
    <circle id="shape_circle-a" cx="55" cy="55" r="55"/>
  </defs>
  <g fill="none" fill-rule="evenodd">
    <mask id="shape_circle-b" fill="#fff">
      <use xlink:href="#shape_circle-a"/>
    </mask>
    <path fill="#12BFAC" d="M55.3382389,100.912225 L70.148633,108.589526 C67.8082416,109.217153 65.4705357,109.685511 63.1328298,110 L63.1328298,110 L55.1824813,105.925146 L47.2334756,110 C44.7386694,109.685511 42.3996207,109.217153 40.2176723,108.589526 L40.2176723,108.589526 L55.3382389,100.912225 Z M89.7897937,89.6301845 L95.5568511,92.6063531 C94.4652056,93.7036887 93.3749028,94.8010243 92.2832572,95.8970102 L92.2832572,95.8970102 L89.7897937,94.6444549 L72.3301786,103.57566 L54.8705634,94.6444549 L37.412291,103.57566 L19.9526758,94.6444549 L17.6149699,95.8970102 C16.5246671,94.9575937 15.4330215,93.7036887 14.341376,92.6063531 L14.341376,92.6063531 L20.1097761,89.6301845 L37.5680485,98.5613897 L55.0276637,89.6301845 L72.4859361,98.5613897 L89.7897937,89.6301845 Z M89.9455513,78.1917092 L101.792524,84.3019655 C101.012393,85.5558705 100.233606,86.8097755 99.2990604,88.0623308 L99.2990604,88.0623308 L89.9455513,83.2059796 L72.4859361,92.1371847 L55.0276637,83.2059796 L37.5693913,92.1371847 L20.1097761,83.2059796 L10.756267,88.0623308 C9.82172168,86.8097755 9.04159122,85.5558705 8.2628035,84.3019655 L8.2628035,84.3019655 L20.1097761,78.1917092 L37.5693913,87.1229144 L55.0276637,78.1917092 L72.4859361,87.1229144 L89.9455513,78.1917092 Z M89.9455513,66.7518841 L106.312178,75.0568116 C105.844906,76.4672861 105.221875,77.7211911 104.597502,79.1316656 L104.597502,79.1316656 L89.9455513,71.6095851 L72.4859361,80.54214 L55.0276637,71.6095851 L37.5680485,80.54214 L20.1097761,71.6095851 L5.45648221,79.1316656 C4.83345203,77.8777605 4.20907911,76.4672861 3.74180647,75.0568116 L3.74180647,75.0568116 L20.1097761,66.7518841 L37.5680485,75.684439 L55.0276637,66.7518841 L72.4859361,75.684439 L89.9455513,66.7518841 Z M90.1014431,55.3138137 L107.559716,64.2463686 L109.431492,63.3042527 C109.118634,65.1857851 108.807119,67.0673175 108.339846,68.9461504 L108.339846,68.9461504 L107.559716,69.4172084 L90.1014431,60.4860032 L72.6418279,69.4172084 L55.1835555,60.4860032 L37.7252831,69.4172084 L20.2656679,60.4860032 L2.80739548,69.4172084 L2.02726501,68.9461504 C1.55999238,67.0673175 1.24847729,65.1857851 0.935619461,63.3042527 L0.935619461,63.3042527 L2.80739548,64.2463686 L20.2656679,55.3138137 L37.7252831,64.2463686 L55.1835555,55.3138137 L72.6418279,64.2463686 L90.1014431,55.3138137 Z M90.1003689,44.0321777 L107.559984,52.9633829 L109.89769,51.7094778 C110.053448,52.9633829 110.053448,54.0607185 109.741932,55.3132738 L109.741932,55.3132738 L109.741932,56.7237482 L107.247126,57.9776533 L89.7888538,49.0450984 L72.3292387,57.9776533 L54.8709662,49.0450984 L37.4126938,57.9776533 L19.9530786,49.0450984 L2.4948062,57.9776533 L7.10542736e-15,56.7237482 L7.10542736e-15,55.3132738 C7.10542736e-15,54.0607185 0.157100283,52.9633829 0.157100283,51.7094778 L0.157100283,51.7094778 L2.4948062,52.9633829 L20.2659365,44.0321777 L37.7242089,52.9633829 L55.1824813,44.0321777 L72.6420965,52.9633829 L90.1003689,44.0321777 Z M89.9435372,32.5922177 L107.403152,41.5234228 L108.026183,41.210284 C108.33904,42.7786776 108.650555,44.1878023 108.963413,45.7548462 L108.963413,45.7548462 L107.247395,46.539043 L89.7891224,37.6064881 L72.3295072,46.539043 L54.8712348,37.6064881 L37.4116196,46.539043 L19.9533472,37.6064881 L2.80658983,46.539043 L1.0919141,45.7548462 C1.24767165,44.1878023 1.71494428,42.6207585 2.02645937,41.210284 L2.02645937,41.210284 L2.65083229,41.5234228 L20.1091047,32.5922177 L37.5687199,41.5234228 L55.0269923,32.5922177 L72.4866075,41.5234228 L89.9435372,32.5922177 Z M89.9443428,21.1540123 L102.571446,27.5787571 C103.818849,29.7720786 104.909152,31.9654001 105.84504,34.3166408 L105.84504,34.3166408 L89.9443428,26.1682827 L72.4860704,35.0994878 L55.0264552,26.1682827 L37.5681828,35.0994878 L20.1099104,26.1682827 L4.20921338,34.3166408 C5.14510139,31.9654001 6.23540421,29.7720786 7.48280731,27.5787571 L7.48280731,27.5787571 L20.1099104,21.1540123 L37.5681828,30.0852174 L55.0264552,21.1540123 L72.4860704,30.0852174 L89.9443428,21.1540123 Z M55.0264552,9.87102656 L72.4860704,18.8035815 L87.7623945,10.9683622 C90.2558579,12.8498946 92.7506641,15.0432161 94.9326125,17.393107 L94.9326125,17.393107 L89.9443428,14.8866467 L72.4860704,23.8178519 L55.0264552,14.8866467 L37.5681828,23.8178519 L20.1099104,14.8866467 L15.120298,17.393107 C17.3035891,15.0432161 19.641295,12.8498946 22.2918587,10.9683622 L22.2918587,10.9683622 L37.5681828,18.8035815 L55.0264552,9.87102656 Z M54.871369,1.95399252e-14 C55.9630146,1.95399252e-14 57.209075,0.156569412 58.3007205,0.156569412 L58.3007205,0.156569412 L72.3296415,7.36416131 L77.3179111,4.85770098 C79.0325869,5.64054804 80.7486053,6.42474484 82.3061808,7.36416131 L82.3061808,7.36416131 L72.485399,12.3797814 L55.0271266,3.44722654 L37.4117539,12.3797814 L27.5909721,7.36416131 C29.3069906,6.42474484 30.864566,5.64054804 32.5805845,4.85770098 L32.5805845,4.85770098 L37.4117539,7.36416131 L51.4420176,0.156569412 C52.5336631,1.95399252e-14 53.7797235,1.95399252e-14 54.871369,1.95399252e-14 Z" mask="url(#shape_circle-b)"/>
  </g>
</svg>
