<svg width="160" height="26" viewBox="0 0 160 26" fill="none" xmlns="http://www.w3.org/2000/svg">
<path d="M9.45297 17.9928C3.6273 17.6725 3.6273 13.0809 3.6273 13.0809V4.53831H0.0549591L0 12.9207C0.109918 17.9928 4.17689 20.2352 4.17689 20.2352C10.8819 23.9192 15.7183 19.9149 15.7183 19.9149V12.9741C15.2786 18.4199 9.45297 17.9928 9.45297 17.9928Z" fill="#F44347"/>
<path d="M19.4556 4.48476H15.7183V21.7834H19.4556V4.48476Z" fill="#1369FA"/>
<path d="M36.7127 6.67386C35.1189 5.17891 32.9755 4.27127 30.5573 4.27127C25.611 4.27127 21.544 8.1688 21.544 13.0274C21.544 17.8325 25.556 21.7835 30.5573 21.7835C32.9755 21.7835 35.1739 20.8758 36.7677 19.3809V21.7835H40.1751V0H36.7127V6.67386ZM30.5573 18.2597C27.5895 18.2597 25.1713 15.9105 25.1713 13.0274C25.1713 10.1443 27.5895 7.79506 30.5573 7.79506C33.5251 7.79506 35.9433 10.1443 35.9433 13.0274C35.9433 15.9105 33.5251 18.2597 30.5573 18.2597Z" fill="#1369FA"/>
<path fill-rule="evenodd" clip-rule="evenodd" d="M46.4405 19.3808C48.0343 20.8757 50.1777 21.73 52.5959 21.73C57.5422 21.73 61.5542 17.8324 61.5542 13.0272C61.5542 8.22207 57.5422 4.32454 52.5959 4.32454C50.1777 4.32454 48.0343 5.23218 46.4405 6.72713V4.37793H43.033V25.9478H46.4954L46.4405 19.3808ZM52.5409 7.90173C55.5087 7.90173 57.9269 10.2509 57.9269 13.134C57.9269 16.0171 55.5087 18.3663 52.5409 18.3663C49.5732 18.3663 47.155 16.0171 47.155 13.134C47.2099 10.1975 49.5732 7.90173 52.5409 7.90173ZM78.2617 6.78077C76.6679 5.28583 74.5245 4.43158 72.1063 4.43158C67.1599 4.43158 63.1479 8.32911 63.1479 13.1343C63.1479 17.9395 67.1599 21.837 72.1063 21.837C74.5245 21.837 76.6679 20.9294 78.2617 19.4344V21.7836H81.6692V4.69853H78.2067L78.2617 6.78077ZM72.1063 18.3132C69.1385 18.3132 66.7203 15.964 66.7203 13.0809C66.7203 10.1978 69.1385 7.84859 72.1063 7.84859C75.0741 7.84859 77.4923 10.1978 77.4923 13.0809C77.4923 15.964 75.0741 18.3132 72.1063 18.3132ZM93.1556 17.2988L98.3768 4.43158H102.609L92.5511 25.9587H87.9345L90.5726 20.6624L83.3729 4.43158H87.7697L93.1556 17.2988Z" fill="#161637"/>
<path d="M104.294 12.9836H105.667L105.814 14.795H105.868C106.223 14.1607 106.638 13.6606 107.114 13.2947C107.602 12.9165 108.127 12.7275 108.689 12.7275C108.908 12.7275 109.098 12.7458 109.256 12.7824C109.427 12.8068 109.592 12.8616 109.751 12.947L109.44 14.4107C109.269 14.3497 109.116 14.3071 108.982 14.2827C108.847 14.2583 108.676 14.2461 108.469 14.2461C108.261 14.2461 108.042 14.2888 107.81 14.3741C107.59 14.4473 107.37 14.5754 107.15 14.7584C106.931 14.9291 106.717 15.1609 106.509 15.4536C106.302 15.7464 106.119 16.1062 105.96 16.5331V22.9185H104.294V12.9836Z" fill="#161637"/>
<path d="M114.488 23.1564C113.829 23.1564 113.206 23.0405 112.62 22.8087C112.047 22.577 111.546 22.2416 111.119 21.8024C110.691 21.3511 110.35 20.8022 110.093 20.1558C109.849 19.5093 109.727 18.7775 109.727 17.9602C109.727 17.1552 109.849 16.4294 110.093 15.783C110.35 15.1365 110.685 14.5876 111.1 14.1363C111.516 13.685 111.992 13.3374 112.529 13.0934C113.078 12.8495 113.64 12.7275 114.214 12.7275C114.849 12.7275 115.41 12.8373 115.899 13.0568C116.387 13.2764 116.796 13.5935 117.126 14.0082C117.467 14.4107 117.724 14.8986 117.895 15.4719C118.078 16.0452 118.169 16.6856 118.169 17.393C118.169 17.576 118.163 17.7529 118.151 17.9236C118.139 18.0822 118.121 18.2225 118.096 18.3444H111.393C111.455 19.4178 111.778 20.2656 112.364 20.8876C112.962 21.5097 113.738 21.8207 114.69 21.8207C115.178 21.8207 115.624 21.7536 116.027 21.6195C116.43 21.4731 116.814 21.2779 117.18 21.034L117.785 22.1318C117.345 22.4123 116.857 22.6563 116.32 22.8636C115.783 23.0588 115.172 23.1564 114.488 23.1564ZM116.704 17.1552C116.704 16.1428 116.485 15.3743 116.045 14.8498C115.618 14.3254 115.013 14.0631 114.232 14.0631C113.878 14.0631 113.536 14.1363 113.206 14.2827C112.889 14.4168 112.602 14.6181 112.346 14.8864C112.089 15.1426 111.876 15.4658 111.705 15.8561C111.534 16.2343 111.424 16.6673 111.375 17.1552H116.704Z" fill="#161637"/>
<path d="M122.303 23.1564C121.595 23.1564 120.917 23.0283 120.27 22.7721C119.623 22.5038 119.061 22.1745 118.585 21.7841L119.409 20.6864C119.837 21.0401 120.282 21.3267 120.746 21.5463C121.222 21.7537 121.76 21.8573 122.358 21.8573C123.017 21.8573 123.505 21.7049 123.823 21.3999C124.153 21.095 124.317 20.7291 124.317 20.3021C124.317 20.046 124.25 19.8264 124.116 19.6435C123.982 19.4605 123.805 19.2958 123.585 19.1495C123.377 19.0031 123.133 18.875 122.852 18.7653C122.584 18.6433 122.315 18.5274 122.047 18.4176C121.692 18.2956 121.338 18.1554 120.984 17.9968C120.642 17.8382 120.325 17.6492 120.032 17.4296C119.751 17.1979 119.519 16.9356 119.336 16.6429C119.165 16.3379 119.08 15.972 119.08 15.5451C119.08 15.1548 119.153 14.7889 119.3 14.4473C119.458 14.1058 119.684 13.807 119.977 13.5508C120.27 13.2947 120.63 13.0934 121.058 12.947C121.485 12.8007 121.967 12.7275 122.504 12.7275C123.127 12.7275 123.701 12.8373 124.226 13.0568C124.751 13.2764 125.209 13.5386 125.599 13.8436L124.793 14.923C124.439 14.6669 124.079 14.4595 123.713 14.301C123.359 14.1302 122.956 14.0448 122.504 14.0448C121.882 14.0448 121.424 14.1851 121.131 14.4656C120.838 14.7462 120.691 15.0816 120.691 15.4719C120.691 15.7159 120.752 15.9232 120.874 16.094C120.997 16.2526 121.161 16.3989 121.369 16.5331C121.576 16.6551 121.808 16.771 122.065 16.8807C122.333 16.9783 122.608 17.082 122.889 17.1918C123.255 17.3259 123.615 17.4723 123.969 17.6309C124.336 17.7895 124.659 17.9846 124.94 18.2164C125.233 18.4359 125.471 18.7043 125.654 19.0214C125.837 19.3385 125.929 19.735 125.929 20.2107C125.929 20.6132 125.85 20.9974 125.691 21.3633C125.532 21.7171 125.3 22.0281 124.995 22.2964C124.69 22.5526 124.311 22.7599 123.86 22.9185C123.408 23.0771 122.889 23.1564 122.303 23.1564Z" fill="#161637"/>
<path d="M131.364 23.1564C130.705 23.1564 130.082 23.0405 129.496 22.8087C128.922 22.577 128.421 22.2416 127.994 21.8024C127.567 21.3511 127.225 20.8022 126.969 20.1558C126.724 19.5093 126.602 18.7775 126.602 17.9602C126.602 17.1552 126.724 16.4294 126.969 15.783C127.225 15.1365 127.561 14.5876 127.976 14.1363C128.391 13.685 128.867 13.3374 129.404 13.0934C129.954 12.8495 130.515 12.7275 131.089 12.7275C131.724 12.7275 132.286 12.8373 132.774 13.0568C133.262 13.2764 133.671 13.5935 134.001 14.0082C134.343 14.4107 134.599 14.8986 134.77 15.4719C134.953 16.0452 135.045 16.6856 135.045 17.393C135.045 17.576 135.039 17.7529 135.026 17.9236C135.014 18.0822 134.996 18.2225 134.972 18.3444H128.269C128.33 19.4178 128.653 20.2656 129.239 20.8876C129.838 21.5097 130.613 21.8207 131.565 21.8207C132.054 21.8207 132.499 21.7536 132.902 21.6195C133.305 21.4731 133.69 21.2779 134.056 21.034L134.66 22.1318C134.221 22.4123 133.732 22.6563 133.195 22.8636C132.658 23.0588 132.047 23.1564 131.364 23.1564ZM133.58 17.1552C133.58 16.1428 133.36 15.3743 132.92 14.8498C132.493 14.3254 131.889 14.0631 131.107 14.0631C130.753 14.0631 130.412 14.1363 130.082 14.2827C129.764 14.4168 129.478 14.6181 129.221 14.8864C128.965 15.1426 128.751 15.4658 128.58 15.8561C128.409 16.2343 128.299 16.6673 128.251 17.1552H133.58Z" fill="#161637"/>
<path d="M136.578 22.9185V8.35466H138.244V22.9185H136.578Z" fill="#161637"/>
<path d="M140.67 22.9185V8.35466H142.336V22.9185H140.67Z" fill="#161637"/>
<path d="M148.772 23.1564C148.113 23.1564 147.49 23.0405 146.904 22.8087C146.33 22.577 145.83 22.2416 145.402 21.8024C144.975 21.3511 144.633 20.8022 144.377 20.1558C144.133 19.5093 144.011 18.7775 144.011 17.9602C144.011 17.1552 144.133 16.4294 144.377 15.783C144.633 15.1365 144.969 14.5876 145.384 14.1363C145.799 13.685 146.275 13.3374 146.813 13.0934C147.362 12.8495 147.924 12.7275 148.497 12.7275C149.132 12.7275 149.694 12.8373 150.182 13.0568C150.671 13.2764 151.08 13.5935 151.409 14.0082C151.751 14.4107 152.007 14.8986 152.178 15.4719C152.362 16.0452 152.453 16.6856 152.453 17.393C152.453 17.576 152.447 17.7529 152.435 17.9236C152.423 18.0822 152.404 18.2225 152.38 18.3444H145.677C145.738 19.4178 146.062 20.2656 146.648 20.8876C147.246 21.5097 148.021 21.8207 148.974 21.8207C149.462 21.8207 149.908 21.7536 150.31 21.6195C150.713 21.4731 151.098 21.2779 151.464 21.034L152.069 22.1318C151.629 22.4123 151.141 22.6563 150.603 22.8636C150.066 23.0588 149.456 23.1564 148.772 23.1564ZM150.988 17.1552C150.988 16.1428 150.768 15.3743 150.329 14.8498C149.901 14.3254 149.297 14.0631 148.516 14.0631C148.162 14.0631 147.82 14.1363 147.49 14.2827C147.173 14.4168 146.886 14.6181 146.629 14.8864C146.373 15.1426 146.159 15.4658 145.989 15.8561C145.818 16.2343 145.708 16.6673 145.659 17.1552H150.988Z" fill="#161637"/>
<path d="M153.986 12.9836H155.36L155.506 14.795H155.561C155.915 14.1607 156.33 13.6606 156.806 13.2947C157.295 12.9165 157.82 12.7275 158.381 12.7275C158.601 12.7275 158.79 12.7458 158.949 12.7824C159.12 12.8068 159.285 12.8616 159.443 12.947L159.132 14.4107C158.961 14.3497 158.809 14.3071 158.674 14.2827C158.54 14.2583 158.369 14.2461 158.162 14.2461C157.954 14.2461 157.734 14.2888 157.502 14.3741C157.282 14.4473 157.063 14.5754 156.843 14.7584C156.623 14.9291 156.41 15.1609 156.202 15.4536C155.994 15.7464 155.811 16.1062 155.653 16.5331V22.9185H153.986V12.9836Z" fill="#161637"/>
</svg>
