<?xml version="1.0" encoding="UTF-8"?>
<svg width="374px" height="60px" viewBox="0 0 374 60" version="1.1" xmlns="http://www.w3.org/2000/svg" xmlns:xlink="http://www.w3.org/1999/xlink">
    <!-- Generator: Sketch 56.3 (81716) - https://sketch.com -->
    <title>bi/logo</title>
    <desc>Created with Sketch.</desc>
    <defs>
        <polygon id="path-1" points="3.88313861e-05 0.471314376 59.3703746 0.471314376 59.3703746 59.8414913 3.88313861e-05 59.8414913"></polygon>
        <polygon id="path-3" points="0.102503704 0.592945055 5.23006349 0.592945055 5.23006349 15.5382198 0.102503704 15.5382198"></polygon>
    </defs>
    <g id="bi/logo" stroke="none" stroke-width="1" fill="none" fill-rule="evenodd">
        <g id="bi_logo">
            <g id="bi/bi_symbol">
                <g id="bi_symbol">
                    <g id="Group-3" transform="translate(-0.000000, 0.027427)">
                        <mask id="mask-2" fill="white">
                            <use xlink:href="#path-1"></use>
                        </mask>
                        <g id="Clip-2"></g>
                        <path d="M30.4703897,2.09146012 L33.3243302,0.657757725 C33.9950536,0.320650657 34.8059058,0.448811185 35.3394924,0.976413666 L37.6109757,3.22246431 C38.0039348,3.61093532 38.5579673,3.79095847 39.1045196,3.70767906 L42.2621556,3.22595506 C43.0036914,3.11275491 43.7352536,3.48526819 44.0798409,4.15200214 L45.5459574,6.98948618 C45.7997851,7.48118377 46.2710368,7.82327763 46.8165918,7.91303986 L49.9687423,8.43017009 C50.7087821,8.55184778 51.2897432,9.13231025 51.4109223,9.8728487 L51.9285512,13.0249993 C52.0183134,13.5705542 52.3604073,14.0418059 52.8516062,14.2956336 L55.6895889,15.7617501 C56.3563228,16.1063374 56.7288361,16.8374009 56.615636,17.5794354 L56.133912,20.7370714 C56.0501339,21.2836237 56.230157,21.8376562 56.6191267,22.2306153 L58.8646787,24.5015999 C59.3927798,25.0356852 59.5209404,25.8465374 59.184332,26.5167621 L57.7501309,29.3712013 C57.5017887,29.8648936 57.5017887,30.4473508 57.7501309,30.9415417 L59.184332,33.7954822 C59.5209404,34.4662056 59.3927798,35.2770578 58.8646787,35.8106444 L56.6191267,38.0821277 C56.230157,38.4750868 56.0501339,39.0291193 56.133912,39.5756716 L56.615636,42.7333076 C56.7288361,43.4748434 56.3563228,44.2064057 55.6895889,44.5509929 L52.8516062,46.0171094 C52.3604073,46.2709371 52.0183134,46.7421888 51.9285512,47.2877438 L51.4109223,50.4398943 C51.2897432,51.1804328 50.7087821,51.7608952 49.9687423,51.8825729 L46.8165918,52.3997032 C46.2710368,52.4894654 45.7997851,52.8315593 45.5459574,53.3227582 L44.0798409,56.1607409 C43.7352536,56.8274748 43.0036914,57.1999881 42.2621556,57.086788 L39.1045196,56.605064 C38.5579673,56.5212859 38.0039348,56.7018077 37.6109757,57.0902787 L35.3394924,59.3358307 C34.8059058,59.8639318 33.9950536,59.9920924 33.3243302,59.655484 L30.4703897,58.2212829 C29.9761988,57.9729407 29.3937416,57.9729407 28.9000493,58.2212829 L26.0456101,59.655484 C25.3753854,59.9920924 24.5645332,59.8639318 24.0304479,59.3358307 L21.7594633,57.0902787 C21.3665042,56.7018077 20.8124717,56.5212859 20.2659194,56.605064 L17.1082834,57.086788 C16.3662489,57.1999881 15.6346867,56.8274748 15.2905981,56.1607409 L13.8244816,53.3227582 C13.5706539,52.8315593 13.0994022,52.4894654 12.5538472,52.3997032 L9.4016967,51.8825729 C8.66115824,51.7608952 8.08069578,51.1804328 7.95901808,50.4398943 L7.44188786,47.2877438 C7.35212562,46.7421888 7.01003176,46.2709371 6.51833417,46.0171094 L3.68085013,44.5509929 C3.01411618,44.2064057 2.6416029,43.4748434 2.75480305,42.7333076 L3.23652706,39.5756716 C3.31980647,39.0291193 3.13978331,38.4750868 2.7513123,38.0821277 L0.505261658,35.8106444 C-0.0223408234,35.2770578 -0.150501351,34.4662056 0.186107038,33.7954822 L1.62030811,30.9415417 C1.8686503,30.4473508 1.8686503,29.8648936 1.62030811,29.3712013 L0.186107038,26.5167621 C-0.150501351,25.8465374 -0.0223408234,25.0356852 0.505261658,24.5015999 L2.7513123,22.2306153 C3.13978331,21.8376562 3.31980647,21.2836237 3.23652706,20.7370714 L2.75480305,17.5794354 C2.6416029,16.8374009 3.01411618,16.1063374 3.68085013,15.7617501 L6.51833417,14.2956336 C7.01003176,14.0418059 7.35212562,13.5705542 7.44188786,13.0249993 L7.95901808,9.8728487 C8.08069578,9.13231025 8.66115824,8.55184778 9.4016967,8.43017009 L12.5538472,7.91303986 C13.0994022,7.82327763 13.5706539,7.48118377 13.8244816,6.98948618 L15.2905981,4.15200214 C15.6346867,3.48526819 16.3662489,3.11275491 17.1082834,3.22595506 L20.2659194,3.70767906 C20.8124717,3.79095847 21.3665042,3.61093532 21.7594633,3.22246431 L24.0304479,0.976413666 C24.5645332,0.448811185 25.3753854,0.320650657 26.0456101,0.657757725 L28.9000493,2.09146012 C29.3937416,2.33980231 29.9761988,2.33980231 30.4703897,2.09146012" id="Fill-1" fill="#EC3939" mask="url(#mask-2)"></path>
                    </g>
                    <path d="M52.7292802,21.3569794 C52.6315391,21.3569794 52.5392834,21.2976366 52.5013838,21.2013916 C48.7837312,11.7663831 39.8279533,5.66953249 29.6853192,5.66953249 C19.5426851,5.66953249 10.5864086,11.7663831 6.86925465,21.2013916 C6.81938674,21.3275574 6.6772632,21.3893936 6.55109739,21.3395257 C6.42493158,21.2901564 6.36309537,21.1480329 6.41296328,21.0218671 C10.2049191,11.3978592 19.3392241,5.17982962 29.6853192,5.17982962 C40.0309157,5.17982962 49.1657194,11.3978592 52.9576752,21.0218671 C53.0070444,21.1480329 52.9452082,21.2901564 52.8190424,21.3395257 C52.7896204,21.351494 52.7592009,21.3569794 52.7292802,21.3569794" id="Fill-4" fill="#FFFFFF"></path>
                    <path d="M29.6851198,55.187818 C19.3395233,55.187818 10.2047196,48.9692897 6.41326249,39.3457805 C6.36339458,39.2196147 6.42523079,39.0774912 6.55089792,39.0276233 C6.67756241,38.9787527 6.81918727,39.0400902 6.86905518,39.166256 C10.5867078,48.6012645 19.5424857,54.6976164 29.6851198,54.6976164 C39.8063107,54.6976164 48.755107,48.6187183 52.4837306,39.2106385 C52.5335985,39.0849714 52.675722,39.0236338 52.8018879,39.0735017 C52.927555,39.1233696 52.9893912,39.2659919 52.9390246,39.391659 C49.1360978,48.9872421 40.0087744,55.187818 29.6851198,55.187818" id="Fill-6" fill="#FFFFFF"></path>
                    <path d="M33.1215673,15.2457669 C34.259553,15.4462359 35.0195399,16.5318603 34.8190709,17.6698459 L33.3614319,25.9349532 C33.2552133,26.5393523 32.9734596,28.1530779 35.3541536,29.1604096 L37.3029915,18.1076862 C37.5039592,16.9697005 38.5890849,16.2097136 39.7270706,16.4101826 C40.8650562,16.6111502 41.6250432,17.6962759 41.4245742,18.8342616 L39.4757363,29.8869851 C42.0564006,29.7548351 42.3441384,28.1421069 42.4508558,27.5377079 L43.9079961,19.2726006 C44.1089638,18.1341162 45.1940895,17.3746279 46.3320752,17.5750969 C47.4700609,17.7755659 48.2300478,18.8611903 48.0295788,19.999176 L46.5719398,28.2642833 C45.9037098,32.0552418 42.9719754,34.1631583 38.739686,34.0599317 L36.5853923,46.2765722 C36.3849233,47.4145579 35.2997976,48.1745448 34.1613132,47.9740758 C33.0233275,47.7736068 32.2638392,46.6879824 32.4643082,45.5499967 L34.6186019,33.3333563 C30.6057312,31.9829333 28.5716192,28.9993363 29.2403479,25.2083778 L30.6974882,16.9427718 C30.8984559,15.8047861 31.9835816,15.0452979 33.1215673,15.2457669" id="Fill-8" fill="#FFFFFF"></path>
                    <path d="M18.1994431,34.4078601 L20.3168346,46.4165514 C20.5173036,47.5545371 21.602928,48.314524 22.7409137,48.114055 C23.8788993,47.913586 24.6388863,46.8279616 24.4384173,45.689976 L22.3175351,33.6613375 C25.3315515,32.2555612 27.1771629,29.1398142 26.6121595,25.9353023 C26.0636125,22.8255395 21.8617424,14.5459705 16.9327982,15.4151682 C12.0043528,16.2838671 10.8873116,25.5014515 11.4358586,28.6112143 C12.0058488,31.8431536 14.8488183,34.1495444 18.1994431,34.4078601" id="Fill-10" fill="#FFFFFF"></path>
                </g>
            </g>
            <path d="M104.344747,6.64865934 L73.4056462,6.64865934 C72.22626,6.64865934 71.2500342,7.49986813 71.0475333,8.61942857 C71.0218085,8.75920879 71.0039989,8.90162637 71.0039989,9.04865934 L71.0039989,9.89591209 C71.0039989,11.2211868 72.0791665,12.2959121 73.4056462,12.2959121 L99.7261436,12.2959121 C100.352775,12.2959121 100.665431,12.4739341 100.665431,13.1016264 L100.665431,14.1236044 L76.1727185,14.1236044 C74.8462388,14.1236044 73.7717309,15.1983297 73.7717309,16.5236044 L73.7717309,17.3708571 C73.7717309,18.6961319 74.8462388,19.7708571 76.1727185,19.7708571 L81.3592476,19.7708571 C82.215424,18.2965714 83.8090466,17.3003077 85.6341929,17.3003077 C87.4586797,17.3003077 89.0523023,18.2965714 89.9084787,19.7708571 L100.665431,19.7708571 L100.665431,23.7987692 L108.433681,23.7987692 L108.433681,10.8512967 C108.433681,8.16843956 108.012189,6.64865934 104.344747,6.64865934" id="Fill-4" fill="#EC3939"></path>
            <path d="M108.151697,25.2106813 L89.8712106,25.2106813 L89.8712106,22.2416703 C89.8712106,21.1465055 89.4516974,20.1522198 88.7696586,19.3999121 L88.7505298,19.3788132 C88.6443323,19.2634286 88.5328578,19.1533187 88.4141277,19.0504615 C88.4108296,19.0478242 88.4081912,19.0451868 88.4055527,19.0432088 C88.1601771,18.8302418 87.891715,18.644967 87.6021453,18.4926593 C87.5902723,18.4867253 87.5783993,18.4814505 87.5665263,18.4755165 C87.4425192,18.4115604 87.3158737,18.3548571 87.1859302,18.3034286 C87.1456938,18.2876044 87.1061171,18.2737582 87.0658808,18.2599121 C86.9596832,18.221011 86.8521665,18.1873846 86.7426709,18.1577143 C86.6932,18.1445275 86.6443887,18.1313407 86.5935986,18.1194725 C86.4847626,18.0944176 86.3732882,18.0746374 86.2611541,18.0574945 C86.2136621,18.0509011 86.1668296,18.041011 86.118678,18.0357363 C85.9590519,18.0179341 85.7981065,18.0060659 85.6338631,18.0060659 C85.4696198,18.0060659 85.3086744,18.0179341 85.1490483,18.0357363 C85.1008966,18.041011 85.0540642,18.0509011 85.0059125,18.0574945 C84.8937785,18.0746374 84.7829637,18.0944176 84.6741277,18.1194725 C84.6239972,18.1313407 84.5751859,18.1445275 84.525715,18.1577143 C84.4162194,18.1873846 84.3087026,18.221011 84.2018455,18.2599121 C84.1622688,18.2737582 84.1213728,18.2876044 84.0824557,18.3034286 C83.9518526,18.3548571 83.8245474,18.4115604 83.7012,18.4755165 C83.689327,18.4814505 83.677454,18.4867253 83.665581,18.4926593 C83.3760113,18.644967 83.1075492,18.8302418 82.8621735,19.0432088 C82.8595351,19.0451868 82.8568966,19.0478242 82.8542582,19.0498022 C82.735528,19.1533187 82.6240536,19.2634286 82.5171965,19.3794725 C82.51126,19.3860659 82.5046638,19.3933187 82.4980677,19.3999121 C81.8160289,20.1522198 81.3965157,21.1465055 81.3965157,22.2416703 L81.3965157,25.2106813 L71.995066,25.2106813 C70.6685862,25.2106813 69.5934187,26.2854066 69.5934187,27.6106813 L69.5934187,28.4579341 C69.5934187,29.7838681 70.6685862,30.8579341 71.995066,30.8579341 L108.151697,30.8579341 C109.477517,30.8579341 110.552685,29.7838681 110.552685,28.4579341 L110.552685,27.6106813 C110.552685,26.2854066 109.477517,25.2106813 108.151697,25.2106813" id="Fill-6" fill="#EC3939"></path>
            <path d="M109.615244,46.128 C108.559206,44.7387692 106.569816,44.4684396 105.172098,45.5115165 C105.121968,45.5497582 100.012613,49.2855824 90.7780451,49.2855824 C85.2128988,49.2855824 81.1496889,47.9286593 78.7856395,46.8427253 L78.7830011,44.4783297 L108.433879,44.4783297 L108.433879,36.0071209 C108.433879,34.066022 106.844874,32.4776703 104.902317,32.4776703 L73.8286554,32.4776703 L73.4051845,32.4776703 C72.0793644,32.4776703 71.0041968,33.5523956 71.0041968,34.8783297 L71.0041968,35.3016264 L71.0041968,35.7249231 C71.0041968,37.0508571 72.0793644,38.1255824 73.4051845,38.1255824 L100.665629,38.1242637 L100.665629,39.5359121 L74.5350998,39.5359121 C72.5932021,39.5359121 71.0041968,41.1242637 71.0041968,43.0653626 L71.0041968,47.7097582 C71.0041968,49.0739341 71.7897947,50.2614066 72.9302638,50.8482198 C74.5318018,51.9361319 80.7235795,55.6383297 90.7780451,55.6383297 C102.313999,55.6383297 108.766324,50.7644835 109.035446,50.5567912 C110.417992,49.4906374 110.671283,47.5178901 109.615244,46.128" id="Fill-8" fill="#EC3939"></path>
            <path d="M153.840118,20.4143736 L153.840118,20.389978 L150.991913,20.389978 L150.991913,19.4444835 L150.991913,10.5915165 L150.991913,9.04865934 C150.991913,7.72272527 149.916746,6.64865934 148.590266,6.64865934 L146.753906,6.64865934 L144.918206,6.64865934 C143.591726,6.64865934 142.516559,7.72272527 142.516559,9.04865934 L142.516559,10.5915165 L142.516559,43.5882198 C142.636608,43.7082198 142.750721,43.8341538 142.856259,43.969978 C143.490146,44.7908571 143.763885,45.8128352 143.626026,46.846022 C143.511913,47.7077802 143.120763,48.4864615 142.516559,49.0897582 L142.516559,50.0339341 L142.516559,50.8403077 C142.516559,52.1655824 143.591726,53.2403077 144.918206,53.2403077 L148.590266,53.2403077 C149.916746,53.2403077 150.991913,52.1655824 150.991913,50.8403077 L150.991913,50.0339341 L150.991913,30.0064615 L150.991913,28.8855824 L153.840118,28.8855824 C156.180421,28.8855824 158.077465,26.9893187 158.077465,24.649978 C158.077465,22.3106374 156.180421,20.4143736 153.840118,20.4143736" id="Fill-10" fill="#EC3939"></path>
            <path d="M142.296908,44.4013846 C141.224379,43.0121538 139.243564,42.7438022 137.853762,43.8158901 C137.717222,43.9167692 134.442248,46.2739121 128.329624,46.2739121 C124.883811,46.2739121 122.342986,45.5255604 120.75464,44.8536923 L120.773769,31.9378681 L139.781807,31.9345714 L139.785765,14.4884176 C139.785765,10.0761099 138.600442,9.54072527 134.469952,9.47676923 C134.43961,9.47676923 129.354661,9.47545055 124.537515,9.47413187 C124.530259,9.47413187 124.524322,9.47215385 124.517067,9.47215385 L116.119546,9.47215385 L116.067437,9.47215385 L115.778527,9.47215385 C114.452707,9.47215385 113.377539,10.5468791 113.377539,11.8728132 L113.377539,12.7174286 C113.377539,14.0427033 114.452707,15.1174286 115.778527,15.1174286 L116.026541,15.1174286 C116.040393,15.1174286 116.053585,15.1194066 116.067437,15.1194066 L123.930672,15.1174286 L124.517067,15.1174286 L124.519046,15.1174286 L129.392259,15.1161099 C130.204901,15.1161099 130.883642,15.722044 131.03931,16.5277582 L131.036672,25.0833626 L120.746065,25.087978 C115.422996,25.087978 113.377539,27.0092967 113.377539,32.5972088 L113.377539,43.6695165 C113.377539,45.1609451 113.52859,46.3227033 113.843225,47.2365495 C113.941508,47.5207253 114.05694,47.7785275 114.187543,48.0145714 C114.384107,48.3336923 114.636739,48.6251209 114.950714,48.8670989 C115.101765,48.9831429 115.632753,49.3734725 116.518612,49.8580879 C118.570665,50.9822637 122.55604,52.627978 128.329624,52.627978 C136.593903,52.627978 141.209867,49.2521538 141.707874,48.8670989 C143.098337,47.7956703 143.369437,45.789956 142.296908,44.4013846" id="Fill-12" fill="#EC3939"></path>
            <path d="M185.63744,40.7612308 C177.458251,35.8840879 174.205044,20.4146374 173.922731,13.2205714 L173.922731,10.4671648 C173.922731,9.14123077 172.847563,8.06716484 171.521743,8.06716484 L168.90836,8.06716484 C167.58254,8.06716484 166.507372,9.14123077 166.507372,10.4671648 L166.507372,11.7535385 C166.496159,17.9361758 164.529196,35.2089231 155.672586,40.812 C153.950339,41.9018901 153.43782,44.1818901 154.528159,45.9034286 C155.230646,47.0130989 156.427842,47.6203516 157.650762,47.6203516 C158.326205,47.6203516 159.008903,47.4357363 159.621683,47.048044 C164.770614,43.7902418 168.060099,38.3513407 170.163602,32.7060659 C172.27502,38.4574945 176.601415,43.9662857 181.855224,47.0988132 C182.447556,47.4522198 183.099253,47.6203516 183.742374,47.6203516 C184.999595,47.6203516 186.225813,46.9781538 186.915768,45.8203516 C187.960593,44.0704615 187.38805,41.804967 185.63744,40.7612308" id="Fill-14" fill="#EC3939"></path>
            <path d="M192.477682,6.64865934 L190.641322,6.64865934 L188.805622,6.64865934 C187.479142,6.64865934 186.403975,7.72272527 186.403975,9.04865934 L186.403975,10.5915165 L186.403975,19.4444835 L186.403975,20.389978 L183.55511,20.389978 L183.55511,20.4143736 C181.214807,20.4143736 179.317763,22.3106374 179.317763,24.649978 C179.317763,26.9893187 181.214807,28.8855824 183.55511,28.8855824 L186.403975,28.8855824 L186.403975,30.0064615 L186.403975,40.429978 C187.198147,41.029978 187.762775,41.8739341 188.01013,42.8530549 C188.297721,43.9910769 188.124243,45.1732747 187.522677,46.1820659 C187.231128,46.6712967 186.847893,47.0906374 186.403975,47.4269011 L186.403975,50.0339341 L186.403975,50.8396484 C186.403975,52.1655824 187.479142,53.2403077 188.805622,53.2403077 L192.477682,53.2403077 C193.803502,53.2403077 194.878669,52.1655824 194.878669,50.8396484 L194.878669,50.0339341 L194.878669,10.5915165 L194.878669,9.04865934 C194.878669,7.72272527 193.803502,6.64865934 192.477682,6.64865934" id="Fill-16" fill="#EC3939"></path>
            <path d="M220.157574,28.3341758 L220.157574,39.1631868 C218.662233,39.7737363 215.817986,40.0823077 213.660395,40.0823077 C211.518635,40.0823077 208.684942,39.777033 207.198177,39.1737363 L207.198177,28.3341758 L220.157574,28.3341758 Z M225.316399,9.49549451 L223.057228,9.49549451 C221.458328,9.49549451 220.157574,10.7957143 220.157574,12.393956 L220.157574,21.6906593 L207.198177,21.6906593 L207.198177,12.393956 C207.198177,10.7957143 205.897422,9.49549451 204.298522,9.49549451 L202.038692,9.49549451 C200.439792,9.49549451 199.139697,10.7957143 199.139697,12.393956 L199.139697,40.5834066 C199.004477,41.877033 199.549976,43.1179121 200.602716,43.9084615 L200.709574,43.9928571 C204.324247,46.9058242 210.20205,47.517033 213.660395,47.517033 C217.12006,47.517033 222.998522,46.9058242 226.613196,43.9928571 L226.718734,43.9084615 C227.256977,43.5049451 227.675831,42.9642857 227.921207,42.3708791 C228.116452,41.9653846 228.216053,41.5427473 228.216053,41.1141758 L228.216053,12.393956 C228.216053,10.7957143 226.915298,9.49549451 225.316399,9.49549451 L225.316399,9.49549451 Z" id="Fill-18" fill="#EC3939"></path>
            <path d="M231.009576,10.5915165 L231.009576,9.04865934 C231.009576,7.72272527 232.084744,6.64865934 233.411223,6.64865934 L235.247583,6.64865934 L237.083283,6.64865934 C238.409763,6.64865934 239.484931,7.72272527 239.484931,9.04865934 L239.484931,10.5915165 L239.484931,50.0339341 L239.484931,50.8396484 C239.484931,52.1655824 238.409763,53.2403077 237.083283,53.2403077 L233.411223,53.2403077 C232.084744,53.2403077 231.009576,52.1655824 231.009576,50.8396484 L231.009576,50.0339341 L231.009576,10.5915165 Z" id="Fill-20" fill="#EC3939"></path>
            <path d="M282.001343,50.4987033 L244.512295,50.4987033 C243.169325,50.4987033 242.070412,49.4002418 242.070412,48.0578242 L242.070412,45.8806813 C242.070412,44.5376044 243.169325,43.4391429 244.512295,43.4391429 L282.001343,43.4391429 C283.344972,43.4391429 284.443886,44.5376044 284.443886,45.8806813 L284.443886,48.0578242 C284.443886,49.4002418 283.344972,50.4987033 282.001343,50.4987033" id="Fill-22" fill="#EC3939"></path>
            <path d="M280.449606,28.9478242 C269.440681,22.9082637 266.986925,11.2537582 266.950646,11.0763956 L266.699994,9.8730989 L266.695376,9.87837363 C266.48562,8.75815385 265.476413,7.9076044 264.256791,7.9076044 L261.762798,7.9076044 C260.588029,7.9076044 259.609165,8.69815385 259.350597,9.75705495 L259.34598,9.75046154 L258.921849,11.4996923 C258.154061,14.0711209 254.606667,24.2935385 245.650456,28.8957363 C243.691408,29.9032088 242.948025,32.2537582 243.990212,34.1473846 C244.711828,35.4594725 246.10295,36.2071648 247.540904,36.2071648 C248.177429,36.2071648 248.823189,36.0607912 249.424096,35.7522198 C255.952935,32.3968352 260.226562,27.0014505 262.916459,22.268044 C265.51665,26.8076044 269.742784,32.0032088 276.48072,35.7001319 C277.108011,36.0443077 277.78939,36.2071648 278.461535,36.2071648 C279.859913,36.2071648 281.219373,35.5003516 281.959457,34.241011 C283.055073,32.3763956 282.378971,30.0060659 280.449606,28.9478242" id="Fill-24" fill="#EC3939"></path>
            <path d="M311.86422,44.5936484 C306.846552,41.3852967 306.270051,33.5978242 306.096573,28.8657363 L306.096573,27.0538681 C306.096573,26.1815604 305.436961,25.4747473 304.623,25.4747473 L302.422534,25.4747473 C301.608573,25.4747473 300.948961,26.1815604 300.948961,27.0538681 L300.948961,27.9004615 C300.941705,31.9672747 298.914058,40.9409011 293.480834,44.6272747 C292.423476,45.3446374 292.109501,46.843978 292.777688,47.9767253 C293.209074,48.7066154 293.943222,49.1061758 294.69452,49.1061758 C295.108757,49.1061758 295.526951,48.9841978 295.903589,48.729033 C299.062471,46.5861758 301.974658,43.5367253 303.076869,39.9927692 C304.015497,43.5367253 306.429677,46.9204615 309.543705,48.7626593 C309.915067,48.9828791 310.307536,49.1061758 310.701984,49.1061758 C311.473071,49.1061758 312.225688,48.6835385 312.649159,47.922 C313.289642,46.7701319 312.938728,45.2806813 311.86422,44.5936484" id="Fill-26" fill="#EC3939"></path>
            <path d="M319.140598,32.4032308 L319.140598,32.3874066 L317.863589,32.3874066 L317.863589,26.121033 C317.863589,26.0115824 317.853036,25.9054286 317.831928,25.8025714 C317.684175,25.0832308 317.047649,24.5419121 316.284478,24.5419121 L313.86832,24.5419121 C313.432316,24.5419121 313.037208,24.7186154 312.750937,25.0041099 C312.680358,25.075978 312.615057,25.1537802 312.55833,25.2381758 C312.445537,25.4063077 312.363085,25.5968571 312.32087,25.8025714 C312.299762,25.9054286 312.288549,26.0115824 312.288549,26.121033 L312.288549,44.3755385 C312.810962,44.7704835 313.182983,45.3256484 313.345247,45.9698242 C313.534556,46.7181758 313.421103,47.4961978 313.025335,48.1594945 C312.832729,48.4819121 312.581417,48.7575165 312.288549,48.9783956 L312.288549,51.2234505 C312.288549,52.0957582 312.996313,52.8025714 313.86832,52.8025714 L316.284478,52.8025714 C317.156485,52.8025714 317.863589,52.0957582 317.863589,51.2234505 L317.863589,37.975978 L319.140598,37.975978 C320.680133,37.975978 321.928119,36.7285055 321.928119,35.1896044 C321.928119,33.6507033 320.680133,32.4032308 319.140598,32.4032308" id="Fill-28" fill="#EC3939"></path>
            <path d="M326.000827,39.8146813 C328.540333,38.5414945 330.36482,36.2034725 331.205165,34.9619341 C332.610139,37.3935824 334.187271,39.034022 335.899624,39.843033 C336.293412,40.0296264 336.740629,40.1278681 337.193783,40.1278681 C338.102728,40.1278681 338.93186,39.7474286 339.411398,39.1105055 C339.780781,38.619956 339.898192,38.0390769 339.742523,37.4746813 C339.580259,36.8852308 339.123807,36.3755604 338.49124,36.0768791 C336.866615,35.3094066 335.623906,33.3096264 334.891737,30.2970989 L338.018298,30.2970989 C338.812471,30.2970989 339.456252,29.6852308 339.456252,28.9302857 L339.456252,26.9951209 C339.456252,26.2401758 338.812471,25.6276484 338.018298,25.6276484 L323.823448,25.6276484 C323.029275,25.6276484 322.385493,26.2401758 322.385493,26.9951209 L322.385493,28.9302857 C322.385493,29.6852308 323.029275,30.2970989 323.823448,30.2970989 L327.689434,30.2970989 C326.812809,32.314022 325.418389,35.0390769 323.29246,36.1052308 C322.669786,36.4170989 322.230485,36.9346813 322.08537,37.5267692 C321.946192,38.0957802 322.082072,38.6753407 322.468605,39.1592967 C322.953419,39.7658901 323.76804,40.1278681 324.647963,40.1278681 C325.124862,40.1278681 325.592527,40.0197363 326.000827,39.8146813" id="Fill-30" fill="#EC3939"></path>
            <path d="M346.691602,28.640967 L346.691602,28.6277802 L345.840702,28.6277802 L345.840702,25.8526154 C345.840702,25.7616264 345.830808,25.6739341 345.812339,25.5882198 C345.684374,24.9908571 345.128321,24.5418462 344.462113,24.5418462 L342.090808,24.5418462 C341.710212,24.5418462 341.365895,24.6882198 341.116561,24.9255824 C341.053898,24.9849231 340.997831,25.0501978 340.94836,25.1194286 C340.849418,25.2592088 340.777521,25.4174505 340.741242,25.5882198 C340.722773,25.6739341 340.713538,25.7616264 340.713538,25.8526154 L340.713538,39.2148132 C340.713538,39.9381099 341.330275,40.5249231 342.090808,40.5249231 L344.462113,40.5249231 C345.223305,40.5249231 345.840702,39.9381099 345.840702,39.2148132 L345.840702,33.2662418 L346.691602,33.2662418 C348.034572,33.2662418 349.123591,32.2304176 349.123591,30.9532747 C349.123591,29.6761319 348.034572,28.640967 346.691602,28.640967" id="Fill-32" fill="#EC3939"></path>
            <path d="M340.610837,47.4331648 C340.158343,47.8116264 339.623398,48.0094286 338.893207,48.1795385 C337.815401,48.4307473 336.505412,48.616022 334.955323,48.6173407 C333.404576,48.616022 332.095246,48.4307473 331.01678,48.1795385 C330.287249,48.0094286 329.603232,47.7259121 329.273426,47.4331648 C328.992431,47.1034945 328.887553,46.8430549 328.887553,46.5351429 C328.887553,45.8758022 329.196911,45.0958022 330.435662,45.0958022 L339.473666,45.0958022 C340.713077,45.0958022 341.022435,45.8758022 341.022435,46.5351429 C341.022435,46.8430549 340.92811,47.1641538 340.610837,47.4331648 L340.610837,47.4331648 Z M346.737972,46.5193187 C346.731376,43.2575604 344.817182,40.8054725 340.966368,40.8054725 L328.94362,40.8054725 C325.036738,40.8054725 323.177951,43.3169011 323.172015,46.5193187 L323.172015,46.5278901 L323.172015,46.5351429 C323.172015,46.5542637 323.173334,46.5727253 323.173334,46.5918462 C323.178611,47.6738242 323.41871,48.587011 323.669362,49.1441538 C324.247842,50.4245934 325.059824,50.8558022 325.648858,51.1623956 C326.229976,51.4656923 327.016234,51.8177802 327.985863,52.1461319 C329.712068,52.730967 332.03654,53.2373407 334.94477,53.239978 L334.94477,53.239978 L334.955323,53.239978 L334.964558,53.239978 L334.964558,53.239978 C337.874107,53.2373407 340.198579,52.730967 341.924124,52.1461319 C342.894413,51.8177802 343.68265,51.4716264 344.261129,51.1623956 C345.317168,50.5986593 345.963588,49.7725055 346.21556,49.2911868 C346.546025,48.6582198 346.731376,47.6725055 346.736653,46.5885495 C346.736653,46.5700879 346.738632,46.5536044 346.738632,46.5351429 C346.738632,46.5331648 346.737972,46.5305275 346.737972,46.5278901 C346.737972,46.5252527 346.738632,46.5226154 346.738632,46.5193187 L346.737972,46.5193187 Z" id="Fill-34" fill="#EC3939"></path>
            <path d="M366.908973,39.1814505 C367.664229,39.1814505 368.276349,38.5689231 368.276349,37.813978 L368.276349,35.7232088 C368.276349,34.9676044 367.664229,34.3557363 366.908973,34.3557363 L355.702165,34.3557363 C355.390169,34.2924396 355.307058,34.1005714 355.307058,33.5889231 L355.295844,26.8748571 C355.295844,26.0084835 354.592698,25.3062857 353.725968,25.3062857 L351.32564,25.3062857 C350.45891,25.3062857 349.755763,26.0084835 349.755763,26.8748571 L349.755763,35.1469451 C349.755763,38.1113407 351.045305,39.1814505 353.737181,39.1814505 L366.908973,39.1814505 Z" id="Fill-36" fill="#EC3939"></path>
            <g id="Group-40" transform="translate(368.723104, 24.353341)">
                <mask id="mask-4" fill="white">
                    <use xlink:href="#path-3"></use>
                </mask>
                <g id="Clip-39"></g>
                <path d="M5.20196402,1.68151648 C5.07399929,1.06041758 4.51794638,0.592945055 3.85173827,0.592945055 L1.48043316,0.592945055 C1.09983704,0.592945055 0.755519577,0.745912088 0.506186243,0.992505495 C0.443523104,1.05382418 0.387456085,1.12107692 0.337985185,1.19426374 C0.239043386,1.33865934 0.167145679,1.50415385 0.130867019,1.68151648 C0.111738272,1.76986813 0.102503704,1.86217582 0.102503704,1.95646154 L0.102503704,14.1747033 C0.102503704,14.9276703 0.719240917,15.5382198 1.48043316,15.5382198 L3.85173827,15.5382198 C4.61293051,15.5382198 5.23032734,14.9276703 5.23032734,14.1747033 L5.23032734,1.95646154 C5.23032734,1.86217582 5.22043316,1.76986813 5.20196402,1.68151648" id="Fill-38" fill="#EC3939" mask="url(#mask-4)"></path>
            </g>
            <path d="M368.813735,47.4328352 C368.813735,48.1666813 368.701601,48.2583297 368.140271,48.2583297 L356.98953,48.2583297 C356.42952,48.2583297 356.317386,48.1666813 356.317386,47.4328352 L356.317386,45.440967 C356.317386,44.7677802 356.42952,44.6458022 356.98953,44.6458022 L368.140271,44.6458022 C368.701601,44.6458022 368.813735,44.7677802 368.813735,45.440967 L368.813735,47.4328352 Z M371.959424,40.5710769 L352.921703,40.5710769 C352.007481,40.5710769 351.266077,41.3115165 351.266077,42.2253626 L351.266077,50.5508571 C351.266077,51.4647033 352.007481,52.2058022 352.921703,52.2058022 L371.959424,52.2058022 C372.093326,52.2058022 372.22261,52.1853626 372.347276,52.155033 C373.073509,51.9796484 373.613731,51.3301978 373.613731,50.5508571 L373.613731,42.2253626 C373.613731,41.3115165 372.872987,40.5710769 371.959424,40.5710769 L371.959424,40.5710769 Z" id="Fill-41" fill="#EC3939"></path>
        </g>
    </g>
</svg>