<svg xmlns="http://www.w3.org/2000/svg" width="90" height="70" viewBox="0 0 90 70">
  <g fill="none" fill-rule="evenodd">
    <rect width="90" height="70"/>
    <path fill="#1369FA" d="M33.4089,9.0002 C33.7919,9.0002 34.1129,9.2872 34.1549,9.6672 L34.1549,9.6672 L34.5109,12.8692 C38.2169,13.9592 41.5839,15.9052 44.3929,18.5802 L44.3929,18.5802 L47.3489,17.2842 C47.6979,17.1312 48.1079,17.2652 48.2989,17.5962 L48.2989,17.5962 L54.1059,27.6532 C54.2969,27.9842 54.2079,28.4062 53.9009,28.6322 L53.9009,28.6322 L51.3049,30.5422 C51.7519,32.4052 51.9889,34.3172 51.9889,36.2502 C51.9889,38.1822 51.7519,40.0942 51.3049,41.9582 L51.3049,41.9582 L53.9009,43.8672 C54.2079,44.0932 54.2969,44.5152 54.1059,44.8462 L54.1059,44.8462 L48.2989,54.9032 L48.23531,54.9965 C48.02651,55.25813 47.663,55.3529 47.3489,55.2152 L47.3489,55.2152 L44.3929,53.9202 C41.5839,56.5952 38.2169,58.5402 34.5109,59.6312 L34.5109,59.6312 L34.1549,62.8332 C34.1129,63.2132 33.7919,63.5002 33.4089,63.5002 L33.4089,63.5002 L21.7969,63.5002 C21.4139,63.5002 21.0929,63.2132 21.0509,62.8332 L21.0509,62.8332 L20.6949,59.6312 C16.9889,58.5402 13.6219,56.5952 10.8139,53.9202 L10.8139,53.9202 L7.8579,55.2152 C7.5069,55.3682 7.0979,55.2342 6.9069,54.9032 L6.9069,54.9032 L1.1009,44.8462 C0.9089,44.5152 0.9979,44.0932 1.3059,43.8672 L1.3059,43.8672 L3.9009,41.9582 C3.4539,40.0942 3.2169,38.1822 3.2169,36.2502 C3.2169,34.3172 3.4539,32.4052 3.9009,30.5422 L3.9009,30.5422 L1.3059,28.6322 C0.9979,28.4062 0.9089,27.9842 1.1009,27.6532 L1.1009,27.6532 L6.9069,17.5962 C7.0979,17.2652 7.5069,17.1312 7.8579,17.2842 L7.8579,17.2842 L10.8139,18.5802 C13.6219,15.9052 16.9889,13.9592 20.6949,12.8692 L20.6949,12.8692 L21.0509,9.6672 C21.0929,9.2872 21.4139,9.0002 21.7969,9.0002 L21.7969,9.0002 Z M29.9589,13.6052 L25.2469,13.6052 L24.9759,16.0482 C24.9409,16.3682 24.7059,16.6282 24.3929,16.6982 L24.3929,16.6982 L23.3079,16.9382 C19.3449,17.8152 15.7919,19.8682 13.0279,22.8782 L13.0279,22.8782 L12.2779,23.6952 C12.0609,23.9322 11.7179,24.0042 11.4239,23.8752 L11.4239,23.8752 L9.1699,22.8882 L6.8149,26.9682 L8.7919,28.4222 C9.0499,28.6122 9.1589,28.9452 9.0629,29.2512 L9.0629,29.2512 L8.7299,30.3102 C8.1279,32.2252 7.8219,34.2232 7.8219,36.2502 C7.8219,38.2762 8.1279,40.2752 8.7299,42.1892 L8.7299,42.1892 L9.0629,43.2492 C9.1589,43.5542 9.0499,43.8882 8.7919,44.0782 L8.7919,44.0782 L6.8149,45.5322 L9.1699,49.6122 L11.4239,48.6242 C11.7179,48.4962 12.0609,48.5682 12.2779,48.8052 L12.2779,48.8052 L13.0279,49.6222 C15.7919,52.6322 19.3449,54.6852 23.3079,55.5622 L23.3079,55.5622 L24.3929,55.8022 C24.7059,55.8712 24.9409,56.1322 24.9759,56.4512 L24.9759,56.4512 L25.2469,58.8952 L29.9589,58.8952 L30.2299,56.4512 C30.2659,56.1322 30.4999,55.8712 30.8139,55.8022 L30.8139,55.8022 L31.8989,55.5622 C35.8609,54.6852 39.4149,52.6322 42.1779,49.6222 L42.1779,49.6222 L42.9279,48.8052 C43.1449,48.5682 43.4879,48.4962 43.7819,48.6242 L43.7819,48.6242 L46.0359,49.6122 L48.3919,45.5322 L46.4139,44.0782 C46.1559,43.8882 46.0469,43.5542 46.1429,43.2492 L46.1429,43.2492 L46.4759,42.1892 C47.0779,40.2752 47.3839,38.2762 47.3839,36.2502 C47.3839,34.2232 47.0779,32.2252 46.4759,30.3102 L46.4759,30.3102 L46.1429,29.2512 C46.0469,28.9452 46.1559,28.6122 46.4139,28.4222 L46.4139,28.4222 L48.3919,26.9682 L46.0359,22.8882 L43.7819,23.8752 C43.4879,24.0042 43.1449,23.9322 42.9279,23.6952 L42.9279,23.6952 L42.1779,22.8782 C39.4149,19.8682 35.8609,17.8152 31.8989,16.9382 L31.8989,16.9382 L30.8139,16.6982 C30.4999,16.6282 30.2659,16.3682 30.2299,16.0482 L30.2299,16.0482 L29.9589,13.6052 Z M28.339488,24.674616 L28.4566,24.6898 L31.4976,25.3298 C31.9026,25.4148 32.1626,25.8128 32.0776,26.2178 L32.0776,26.2178 L27.6606,47.2068 C27.5756,47.6128 27.1776,47.8718 26.7726,47.7868 L26.7726,47.7868 L23.7316,47.1468 C23.5376,47.1058 23.3676,46.9898 23.2586,46.8228 C23.1496,46.6558 23.1116,46.4538 23.1526,46.2578 L23.1526,46.2578 L27.5686,25.2698 C27.6096,25.0748 27.7266,24.9048 27.8936,24.7958 C28.0596,24.6868 28.2626,24.6488 28.4566,24.6898 Z M35.4612,29.9866 C35.7572,29.6966 36.2322,29.7016 36.5222,29.9976 L36.5222,29.9976 L42.2012,35.7966 C42.3402,35.9386 42.4172,36.1296 42.415238,36.3296 C42.4132,36.5276 42.3322,36.7176 42.1902,36.8576 L42.1902,36.8576 L36.3912,42.5366 C36.2492,42.6756 36.0572,42.7526 35.8582,42.750638 C35.6592,42.7486 35.4702,42.6676 35.3302,42.5256 L35.3302,42.5256 L33.1582,40.3066 C32.8682,40.0106 32.8732,39.5356 33.1692,39.2456 L33.1692,39.2456 L36.2132,36.2646 L33.2312,33.2196 C33.0932,33.0776 33.0152,32.8866 33.0172,32.6876 C33.0192,32.4886 33.1002,32.2986 33.2432,32.1596 L33.2432,32.1596 Z M18.6842,29.9978 C18.9742,29.7018 19.4482,29.6968 19.7452,29.9868 L19.7452,29.9868 L21.9632,32.1598 C22.1052,32.2988 22.1862,32.4888 22.1882,32.6868 C22.1902,32.8868 22.1132,33.0778 21.9742,33.2198 L21.9742,33.2198 L18.9932,36.2648 L22.0372,39.2458 C22.3332,39.5358 22.3382,40.0108 22.0482,40.3068 L22.0482,40.3068 L19.8752,42.5248 C19.7362,42.6668 19.5462,42.7478 19.3472,42.7498845 C19.1482,42.7528 18.9572,42.6758 18.8142,42.5368 L18.8142,42.5368 L13.0162,36.8568 C12.8732,36.7178 12.7922,36.5278 12.790162,36.3288 C12.7882,36.1298 12.8652,35.9388 13.0052,35.7968 L13.0052,35.7968 Z"/>
    <path fill="#FF6161" d="M72.2588,12.2092 C72.4918,12.1152 72.7648,12.2112 72.8858,12.4372 L72.8858,12.4372 L73.6508,13.8602 C75.6328,13.6802 77.6428,13.9682 79.5038,14.6982 L79.5038,14.6982 L80.6378,13.5422 C80.8158,13.3612 81.1038,13.3432 81.3028,13.4992 L81.3028,13.4992 L86.1008,17.2642 C86.3008,17.4222 86.3518,17.7052 86.2168,17.9212 L86.2168,17.9212 L85.3658,19.2942 C85.9358,20.1062 86.4118,20.9852 86.7848,21.9122 L86.7848,21.9122 L86.9376017,22.3113749 C87.2299224,23.1142204 87.4423714,23.9432 87.5718,24.7832 L87.5718,24.7832 L89.1348,25.1872 C89.3818,25.2502 89.5408,25.4892 89.5048,25.7422 L89.5048,25.7422 L88.6438,31.7792 C88.6078,32.0302 88.4258,32.1952 88.1328,32.2082 L88.1328,32.2082 L86.5158,32.1582 C85.6758,33.9722 84.4228,35.5702 82.8668,36.8122 L82.8668,36.8122 L83.2998,38.3682 C83.3678,38.6132 83.2408,38.8712 83.0048,38.9662 L83.0048,38.9662 L77.3458,41.2382 C77.2838,41.2632 77.2218,41.2742 77.1588,41.2742 C76.9808,41.2742 76.8088,41.1782 76.7188,41.0112 L76.7188,41.0112 L75.9538,39.5872 C73.9768,39.7652 71.9618,39.4792 70.1008,38.7502 L70.1008,38.7502 L68.9668,39.9052 C68.7888,40.0862 68.5008,40.1052 68.3018,39.9482 L68.3018,39.9482 L63.5038,36.1842 C63.3038,36.0262 63.2528,35.7442 63.3878,35.5272 L63.3878,35.5272 L64.2378,34.1532 C63.6668,33.3412 63.1908,32.4622 62.8198,31.5362 C62.4478,30.6092 62.1838,29.6442 62.0328,28.6642 L62.0328,28.6642 L60.4688,28.2612 C60.2228,28.1972 60.0628,27.9582 60.0988,27.7062 L60.0988,27.7062 L60.9608,21.6682 C60.9958,21.4212 61.2078,21.2392 61.4558,21.2392 C61.4608,21.2392 61.4658,21.2392 61.4718,21.2402 L61.4718,21.2402 L63.0888,21.2902 C63.9288,19.4762 65.1808,17.8782 66.7378,16.6362 L66.7378,16.6362 L66.3048,15.0802 C66.2368,14.8342 66.3638,14.5772 66.5998,14.4822 L66.5998,14.4822 Z M74.6338601,20.5276936 L74.545,20.5354 L72.938,20.8184 L72.861392,20.838192 C72.76216,20.8724 72.6756,20.9372 72.614,21.0244 C72.538,21.1334 72.509,21.2674 72.532,21.3984 L72.532,21.3984 L74.488,32.4914 L74.5113965,32.5786266 C74.5831875,32.7734781 74.770875,32.9044 74.98,32.9044 C75.009,32.9044 75.038,32.9014 75.067,32.8964 L75.067,32.8964 L76.674,32.6134 L76.7611399,32.5898568 C76.9835926,32.507684 77.1225556,32.2761778 77.079,32.0344 L77.079,32.0344 L75.124,20.9414 L75.1003251,20.8539953 C75.0174938,20.6310049 74.7832222,20.4927333 74.545,20.5354 Z M69.7010989,25.0854733 C69.4700975,25.0361235 69.2281222,25.1553333 69.1339,25.382 L69.1339,25.382 L67.5009,29.32 L67.4741442,29.4058011 C67.4244432,29.6368025 67.5452333,29.8787778 67.7719,29.973 L67.7719,29.973 L71.7089,31.606 L71.7722333,31.6274074 C71.8146778,31.6386667 71.8575667,31.644 71.9009,31.644 C72.0969,31.644 72.2819,31.528 72.3629,31.335 L72.3629,31.335 L72.9879,29.828 L73.016025,29.734 C73.034775,29.638 73.0254,29.5375 72.9879,29.446 C72.9369,29.323 72.8389,29.226 72.7169,29.175 L72.7169,29.175 L70.7469,28.359 L71.5649,26.389 L71.593025,26.2951406 C71.611775,26.199375 71.6024,26.09925 71.5649,26.007 C71.5139,25.884 71.4169,25.787 71.2939,25.736 L71.2939,25.736 L69.7869,25.112 Z M77.882949,21.8065384 C77.6530889,21.7531173 77.4095333,21.8665 77.3082,22.0905 L77.3082,22.0905 L76.6522,23.5845 L76.6219813,23.6779375 C76.6012625,23.7735625 76.60895,23.87425 76.6442,23.9665 C76.6922,24.0905 76.7882,24.1895 76.9092,24.2435 L76.9092,24.2435 L78.8612,25.1005 L78.0042,27.0515 L77.9754497,27.1370789 C77.9204593,27.367784 78.0363111,27.6118333 78.2612,27.7105 L78.2612,27.7105 L79.7542,28.3665 L79.8196444,28.390537 C79.8640889,28.4032778 79.9098667,28.4095 79.9552,28.4095 C80.0162,28.4095 80.0782,28.3985 80.1372,28.3755 C80.2602,28.3275 80.3592,28.2315 80.4132,28.1105 L80.4132,28.1105 L82.1272,24.2075 L82.155687,24.1219211 C82.2101506,23.891216 82.0950889,23.6471667 81.8702,23.5485 L81.8702,23.5485 L77.9682,21.8345 Z" opacity=".7"/>
  </g>
</svg>
