<svg xmlns="http://www.w3.org/2000/svg" width="90" height="70" viewBox="0 0 90 70">
  <g fill="none" fill-rule="evenodd">
    <rect width="90" height="70"/>
    <path fill="#FF6161" d="M77.2705,45.1218 C79.7305,43.8678 80.7085,40.8588 79.4545,38.3978 C78.2005,35.9358 75.1915,34.9578 72.7305,36.2108 C70.2705,37.4648 69.2925,40.4738 70.5465,42.9348 C71.8005,45.3968 74.8095,46.3748 77.2705,45.1218 L77.2705,45.1218 Z M67.2875,45.9118 C67.0695,45.5878 66.8325,45.2788 66.6505,44.9208 C66.4675,44.5618 66.3565,44.1888 66.2225,43.8228 L63.4425,43.3258 C62.8225,43.2148 62.3815,42.6588 62.4145,42.0288 L62.6265,37.9918 C62.6605,37.3638 63.1555,36.8558 63.7835,36.8108 L66.5885,36.6078 C66.9325,35.8908 67.3385,35.2068 67.8595,34.5938 L66.9175,31.9848 C66.7055,31.3918 66.9635,30.7318 67.5255,30.4468 L71.1255,28.6118 C71.6865,28.3258 72.3745,28.5028 72.7275,29.0248 L74.2845,31.3208 C75.0875,31.2588 75.8805,31.3348 76.6625,31.4758 L78.4735,29.3268 C78.8805,28.8438 79.5825,28.7398 80.1115,29.0838 L83.4995,31.2868 C84.0275,31.6288 84.2175,32.3118 83.9445,32.8808 L82.7115,35.4218 C82.9325,35.7448 83.1675,36.0538 83.3505,36.4128 C83.5335,36.7708 83.6445,37.1438 83.7785,37.5108 L86.5565,38.0088 C87.1765,38.1198 87.6195,38.6738 87.5845,39.3058 L87.3745,43.3408 C87.3405,43.9698 86.8455,44.4768 86.2175,44.5218 L83.4115,44.7228 C83.0675,45.4398 82.6615,46.1238 82.1405,46.7368 L83.0825,49.3458 C83.2955,49.9418 83.0375,50.6008 82.4765,50.8868 L78.8755,52.7208 C78.3145,53.0068 77.6265,52.8298 77.2745,52.3078 L75.7175,50.0118 C74.9155,50.0728 74.1205,49.9978 73.3405,49.8568 L71.5275,52.0058 C71.1225,52.4878 70.4205,52.5918 69.8925,52.2468 L66.5015,50.0458 C65.9735,49.7048 65.7835,49.0208 66.0565,48.4528 L67.2875,45.9118 Z" opacity=".7"/>
    <path fill="#1369FA" d="M15.0835,24.0832 C16.4175,24.0832 17.4995,25.1662 17.4995,26.5002 C17.4995,27.8342 16.4175,28.9162 15.0835,28.9162 L12.6665,28.9162 L12.6665,53.0832 L51.3335,53.0832 L51.3335,28.9162 L48.9165,28.9162 C47.5825,28.9162 46.4995,27.8342 46.4995,26.5002 C46.4995,25.1662 47.5825,24.0832 48.9165,24.0832 L51.3335,24.0832 C54.0035,24.0832 56.1665,26.2462 56.1665,28.9162 L56.1665,53.0832 L58.5835,53.0832 C59.9165,53.0832 60.9995,54.1632 60.9995,55.5002 C60.9995,56.8362 59.9165,57.9172 58.5835,57.9172 L5.4165,57.9172 C4.0825,57.9172 2.9995,56.8362 2.9995,55.5002 C2.9995,54.1632 4.0825,53.0832 5.4165,53.0832 L7.8335,53.0832 L7.8335,28.9162 C7.8335,26.2462 9.9965,24.0832 12.6665,24.0832 L15.0835,24.0832 Z M33.953,11.9997 C34.562,11.9997 35.076,12.4547 35.151,13.0587 L35.485,15.7197 C36.205,16.0187 36.855,16.4327 37.466,16.8957 L39.97,15.8397 C40.533,15.6037 41.183,15.8207 41.488,16.3497 L43.44,19.7327 C43.745,20.2607 43.609,20.9317 43.124,21.3017 L40.946,22.9497 C40.995,23.3247 41.063,23.6947 41.063,24.0837 C41.063,24.2782 41.046,24.4677 41.02325,24.65545 L40.949,25.2167 L40.949,25.2167 L43.124,26.8647 C43.609,27.2317 43.747,27.9037 43.44,28.4337 L41.488,31.8167 C41.183,32.3437 40.533,32.5627 39.973,32.3267 L37.466,31.2687 C36.855,31.7347 36.205,32.1457 35.487,32.4447 L35.154,35.1057 C35.076,35.7117 34.564,36.1667 33.955,36.1667 L30.047,36.1667 C29.438,36.1667 28.923,35.7117 28.849,35.1077 L28.515,32.4477 C27.797,32.1477 27.145,31.7347 26.536,31.2707 L24.03,32.3267 C23.469,32.5627 22.819,32.3457 22.515,31.8167 L20.56,28.4337 C20.255,27.9067 20.39,27.2347 20.876,26.8647 L23.051,25.2167 L22.97675,24.65545 C22.954,24.4677 22.937,24.2782 22.937,24.0837 C22.937,23.6947 23.005,23.3247 23.051,22.9497 L20.874,21.3017 C20.388,20.9347 20.252,20.2627 20.557,19.7327 L22.512,16.3497 C22.816,15.8227 23.467,15.6037 24.027,15.8397 L26.533,16.8957 C27.145,16.4297 27.795,16.0187 28.513,15.7197 L28.846,13.0587 C28.923,12.4547 29.436,11.9997 30.045,11.9997 L33.953,11.9997 Z M32,19.2497 C29.33,19.2497 27.167,21.4127 27.167,24.0837 C27.167,26.7537 29.33,28.9167 32,28.9167 C34.67,28.9167 36.833,26.7537 36.833,24.0837 C36.833,21.4127 34.67,19.2497 32,19.2497 Z"/>
  </g>
</svg>
