<svg xmlns="http://www.w3.org/2000/svg" width="90" height="70" viewBox="0 0 90 70">
  <g fill="none" fill-rule="evenodd">
    <rect width="90" height="70"/>
    <path fill="#FF6161" d="M29,18.6813 L66,18.6813 C70.418,18.6813 74,22.2633 74,26.6813 L74,52.6813 C74,57.0993 70.418,60.6813 66,60.6813 L29,60.6813 C24.582,60.6813 21,57.0993 21,52.6813 L21,26.6813 C21,22.2633 24.582,18.6813 29,18.6813" opacity=".7"/>
    <rect width="51" height="42" x="16" y="9" fill="#FFF" fill-opacity=".5" stroke="#1369FA" stroke-width="4.5" rx="5"/>
    <path fill="#1369FA" d="M43.5717,28.5867 C44.2457,29.2617 44.2457,30.3557 43.5717,31.0297 C42.8967,31.7047 41.8027,31.7047 41.1287,31.0297 C40.1243667,30.026325 38.5267451,29.9845177 37.4738513,30.9042781 L37.3397,31.0297 L34.4307,33.9387 C33.9247,34.4447 33.6457,35.1177 33.6457,35.8327 C33.6457,38.2137 36.5427,39.4047 38.2197,37.7277 C38.8947,37.0527 39.9887,37.0527 40.6627,37.7277 C41.3377,38.4017 41.3377,39.4957 40.6627,40.1707 C39.4667,41.3667 37.8957,41.9647 36.3247,41.9647 C30.946531,41.9647 28.2229742,35.5220894 31.8292588,31.6596281 L31.9877,31.4957 L34.8957,28.5867 C37.2937,26.1897 41.1747,26.1897 43.5717,28.5867 Z M52.8089,28.1663 C52.8089,29.7088882 52.2437512,31.1646668 51.2109973,32.2960293 L51.0119,32.5043 L48.1039,35.4123 C45.7069,37.8103 41.8259,37.8103 39.4289,35.4123 C38.7539,34.7383 38.7539,33.6443 39.4289,32.9693 C40.1029,32.2953 41.1969,32.2953 41.8719,32.9693 C42.875275,33.9736333 44.473775,34.0154806 45.5267437,33.0948417 L45.6609,32.9693 L48.5689,30.0613 C49.0749,29.5553 49.3539,28.8823 49.3539,28.1663 C49.3539,25.8053 46.4769,24.5753 44.7799,26.2723 C44.1059,26.9473 43.0119,26.9473 42.3369,26.2723 C41.6629,25.5983 41.6629,24.5043 42.3369,23.8293 C46.1759,19.9913 52.8089,22.7153 52.8089,28.1663 Z M22.9194,14.0315 C23.9134,14.0315 24.7194,14.8375 24.7194,15.8315 C24.7194,16.8255 23.9134,17.6315 22.9194,17.6315 C21.9254,17.6315 21.1194,16.8255 21.1194,15.8315 C21.1194,14.8375 21.9254,14.0315 22.9194,14.0315 Z M28.2021,14.0315 C29.1961,14.0315 30.0021,14.8375 30.0021,15.8315 C30.0021,16.8255 29.1961,17.6315 28.2021,17.6315 C27.2081,17.6315 26.4021,16.8255 26.4021,15.8315 C26.4021,14.8375 27.2081,14.0315 28.2021,14.0315 Z M33.4849,14.0315 C34.4789,14.0315 35.2849,14.8375 35.2849,15.8315 C35.2849,16.8255 34.4789,17.6315 33.4849,17.6315 C32.4909,17.6315 31.6849,16.8255 31.6849,15.8315 C31.6849,14.8375 32.4909,14.0315 33.4849,14.0315 Z"/>
  </g>
</svg>
