<svg xmlns="http://www.w3.org/2000/svg" width="90" height="70" viewBox="0 0 90 70">
  <g fill="none" fill-rule="evenodd">
    <rect width="90" height="70"/>
    <path fill="#FF6161" d="M56.5084075,14.9890455 L56.5084075,14.9890455 C57.9907237,17.2655385 60.720554,18.3966391 63.3789228,17.8351722 C68.0280055,16.8490322 72.1523564,20.9732616 71.1661873,25.6222074 C70.6026621,28.2804979 71.7358378,31.0122894 74.0123978,32.4925203 C77.9958674,35.0834348 77.9958674,40.9165652 74.0123978,43.5074797 C71.7358378,44.9877106 70.6026621,47.7195021 71.1661873,50.3777926 C72.1523564,55.0267384 68.0280055,59.1509678 63.3789228,58.1648278 C60.720554,57.6033609 57.9907237,58.7344615 56.5084075,61.0109545 C53.9174168,64.9963485 48.0841145,64.9963485 45.4931238,61.0109545 C44.0108076,58.7344615 41.2809773,57.6033609 38.6226085,58.1648278 C33.9735259,59.1509678 29.849175,55.0267384 30.8333022,50.3777926 C31.3968274,47.7195021 30.2656936,44.9877106 27.9891335,43.5074797 C24.0036222,40.9165652 24.0036222,35.0834348 27.9891335,32.4925203 C30.2656936,31.0122894 31.3968274,28.2804979 30.8333022,25.6222074 C29.849175,20.9732616 33.9735259,16.8490322 38.6226085,17.8351722 C41.2809773,18.3966391 44.0108076,17.2655385 45.4931238,14.9890455 C48.0841145,11.0036515 53.9174168,11.0036515 56.5084075,14.9890455 Z" opacity=".7"/>
    <path fill="#FFF" fill-opacity=".5" stroke="#1369FA" stroke-linecap="round" stroke-linejoin="round" stroke-width="4.5" d="M45.5084075,8.98904551 L45.5084075,8.98904551 C46.9907237,11.2655385 49.720554,12.3966391 52.3789228,11.8351722 C57.0280055,10.8490322 61.1523564,14.9732616 60.1661873,19.6222074 C59.6026621,22.2804979 60.7358378,25.0122894 63.0123978,26.4925203 C66.9958674,29.0834348 66.9958674,34.9165652 63.0123978,37.5074797 C60.7358378,38.9877106 59.6026621,41.7195021 60.1661873,44.3777926 C61.1523564,49.0267384 57.0280055,53.1509678 52.3789228,52.1648278 C49.720554,51.6033609 46.9907237,52.7344615 45.5084075,55.0109545 C42.9174168,58.9963485 37.0841145,58.9963485 34.4931238,55.0109545 C33.0108076,52.7344615 30.2809773,51.6033609 27.6226085,52.1648278 C22.9735259,53.1509678 18.849175,49.0267384 19.8333022,44.3777926 C20.3968274,41.7195021 19.2656936,38.9877106 16.9891335,37.5074797 C13.0036222,34.9165652 13.0036222,29.0834348 16.9891335,26.4925203 C19.2656936,25.0122894 20.3968274,22.2804979 19.8333022,19.6222074 C18.849175,14.9732616 22.9735259,10.8490322 27.6226085,11.8351722 C30.2809773,12.3966391 33.0108076,11.2655385 34.4931238,8.98904551 C37.0841145,5.0036515 42.9174168,5.0036515 45.5084075,8.98904551 Z"/>
    <polyline stroke="#1369FA" stroke-linecap="round" stroke-linejoin="round" stroke-width="4.5" points="29 23 34.501 41 40.002 23 45.501 41 51 23"/>
    <line x1="26" x2="54" y1="29" y2="29" stroke="#1369FA" stroke-linecap="round" stroke-linejoin="round" stroke-width="4.5"/>
  </g>
</svg>
