<svg xmlns="http://www.w3.org/2000/svg" width="90" height="70" viewBox="0 0 90 70">
  <g fill="none" fill-rule="evenodd">
    <rect width="90" height="70"/>
    <g transform="translate(3 3)">
      <path fill="#FF6161" d="M37.5,48.0431137 C52.6878306,48.0431137 65,38.8552997 65,27.5215568 C65,16.1878139 52.6878306,7 37.5,7 C22.3121694,7 10,16.1878139 10,27.5215568 C10,33.2832508 13.1819126,38.4903587 18.3059659,42.2177149 C18.3059659,42.2177149 17.8728986,45.3880098 17.5726546,48.0431137 C17.2539935,50.861084 16.9890359,52.5058594 17.9873047,52.9863281 C18.9855734,53.4667969 20.4560547,52.2993164 22.25,50.861084 C24.5010303,49.0563997 27.1321183,46.5346275 27.1321183,46.5346275 C30.3317339,47.50722 33.8320032,48.0431137 37.5,48.0431137 Z" opacity=".7"/>
      <path fill="#FFF" fill-opacity=".5" stroke="#1369FA" stroke-width="4.5" d="M27.5,41.0431137 C42.6878306,41.0431137 55,31.8552997 55,20.5215568 C55,9.18781395 42.6878306,0 27.5,0 C12.3121694,0 0,9.18781395 0,20.5215568 C0,26.2832508 3.18191262,31.4903587 8.30596586,35.2177149 C8.30596586,35.2177149 7.76036922,45.641061 8.30596586,45.9872165 C8.8515625,46.3333721 17.1321183,39.5346275 17.1321183,39.5346275 C20.3317339,40.50722 23.8320032,41.0431137 27.5,41.0431137 Z"/>
      <path fill="#1369FA" fill-rule="nonzero" d="M12.9927867,26.9943741 C13.7492696,26.9943741 14.2334186,26.4527954 14.2334186,25.6563562 L14.2334186,17.4689615 L16.684423,17.4689615 C17.4106465,17.4689615 17.9855734,17.0707419 17.9855734,16.2743027 C17.9855734,15.4937923 17.4106465,15.0955727 16.684423,15.0955727 L9.30115048,15.0955727 C8.5597973,15.0955727 8,15.4937923 8,16.2743027 C8,17.0707419 8.5597973,17.4689615 9.30115048,17.4689615 L11.7370252,17.4689615 L11.7370252,25.6563562 C11.7370252,26.4527954 12.2363039,26.9943741 12.9927867,26.9943741 Z M26.249036,26.9306589 C26.9601298,26.707656 27.262723,26.0227183 26.9903891,25.3218518 L23.3592715,16.0512997 C23.1020674,15.3982196 22.6027887,15 21.8311762,15 C21.0595637,15 20.560285,15.3982196 20.3030809,16.0512997 L16.6719632,25.3218518 C16.3996294,26.0227183 16.7022226,26.707656 17.3981868,26.9306589 C18.094151,27.1695907 18.7295966,26.7713711 19.0019304,26.0386471 L19.6676353,24.1590506 L23.9795875,24.1590506 L24.660422,26.0386471 C24.9327558,26.7713711 25.5682014,27.1695907 26.249036,26.9306589 Z M23.1928453,21.9290209 L20.4695071,21.9290209 L21.8009169,18.2176143 L21.8614355,18.2176143 L23.1928453,21.9290209 Z M34.4822392,26.8988014 C35.2235923,26.8988014 35.7985193,26.4368666 35.7985193,25.6882138 C35.7985193,24.9554898 35.2235923,24.4776263 34.4822392,24.4776263 L30.5636581,24.4776263 L30.5636581,16.3380178 C30.5636581,15.5415786 30.0341201,15 29.2776372,15 C28.5211544,15 28.0218757,15.5415786 28.0218757,16.3380178 L28.0218757,25.3218518 C28.0218757,26.3731515 28.5060248,26.8988014 29.5045821,26.8988014 L34.4822392,26.8988014 Z M37.7680446,26.9943741 C38.5245275,26.9943741 39.0540654,26.4527954 39.0540654,25.6563562 L39.0540654,23.3307538 L40.264438,22.0883087 L43.8199073,26.5324393 C44.2435377,27.0262316 45.0302798,27.1855195 45.5749475,26.6917272 C46.1196151,26.1820061 46.1196151,25.4014957 45.6959847,24.939561 L42.0194782,20.2883562 L45.1210578,17.134457 C45.6354661,16.6088071 45.6657254,15.8920119 45.2118357,15.3822908 C44.757946,14.8725697 43.9560742,14.8884985 43.4567955,15.3822908 L39.0540654,19.8264214 L39.0540654,16.3539466 C39.0540654,15.5415786 38.5245275,15 37.7680446,15 C37.0115618,15 36.4971534,15.5415786 36.4971534,16.3539466 L36.4971534,25.6563562 C36.4971534,26.4527954 37.0115618,26.9943741 37.7680446,26.9943741 Z"/>
    </g>
  </g>
</svg>
