<?xml version="1.0" encoding="UTF-8"?>
<svg width="53px" height="47px" viewBox="0 0 53 47" version="1.1" xmlns="http://www.w3.org/2000/svg" xmlns:xlink="http://www.w3.org/1999/xlink">
    <!-- Generator: Sketch 60.1 (88133) - https://sketch.com -->
    <title>img_bg_cash</title>
    <desc>Created with Sketch.</desc>
    <g id="✡️Symbols" stroke="none" stroke-width="1" fill="none" fill-rule="evenodd" stroke-linecap="round" stroke-linejoin="round">
        <g id="img/img_bg_cash" transform="translate(-12.000000, -9.000000)" stroke="#FFFFFF">
            <g id="img_bg_cash" transform="translate(14.000000, 11.000000)">
                <path d="M33.3871032,9 L38.9866005,0.131125828 C39.0218678,0.0749290445 38.9833943,0 38.9192718,0 L11.0804886,0 C11.0179691,0 10.9778926,0.0732261116 11.01316,0.131125828 L15.7822709,9" id="Stroke-1" stroke-width="4"></path>
                <path d="M15.3014194,10.8 C15.3014194,10.8 0,19.407658 0,42.0906022 C0,62.1305737 11.7329066,63.0595563 21.094381,63.8 L27.9025884,63.8 C37.2686087,63.0595563 49,60.4165837 49,40.3766121 C49,17.6936679 33.6985806,10.8 33.6985806,10.8 L15.3014194,10.8 Z" id="Stroke-9" stroke-width="4"></path>
                <path d="M13,24 L18.8816629,41.9425274 C18.9087128,42.0188786 19.0202937,42.0188786 19.0439624,41.9441872 L24.842785,24.570974 C24.8698349,24.4929631 24.9831063,24.4962827 25.0050844,24.5759535 L29.872376,41.9060116 C29.8960447,41.9873423 30.0126974,41.9890021 30.0363661,41.9076715 L36,24.570974" id="Stroke-3" stroke-width="3"></path>
                <line x1="37.5" y1="30.5" x2="11.5" y2="30.5" id="Stroke-5" stroke-width="3"></line>
            </g>
        </g>
    </g>
</svg>