<?xml version="1.0" encoding="UTF-8"?>
<svg width="57px" height="42px" viewBox="0 0 57 42" version="1.1" xmlns="http://www.w3.org/2000/svg" xmlns:xlink="http://www.w3.org/1999/xlink">
    <!-- Generator: Sketch 60.1 (88133) - https://sketch.com -->
    <title>img_bg_lookup</title>
    <desc>Created with Sketch.</desc>
    <g id="✡️Symbols" stroke="none" stroke-width="1" fill="none" fill-rule="evenodd">
        <g id="img/img_bg_lookup">
            <g id="img_bg_lookup" transform="translate(1.000000, 1.000000)">
                <line x1="29" y1="31" x2="16.8518" y2="31.17" id="Stroke-3" stroke="#FFFFFF" stroke-width="2" stroke-linecap="round" stroke-linejoin="round"></line>
                <path d="M24.7148,0.25 L32.0208,0.25 C34.5428,0.25 36.5978,2.301 36.5978,4.834 L36.5978,7" id="Stroke-3" stroke="#FFFFFF" stroke-width="2" stroke-linecap="round" stroke-linejoin="round"></path>
                <path d="M7.6933,31.1699 L4.8273,31.1699 C2.2953,31.1699 0.2503,29.1199 0.2503,26.5909 L0.2503,4.8339 C0.2503,2.3009 2.2953,0.2499 4.8273,0.2499" id="Stroke-7" stroke="#FFFFFF" stroke-width="2" stroke-linecap="round" stroke-linejoin="round"></path>
                <polyline id="Stroke-11" stroke="#FFFFFF" stroke-width="2" stroke-linecap="round" stroke-linejoin="round" points="7.6933 31.1699 7.6933 38.1809 16.8513 31.1699"></polyline>
                <path d="M19.3623218,25.2476425 C18.8923479,25.7263223 18.288813,26 17.5165696,26 C16.7453304,26 16.1407913,25.7263223 15.7049608,25.2476425 C15.2349869,24.7669127 15,24.1847068 15,23.5 C15,22.8152932 15.2349869,22.198237 15.7049608,21.7185322 C16.1407913,21.2398524 16.7453304,21 17.5165696,21 C18.288813,21 18.8923479,21.2398524 19.3623218,21.7185322 C19.7660173,22.198237 20,22.8152932 20,23.5 C20,24.1847068 19.7660173,24.7669127 19.3623218,25.2476425 Z M20.8139076,2.47791563 C21.6803233,2.83791563 22.4016166,3.28456576 23.0373913,3.88129032 C23.6437959,4.47890819 24.1344481,5.19444169 24.4799778,6.03057072 C24.8272351,6.89617866 25,7.85200993 25,8.86769231 C25,9.70292804 24.8557413,10.4184615 24.6242364,11.0759305 C24.3650892,11.7325062 24.0472018,12.3292308 23.6723021,12.8661042 C23.2680323,13.403871 22.8352564,13.8817866 22.3731104,14.3007444 C21.8530882,14.7170223 21.3632998,15.1047146 20.9011538,15.4343424 C20.4683779,15.7327047 20.0926143,16.1498759 19.7462208,16.6867494 C19.3704572,17.253995 19.1976924,17.8212407 19.1976924,18.4197519 L19.1976924,20 L15.4746097,20 L15.4746097,18.4197519 C15.4746097,17.1655583 15.763127,16.0909181 16.3980379,15.1958313 C16.9750725,14.3302233 17.812982,13.5235732 18.8521626,12.8071464 L18.8227926,12.8071464 C19.0819399,12.6588586 19.3704572,12.448933 19.6598383,12.1505707 C19.9483556,11.9120596 20.2083668,11.6136973 20.4683779,11.2536973 C20.6990189,10.9258561 20.8726476,10.568536 21.0454125,10.1495782 C21.1896711,9.76277916 21.2760536,9.34382134 21.2760536,8.86769231 C21.2760536,7.61260546 20.9581662,6.71751861 20.3526254,6.12079404 C19.7177146,5.5839206 18.9376812,5.28377171 17.9572407,5.28377171 C17.5529709,5.28377171 17.1487012,5.37399504 16.7738014,5.55265509 C16.3695317,5.76168734 16.0222743,6.03057072 15.733757,6.35841191 C15.4158697,6.71751861 15.1860924,7.13468983 15.0124638,7.58312655 C14.8103289,8.06104218 14.7239464,8.56933002 14.7239464,9.10441687 L11,9.10441687 C11,8.15037221 11.1727649,7.22580645 11.5770346,6.328933 C11.9234281,5.49280397 12.4434504,4.74779156 13.1068674,4.09032258 C13.7426421,3.46411911 14.4639353,2.95583127 15.3303511,2.56903226 C16.1380268,2.20903226 17.0329487,2 17.9572407,2 C18.9964213,2 19.9483556,2.17955335 20.8139076,2.47791563 Z" id="Fill-13" fill="#FFFFFF"></path>
                <path d="M52.4775,19.8232 C51.7785,19.8232 50.0725,20.3392 50.0305,21.1122 L50.0725,23.9512 L50.0305,20.5102 C50.0305,19.3712 49.2555,17.7192 47.5365,17.7192 C44.9145,17.7192 44.5705,19.7822 44.5705,20.8562 L44.5705,23.9072 L44.5705,21.2862 C44.5705,17.8892 42.7605,17.4192 41.9045,17.4192 C41.0895,17.4192 38.8555,18.1242 38.8555,20.3822 L38.8555,23.6922 L38.8555,9.1672 C38.8555,8.0262 37.3715,7.1022 36.2325,7.1022 C35.0925,7.1022 34.1685,8.0262 34.1685,9.1672 L34.1685,29.7292 L34.1685,27.6352 C34.1685,26.8642 33.6535,25.6702 31.5905,25.6702 C29.5265,25.6702 29.3985,28.1692 29.3985,28.7642 L29.5265,34.3522 C29.5265,34.3522 29.2695,37.5342 32.6235,40.3682 C34.8695,42.2662 35.5875,43.7212 35.4585,45.0102 L51.5785,45.0102 C51.5785,45.0102 51.5315,42.2592 52.3095,40.7992 C53.2105,39.1032 55.0575,35.4692 55.0575,32.6342 C55.0575,29.7982 55.0135,22.7472 55.0135,22.7472 C55.0135,22.7472 55.0575,19.8232 52.4775,19.8232 Z" id="Stroke-17" stroke="#FFFFFF" stroke-width="2" stroke-linecap="round" stroke-linejoin="round"></path>
            </g>
        </g>
    </g>
</svg>