<?xml version="1.0" encoding="UTF-8"?>
<svg width="38px" height="36px" viewBox="0 0 38 36" version="1.1" xmlns="http://www.w3.org/2000/svg" xmlns:xlink="http://www.w3.org/1999/xlink">
    <!-- Generator: Sketch 60.1 (88133) - https://sketch.com -->
    <title>img_store</title>
    <desc>Created with Sketch.</desc>
    <g id="✡️Symbols" stroke="none" stroke-width="1" fill="none" fill-rule="evenodd" stroke-linecap="round" stroke-linejoin="round">
        <g id="img/img_store" stroke="#FFFFFF" stroke-width="1.4025974">
            <g id="img_store" transform="translate(1.000000, 1.000000)">
                <line x1="9.11688312" y1="16.8311688" x2="12.5" y2="0.5" id="Stroke-1"></line>
                <path d="M22.1446615,20.3330724 L22.4477493,20.3330724 C24.4034561,20.3330724 26.043147,18.95681 26.6249033,17.0602533 C27.2073779,18.95681 28.8463506,20.3330724 30.8013391,20.3330724 L30.9500102,20.3330724 C36.3050412,20.3330724 35.7498589,14.9097522 35.7498589,14.9097522 L28.7307176,0 L19.9102863,0 L15.8566657,0 L7.0362344,0 L0.0163748204,14.9097522 C0.0163748204,14.9097522 -0.538807445,20.3330724 4.81622356,20.3330724 L4.96489462,20.3330724 C6.91988314,20.3330724 8.5595741,18.95681 9.14204864,17.0602533 C9.72380495,18.95681 11.3634959,20.3330724 13.3192026,20.3330724 L13.6222905,20.3330724 C15.5557325,20.3330724 17.200451,18.9947557 17.7987263,17.1295773 C17.7987263,17.1295773 19.2962102,20.4782877 22.1446615,20.3330724 Z" id="Stroke-3"></path>
                <line x1="26.6493506" y1="16.8311688" x2="23.5" y2="0.5" id="Stroke-5"></line>
                <line x1="17.8831169" y1="0" x2="17.8831169" y2="17.5324675" id="Stroke-7"></line>
                <path d="M33,21 L33,32.7 C33,33.4176 32.3669358,34 31.5853313,34 L5.41466865,34 C4.63306422,34 4,33.4176 4,32.7 L4,21" id="Stroke-9"></path>
                <polygon id="Stroke-11" points="14 34 22 34 22 24 14 24"></polygon>
            </g>
        </g>
    </g>
</svg>