<svg xmlns="http://www.w3.org/2000/svg" width="20" height="20" viewBox="0 0 20 20">
    <g fill="none" fill-rule="evenodd">
        <path fill="#FFF" d="M11.02 13.189a.886.886 0 0 1-.195.566.74.74 0 0 1-.567.245.706.706 0 0 1-.557-.245.803.803 0 0 1-.216-.566c0-.222.072-.423.216-.578.134-.156.32-.234.557-.234.237 0 .423.078.567.234a.92.92 0 0 1 .196.578M10.485 5c.37 0 .711.067 1.02.178.31.133.568.3.794.522.217.222.392.49.516.8.124.322.185.678.185 1.056 0 .31-.052.577-.134.822a3.284 3.284 0 0 1-.34.666c-.144.2-.299.378-.464.534-.185.156-.36.3-.526.422a1.595 1.595 0 0 0-.412.466 1.177 1.177 0 0 0-.196.645v.589h-1.33v-.59c0-.466.103-.866.33-1.2.206-.321.505-.621.876-.888h-.01c.093-.056.196-.133.3-.244a1.793 1.793 0 0 0 .494-.744 1.4 1.4 0 0 0 .082-.478c0-.467-.113-.8-.33-1.023a1.243 1.243 0 0 0-.855-.31.95.95 0 0 0-.423.1 1.27 1.27 0 0 0-.37.299 1.51 1.51 0 0 0-.259.456 1.492 1.492 0 0 0-.103.567H8c0-.356.062-.7.206-1.034.124-.31.31-.588.547-.833a2.67 2.67 0 0 1 .794-.567c.288-.133.608-.211.938-.211"/>
        <path stroke="#FFF" d="M4.606 19.503c1.728-.016 2.865-.612 3.55-1.457l.176-.218.279.037c.513.07.958.104 1.389.104 5.255 0 9.5-3.92 9.5-8.734C19.5 4.42 15.255.5 10 .5 4.744.5.5 4.42.5 9.235c0 3.424 1.758 6.253 4.803 7.686l.335.158-.053.366c-.096.66-.41 1.302-.87 1.917a7.198 7.198 0 0 1-.109.14z"/>
    </g>
</svg>
